G75*
%MOIN*%
%OFA0B0*%
%FSLAX25Y25*%
%IPPOS*%
%LPD*%
%AMOC8*
5,1,8,0,0,1.08239X$1,22.5*
%
%ADD10C,0.01000*%
%ADD11C,0.00000*%
%ADD12R,0.00800X0.00200*%
%ADD13R,0.00600X0.00200*%
%ADD14R,0.01800X0.00200*%
%ADD15R,0.02400X0.00200*%
%ADD16R,0.01400X0.00200*%
%ADD17R,0.01600X0.00200*%
%ADD18R,0.02200X0.00200*%
%ADD19R,0.02600X0.00200*%
%ADD20R,0.01000X0.00200*%
%ADD21R,0.02800X0.00200*%
%ADD22R,0.01200X0.00200*%
%ADD23R,0.03000X0.00200*%
%ADD24R,0.02000X0.00200*%
%ADD25R,0.00400X0.00200*%
%ADD26C,0.00500*%
%ADD27C,0.00400*%
%ADD28C,0.00600*%
%ADD29C,0.02400*%
D10*
X0009374Y0001500D02*
X0214098Y0001500D01*
X0214288Y0001502D01*
X0214478Y0001509D01*
X0214668Y0001521D01*
X0214858Y0001537D01*
X0215047Y0001557D01*
X0215236Y0001583D01*
X0215424Y0001612D01*
X0215611Y0001647D01*
X0215797Y0001686D01*
X0215982Y0001729D01*
X0216167Y0001777D01*
X0216350Y0001829D01*
X0216531Y0001885D01*
X0216711Y0001946D01*
X0216890Y0002012D01*
X0217067Y0002081D01*
X0217243Y0002155D01*
X0217416Y0002233D01*
X0217588Y0002316D01*
X0217757Y0002402D01*
X0217925Y0002492D01*
X0218090Y0002587D01*
X0218253Y0002685D01*
X0218413Y0002788D01*
X0218571Y0002894D01*
X0218726Y0003004D01*
X0218879Y0003117D01*
X0219029Y0003235D01*
X0219175Y0003356D01*
X0219319Y0003480D01*
X0219460Y0003608D01*
X0219598Y0003739D01*
X0219733Y0003874D01*
X0219864Y0004012D01*
X0219992Y0004153D01*
X0220116Y0004297D01*
X0220237Y0004443D01*
X0220355Y0004593D01*
X0220468Y0004746D01*
X0220578Y0004901D01*
X0220684Y0005059D01*
X0220787Y0005219D01*
X0220885Y0005382D01*
X0220980Y0005547D01*
X0221070Y0005715D01*
X0221156Y0005884D01*
X0221239Y0006056D01*
X0221317Y0006229D01*
X0221391Y0006405D01*
X0221460Y0006582D01*
X0221526Y0006761D01*
X0221587Y0006941D01*
X0221643Y0007122D01*
X0221695Y0007305D01*
X0221743Y0007490D01*
X0221786Y0007675D01*
X0221825Y0007861D01*
X0221860Y0008048D01*
X0221889Y0008236D01*
X0221915Y0008425D01*
X0221935Y0008614D01*
X0221951Y0008804D01*
X0221963Y0008994D01*
X0221970Y0009184D01*
X0221972Y0009374D01*
X0221972Y0162917D01*
X0221970Y0163107D01*
X0221963Y0163297D01*
X0221951Y0163487D01*
X0221935Y0163677D01*
X0221915Y0163866D01*
X0221889Y0164055D01*
X0221860Y0164243D01*
X0221825Y0164430D01*
X0221786Y0164616D01*
X0221743Y0164801D01*
X0221695Y0164986D01*
X0221643Y0165169D01*
X0221587Y0165350D01*
X0221526Y0165530D01*
X0221460Y0165709D01*
X0221391Y0165886D01*
X0221317Y0166062D01*
X0221239Y0166235D01*
X0221156Y0166407D01*
X0221070Y0166576D01*
X0220980Y0166744D01*
X0220885Y0166909D01*
X0220787Y0167072D01*
X0220684Y0167232D01*
X0220578Y0167390D01*
X0220468Y0167545D01*
X0220355Y0167698D01*
X0220237Y0167848D01*
X0220116Y0167994D01*
X0219992Y0168138D01*
X0219864Y0168279D01*
X0219733Y0168417D01*
X0219598Y0168552D01*
X0219460Y0168683D01*
X0219319Y0168811D01*
X0219175Y0168935D01*
X0219029Y0169056D01*
X0218879Y0169174D01*
X0218726Y0169287D01*
X0218571Y0169397D01*
X0218413Y0169503D01*
X0218253Y0169606D01*
X0218090Y0169704D01*
X0217925Y0169799D01*
X0217757Y0169889D01*
X0217588Y0169975D01*
X0217416Y0170058D01*
X0217243Y0170136D01*
X0217067Y0170210D01*
X0216890Y0170279D01*
X0216711Y0170345D01*
X0216531Y0170406D01*
X0216350Y0170462D01*
X0216167Y0170514D01*
X0215982Y0170562D01*
X0215797Y0170605D01*
X0215611Y0170644D01*
X0215424Y0170679D01*
X0215236Y0170708D01*
X0215047Y0170734D01*
X0214858Y0170754D01*
X0214668Y0170770D01*
X0214478Y0170782D01*
X0214288Y0170789D01*
X0214098Y0170791D01*
X0009374Y0170791D01*
X0009184Y0170789D01*
X0008994Y0170782D01*
X0008804Y0170770D01*
X0008614Y0170754D01*
X0008425Y0170734D01*
X0008236Y0170708D01*
X0008048Y0170679D01*
X0007861Y0170644D01*
X0007675Y0170605D01*
X0007490Y0170562D01*
X0007305Y0170514D01*
X0007122Y0170462D01*
X0006941Y0170406D01*
X0006761Y0170345D01*
X0006582Y0170279D01*
X0006405Y0170210D01*
X0006229Y0170136D01*
X0006056Y0170058D01*
X0005884Y0169975D01*
X0005715Y0169889D01*
X0005547Y0169799D01*
X0005382Y0169704D01*
X0005219Y0169606D01*
X0005059Y0169503D01*
X0004901Y0169397D01*
X0004746Y0169287D01*
X0004593Y0169174D01*
X0004443Y0169056D01*
X0004297Y0168935D01*
X0004153Y0168811D01*
X0004012Y0168683D01*
X0003874Y0168552D01*
X0003739Y0168417D01*
X0003608Y0168279D01*
X0003480Y0168138D01*
X0003356Y0167994D01*
X0003235Y0167848D01*
X0003117Y0167698D01*
X0003004Y0167545D01*
X0002894Y0167390D01*
X0002788Y0167232D01*
X0002685Y0167072D01*
X0002587Y0166909D01*
X0002492Y0166744D01*
X0002402Y0166576D01*
X0002316Y0166407D01*
X0002233Y0166235D01*
X0002155Y0166062D01*
X0002081Y0165886D01*
X0002012Y0165709D01*
X0001946Y0165530D01*
X0001885Y0165350D01*
X0001829Y0165169D01*
X0001777Y0164986D01*
X0001729Y0164801D01*
X0001686Y0164616D01*
X0001647Y0164430D01*
X0001612Y0164243D01*
X0001583Y0164055D01*
X0001557Y0163866D01*
X0001537Y0163677D01*
X0001521Y0163487D01*
X0001509Y0163297D01*
X0001502Y0163107D01*
X0001500Y0162917D01*
X0001500Y0009374D01*
X0001502Y0009184D01*
X0001509Y0008994D01*
X0001521Y0008804D01*
X0001537Y0008614D01*
X0001557Y0008425D01*
X0001583Y0008236D01*
X0001612Y0008048D01*
X0001647Y0007861D01*
X0001686Y0007675D01*
X0001729Y0007490D01*
X0001777Y0007305D01*
X0001829Y0007122D01*
X0001885Y0006941D01*
X0001946Y0006761D01*
X0002012Y0006582D01*
X0002081Y0006405D01*
X0002155Y0006229D01*
X0002233Y0006056D01*
X0002316Y0005884D01*
X0002402Y0005715D01*
X0002492Y0005547D01*
X0002587Y0005382D01*
X0002685Y0005219D01*
X0002788Y0005059D01*
X0002894Y0004901D01*
X0003004Y0004746D01*
X0003117Y0004593D01*
X0003235Y0004443D01*
X0003356Y0004297D01*
X0003480Y0004153D01*
X0003608Y0004012D01*
X0003739Y0003874D01*
X0003874Y0003739D01*
X0004012Y0003608D01*
X0004153Y0003480D01*
X0004297Y0003356D01*
X0004443Y0003235D01*
X0004593Y0003117D01*
X0004746Y0003004D01*
X0004901Y0002894D01*
X0005059Y0002788D01*
X0005219Y0002685D01*
X0005382Y0002587D01*
X0005547Y0002492D01*
X0005715Y0002402D01*
X0005884Y0002316D01*
X0006056Y0002233D01*
X0006229Y0002155D01*
X0006405Y0002081D01*
X0006582Y0002012D01*
X0006761Y0001946D01*
X0006941Y0001885D01*
X0007122Y0001829D01*
X0007305Y0001777D01*
X0007490Y0001729D01*
X0007675Y0001686D01*
X0007861Y0001647D01*
X0008048Y0001612D01*
X0008236Y0001583D01*
X0008425Y0001557D01*
X0008614Y0001537D01*
X0008804Y0001521D01*
X0008994Y0001509D01*
X0009184Y0001502D01*
X0009374Y0001500D01*
D11*
X0204059Y0013311D02*
X0204061Y0013467D01*
X0204067Y0013623D01*
X0204077Y0013778D01*
X0204091Y0013933D01*
X0204109Y0014088D01*
X0204131Y0014242D01*
X0204156Y0014396D01*
X0204186Y0014549D01*
X0204220Y0014701D01*
X0204257Y0014853D01*
X0204298Y0015003D01*
X0204343Y0015152D01*
X0204392Y0015300D01*
X0204445Y0015447D01*
X0204501Y0015592D01*
X0204561Y0015736D01*
X0204625Y0015878D01*
X0204693Y0016019D01*
X0204764Y0016157D01*
X0204838Y0016294D01*
X0204916Y0016429D01*
X0204997Y0016562D01*
X0205082Y0016693D01*
X0205170Y0016822D01*
X0205261Y0016948D01*
X0205356Y0017072D01*
X0205453Y0017193D01*
X0205554Y0017312D01*
X0205658Y0017429D01*
X0205764Y0017542D01*
X0205874Y0017653D01*
X0205986Y0017761D01*
X0206101Y0017866D01*
X0206219Y0017969D01*
X0206339Y0018068D01*
X0206462Y0018164D01*
X0206587Y0018257D01*
X0206714Y0018346D01*
X0206844Y0018433D01*
X0206976Y0018516D01*
X0207110Y0018595D01*
X0207246Y0018672D01*
X0207384Y0018744D01*
X0207523Y0018814D01*
X0207665Y0018879D01*
X0207808Y0018941D01*
X0207952Y0018999D01*
X0208098Y0019054D01*
X0208246Y0019105D01*
X0208394Y0019152D01*
X0208544Y0019195D01*
X0208695Y0019234D01*
X0208847Y0019270D01*
X0208999Y0019301D01*
X0209153Y0019329D01*
X0209307Y0019353D01*
X0209461Y0019373D01*
X0209616Y0019389D01*
X0209772Y0019401D01*
X0209927Y0019409D01*
X0210083Y0019413D01*
X0210239Y0019413D01*
X0210395Y0019409D01*
X0210550Y0019401D01*
X0210706Y0019389D01*
X0210861Y0019373D01*
X0211015Y0019353D01*
X0211169Y0019329D01*
X0211323Y0019301D01*
X0211475Y0019270D01*
X0211627Y0019234D01*
X0211778Y0019195D01*
X0211928Y0019152D01*
X0212076Y0019105D01*
X0212224Y0019054D01*
X0212370Y0018999D01*
X0212514Y0018941D01*
X0212657Y0018879D01*
X0212799Y0018814D01*
X0212938Y0018744D01*
X0213076Y0018672D01*
X0213212Y0018595D01*
X0213346Y0018516D01*
X0213478Y0018433D01*
X0213608Y0018346D01*
X0213735Y0018257D01*
X0213860Y0018164D01*
X0213983Y0018068D01*
X0214103Y0017969D01*
X0214221Y0017866D01*
X0214336Y0017761D01*
X0214448Y0017653D01*
X0214558Y0017542D01*
X0214664Y0017429D01*
X0214768Y0017312D01*
X0214869Y0017193D01*
X0214966Y0017072D01*
X0215061Y0016948D01*
X0215152Y0016822D01*
X0215240Y0016693D01*
X0215325Y0016562D01*
X0215406Y0016429D01*
X0215484Y0016294D01*
X0215558Y0016157D01*
X0215629Y0016019D01*
X0215697Y0015878D01*
X0215761Y0015736D01*
X0215821Y0015592D01*
X0215877Y0015447D01*
X0215930Y0015300D01*
X0215979Y0015152D01*
X0216024Y0015003D01*
X0216065Y0014853D01*
X0216102Y0014701D01*
X0216136Y0014549D01*
X0216166Y0014396D01*
X0216191Y0014242D01*
X0216213Y0014088D01*
X0216231Y0013933D01*
X0216245Y0013778D01*
X0216255Y0013623D01*
X0216261Y0013467D01*
X0216263Y0013311D01*
X0216261Y0013155D01*
X0216255Y0012999D01*
X0216245Y0012844D01*
X0216231Y0012689D01*
X0216213Y0012534D01*
X0216191Y0012380D01*
X0216166Y0012226D01*
X0216136Y0012073D01*
X0216102Y0011921D01*
X0216065Y0011769D01*
X0216024Y0011619D01*
X0215979Y0011470D01*
X0215930Y0011322D01*
X0215877Y0011175D01*
X0215821Y0011030D01*
X0215761Y0010886D01*
X0215697Y0010744D01*
X0215629Y0010603D01*
X0215558Y0010465D01*
X0215484Y0010328D01*
X0215406Y0010193D01*
X0215325Y0010060D01*
X0215240Y0009929D01*
X0215152Y0009800D01*
X0215061Y0009674D01*
X0214966Y0009550D01*
X0214869Y0009429D01*
X0214768Y0009310D01*
X0214664Y0009193D01*
X0214558Y0009080D01*
X0214448Y0008969D01*
X0214336Y0008861D01*
X0214221Y0008756D01*
X0214103Y0008653D01*
X0213983Y0008554D01*
X0213860Y0008458D01*
X0213735Y0008365D01*
X0213608Y0008276D01*
X0213478Y0008189D01*
X0213346Y0008106D01*
X0213212Y0008027D01*
X0213076Y0007950D01*
X0212938Y0007878D01*
X0212799Y0007808D01*
X0212657Y0007743D01*
X0212514Y0007681D01*
X0212370Y0007623D01*
X0212224Y0007568D01*
X0212076Y0007517D01*
X0211928Y0007470D01*
X0211778Y0007427D01*
X0211627Y0007388D01*
X0211475Y0007352D01*
X0211323Y0007321D01*
X0211169Y0007293D01*
X0211015Y0007269D01*
X0210861Y0007249D01*
X0210706Y0007233D01*
X0210550Y0007221D01*
X0210395Y0007213D01*
X0210239Y0007209D01*
X0210083Y0007209D01*
X0209927Y0007213D01*
X0209772Y0007221D01*
X0209616Y0007233D01*
X0209461Y0007249D01*
X0209307Y0007269D01*
X0209153Y0007293D01*
X0208999Y0007321D01*
X0208847Y0007352D01*
X0208695Y0007388D01*
X0208544Y0007427D01*
X0208394Y0007470D01*
X0208246Y0007517D01*
X0208098Y0007568D01*
X0207952Y0007623D01*
X0207808Y0007681D01*
X0207665Y0007743D01*
X0207523Y0007808D01*
X0207384Y0007878D01*
X0207246Y0007950D01*
X0207110Y0008027D01*
X0206976Y0008106D01*
X0206844Y0008189D01*
X0206714Y0008276D01*
X0206587Y0008365D01*
X0206462Y0008458D01*
X0206339Y0008554D01*
X0206219Y0008653D01*
X0206101Y0008756D01*
X0205986Y0008861D01*
X0205874Y0008969D01*
X0205764Y0009080D01*
X0205658Y0009193D01*
X0205554Y0009310D01*
X0205453Y0009429D01*
X0205356Y0009550D01*
X0205261Y0009674D01*
X0205170Y0009800D01*
X0205082Y0009929D01*
X0204997Y0010060D01*
X0204916Y0010193D01*
X0204838Y0010328D01*
X0204764Y0010465D01*
X0204693Y0010603D01*
X0204625Y0010744D01*
X0204561Y0010886D01*
X0204501Y0011030D01*
X0204445Y0011175D01*
X0204392Y0011322D01*
X0204343Y0011470D01*
X0204298Y0011619D01*
X0204257Y0011769D01*
X0204220Y0011921D01*
X0204186Y0012073D01*
X0204156Y0012226D01*
X0204131Y0012380D01*
X0204109Y0012534D01*
X0204091Y0012689D01*
X0204077Y0012844D01*
X0204067Y0012999D01*
X0204061Y0013155D01*
X0204059Y0013311D01*
X0007209Y0158980D02*
X0007211Y0159136D01*
X0007217Y0159292D01*
X0007227Y0159447D01*
X0007241Y0159602D01*
X0007259Y0159757D01*
X0007281Y0159911D01*
X0007306Y0160065D01*
X0007336Y0160218D01*
X0007370Y0160370D01*
X0007407Y0160522D01*
X0007448Y0160672D01*
X0007493Y0160821D01*
X0007542Y0160969D01*
X0007595Y0161116D01*
X0007651Y0161261D01*
X0007711Y0161405D01*
X0007775Y0161547D01*
X0007843Y0161688D01*
X0007914Y0161826D01*
X0007988Y0161963D01*
X0008066Y0162098D01*
X0008147Y0162231D01*
X0008232Y0162362D01*
X0008320Y0162491D01*
X0008411Y0162617D01*
X0008506Y0162741D01*
X0008603Y0162862D01*
X0008704Y0162981D01*
X0008808Y0163098D01*
X0008914Y0163211D01*
X0009024Y0163322D01*
X0009136Y0163430D01*
X0009251Y0163535D01*
X0009369Y0163638D01*
X0009489Y0163737D01*
X0009612Y0163833D01*
X0009737Y0163926D01*
X0009864Y0164015D01*
X0009994Y0164102D01*
X0010126Y0164185D01*
X0010260Y0164264D01*
X0010396Y0164341D01*
X0010534Y0164413D01*
X0010673Y0164483D01*
X0010815Y0164548D01*
X0010958Y0164610D01*
X0011102Y0164668D01*
X0011248Y0164723D01*
X0011396Y0164774D01*
X0011544Y0164821D01*
X0011694Y0164864D01*
X0011845Y0164903D01*
X0011997Y0164939D01*
X0012149Y0164970D01*
X0012303Y0164998D01*
X0012457Y0165022D01*
X0012611Y0165042D01*
X0012766Y0165058D01*
X0012922Y0165070D01*
X0013077Y0165078D01*
X0013233Y0165082D01*
X0013389Y0165082D01*
X0013545Y0165078D01*
X0013700Y0165070D01*
X0013856Y0165058D01*
X0014011Y0165042D01*
X0014165Y0165022D01*
X0014319Y0164998D01*
X0014473Y0164970D01*
X0014625Y0164939D01*
X0014777Y0164903D01*
X0014928Y0164864D01*
X0015078Y0164821D01*
X0015226Y0164774D01*
X0015374Y0164723D01*
X0015520Y0164668D01*
X0015664Y0164610D01*
X0015807Y0164548D01*
X0015949Y0164483D01*
X0016088Y0164413D01*
X0016226Y0164341D01*
X0016362Y0164264D01*
X0016496Y0164185D01*
X0016628Y0164102D01*
X0016758Y0164015D01*
X0016885Y0163926D01*
X0017010Y0163833D01*
X0017133Y0163737D01*
X0017253Y0163638D01*
X0017371Y0163535D01*
X0017486Y0163430D01*
X0017598Y0163322D01*
X0017708Y0163211D01*
X0017814Y0163098D01*
X0017918Y0162981D01*
X0018019Y0162862D01*
X0018116Y0162741D01*
X0018211Y0162617D01*
X0018302Y0162491D01*
X0018390Y0162362D01*
X0018475Y0162231D01*
X0018556Y0162098D01*
X0018634Y0161963D01*
X0018708Y0161826D01*
X0018779Y0161688D01*
X0018847Y0161547D01*
X0018911Y0161405D01*
X0018971Y0161261D01*
X0019027Y0161116D01*
X0019080Y0160969D01*
X0019129Y0160821D01*
X0019174Y0160672D01*
X0019215Y0160522D01*
X0019252Y0160370D01*
X0019286Y0160218D01*
X0019316Y0160065D01*
X0019341Y0159911D01*
X0019363Y0159757D01*
X0019381Y0159602D01*
X0019395Y0159447D01*
X0019405Y0159292D01*
X0019411Y0159136D01*
X0019413Y0158980D01*
X0019411Y0158824D01*
X0019405Y0158668D01*
X0019395Y0158513D01*
X0019381Y0158358D01*
X0019363Y0158203D01*
X0019341Y0158049D01*
X0019316Y0157895D01*
X0019286Y0157742D01*
X0019252Y0157590D01*
X0019215Y0157438D01*
X0019174Y0157288D01*
X0019129Y0157139D01*
X0019080Y0156991D01*
X0019027Y0156844D01*
X0018971Y0156699D01*
X0018911Y0156555D01*
X0018847Y0156413D01*
X0018779Y0156272D01*
X0018708Y0156134D01*
X0018634Y0155997D01*
X0018556Y0155862D01*
X0018475Y0155729D01*
X0018390Y0155598D01*
X0018302Y0155469D01*
X0018211Y0155343D01*
X0018116Y0155219D01*
X0018019Y0155098D01*
X0017918Y0154979D01*
X0017814Y0154862D01*
X0017708Y0154749D01*
X0017598Y0154638D01*
X0017486Y0154530D01*
X0017371Y0154425D01*
X0017253Y0154322D01*
X0017133Y0154223D01*
X0017010Y0154127D01*
X0016885Y0154034D01*
X0016758Y0153945D01*
X0016628Y0153858D01*
X0016496Y0153775D01*
X0016362Y0153696D01*
X0016226Y0153619D01*
X0016088Y0153547D01*
X0015949Y0153477D01*
X0015807Y0153412D01*
X0015664Y0153350D01*
X0015520Y0153292D01*
X0015374Y0153237D01*
X0015226Y0153186D01*
X0015078Y0153139D01*
X0014928Y0153096D01*
X0014777Y0153057D01*
X0014625Y0153021D01*
X0014473Y0152990D01*
X0014319Y0152962D01*
X0014165Y0152938D01*
X0014011Y0152918D01*
X0013856Y0152902D01*
X0013700Y0152890D01*
X0013545Y0152882D01*
X0013389Y0152878D01*
X0013233Y0152878D01*
X0013077Y0152882D01*
X0012922Y0152890D01*
X0012766Y0152902D01*
X0012611Y0152918D01*
X0012457Y0152938D01*
X0012303Y0152962D01*
X0012149Y0152990D01*
X0011997Y0153021D01*
X0011845Y0153057D01*
X0011694Y0153096D01*
X0011544Y0153139D01*
X0011396Y0153186D01*
X0011248Y0153237D01*
X0011102Y0153292D01*
X0010958Y0153350D01*
X0010815Y0153412D01*
X0010673Y0153477D01*
X0010534Y0153547D01*
X0010396Y0153619D01*
X0010260Y0153696D01*
X0010126Y0153775D01*
X0009994Y0153858D01*
X0009864Y0153945D01*
X0009737Y0154034D01*
X0009612Y0154127D01*
X0009489Y0154223D01*
X0009369Y0154322D01*
X0009251Y0154425D01*
X0009136Y0154530D01*
X0009024Y0154638D01*
X0008914Y0154749D01*
X0008808Y0154862D01*
X0008704Y0154979D01*
X0008603Y0155098D01*
X0008506Y0155219D01*
X0008411Y0155343D01*
X0008320Y0155469D01*
X0008232Y0155598D01*
X0008147Y0155729D01*
X0008066Y0155862D01*
X0007988Y0155997D01*
X0007914Y0156134D01*
X0007843Y0156272D01*
X0007775Y0156413D01*
X0007711Y0156555D01*
X0007651Y0156699D01*
X0007595Y0156844D01*
X0007542Y0156991D01*
X0007493Y0157139D01*
X0007448Y0157288D01*
X0007407Y0157438D01*
X0007370Y0157590D01*
X0007336Y0157742D01*
X0007306Y0157895D01*
X0007281Y0158049D01*
X0007259Y0158203D01*
X0007241Y0158358D01*
X0007227Y0158513D01*
X0007217Y0158668D01*
X0007211Y0158824D01*
X0007209Y0158980D01*
D12*
X0013814Y0149554D03*
X0013814Y0149354D03*
X0013814Y0149154D03*
X0013814Y0148954D03*
X0013814Y0148754D03*
X0013814Y0148554D03*
X0013814Y0148354D03*
X0013814Y0148154D03*
X0013814Y0147954D03*
X0013814Y0147754D03*
X0013814Y0147554D03*
X0013814Y0147354D03*
X0013814Y0147154D03*
X0013814Y0146954D03*
X0013814Y0146754D03*
X0013814Y0146554D03*
X0013814Y0146354D03*
X0013814Y0146154D03*
X0013814Y0145954D03*
X0013814Y0145754D03*
X0013814Y0145554D03*
X0015414Y0146354D03*
X0015414Y0147354D03*
X0015414Y0147554D03*
X0017214Y0147754D03*
X0017414Y0147554D03*
X0018614Y0147154D03*
X0018614Y0146954D03*
X0018614Y0146754D03*
X0018814Y0146554D03*
X0018814Y0146354D03*
X0018814Y0147354D03*
X0018814Y0147554D03*
X0020814Y0147554D03*
X0020814Y0147354D03*
X0020814Y0146754D03*
X0020814Y0146554D03*
X0020814Y0146354D03*
X0022414Y0147554D03*
X0022414Y0147754D03*
X0023214Y0148554D03*
X0024014Y0147754D03*
X0024214Y0146354D03*
X0024014Y0146154D03*
X0027014Y0147354D03*
X0027014Y0147554D03*
X0029014Y0147554D03*
X0029014Y0147354D03*
X0029014Y0147154D03*
X0029014Y0146954D03*
X0029014Y0146754D03*
X0029014Y0146554D03*
X0029014Y0146354D03*
X0029014Y0146154D03*
X0029014Y0145954D03*
X0029014Y0145754D03*
X0029014Y0145554D03*
X0030414Y0146554D03*
X0030614Y0146354D03*
X0030414Y0147354D03*
X0030614Y0147754D03*
X0032414Y0147554D03*
X0034014Y0147554D03*
X0034014Y0147354D03*
X0034014Y0147154D03*
X0034014Y0146954D03*
X0034014Y0146754D03*
X0034014Y0146554D03*
X0034014Y0146354D03*
X0034014Y0146154D03*
X0034014Y0145954D03*
X0034014Y0145754D03*
X0034014Y0145554D03*
X0036214Y0146554D03*
X0036414Y0146354D03*
X0036414Y0147554D03*
X0036414Y0147754D03*
X0038214Y0147754D03*
X0038214Y0147554D03*
X0034014Y0148354D03*
X0034814Y0143154D03*
X0034814Y0142954D03*
X0034814Y0142754D03*
X0034814Y0142554D03*
X0034814Y0142354D03*
X0034814Y0142154D03*
X0034814Y0141154D03*
X0034814Y0140954D03*
X0034814Y0140754D03*
X0034814Y0140554D03*
X0034814Y0140354D03*
X0036214Y0139954D03*
X0036214Y0141354D03*
X0038014Y0140154D03*
X0038014Y0139954D03*
X0041014Y0139954D03*
X0041014Y0140154D03*
X0041014Y0140354D03*
X0041014Y0140554D03*
X0041014Y0140754D03*
X0041014Y0140954D03*
X0041014Y0141154D03*
X0041014Y0141354D03*
X0041014Y0142354D03*
X0041014Y0142554D03*
X0041014Y0142754D03*
X0041014Y0142954D03*
X0041014Y0143154D03*
X0043214Y0143154D03*
X0043214Y0142954D03*
X0043214Y0142754D03*
X0043214Y0142554D03*
X0043214Y0142354D03*
X0043214Y0142154D03*
X0043214Y0140954D03*
X0043214Y0140754D03*
X0043214Y0140554D03*
X0043214Y0140354D03*
X0043214Y0140154D03*
X0043214Y0139954D03*
X0043214Y0139754D03*
X0043214Y0139554D03*
X0043214Y0139354D03*
X0041814Y0139154D03*
X0045414Y0139354D03*
X0045414Y0139554D03*
X0045414Y0139754D03*
X0045414Y0139954D03*
X0045414Y0140154D03*
X0045414Y0140354D03*
X0045414Y0140554D03*
X0045414Y0140754D03*
X0045414Y0140954D03*
X0045414Y0141154D03*
X0046814Y0141154D03*
X0047014Y0141354D03*
X0046814Y0140154D03*
X0047014Y0139954D03*
X0048814Y0139954D03*
X0048814Y0141154D03*
X0048814Y0141354D03*
X0050414Y0141154D03*
X0050414Y0140954D03*
X0050414Y0140754D03*
X0050414Y0140554D03*
X0050414Y0140354D03*
X0050414Y0140154D03*
X0050414Y0139954D03*
X0050414Y0139754D03*
X0050414Y0139554D03*
X0050414Y0139354D03*
X0052614Y0140154D03*
X0052814Y0139954D03*
X0052614Y0141154D03*
X0052814Y0141354D03*
X0054614Y0141354D03*
X0054614Y0141154D03*
X0054614Y0139954D03*
X0058414Y0135154D03*
X0058414Y0134354D03*
X0058414Y0134154D03*
X0058414Y0133954D03*
X0058414Y0133754D03*
X0058414Y0133554D03*
X0058414Y0133354D03*
X0058414Y0133154D03*
X0058414Y0132954D03*
X0058414Y0132754D03*
X0058414Y0132554D03*
X0058414Y0132354D03*
X0056814Y0132954D03*
X0056814Y0134154D03*
X0056814Y0134354D03*
X0055014Y0134354D03*
X0054814Y0134154D03*
X0054814Y0133354D03*
X0055014Y0132954D03*
X0053414Y0132954D03*
X0053414Y0133154D03*
X0053414Y0133354D03*
X0053414Y0133554D03*
X0053414Y0133754D03*
X0053414Y0133954D03*
X0053414Y0134154D03*
X0053414Y0132754D03*
X0053414Y0132554D03*
X0053414Y0132354D03*
X0051414Y0134154D03*
X0051414Y0134354D03*
X0049814Y0134554D03*
X0049814Y0134754D03*
X0049814Y0134954D03*
X0049614Y0134354D03*
X0049614Y0134154D03*
X0049614Y0133954D03*
X0049014Y0132554D03*
X0049014Y0132354D03*
X0047014Y0132354D03*
X0046614Y0133754D03*
X0046614Y0133954D03*
X0046414Y0134154D03*
X0046414Y0134354D03*
X0046414Y0134554D03*
X0046214Y0134754D03*
X0046214Y0134954D03*
X0046214Y0135154D03*
X0045014Y0135154D03*
X0045014Y0134954D03*
X0044814Y0134754D03*
X0044814Y0134554D03*
X0044814Y0134354D03*
X0044614Y0134154D03*
X0044614Y0133954D03*
X0044414Y0133754D03*
X0044414Y0133554D03*
X0043414Y0133554D03*
X0043214Y0133754D03*
X0043214Y0133954D03*
X0043014Y0134154D03*
X0043014Y0134354D03*
X0042814Y0134754D03*
X0042814Y0134954D03*
X0042614Y0135154D03*
X0040414Y0135154D03*
X0040414Y0134154D03*
X0040414Y0133954D03*
X0040414Y0133754D03*
X0040414Y0133554D03*
X0040414Y0133354D03*
X0040414Y0133154D03*
X0040414Y0132954D03*
X0040414Y0132754D03*
X0040414Y0132554D03*
X0040414Y0132354D03*
X0038814Y0132954D03*
X0039014Y0134154D03*
X0038814Y0134354D03*
X0037014Y0134354D03*
X0037014Y0133354D03*
X0037014Y0133154D03*
X0035414Y0133954D03*
X0035414Y0134154D03*
X0035414Y0134354D03*
X0035614Y0134554D03*
X0035614Y0134754D03*
X0035814Y0134954D03*
X0035814Y0135154D03*
X0035214Y0133754D03*
X0035214Y0133554D03*
X0034014Y0133754D03*
X0034014Y0133954D03*
X0033814Y0134154D03*
X0033814Y0134354D03*
X0033614Y0134554D03*
X0033614Y0134754D03*
X0033414Y0135154D03*
X0032414Y0134154D03*
X0032214Y0134354D03*
X0032214Y0132954D03*
X0030414Y0132954D03*
X0030214Y0133354D03*
X0030414Y0134354D03*
X0027614Y0134354D03*
X0027614Y0134154D03*
X0027414Y0132954D03*
X0026614Y0132154D03*
X0025614Y0133154D03*
X0025614Y0133354D03*
X0025614Y0134154D03*
X0025614Y0134354D03*
X0025814Y0134554D03*
X0023214Y0134154D03*
X0023214Y0133954D03*
X0023214Y0133754D03*
X0023214Y0133554D03*
X0023214Y0133354D03*
X0023214Y0133154D03*
X0023214Y0132954D03*
X0023214Y0132754D03*
X0023214Y0132554D03*
X0023214Y0132354D03*
X0021614Y0132354D03*
X0021614Y0133154D03*
X0021614Y0133354D03*
X0021614Y0134154D03*
X0021614Y0134354D03*
X0023214Y0135154D03*
X0019814Y0133354D03*
X0019614Y0133154D03*
X0019614Y0132954D03*
X0017014Y0132954D03*
X0017014Y0133154D03*
X0016214Y0132154D03*
X0015414Y0134354D03*
X0015414Y0134554D03*
X0013814Y0134154D03*
X0013814Y0133954D03*
X0013814Y0133754D03*
X0013814Y0133554D03*
X0013814Y0133354D03*
X0013814Y0133154D03*
X0013814Y0135154D03*
X0013814Y0135354D03*
X0013814Y0135554D03*
X0013814Y0135754D03*
X0013814Y0135954D03*
X0013814Y0136154D03*
X0011814Y0134354D03*
X0011614Y0134154D03*
X0011614Y0133954D03*
X0011614Y0133754D03*
X0011614Y0133554D03*
X0011614Y0133354D03*
X0011814Y0133154D03*
X0010214Y0132954D03*
X0010214Y0134354D03*
X0008414Y0134354D03*
X0008214Y0134154D03*
X0008214Y0133354D03*
X0008414Y0132954D03*
X0006814Y0132954D03*
X0006814Y0133154D03*
X0006814Y0133354D03*
X0006814Y0133554D03*
X0006814Y0133754D03*
X0006814Y0133954D03*
X0006814Y0134154D03*
X0006814Y0134354D03*
X0006814Y0134554D03*
X0006814Y0134754D03*
X0006814Y0134954D03*
X0006814Y0135154D03*
X0006814Y0135354D03*
X0006814Y0135554D03*
X0006814Y0135754D03*
X0006814Y0135954D03*
X0006814Y0136154D03*
X0006814Y0132754D03*
X0006814Y0132554D03*
X0006814Y0132354D03*
X0027814Y0139554D03*
X0027814Y0139754D03*
X0027814Y0139954D03*
X0027814Y0140154D03*
X0027814Y0140354D03*
X0027814Y0140554D03*
X0027814Y0140754D03*
X0027814Y0140954D03*
X0027814Y0141154D03*
X0027814Y0141354D03*
X0027814Y0141554D03*
X0027814Y0141754D03*
X0027814Y0141954D03*
X0027814Y0142154D03*
X0027814Y0142354D03*
X0027814Y0142554D03*
X0027814Y0142754D03*
X0027814Y0142954D03*
X0029214Y0141154D03*
X0029214Y0140154D03*
X0031214Y0141154D03*
X0031214Y0141354D03*
X0032614Y0141154D03*
X0032614Y0140954D03*
X0032614Y0140754D03*
X0032614Y0140554D03*
X0032614Y0140354D03*
X0032614Y0140154D03*
X0034614Y0132354D03*
X0043414Y0131354D03*
X0043414Y0131154D03*
X0043614Y0131554D03*
X0043614Y0131754D03*
X0043614Y0131954D03*
X0043814Y0132154D03*
X0043814Y0132354D03*
X0048014Y0134954D03*
X0048014Y0135154D03*
X0060614Y0134154D03*
X0060814Y0134354D03*
X0060614Y0133354D03*
X0060814Y0132954D03*
X0062614Y0132954D03*
X0062814Y0134154D03*
X0062614Y0134354D03*
X0064214Y0134354D03*
X0064214Y0134554D03*
X0064214Y0134754D03*
X0064214Y0134954D03*
X0064214Y0135154D03*
X0064214Y0135354D03*
X0064214Y0135554D03*
X0064214Y0135754D03*
X0064214Y0135954D03*
X0064214Y0136154D03*
X0064214Y0134154D03*
X0064214Y0133954D03*
X0064214Y0133754D03*
X0064214Y0133554D03*
X0064214Y0132954D03*
X0064214Y0132754D03*
X0064214Y0132554D03*
X0064214Y0132354D03*
X0020814Y0148554D03*
X0020814Y0148754D03*
X0020814Y0148954D03*
X0020814Y0149154D03*
X0020814Y0149354D03*
D13*
X0020914Y0149554D03*
X0020914Y0147154D03*
X0020914Y0146954D03*
X0020914Y0145554D03*
X0022314Y0146354D03*
X0016314Y0148554D03*
X0015314Y0146554D03*
X0013914Y0136354D03*
X0010314Y0134154D03*
X0008314Y0133154D03*
X0009314Y0132154D03*
X0012514Y0132154D03*
X0020314Y0132154D03*
X0030314Y0133154D03*
X0030314Y0134154D03*
X0031314Y0132154D03*
X0036914Y0134154D03*
X0037914Y0132154D03*
X0043314Y0139154D03*
X0037914Y0141354D03*
X0031114Y0139954D03*
X0027714Y0139354D03*
X0027714Y0139154D03*
X0027714Y0143154D03*
X0026914Y0145554D03*
X0026914Y0145754D03*
X0026914Y0145954D03*
X0026914Y0146154D03*
X0026914Y0146354D03*
X0026914Y0146554D03*
X0026914Y0146754D03*
X0026914Y0146954D03*
X0026914Y0147154D03*
X0026914Y0148354D03*
X0026914Y0148554D03*
X0026914Y0148754D03*
X0026914Y0148954D03*
X0026914Y0149154D03*
X0026914Y0149354D03*
X0026914Y0149554D03*
X0028114Y0148554D03*
X0030514Y0147554D03*
X0031514Y0148554D03*
X0037314Y0148554D03*
X0050314Y0142154D03*
X0051514Y0142154D03*
X0050314Y0139154D03*
X0051314Y0136354D03*
X0051314Y0136154D03*
X0051314Y0135954D03*
X0051314Y0135754D03*
X0051314Y0135554D03*
X0051314Y0135354D03*
X0051314Y0135154D03*
X0051314Y0133954D03*
X0051314Y0133754D03*
X0051314Y0133554D03*
X0051314Y0133354D03*
X0051314Y0133154D03*
X0051314Y0132954D03*
X0051314Y0132754D03*
X0051314Y0132554D03*
X0051314Y0132354D03*
X0049514Y0133754D03*
X0049914Y0135154D03*
X0054914Y0133154D03*
X0055914Y0132154D03*
X0060714Y0133154D03*
X0061714Y0132154D03*
D14*
X0061714Y0132354D03*
X0061714Y0134954D03*
X0058914Y0134554D03*
X0055914Y0134954D03*
X0055914Y0132354D03*
X0053714Y0139354D03*
X0053714Y0141954D03*
X0050914Y0141554D03*
X0047914Y0141954D03*
X0047914Y0139354D03*
X0047114Y0133554D03*
X0040914Y0134554D03*
X0037914Y0134954D03*
X0037114Y0139354D03*
X0037114Y0141954D03*
X0030314Y0141954D03*
X0030314Y0139354D03*
X0031314Y0134954D03*
X0031314Y0132354D03*
X0023714Y0134554D03*
X0021114Y0133954D03*
X0016114Y0132354D03*
X0009314Y0132354D03*
X0009314Y0134954D03*
X0023514Y0146754D03*
D15*
X0023214Y0145954D03*
X0023214Y0147954D03*
X0020014Y0148354D03*
X0016414Y0147954D03*
X0016414Y0145954D03*
X0020014Y0145754D03*
X0030214Y0141554D03*
X0034014Y0139354D03*
X0031414Y0132754D03*
X0026614Y0132754D03*
X0026614Y0134754D03*
X0020814Y0133754D03*
X0016214Y0134754D03*
X0016214Y0132754D03*
X0013014Y0132354D03*
X0031614Y0145954D03*
X0031414Y0147954D03*
X0037414Y0145954D03*
X0038014Y0132754D03*
X0052214Y0134954D03*
X0061814Y0132754D03*
D16*
X0061714Y0135154D03*
X0055914Y0135154D03*
X0048114Y0134154D03*
X0047114Y0133354D03*
X0047114Y0133154D03*
X0043914Y0132954D03*
X0037914Y0135154D03*
X0041514Y0139554D03*
X0043514Y0141554D03*
X0037114Y0142154D03*
X0036714Y0140954D03*
X0037314Y0145554D03*
X0037314Y0148354D03*
X0031514Y0145554D03*
X0031314Y0135154D03*
X0026514Y0135154D03*
X0020714Y0135154D03*
X0020314Y0132354D03*
X0016714Y0133354D03*
X0009314Y0135154D03*
X0016314Y0145554D03*
D17*
X0016414Y0148354D03*
X0023214Y0148354D03*
X0023214Y0145554D03*
X0028214Y0148354D03*
X0031414Y0148354D03*
X0037614Y0140354D03*
X0041414Y0139754D03*
X0043814Y0133354D03*
X0043814Y0133154D03*
X0048014Y0133754D03*
X0048014Y0133954D03*
X0049014Y0133554D03*
X0049014Y0133354D03*
X0038014Y0132354D03*
X0034614Y0133154D03*
X0034614Y0133354D03*
X0026614Y0132354D03*
X0016214Y0135154D03*
X0015814Y0133954D03*
D18*
X0016114Y0132554D03*
X0020714Y0134754D03*
X0026714Y0132554D03*
X0031314Y0132554D03*
X0031314Y0134754D03*
X0030314Y0139554D03*
X0030314Y0141754D03*
X0031514Y0148154D03*
X0037314Y0148154D03*
X0037314Y0147954D03*
X0037114Y0141754D03*
X0037114Y0139554D03*
X0041114Y0141554D03*
X0041114Y0141754D03*
X0041114Y0141954D03*
X0041114Y0142154D03*
X0047914Y0141754D03*
X0047914Y0139554D03*
X0053714Y0139554D03*
X0053714Y0141754D03*
X0055914Y0134754D03*
X0055914Y0132554D03*
X0061714Y0132554D03*
X0061714Y0134754D03*
X0037914Y0134754D03*
X0037914Y0132554D03*
X0009314Y0132554D03*
X0009314Y0134754D03*
D19*
X0009314Y0132754D03*
X0012914Y0132554D03*
X0012914Y0134754D03*
X0012914Y0134954D03*
X0020714Y0133554D03*
X0020714Y0132754D03*
X0020714Y0132554D03*
X0030314Y0139754D03*
X0033914Y0139554D03*
X0037114Y0139754D03*
X0037114Y0141554D03*
X0033914Y0141954D03*
X0027914Y0147954D03*
X0027914Y0148154D03*
X0019914Y0148154D03*
X0019914Y0147954D03*
X0019914Y0145954D03*
X0044114Y0141954D03*
X0047914Y0139754D03*
X0053714Y0139754D03*
X0052314Y0134754D03*
X0055914Y0132754D03*
D20*
X0055114Y0134554D03*
X0056714Y0134554D03*
X0059514Y0135154D03*
X0060914Y0134554D03*
X0062514Y0134554D03*
X0053714Y0139154D03*
X0053714Y0142154D03*
X0050514Y0141354D03*
X0048514Y0141554D03*
X0045314Y0141354D03*
X0044514Y0142154D03*
X0043314Y0141354D03*
X0043314Y0141154D03*
X0047914Y0139154D03*
X0048114Y0134754D03*
X0047114Y0132754D03*
X0047114Y0132554D03*
X0043914Y0132554D03*
X0040514Y0134354D03*
X0041514Y0135154D03*
X0042914Y0134554D03*
X0038714Y0134554D03*
X0037114Y0134554D03*
X0037114Y0132954D03*
X0034714Y0132554D03*
X0034114Y0133554D03*
X0033514Y0134954D03*
X0032114Y0134554D03*
X0030514Y0134554D03*
X0027314Y0134554D03*
X0025714Y0132954D03*
X0024314Y0135154D03*
X0023314Y0134354D03*
X0021514Y0134554D03*
X0021514Y0132954D03*
X0016914Y0134554D03*
X0015514Y0134154D03*
X0015314Y0132954D03*
X0013714Y0132954D03*
X0013714Y0134354D03*
X0011914Y0134554D03*
X0011914Y0132954D03*
X0010114Y0134554D03*
X0008514Y0134554D03*
X0015514Y0146154D03*
X0015514Y0147754D03*
X0017314Y0147354D03*
X0017114Y0146154D03*
X0018914Y0147754D03*
X0020714Y0147754D03*
X0022514Y0146154D03*
X0023914Y0146554D03*
X0027114Y0147754D03*
X0028914Y0147754D03*
X0030714Y0146154D03*
X0032314Y0146154D03*
X0032514Y0147354D03*
X0032314Y0147754D03*
X0034114Y0147754D03*
X0035114Y0148354D03*
X0036314Y0147354D03*
X0036514Y0146154D03*
X0038114Y0146154D03*
X0038314Y0147354D03*
X0034714Y0141354D03*
X0034714Y0140154D03*
X0034714Y0139954D03*
X0033514Y0139154D03*
X0032714Y0139954D03*
X0032714Y0141354D03*
X0033514Y0142154D03*
X0029314Y0141354D03*
X0029314Y0139954D03*
X0030314Y0139154D03*
X0036314Y0141154D03*
X0037114Y0139154D03*
X0051514Y0134554D03*
X0053114Y0134554D03*
X0053314Y0134354D03*
D21*
X0053614Y0140354D03*
X0047814Y0140354D03*
X0047814Y0140954D03*
X0044214Y0141754D03*
X0033814Y0141754D03*
X0033814Y0141554D03*
X0033814Y0139754D03*
X0030214Y0140354D03*
X0030214Y0140554D03*
X0030214Y0140754D03*
X0030214Y0140954D03*
X0031414Y0146754D03*
X0026614Y0133954D03*
X0026614Y0133754D03*
X0026614Y0133554D03*
X0038014Y0133954D03*
X0012814Y0132754D03*
D22*
X0013614Y0134554D03*
X0012614Y0135154D03*
X0020014Y0134554D03*
X0030214Y0142154D03*
X0022614Y0147354D03*
X0020614Y0146154D03*
X0019614Y0145554D03*
X0019014Y0146154D03*
X0034614Y0132954D03*
X0034614Y0132754D03*
X0041614Y0139354D03*
X0045014Y0141554D03*
X0047214Y0141554D03*
X0047814Y0142154D03*
X0053014Y0141554D03*
X0054414Y0141554D03*
X0052614Y0135154D03*
X0049014Y0133154D03*
X0049014Y0132954D03*
X0049014Y0132754D03*
X0048014Y0134354D03*
X0048014Y0134554D03*
X0047014Y0132954D03*
X0043814Y0132754D03*
D23*
X0037914Y0133554D03*
X0037914Y0133754D03*
X0031314Y0133754D03*
X0031314Y0133954D03*
X0031314Y0133554D03*
X0047914Y0140554D03*
X0047914Y0140754D03*
X0053714Y0140754D03*
X0053714Y0140954D03*
X0053714Y0140554D03*
X0055914Y0133954D03*
X0055914Y0133754D03*
X0055914Y0133554D03*
X0061714Y0133554D03*
X0061714Y0133754D03*
X0061714Y0133954D03*
X0037314Y0146754D03*
X0037314Y0146954D03*
X0037314Y0147154D03*
X0031514Y0147154D03*
X0031514Y0146954D03*
X0016314Y0146954D03*
X0016314Y0147154D03*
X0016314Y0146754D03*
X0009314Y0133954D03*
X0009314Y0133754D03*
X0009314Y0133554D03*
D24*
X0016214Y0133754D03*
X0016414Y0133554D03*
X0016214Y0134954D03*
X0020814Y0134954D03*
X0023814Y0134954D03*
X0023814Y0134754D03*
X0026614Y0134954D03*
X0037014Y0140754D03*
X0037214Y0140554D03*
X0037414Y0145754D03*
X0034614Y0147954D03*
X0034614Y0148154D03*
X0031614Y0145754D03*
X0023214Y0145754D03*
X0023214Y0146954D03*
X0023014Y0147154D03*
X0023214Y0148154D03*
X0016414Y0148154D03*
X0016414Y0145754D03*
X0041014Y0134954D03*
X0041014Y0134754D03*
X0051014Y0141754D03*
X0051014Y0141954D03*
X0059014Y0134954D03*
X0059014Y0134754D03*
D25*
X0045414Y0139154D03*
X0034814Y0139154D03*
X0019614Y0148554D03*
X0006814Y0136354D03*
D26*
X0012917Y0112524D02*
X0075909Y0112524D01*
X0075909Y0083783D01*
X0096860Y0082990D02*
X0097811Y0082990D01*
X0098128Y0083307D01*
X0098128Y0084575D01*
X0097811Y0084892D01*
X0096860Y0084892D01*
X0096860Y0082990D01*
X0099070Y0083941D02*
X0100021Y0084892D01*
X0100021Y0082990D01*
X0100338Y0083941D02*
X0099070Y0083941D01*
X0101280Y0084258D02*
X0101914Y0084892D01*
X0101914Y0082990D01*
X0101280Y0082990D02*
X0102548Y0082990D01*
X0106175Y0082115D02*
X0106175Y0078365D01*
X0112608Y0082990D02*
X0113559Y0082990D01*
X0113876Y0083307D01*
X0113876Y0084575D01*
X0113559Y0084892D01*
X0112608Y0084892D01*
X0112608Y0082990D01*
X0114818Y0083941D02*
X0115769Y0084892D01*
X0115769Y0082990D01*
X0116086Y0083941D02*
X0114818Y0083941D01*
X0117028Y0084575D02*
X0117345Y0084892D01*
X0117979Y0084892D01*
X0118296Y0084575D01*
X0118296Y0084258D01*
X0117028Y0082990D01*
X0118296Y0082990D01*
X0121923Y0082115D02*
X0121923Y0078365D01*
X0128356Y0082990D02*
X0129307Y0082990D01*
X0129624Y0083307D01*
X0129624Y0084575D01*
X0129307Y0084892D01*
X0128356Y0084892D01*
X0128356Y0082990D01*
X0130566Y0083941D02*
X0131517Y0084892D01*
X0131517Y0082990D01*
X0131834Y0083941D02*
X0130566Y0083941D01*
X0132776Y0084575D02*
X0133093Y0084892D01*
X0133727Y0084892D01*
X0134044Y0084575D01*
X0134044Y0084258D01*
X0133727Y0083941D01*
X0134044Y0083624D01*
X0134044Y0083307D01*
X0133727Y0082990D01*
X0133093Y0082990D01*
X0132776Y0083307D01*
X0133410Y0083941D02*
X0133727Y0083941D01*
X0137671Y0082115D02*
X0137671Y0078365D01*
X0144104Y0082990D02*
X0145055Y0082990D01*
X0145372Y0083307D01*
X0145372Y0084575D01*
X0145055Y0084892D01*
X0144104Y0084892D01*
X0144104Y0082990D01*
X0146314Y0083941D02*
X0147265Y0084892D01*
X0147265Y0082990D01*
X0147582Y0083941D02*
X0146314Y0083941D01*
X0148524Y0083941D02*
X0149475Y0084892D01*
X0149475Y0082990D01*
X0149792Y0083941D02*
X0148524Y0083941D01*
X0153419Y0082115D02*
X0153419Y0078365D01*
X0159852Y0082990D02*
X0160803Y0082990D01*
X0161120Y0083307D01*
X0161120Y0084575D01*
X0160803Y0084892D01*
X0159852Y0084892D01*
X0159852Y0082990D01*
X0162062Y0083941D02*
X0163013Y0084892D01*
X0163013Y0082990D01*
X0163330Y0083941D02*
X0162062Y0083941D01*
X0164272Y0083941D02*
X0164272Y0084892D01*
X0165540Y0084892D01*
X0165223Y0084258D02*
X0165540Y0083941D01*
X0165540Y0083307D01*
X0165223Y0082990D01*
X0164589Y0082990D01*
X0164272Y0083307D01*
X0164272Y0083941D02*
X0164906Y0084258D01*
X0165223Y0084258D01*
X0169167Y0082115D02*
X0169167Y0078365D01*
X0175601Y0082990D02*
X0176551Y0082990D01*
X0176868Y0083307D01*
X0176868Y0084575D01*
X0176551Y0084892D01*
X0175601Y0084892D01*
X0175601Y0082990D01*
X0177810Y0083941D02*
X0178761Y0084892D01*
X0178761Y0082990D01*
X0179078Y0083941D02*
X0177810Y0083941D01*
X0180020Y0083941D02*
X0180654Y0084575D01*
X0181288Y0084892D01*
X0180971Y0083941D02*
X0180020Y0083941D01*
X0180020Y0083307D01*
X0180337Y0082990D01*
X0180971Y0082990D01*
X0181288Y0083307D01*
X0181288Y0083624D01*
X0180971Y0083941D01*
X0184915Y0082115D02*
X0184915Y0078365D01*
X0191349Y0082990D02*
X0192299Y0082990D01*
X0192616Y0083307D01*
X0192616Y0084575D01*
X0192299Y0084892D01*
X0191349Y0084892D01*
X0191349Y0082990D01*
X0193558Y0083941D02*
X0194826Y0083941D01*
X0194509Y0082990D02*
X0194509Y0084892D01*
X0193558Y0083941D01*
X0195768Y0083307D02*
X0195768Y0082990D01*
X0195768Y0083307D02*
X0197036Y0084575D01*
X0197036Y0084892D01*
X0195768Y0084892D01*
X0200663Y0082115D02*
X0200663Y0078365D01*
X0207097Y0082990D02*
X0208047Y0082990D01*
X0208364Y0083307D01*
X0208364Y0084575D01*
X0208047Y0084892D01*
X0207097Y0084892D01*
X0207097Y0082990D01*
X0209306Y0083941D02*
X0210574Y0083941D01*
X0211516Y0084258D02*
X0211516Y0084575D01*
X0211833Y0084892D01*
X0212467Y0084892D01*
X0212784Y0084575D01*
X0212784Y0084258D01*
X0212467Y0083941D01*
X0211833Y0083941D01*
X0211516Y0084258D01*
X0211833Y0083941D02*
X0211516Y0083624D01*
X0211516Y0083307D01*
X0211833Y0082990D01*
X0212467Y0082990D01*
X0212784Y0083307D01*
X0212784Y0083624D01*
X0212467Y0083941D01*
X0210257Y0084892D02*
X0209306Y0083941D01*
X0210257Y0082990D02*
X0210257Y0084892D01*
X0216411Y0082115D02*
X0216411Y0078365D01*
X0212784Y0069144D02*
X0212150Y0068827D01*
X0211516Y0068193D01*
X0212467Y0068193D01*
X0212784Y0067876D01*
X0212784Y0067559D01*
X0212467Y0067242D01*
X0211833Y0067242D01*
X0211516Y0067559D01*
X0211516Y0068193D01*
X0210574Y0068193D02*
X0210574Y0067559D01*
X0210257Y0067242D01*
X0209623Y0067242D01*
X0209306Y0067559D01*
X0209306Y0068193D02*
X0209940Y0068510D01*
X0210257Y0068510D01*
X0210574Y0068193D01*
X0210574Y0069144D02*
X0209306Y0069144D01*
X0209306Y0068193D01*
X0208364Y0068827D02*
X0208047Y0069144D01*
X0207097Y0069144D01*
X0207097Y0067242D01*
X0208047Y0067242D01*
X0208364Y0067559D01*
X0208364Y0068827D01*
X0216411Y0066367D02*
X0216411Y0062617D01*
X0212467Y0053396D02*
X0211516Y0052445D01*
X0212784Y0052445D01*
X0212467Y0051494D02*
X0212467Y0053396D01*
X0210574Y0053396D02*
X0209940Y0053079D01*
X0209306Y0052445D01*
X0210257Y0052445D01*
X0210574Y0052128D01*
X0210574Y0051811D01*
X0210257Y0051494D01*
X0209623Y0051494D01*
X0209306Y0051811D01*
X0209306Y0052445D01*
X0208364Y0053079D02*
X0208047Y0053396D01*
X0207097Y0053396D01*
X0207097Y0051494D01*
X0208047Y0051494D01*
X0208364Y0051811D01*
X0208364Y0053079D01*
X0216411Y0050619D02*
X0216411Y0046869D01*
X0212917Y0036539D02*
X0212917Y0034965D01*
X0212917Y0036539D02*
X0188508Y0036539D01*
X0188508Y0034965D01*
X0188508Y0023154D02*
X0188508Y0021579D01*
X0212917Y0021579D01*
X0212917Y0023154D01*
X0200663Y0046869D02*
X0200663Y0050619D01*
X0197036Y0051811D02*
X0196719Y0051494D01*
X0196085Y0051494D01*
X0195768Y0051811D01*
X0196402Y0052445D02*
X0196719Y0052445D01*
X0197036Y0052128D01*
X0197036Y0051811D01*
X0196719Y0052445D02*
X0197036Y0052762D01*
X0197036Y0053079D01*
X0196719Y0053396D01*
X0196085Y0053396D01*
X0195768Y0053079D01*
X0194826Y0053396D02*
X0194192Y0053079D01*
X0193558Y0052445D01*
X0194509Y0052445D01*
X0194826Y0052128D01*
X0194826Y0051811D01*
X0194509Y0051494D01*
X0193875Y0051494D01*
X0193558Y0051811D01*
X0193558Y0052445D01*
X0192616Y0053079D02*
X0192299Y0053396D01*
X0191349Y0053396D01*
X0191349Y0051494D01*
X0192299Y0051494D01*
X0192616Y0051811D01*
X0192616Y0053079D01*
X0184915Y0050619D02*
X0184915Y0046869D01*
X0181288Y0051494D02*
X0180020Y0051494D01*
X0181288Y0052762D01*
X0181288Y0053079D01*
X0180971Y0053396D01*
X0180337Y0053396D01*
X0180020Y0053079D01*
X0179078Y0053396D02*
X0178444Y0053079D01*
X0177810Y0052445D01*
X0178761Y0052445D01*
X0179078Y0052128D01*
X0179078Y0051811D01*
X0178761Y0051494D01*
X0178127Y0051494D01*
X0177810Y0051811D01*
X0177810Y0052445D01*
X0176868Y0053079D02*
X0176551Y0053396D01*
X0175601Y0053396D01*
X0175601Y0051494D01*
X0176551Y0051494D01*
X0176868Y0051811D01*
X0176868Y0053079D01*
X0169167Y0050619D02*
X0169167Y0046869D01*
X0165540Y0051494D02*
X0164272Y0051494D01*
X0164906Y0051494D02*
X0164906Y0053396D01*
X0164272Y0052762D01*
X0163330Y0053396D02*
X0162696Y0053079D01*
X0162062Y0052445D01*
X0163013Y0052445D01*
X0163330Y0052128D01*
X0163330Y0051811D01*
X0163013Y0051494D01*
X0162379Y0051494D01*
X0162062Y0051811D01*
X0162062Y0052445D01*
X0161120Y0053079D02*
X0160803Y0053396D01*
X0159852Y0053396D01*
X0159852Y0051494D01*
X0160803Y0051494D01*
X0161120Y0051811D01*
X0161120Y0053079D01*
X0153419Y0050619D02*
X0153419Y0046869D01*
X0149475Y0051494D02*
X0148841Y0051494D01*
X0148524Y0051811D01*
X0149792Y0053079D01*
X0149792Y0051811D01*
X0149475Y0051494D01*
X0148524Y0051811D02*
X0148524Y0053079D01*
X0148841Y0053396D01*
X0149475Y0053396D01*
X0149792Y0053079D01*
X0147582Y0053396D02*
X0146948Y0053079D01*
X0146314Y0052445D01*
X0147265Y0052445D01*
X0147582Y0052128D01*
X0147582Y0051811D01*
X0147265Y0051494D01*
X0146631Y0051494D01*
X0146314Y0051811D01*
X0146314Y0052445D01*
X0145372Y0053079D02*
X0145055Y0053396D01*
X0144104Y0053396D01*
X0144104Y0051494D01*
X0145055Y0051494D01*
X0145372Y0051811D01*
X0145372Y0053079D01*
X0137671Y0050619D02*
X0137671Y0046869D01*
X0133727Y0051494D02*
X0134044Y0051811D01*
X0134044Y0053079D01*
X0133727Y0053396D01*
X0133093Y0053396D01*
X0132776Y0053079D01*
X0132776Y0052762D01*
X0133093Y0052445D01*
X0134044Y0052445D01*
X0133727Y0051494D02*
X0133093Y0051494D01*
X0132776Y0051811D01*
X0131834Y0051811D02*
X0131517Y0051494D01*
X0130883Y0051494D01*
X0130566Y0051811D01*
X0130566Y0052445D02*
X0131200Y0052762D01*
X0131517Y0052762D01*
X0131834Y0052445D01*
X0131834Y0051811D01*
X0130566Y0052445D02*
X0130566Y0053396D01*
X0131834Y0053396D01*
X0129624Y0053079D02*
X0129307Y0053396D01*
X0128356Y0053396D01*
X0128356Y0051494D01*
X0129307Y0051494D01*
X0129624Y0051811D01*
X0129624Y0053079D01*
X0121923Y0050619D02*
X0121923Y0046869D01*
X0117979Y0051494D02*
X0117345Y0051494D01*
X0117028Y0051811D01*
X0117028Y0052128D01*
X0117345Y0052445D01*
X0117979Y0052445D01*
X0118296Y0052128D01*
X0118296Y0051811D01*
X0117979Y0051494D01*
X0117979Y0052445D02*
X0118296Y0052762D01*
X0118296Y0053079D01*
X0117979Y0053396D01*
X0117345Y0053396D01*
X0117028Y0053079D01*
X0117028Y0052762D01*
X0117345Y0052445D01*
X0116086Y0052445D02*
X0116086Y0051811D01*
X0115769Y0051494D01*
X0115135Y0051494D01*
X0114818Y0051811D01*
X0114818Y0052445D02*
X0115452Y0052762D01*
X0115769Y0052762D01*
X0116086Y0052445D01*
X0116086Y0053396D02*
X0114818Y0053396D01*
X0114818Y0052445D01*
X0113876Y0053079D02*
X0113559Y0053396D01*
X0112608Y0053396D01*
X0112608Y0051494D01*
X0113559Y0051494D01*
X0113876Y0051811D01*
X0113876Y0053079D01*
X0106175Y0050619D02*
X0106175Y0046869D01*
X0101280Y0051494D02*
X0101280Y0051811D01*
X0102548Y0053079D01*
X0102548Y0053396D01*
X0101280Y0053396D01*
X0100338Y0053396D02*
X0099070Y0053396D01*
X0099070Y0052445D01*
X0099704Y0052762D01*
X0100021Y0052762D01*
X0100338Y0052445D01*
X0100338Y0051811D01*
X0100021Y0051494D01*
X0099387Y0051494D01*
X0099070Y0051811D01*
X0098128Y0051811D02*
X0097811Y0051494D01*
X0096860Y0051494D01*
X0096860Y0053396D01*
X0097811Y0053396D01*
X0098128Y0053079D01*
X0098128Y0051811D01*
X0106175Y0062617D02*
X0106175Y0066367D01*
X0102548Y0067559D02*
X0102548Y0068827D01*
X0102231Y0069144D01*
X0101597Y0069144D01*
X0101280Y0068827D01*
X0101280Y0068510D01*
X0101597Y0068193D01*
X0102548Y0068193D01*
X0102548Y0067559D02*
X0102231Y0067242D01*
X0101597Y0067242D01*
X0101280Y0067559D01*
X0100338Y0068193D02*
X0099070Y0068193D01*
X0100021Y0069144D01*
X0100021Y0067242D01*
X0098128Y0067559D02*
X0098128Y0068827D01*
X0097811Y0069144D01*
X0096860Y0069144D01*
X0096860Y0067242D01*
X0097811Y0067242D01*
X0098128Y0067559D01*
X0112608Y0067242D02*
X0113559Y0067242D01*
X0113876Y0067559D01*
X0113876Y0068827D01*
X0113559Y0069144D01*
X0112608Y0069144D01*
X0112608Y0067242D01*
X0114818Y0067559D02*
X0115135Y0067242D01*
X0115769Y0067242D01*
X0116086Y0067559D01*
X0116086Y0068193D01*
X0115769Y0068510D01*
X0115452Y0068510D01*
X0114818Y0068193D01*
X0114818Y0069144D01*
X0116086Y0069144D01*
X0117028Y0068827D02*
X0117345Y0069144D01*
X0117979Y0069144D01*
X0118296Y0068827D01*
X0117028Y0067559D01*
X0117345Y0067242D01*
X0117979Y0067242D01*
X0118296Y0067559D01*
X0118296Y0068827D01*
X0117028Y0068827D02*
X0117028Y0067559D01*
X0121923Y0066367D02*
X0121923Y0062617D01*
X0128356Y0067242D02*
X0129307Y0067242D01*
X0129624Y0067559D01*
X0129624Y0068827D01*
X0129307Y0069144D01*
X0128356Y0069144D01*
X0128356Y0067242D01*
X0130566Y0067559D02*
X0130883Y0067242D01*
X0131517Y0067242D01*
X0131834Y0067559D01*
X0131834Y0068193D01*
X0131517Y0068510D01*
X0131200Y0068510D01*
X0130566Y0068193D01*
X0130566Y0069144D01*
X0131834Y0069144D01*
X0132776Y0068510D02*
X0133410Y0069144D01*
X0133410Y0067242D01*
X0132776Y0067242D02*
X0134044Y0067242D01*
X0137671Y0066367D02*
X0137671Y0062617D01*
X0144104Y0067242D02*
X0145055Y0067242D01*
X0145372Y0067559D01*
X0145372Y0068827D01*
X0145055Y0069144D01*
X0144104Y0069144D01*
X0144104Y0067242D01*
X0146314Y0067559D02*
X0146631Y0067242D01*
X0147265Y0067242D01*
X0147582Y0067559D01*
X0147582Y0068193D01*
X0147265Y0068510D01*
X0146948Y0068510D01*
X0146314Y0068193D01*
X0146314Y0069144D01*
X0147582Y0069144D01*
X0148524Y0068827D02*
X0148841Y0069144D01*
X0149475Y0069144D01*
X0149792Y0068827D01*
X0149792Y0068510D01*
X0148524Y0067242D01*
X0149792Y0067242D01*
X0153419Y0066367D02*
X0153419Y0062617D01*
X0159852Y0067242D02*
X0160803Y0067242D01*
X0161120Y0067559D01*
X0161120Y0068827D01*
X0160803Y0069144D01*
X0159852Y0069144D01*
X0159852Y0067242D01*
X0162062Y0067559D02*
X0162379Y0067242D01*
X0163013Y0067242D01*
X0163330Y0067559D01*
X0163330Y0068193D01*
X0163013Y0068510D01*
X0162696Y0068510D01*
X0162062Y0068193D01*
X0162062Y0069144D01*
X0163330Y0069144D01*
X0164272Y0068827D02*
X0164589Y0069144D01*
X0165223Y0069144D01*
X0165540Y0068827D01*
X0165540Y0068510D01*
X0165223Y0068193D01*
X0165540Y0067876D01*
X0165540Y0067559D01*
X0165223Y0067242D01*
X0164589Y0067242D01*
X0164272Y0067559D01*
X0164906Y0068193D02*
X0165223Y0068193D01*
X0169167Y0066367D02*
X0169167Y0062617D01*
X0175601Y0067242D02*
X0176551Y0067242D01*
X0176868Y0067559D01*
X0176868Y0068827D01*
X0176551Y0069144D01*
X0175601Y0069144D01*
X0175601Y0067242D01*
X0177810Y0067559D02*
X0178127Y0067242D01*
X0178761Y0067242D01*
X0179078Y0067559D01*
X0179078Y0068193D01*
X0178761Y0068510D01*
X0178444Y0068510D01*
X0177810Y0068193D01*
X0177810Y0069144D01*
X0179078Y0069144D01*
X0180020Y0068193D02*
X0180971Y0069144D01*
X0180971Y0067242D01*
X0181288Y0068193D02*
X0180020Y0068193D01*
X0184915Y0066367D02*
X0184915Y0062617D01*
X0191349Y0067242D02*
X0192299Y0067242D01*
X0192616Y0067559D01*
X0192616Y0068827D01*
X0192299Y0069144D01*
X0191349Y0069144D01*
X0191349Y0067242D01*
X0193558Y0067559D02*
X0193875Y0067242D01*
X0194509Y0067242D01*
X0194826Y0067559D01*
X0194826Y0068193D01*
X0194509Y0068510D01*
X0194192Y0068510D01*
X0193558Y0068193D01*
X0193558Y0069144D01*
X0194826Y0069144D01*
X0195768Y0069144D02*
X0195768Y0068193D01*
X0196402Y0068510D01*
X0196719Y0068510D01*
X0197036Y0068193D01*
X0197036Y0067559D01*
X0196719Y0067242D01*
X0196085Y0067242D01*
X0195768Y0067559D01*
X0195768Y0069144D02*
X0197036Y0069144D01*
X0200663Y0066367D02*
X0200663Y0062617D01*
X0200663Y0094113D02*
X0200663Y0097863D01*
X0197036Y0099055D02*
X0197036Y0100323D01*
X0196719Y0100640D01*
X0196085Y0100640D01*
X0195768Y0100323D01*
X0195768Y0100006D01*
X0196085Y0099689D01*
X0197036Y0099689D01*
X0197036Y0099055D02*
X0196719Y0098738D01*
X0196085Y0098738D01*
X0195768Y0099055D01*
X0194826Y0099055D02*
X0194509Y0098738D01*
X0193875Y0098738D01*
X0193558Y0099055D01*
X0194192Y0099689D02*
X0194509Y0099689D01*
X0194826Y0099372D01*
X0194826Y0099055D01*
X0194509Y0099689D02*
X0194826Y0100006D01*
X0194826Y0100323D01*
X0194509Y0100640D01*
X0193875Y0100640D01*
X0193558Y0100323D01*
X0192616Y0100323D02*
X0192299Y0100640D01*
X0191349Y0100640D01*
X0191349Y0098738D01*
X0192299Y0098738D01*
X0192616Y0099055D01*
X0192616Y0100323D01*
X0184915Y0097863D02*
X0184915Y0094113D01*
X0180971Y0098738D02*
X0180337Y0098738D01*
X0180020Y0099055D01*
X0180020Y0099372D01*
X0180337Y0099689D01*
X0180971Y0099689D01*
X0181288Y0099372D01*
X0181288Y0099055D01*
X0180971Y0098738D01*
X0180971Y0099689D02*
X0181288Y0100006D01*
X0181288Y0100323D01*
X0180971Y0100640D01*
X0180337Y0100640D01*
X0180020Y0100323D01*
X0180020Y0100006D01*
X0180337Y0099689D01*
X0179078Y0100006D02*
X0178761Y0099689D01*
X0179078Y0099372D01*
X0179078Y0099055D01*
X0178761Y0098738D01*
X0178127Y0098738D01*
X0177810Y0099055D01*
X0178444Y0099689D02*
X0178761Y0099689D01*
X0179078Y0100006D02*
X0179078Y0100323D01*
X0178761Y0100640D01*
X0178127Y0100640D01*
X0177810Y0100323D01*
X0176868Y0100323D02*
X0176551Y0100640D01*
X0175601Y0100640D01*
X0175601Y0098738D01*
X0176551Y0098738D01*
X0176868Y0099055D01*
X0176868Y0100323D01*
X0169167Y0097863D02*
X0169167Y0094113D01*
X0164272Y0098738D02*
X0164272Y0099055D01*
X0165540Y0100323D01*
X0165540Y0100640D01*
X0164272Y0100640D01*
X0163330Y0100323D02*
X0163330Y0100006D01*
X0163013Y0099689D01*
X0163330Y0099372D01*
X0163330Y0099055D01*
X0163013Y0098738D01*
X0162379Y0098738D01*
X0162062Y0099055D01*
X0162696Y0099689D02*
X0163013Y0099689D01*
X0163330Y0100323D02*
X0163013Y0100640D01*
X0162379Y0100640D01*
X0162062Y0100323D01*
X0161120Y0100323D02*
X0160803Y0100640D01*
X0159852Y0100640D01*
X0159852Y0098738D01*
X0160803Y0098738D01*
X0161120Y0099055D01*
X0161120Y0100323D01*
X0153419Y0097863D02*
X0153419Y0094113D01*
X0149475Y0098738D02*
X0149792Y0099055D01*
X0149792Y0099372D01*
X0149475Y0099689D01*
X0148524Y0099689D01*
X0148524Y0099055D01*
X0148841Y0098738D01*
X0149475Y0098738D01*
X0148524Y0099689D02*
X0149158Y0100323D01*
X0149792Y0100640D01*
X0147582Y0100323D02*
X0147582Y0100006D01*
X0147265Y0099689D01*
X0147582Y0099372D01*
X0147582Y0099055D01*
X0147265Y0098738D01*
X0146631Y0098738D01*
X0146314Y0099055D01*
X0146948Y0099689D02*
X0147265Y0099689D01*
X0147582Y0100323D02*
X0147265Y0100640D01*
X0146631Y0100640D01*
X0146314Y0100323D01*
X0145372Y0100323D02*
X0145055Y0100640D01*
X0144104Y0100640D01*
X0144104Y0098738D01*
X0145055Y0098738D01*
X0145372Y0099055D01*
X0145372Y0100323D01*
X0137671Y0097863D02*
X0137671Y0094113D01*
X0133727Y0098738D02*
X0133093Y0098738D01*
X0132776Y0099055D01*
X0132776Y0099689D02*
X0133410Y0100006D01*
X0133727Y0100006D01*
X0134044Y0099689D01*
X0134044Y0099055D01*
X0133727Y0098738D01*
X0132776Y0099689D02*
X0132776Y0100640D01*
X0134044Y0100640D01*
X0131834Y0100323D02*
X0131834Y0100006D01*
X0131517Y0099689D01*
X0131834Y0099372D01*
X0131834Y0099055D01*
X0131517Y0098738D01*
X0130883Y0098738D01*
X0130566Y0099055D01*
X0131200Y0099689D02*
X0131517Y0099689D01*
X0131834Y0100323D02*
X0131517Y0100640D01*
X0130883Y0100640D01*
X0130566Y0100323D01*
X0129624Y0100323D02*
X0129307Y0100640D01*
X0128356Y0100640D01*
X0128356Y0098738D01*
X0129307Y0098738D01*
X0129624Y0099055D01*
X0129624Y0100323D01*
X0121923Y0097863D02*
X0121923Y0094113D01*
X0117979Y0098738D02*
X0117979Y0100640D01*
X0117028Y0099689D01*
X0118296Y0099689D01*
X0116086Y0100006D02*
X0115769Y0099689D01*
X0116086Y0099372D01*
X0116086Y0099055D01*
X0115769Y0098738D01*
X0115135Y0098738D01*
X0114818Y0099055D01*
X0115452Y0099689D02*
X0115769Y0099689D01*
X0116086Y0100006D02*
X0116086Y0100323D01*
X0115769Y0100640D01*
X0115135Y0100640D01*
X0114818Y0100323D01*
X0113876Y0100323D02*
X0113876Y0099055D01*
X0113559Y0098738D01*
X0112608Y0098738D01*
X0112608Y0100640D01*
X0113559Y0100640D01*
X0113876Y0100323D01*
X0106175Y0097863D02*
X0106175Y0094113D01*
X0102231Y0098738D02*
X0101597Y0098738D01*
X0101280Y0099055D01*
X0101914Y0099689D02*
X0102231Y0099689D01*
X0102548Y0099372D01*
X0102548Y0099055D01*
X0102231Y0098738D01*
X0102231Y0099689D02*
X0102548Y0100006D01*
X0102548Y0100323D01*
X0102231Y0100640D01*
X0101597Y0100640D01*
X0101280Y0100323D01*
X0100338Y0100323D02*
X0100338Y0100006D01*
X0100021Y0099689D01*
X0100338Y0099372D01*
X0100338Y0099055D01*
X0100021Y0098738D01*
X0099387Y0098738D01*
X0099070Y0099055D01*
X0099704Y0099689D02*
X0100021Y0099689D01*
X0100338Y0100323D02*
X0100021Y0100640D01*
X0099387Y0100640D01*
X0099070Y0100323D01*
X0098128Y0100323D02*
X0098128Y0099055D01*
X0097811Y0098738D01*
X0096860Y0098738D01*
X0096860Y0100640D01*
X0097811Y0100640D01*
X0098128Y0100323D01*
X0106175Y0109861D02*
X0106175Y0113611D01*
X0102548Y0114803D02*
X0102548Y0115437D01*
X0102231Y0115754D01*
X0101914Y0115754D01*
X0101280Y0115437D01*
X0101280Y0116388D01*
X0102548Y0116388D01*
X0102548Y0114803D02*
X0102231Y0114486D01*
X0101597Y0114486D01*
X0101280Y0114803D01*
X0100338Y0114486D02*
X0099070Y0114486D01*
X0100338Y0115754D01*
X0100338Y0116071D01*
X0100021Y0116388D01*
X0099387Y0116388D01*
X0099070Y0116071D01*
X0098128Y0116071D02*
X0098128Y0114803D01*
X0097811Y0114486D01*
X0096860Y0114486D01*
X0096860Y0116388D01*
X0097811Y0116388D01*
X0098128Y0116071D01*
X0106175Y0125609D02*
X0106175Y0129359D01*
X0102548Y0131819D02*
X0101280Y0130551D01*
X0101280Y0130234D01*
X0100338Y0130234D02*
X0099070Y0130234D01*
X0099704Y0130234D02*
X0099704Y0132136D01*
X0099070Y0131502D01*
X0098128Y0131819D02*
X0098128Y0130551D01*
X0097811Y0130234D01*
X0096860Y0130234D01*
X0096860Y0132136D01*
X0097811Y0132136D01*
X0098128Y0131819D01*
X0101280Y0132136D02*
X0102548Y0132136D01*
X0102548Y0131819D01*
X0091657Y0134965D02*
X0091657Y0159374D01*
X0090083Y0159374D01*
X0097965Y0161730D02*
X0098916Y0161730D01*
X0099233Y0162047D01*
X0099233Y0163315D01*
X0098916Y0163632D01*
X0097965Y0163632D01*
X0097965Y0161730D01*
X0100175Y0161730D02*
X0101443Y0161730D01*
X0100809Y0161730D02*
X0100809Y0163632D01*
X0100175Y0162998D01*
X0106175Y0160855D02*
X0106175Y0157105D01*
X0113713Y0161730D02*
X0113713Y0163632D01*
X0114664Y0163632D01*
X0114981Y0163315D01*
X0114981Y0162047D01*
X0114664Y0161730D01*
X0113713Y0161730D01*
X0115923Y0161730D02*
X0117191Y0162998D01*
X0117191Y0163315D01*
X0116874Y0163632D01*
X0116240Y0163632D01*
X0115923Y0163315D01*
X0115923Y0161730D02*
X0117191Y0161730D01*
X0121923Y0160855D02*
X0121923Y0157105D01*
X0129461Y0161730D02*
X0129461Y0163632D01*
X0130412Y0163632D01*
X0130729Y0163315D01*
X0130729Y0162047D01*
X0130412Y0161730D01*
X0129461Y0161730D01*
X0131671Y0162047D02*
X0131988Y0161730D01*
X0132622Y0161730D01*
X0132939Y0162047D01*
X0132939Y0162364D01*
X0132622Y0162681D01*
X0132305Y0162681D01*
X0132622Y0162681D02*
X0132939Y0162998D01*
X0132939Y0163315D01*
X0132622Y0163632D01*
X0131988Y0163632D01*
X0131671Y0163315D01*
X0137671Y0160855D02*
X0137671Y0157105D01*
X0145209Y0161730D02*
X0145209Y0163632D01*
X0146160Y0163632D01*
X0146477Y0163315D01*
X0146477Y0162047D01*
X0146160Y0161730D01*
X0145209Y0161730D01*
X0147419Y0162681D02*
X0148687Y0162681D01*
X0148370Y0161730D02*
X0148370Y0163632D01*
X0147419Y0162681D01*
X0153419Y0160855D02*
X0153419Y0157105D01*
X0160957Y0161730D02*
X0161908Y0161730D01*
X0162225Y0162047D01*
X0162225Y0163315D01*
X0161908Y0163632D01*
X0160957Y0163632D01*
X0160957Y0161730D01*
X0163167Y0162047D02*
X0163484Y0161730D01*
X0164118Y0161730D01*
X0164435Y0162047D01*
X0164435Y0162681D01*
X0164118Y0162998D01*
X0163801Y0162998D01*
X0163167Y0162681D01*
X0163167Y0163632D01*
X0164435Y0163632D01*
X0169167Y0160855D02*
X0169167Y0157105D01*
X0176705Y0161730D02*
X0177656Y0161730D01*
X0177973Y0162047D01*
X0177973Y0163315D01*
X0177656Y0163632D01*
X0176705Y0163632D01*
X0176705Y0161730D01*
X0178915Y0162047D02*
X0179232Y0161730D01*
X0179866Y0161730D01*
X0180183Y0162047D01*
X0180183Y0162364D01*
X0179866Y0162681D01*
X0178915Y0162681D01*
X0178915Y0162047D01*
X0178915Y0162681D02*
X0179549Y0163315D01*
X0180183Y0163632D01*
X0184915Y0160855D02*
X0184915Y0157105D01*
X0192454Y0161730D02*
X0193404Y0161730D01*
X0193721Y0162047D01*
X0193721Y0163315D01*
X0193404Y0163632D01*
X0192454Y0163632D01*
X0192454Y0161730D01*
X0194663Y0161730D02*
X0194663Y0162047D01*
X0195931Y0163315D01*
X0195931Y0163632D01*
X0194663Y0163632D01*
X0200663Y0160855D02*
X0200663Y0157105D01*
X0208202Y0161730D02*
X0209152Y0161730D01*
X0209469Y0162047D01*
X0209469Y0163315D01*
X0209152Y0163632D01*
X0208202Y0163632D01*
X0208202Y0161730D01*
X0210411Y0162047D02*
X0210411Y0162364D01*
X0210728Y0162681D01*
X0211362Y0162681D01*
X0211679Y0162364D01*
X0211679Y0162047D01*
X0211362Y0161730D01*
X0210728Y0161730D01*
X0210411Y0162047D01*
X0210728Y0162681D02*
X0210411Y0162998D01*
X0210411Y0163315D01*
X0210728Y0163632D01*
X0211362Y0163632D01*
X0211679Y0163315D01*
X0211679Y0162998D01*
X0211362Y0162681D01*
X0216411Y0160855D02*
X0216411Y0157105D01*
X0212784Y0147884D02*
X0212150Y0147567D01*
X0211516Y0146933D01*
X0212467Y0146933D01*
X0212784Y0146616D01*
X0212784Y0146299D01*
X0212467Y0145982D01*
X0211833Y0145982D01*
X0211516Y0146299D01*
X0211516Y0146933D01*
X0210574Y0145982D02*
X0209306Y0145982D01*
X0209940Y0145982D02*
X0209940Y0147884D01*
X0209306Y0147250D01*
X0208364Y0147567D02*
X0208047Y0147884D01*
X0207097Y0147884D01*
X0207097Y0145982D01*
X0208047Y0145982D01*
X0208364Y0146299D01*
X0208364Y0147567D01*
X0216411Y0145107D02*
X0216411Y0141357D01*
X0212467Y0132136D02*
X0211516Y0131185D01*
X0212784Y0131185D01*
X0212467Y0130234D02*
X0212467Y0132136D01*
X0210574Y0131819D02*
X0210257Y0132136D01*
X0209623Y0132136D01*
X0209306Y0131819D01*
X0208364Y0131819D02*
X0208047Y0132136D01*
X0207097Y0132136D01*
X0207097Y0130234D01*
X0208047Y0130234D01*
X0208364Y0130551D01*
X0208364Y0131819D01*
X0209306Y0130234D02*
X0210574Y0131502D01*
X0210574Y0131819D01*
X0210574Y0130234D02*
X0209306Y0130234D01*
X0216411Y0129359D02*
X0216411Y0125609D01*
X0212467Y0116388D02*
X0211833Y0116388D01*
X0211516Y0116071D01*
X0210574Y0116071D02*
X0210574Y0115754D01*
X0210257Y0115437D01*
X0210574Y0115120D01*
X0210574Y0114803D01*
X0210257Y0114486D01*
X0209623Y0114486D01*
X0209306Y0114803D01*
X0209940Y0115437D02*
X0210257Y0115437D01*
X0210574Y0116071D02*
X0210257Y0116388D01*
X0209623Y0116388D01*
X0209306Y0116071D01*
X0208364Y0116071D02*
X0208047Y0116388D01*
X0207097Y0116388D01*
X0207097Y0114486D01*
X0208047Y0114486D01*
X0208364Y0114803D01*
X0208364Y0116071D01*
X0211516Y0114486D02*
X0212784Y0115754D01*
X0212784Y0116071D01*
X0212467Y0116388D01*
X0212784Y0114486D02*
X0211516Y0114486D01*
X0216411Y0113611D02*
X0216411Y0109861D01*
X0212467Y0100640D02*
X0211833Y0100640D01*
X0211516Y0100323D01*
X0211516Y0099055D01*
X0212784Y0100323D01*
X0212784Y0099055D01*
X0212467Y0098738D01*
X0211833Y0098738D01*
X0211516Y0099055D01*
X0210574Y0099689D02*
X0209306Y0099689D01*
X0210257Y0100640D01*
X0210257Y0098738D01*
X0208364Y0099055D02*
X0208364Y0100323D01*
X0208047Y0100640D01*
X0207097Y0100640D01*
X0207097Y0098738D01*
X0208047Y0098738D01*
X0208364Y0099055D01*
X0212467Y0100640D02*
X0212784Y0100323D01*
X0216411Y0097863D02*
X0216411Y0094113D01*
X0200663Y0109861D02*
X0200663Y0113611D01*
X0197036Y0114486D02*
X0195768Y0114486D01*
X0196402Y0114486D02*
X0196402Y0116388D01*
X0195768Y0115754D01*
X0194826Y0115754D02*
X0194509Y0115437D01*
X0194826Y0115120D01*
X0194826Y0114803D01*
X0194509Y0114486D01*
X0193875Y0114486D01*
X0193558Y0114803D01*
X0194192Y0115437D02*
X0194509Y0115437D01*
X0194826Y0115754D02*
X0194826Y0116071D01*
X0194509Y0116388D01*
X0193875Y0116388D01*
X0193558Y0116071D01*
X0192616Y0116071D02*
X0192299Y0116388D01*
X0191349Y0116388D01*
X0191349Y0114486D01*
X0192299Y0114486D01*
X0192616Y0114803D01*
X0192616Y0116071D01*
X0184915Y0113611D02*
X0184915Y0109861D01*
X0180971Y0114486D02*
X0180337Y0114486D01*
X0180020Y0114803D01*
X0181288Y0116071D01*
X0181288Y0114803D01*
X0180971Y0114486D01*
X0180020Y0114803D02*
X0180020Y0116071D01*
X0180337Y0116388D01*
X0180971Y0116388D01*
X0181288Y0116071D01*
X0179078Y0116071D02*
X0179078Y0115754D01*
X0178761Y0115437D01*
X0179078Y0115120D01*
X0179078Y0114803D01*
X0178761Y0114486D01*
X0178127Y0114486D01*
X0177810Y0114803D01*
X0178444Y0115437D02*
X0178761Y0115437D01*
X0179078Y0116071D02*
X0178761Y0116388D01*
X0178127Y0116388D01*
X0177810Y0116071D01*
X0176868Y0116071D02*
X0176551Y0116388D01*
X0175601Y0116388D01*
X0175601Y0114486D01*
X0176551Y0114486D01*
X0176868Y0114803D01*
X0176868Y0116071D01*
X0169167Y0113611D02*
X0169167Y0109861D01*
X0165223Y0114486D02*
X0165540Y0114803D01*
X0165540Y0116071D01*
X0165223Y0116388D01*
X0164589Y0116388D01*
X0164272Y0116071D01*
X0164272Y0115754D01*
X0164589Y0115437D01*
X0165540Y0115437D01*
X0165223Y0114486D02*
X0164589Y0114486D01*
X0164272Y0114803D01*
X0163330Y0114486D02*
X0162062Y0114486D01*
X0163330Y0115754D01*
X0163330Y0116071D01*
X0163013Y0116388D01*
X0162379Y0116388D01*
X0162062Y0116071D01*
X0161120Y0116071D02*
X0160803Y0116388D01*
X0159852Y0116388D01*
X0159852Y0114486D01*
X0160803Y0114486D01*
X0161120Y0114803D01*
X0161120Y0116071D01*
X0153419Y0113611D02*
X0153419Y0109861D01*
X0149475Y0114486D02*
X0148841Y0114486D01*
X0148524Y0114803D01*
X0148524Y0115120D01*
X0148841Y0115437D01*
X0149475Y0115437D01*
X0149792Y0115120D01*
X0149792Y0114803D01*
X0149475Y0114486D01*
X0149475Y0115437D02*
X0149792Y0115754D01*
X0149792Y0116071D01*
X0149475Y0116388D01*
X0148841Y0116388D01*
X0148524Y0116071D01*
X0148524Y0115754D01*
X0148841Y0115437D01*
X0147582Y0115754D02*
X0147582Y0116071D01*
X0147265Y0116388D01*
X0146631Y0116388D01*
X0146314Y0116071D01*
X0145372Y0116071D02*
X0145055Y0116388D01*
X0144104Y0116388D01*
X0144104Y0114486D01*
X0145055Y0114486D01*
X0145372Y0114803D01*
X0145372Y0116071D01*
X0146314Y0114486D02*
X0147582Y0115754D01*
X0147582Y0114486D02*
X0146314Y0114486D01*
X0137671Y0113611D02*
X0137671Y0109861D01*
X0132776Y0114486D02*
X0132776Y0114803D01*
X0134044Y0116071D01*
X0134044Y0116388D01*
X0132776Y0116388D01*
X0131834Y0116071D02*
X0131517Y0116388D01*
X0130883Y0116388D01*
X0130566Y0116071D01*
X0129624Y0116071D02*
X0129307Y0116388D01*
X0128356Y0116388D01*
X0128356Y0114486D01*
X0129307Y0114486D01*
X0129624Y0114803D01*
X0129624Y0116071D01*
X0130566Y0114486D02*
X0131834Y0115754D01*
X0131834Y0116071D01*
X0131834Y0114486D02*
X0130566Y0114486D01*
X0121923Y0113611D02*
X0121923Y0109861D01*
X0117979Y0114486D02*
X0118296Y0114803D01*
X0118296Y0115120D01*
X0117979Y0115437D01*
X0117028Y0115437D01*
X0117028Y0114803D01*
X0117345Y0114486D01*
X0117979Y0114486D01*
X0117028Y0115437D02*
X0117662Y0116071D01*
X0118296Y0116388D01*
X0116086Y0116071D02*
X0115769Y0116388D01*
X0115135Y0116388D01*
X0114818Y0116071D01*
X0113876Y0116071D02*
X0113876Y0114803D01*
X0113559Y0114486D01*
X0112608Y0114486D01*
X0112608Y0116388D01*
X0113559Y0116388D01*
X0113876Y0116071D01*
X0114818Y0114486D02*
X0116086Y0115754D01*
X0116086Y0116071D01*
X0116086Y0114486D02*
X0114818Y0114486D01*
X0121923Y0125609D02*
X0121923Y0129359D01*
X0118296Y0130551D02*
X0117979Y0130234D01*
X0117345Y0130234D01*
X0117028Y0130551D01*
X0117028Y0130868D01*
X0117345Y0131185D01*
X0117979Y0131185D01*
X0118296Y0130868D01*
X0118296Y0130551D01*
X0117979Y0131185D02*
X0118296Y0131502D01*
X0118296Y0131819D01*
X0117979Y0132136D01*
X0117345Y0132136D01*
X0117028Y0131819D01*
X0117028Y0131502D01*
X0117345Y0131185D01*
X0116086Y0130234D02*
X0114818Y0130234D01*
X0115452Y0130234D02*
X0115452Y0132136D01*
X0114818Y0131502D01*
X0113876Y0131819D02*
X0113876Y0130551D01*
X0113559Y0130234D01*
X0112608Y0130234D01*
X0112608Y0132136D01*
X0113559Y0132136D01*
X0113876Y0131819D01*
X0106175Y0141357D02*
X0106175Y0145107D01*
X0101443Y0146299D02*
X0101443Y0147567D01*
X0101126Y0147884D01*
X0100492Y0147884D01*
X0100175Y0147567D01*
X0100175Y0147250D01*
X0100492Y0146933D01*
X0101443Y0146933D01*
X0101443Y0146299D02*
X0101126Y0145982D01*
X0100492Y0145982D01*
X0100175Y0146299D01*
X0099233Y0146299D02*
X0099233Y0147567D01*
X0098916Y0147884D01*
X0097965Y0147884D01*
X0097965Y0145982D01*
X0098916Y0145982D01*
X0099233Y0146299D01*
X0112608Y0145982D02*
X0113559Y0145982D01*
X0113876Y0146299D01*
X0113876Y0147567D01*
X0113559Y0147884D01*
X0112608Y0147884D01*
X0112608Y0145982D01*
X0114818Y0145982D02*
X0116086Y0145982D01*
X0115452Y0145982D02*
X0115452Y0147884D01*
X0114818Y0147250D01*
X0117028Y0147567D02*
X0117028Y0146299D01*
X0118296Y0147567D01*
X0118296Y0146299D01*
X0117979Y0145982D01*
X0117345Y0145982D01*
X0117028Y0146299D01*
X0117028Y0147567D02*
X0117345Y0147884D01*
X0117979Y0147884D01*
X0118296Y0147567D01*
X0121923Y0145107D02*
X0121923Y0141357D01*
X0128356Y0145982D02*
X0128356Y0147884D01*
X0129307Y0147884D01*
X0129624Y0147567D01*
X0129624Y0146299D01*
X0129307Y0145982D01*
X0128356Y0145982D01*
X0130566Y0145982D02*
X0131834Y0145982D01*
X0131200Y0145982D02*
X0131200Y0147884D01*
X0130566Y0147250D01*
X0132776Y0147250D02*
X0133410Y0147884D01*
X0133410Y0145982D01*
X0132776Y0145982D02*
X0134044Y0145982D01*
X0137671Y0145107D02*
X0137671Y0141357D01*
X0144104Y0145982D02*
X0144104Y0147884D01*
X0145055Y0147884D01*
X0145372Y0147567D01*
X0145372Y0146299D01*
X0145055Y0145982D01*
X0144104Y0145982D01*
X0146314Y0145982D02*
X0147582Y0145982D01*
X0146948Y0145982D02*
X0146948Y0147884D01*
X0146314Y0147250D01*
X0148524Y0147567D02*
X0148841Y0147884D01*
X0149475Y0147884D01*
X0149792Y0147567D01*
X0149792Y0147250D01*
X0148524Y0145982D01*
X0149792Y0145982D01*
X0153419Y0145107D02*
X0153419Y0141357D01*
X0159852Y0145982D02*
X0159852Y0147884D01*
X0160803Y0147884D01*
X0161120Y0147567D01*
X0161120Y0146299D01*
X0160803Y0145982D01*
X0159852Y0145982D01*
X0162062Y0145982D02*
X0163330Y0145982D01*
X0162696Y0145982D02*
X0162696Y0147884D01*
X0162062Y0147250D01*
X0164272Y0147567D02*
X0164589Y0147884D01*
X0165223Y0147884D01*
X0165540Y0147567D01*
X0165540Y0147250D01*
X0165223Y0146933D01*
X0165540Y0146616D01*
X0165540Y0146299D01*
X0165223Y0145982D01*
X0164589Y0145982D01*
X0164272Y0146299D01*
X0164906Y0146933D02*
X0165223Y0146933D01*
X0169167Y0145107D02*
X0169167Y0141357D01*
X0175601Y0145982D02*
X0175601Y0147884D01*
X0176551Y0147884D01*
X0176868Y0147567D01*
X0176868Y0146299D01*
X0176551Y0145982D01*
X0175601Y0145982D01*
X0177810Y0145982D02*
X0179078Y0145982D01*
X0178444Y0145982D02*
X0178444Y0147884D01*
X0177810Y0147250D01*
X0180020Y0146933D02*
X0181288Y0146933D01*
X0180971Y0145982D02*
X0180971Y0147884D01*
X0180020Y0146933D01*
X0184915Y0145107D02*
X0184915Y0141357D01*
X0191349Y0145982D02*
X0191349Y0147884D01*
X0192299Y0147884D01*
X0192616Y0147567D01*
X0192616Y0146299D01*
X0192299Y0145982D01*
X0191349Y0145982D01*
X0193558Y0145982D02*
X0194826Y0145982D01*
X0194192Y0145982D02*
X0194192Y0147884D01*
X0193558Y0147250D01*
X0195768Y0146933D02*
X0196402Y0147250D01*
X0196719Y0147250D01*
X0197036Y0146933D01*
X0197036Y0146299D01*
X0196719Y0145982D01*
X0196085Y0145982D01*
X0195768Y0146299D01*
X0195768Y0146933D02*
X0195768Y0147884D01*
X0197036Y0147884D01*
X0200663Y0145107D02*
X0200663Y0141357D01*
X0196719Y0132136D02*
X0196085Y0132136D01*
X0195768Y0131819D01*
X0196402Y0131185D02*
X0196719Y0131185D01*
X0197036Y0130868D01*
X0197036Y0130551D01*
X0196719Y0130234D01*
X0196085Y0130234D01*
X0195768Y0130551D01*
X0194826Y0130234D02*
X0193558Y0130234D01*
X0194826Y0131502D01*
X0194826Y0131819D01*
X0194509Y0132136D01*
X0193875Y0132136D01*
X0193558Y0131819D01*
X0192616Y0131819D02*
X0192299Y0132136D01*
X0191349Y0132136D01*
X0191349Y0130234D01*
X0192299Y0130234D01*
X0192616Y0130551D01*
X0192616Y0131819D01*
X0196719Y0132136D02*
X0197036Y0131819D01*
X0197036Y0131502D01*
X0196719Y0131185D01*
X0200663Y0129359D02*
X0200663Y0125609D01*
X0184915Y0125609D02*
X0184915Y0129359D01*
X0181288Y0130234D02*
X0180020Y0130234D01*
X0181288Y0131502D01*
X0181288Y0131819D01*
X0180971Y0132136D01*
X0180337Y0132136D01*
X0180020Y0131819D01*
X0179078Y0131819D02*
X0178761Y0132136D01*
X0178127Y0132136D01*
X0177810Y0131819D01*
X0176868Y0131819D02*
X0176551Y0132136D01*
X0175601Y0132136D01*
X0175601Y0130234D01*
X0176551Y0130234D01*
X0176868Y0130551D01*
X0176868Y0131819D01*
X0177810Y0130234D02*
X0179078Y0131502D01*
X0179078Y0131819D01*
X0179078Y0130234D02*
X0177810Y0130234D01*
X0169167Y0129359D02*
X0169167Y0125609D01*
X0165540Y0130234D02*
X0164272Y0130234D01*
X0164906Y0130234D02*
X0164906Y0132136D01*
X0164272Y0131502D01*
X0163330Y0131502D02*
X0163330Y0131819D01*
X0163013Y0132136D01*
X0162379Y0132136D01*
X0162062Y0131819D01*
X0161120Y0131819D02*
X0160803Y0132136D01*
X0159852Y0132136D01*
X0159852Y0130234D01*
X0160803Y0130234D01*
X0161120Y0130551D01*
X0161120Y0131819D01*
X0162062Y0130234D02*
X0163330Y0131502D01*
X0163330Y0130234D02*
X0162062Y0130234D01*
X0153419Y0129359D02*
X0153419Y0125609D01*
X0149475Y0130234D02*
X0148841Y0130234D01*
X0148524Y0130551D01*
X0149792Y0131819D01*
X0149792Y0130551D01*
X0149475Y0130234D01*
X0148524Y0130551D02*
X0148524Y0131819D01*
X0148841Y0132136D01*
X0149475Y0132136D01*
X0149792Y0131819D01*
X0147582Y0131819D02*
X0147265Y0132136D01*
X0146631Y0132136D01*
X0146314Y0131819D01*
X0145372Y0131819D02*
X0145055Y0132136D01*
X0144104Y0132136D01*
X0144104Y0130234D01*
X0145055Y0130234D01*
X0145372Y0130551D01*
X0145372Y0131819D01*
X0146314Y0130234D02*
X0147582Y0131502D01*
X0147582Y0131819D01*
X0147582Y0130234D02*
X0146314Y0130234D01*
X0137671Y0129359D02*
X0137671Y0125609D01*
X0133727Y0130234D02*
X0134044Y0130551D01*
X0134044Y0131819D01*
X0133727Y0132136D01*
X0133093Y0132136D01*
X0132776Y0131819D01*
X0132776Y0131502D01*
X0133093Y0131185D01*
X0134044Y0131185D01*
X0133727Y0130234D02*
X0133093Y0130234D01*
X0132776Y0130551D01*
X0131834Y0130234D02*
X0130566Y0130234D01*
X0131200Y0130234D02*
X0131200Y0132136D01*
X0130566Y0131502D01*
X0129624Y0131819D02*
X0129307Y0132136D01*
X0128356Y0132136D01*
X0128356Y0130234D01*
X0129307Y0130234D01*
X0129624Y0130551D01*
X0129624Y0131819D01*
X0091657Y0134965D02*
X0090083Y0134965D01*
X0078272Y0134965D02*
X0076697Y0134965D01*
X0076697Y0159374D01*
X0078272Y0159374D01*
X0065147Y0152194D02*
X0065367Y0150946D01*
X0065110Y0150578D01*
X0064486Y0150468D01*
X0064119Y0150725D01*
X0064321Y0151405D02*
X0065257Y0151570D01*
X0065147Y0152194D02*
X0064780Y0152451D01*
X0064156Y0152341D01*
X0063899Y0151974D01*
X0063954Y0151662D01*
X0064321Y0151405D01*
X0063081Y0151186D02*
X0062824Y0150819D01*
X0061888Y0150654D01*
X0062512Y0150764D02*
X0063246Y0150250D01*
X0063081Y0151186D02*
X0062971Y0151810D01*
X0062604Y0152067D01*
X0061667Y0151902D01*
X0061998Y0150030D01*
X0047296Y0164730D02*
X0047296Y0169234D01*
X0044293Y0169234D02*
X0047296Y0164730D01*
X0044293Y0164730D02*
X0044293Y0169234D01*
X0042725Y0169234D02*
X0041224Y0169234D01*
X0041975Y0169234D02*
X0041975Y0164730D01*
X0042725Y0164730D02*
X0041224Y0164730D01*
X0039623Y0166232D02*
X0039623Y0169234D01*
X0036620Y0169234D02*
X0036620Y0166232D01*
X0038121Y0164730D01*
X0039623Y0166232D01*
X0032295Y0165481D02*
X0031544Y0164730D01*
X0029292Y0164730D01*
X0029292Y0169234D01*
X0031544Y0169234D01*
X0032295Y0168484D01*
X0032295Y0165481D01*
X0027691Y0164730D02*
X0027691Y0169234D01*
X0024689Y0169234D02*
X0027691Y0164730D01*
X0024689Y0164730D02*
X0024689Y0169234D01*
X0023087Y0168484D02*
X0022337Y0169234D01*
X0020835Y0169234D01*
X0020085Y0168484D01*
X0020085Y0165481D01*
X0020835Y0164730D01*
X0022337Y0164730D01*
X0023087Y0165481D01*
X0023087Y0166982D01*
X0021586Y0166982D01*
X0012917Y0112524D02*
X0012917Y0083783D01*
X0012917Y0018035D02*
X0021972Y0018035D01*
X0069217Y0018035D02*
X0075909Y0018035D01*
D27*
X0066524Y0068629D02*
X0063054Y0068629D01*
X0063054Y0073834D01*
X0066524Y0073834D01*
X0064789Y0071231D02*
X0063054Y0071231D01*
X0061368Y0072099D02*
X0061368Y0072966D01*
X0060500Y0073834D01*
X0058765Y0073834D01*
X0057898Y0072966D01*
X0054476Y0073834D02*
X0054476Y0068629D01*
X0052742Y0068629D02*
X0056211Y0068629D01*
X0057898Y0068629D02*
X0061368Y0072099D01*
X0061368Y0068629D02*
X0057898Y0068629D01*
X0052742Y0072099D02*
X0054476Y0073834D01*
X0045898Y0071231D02*
X0042429Y0071231D01*
X0035586Y0071231D02*
X0034718Y0070364D01*
X0032116Y0070364D01*
X0030429Y0070364D02*
X0029562Y0071231D01*
X0027827Y0071231D01*
X0026960Y0072099D01*
X0026960Y0072966D01*
X0027827Y0073834D01*
X0029562Y0073834D01*
X0030429Y0072966D01*
X0032116Y0073834D02*
X0034718Y0073834D01*
X0035586Y0072966D01*
X0035586Y0071231D01*
X0032116Y0068629D02*
X0032116Y0073834D01*
X0030429Y0070364D02*
X0030429Y0069497D01*
X0029562Y0068629D01*
X0027827Y0068629D01*
X0026960Y0069497D01*
X0025273Y0068629D02*
X0021803Y0068629D01*
X0021803Y0073834D01*
X0025273Y0073834D01*
X0023538Y0071231D02*
X0021803Y0071231D01*
X0022451Y0116267D02*
X0020716Y0116267D01*
X0019849Y0117134D01*
X0018162Y0117134D02*
X0018162Y0121471D01*
X0019849Y0120604D02*
X0020716Y0121471D01*
X0022451Y0121471D01*
X0023318Y0120604D01*
X0023318Y0119737D01*
X0022451Y0118869D01*
X0023318Y0118002D01*
X0023318Y0117134D01*
X0022451Y0116267D01*
X0022451Y0118869D02*
X0021583Y0118869D01*
X0018162Y0117134D02*
X0017294Y0116267D01*
X0015560Y0116267D01*
X0014692Y0117134D01*
X0014692Y0121471D01*
X0050479Y0163314D02*
X0050479Y0167918D01*
X0052013Y0167918D02*
X0048944Y0167918D01*
X0053548Y0167918D02*
X0056617Y0163314D01*
X0053548Y0163314D02*
X0056617Y0167918D01*
X0060755Y0167918D02*
X0063057Y0167918D01*
X0063824Y0167151D01*
X0063824Y0165616D01*
X0063057Y0164849D01*
X0060755Y0164849D01*
X0062290Y0164849D02*
X0063824Y0163314D01*
X0065359Y0163314D02*
X0068428Y0167918D01*
X0065359Y0167918D02*
X0068428Y0163314D01*
X0060755Y0163314D02*
X0060755Y0167918D01*
D28*
X0075334Y0143117D02*
X0075334Y0141382D01*
X0075334Y0142249D02*
X0072732Y0142249D01*
X0073599Y0141382D01*
X0072732Y0140170D02*
X0075334Y0140170D01*
X0074466Y0139303D01*
X0075334Y0138435D01*
X0072732Y0138435D01*
X0073165Y0137224D02*
X0072732Y0136790D01*
X0072732Y0135923D01*
X0073165Y0135489D01*
X0073599Y0135489D01*
X0074033Y0135923D01*
X0074033Y0136790D01*
X0074466Y0137224D01*
X0074900Y0137224D01*
X0075334Y0136790D01*
X0075334Y0135923D01*
X0074900Y0135489D01*
X0189032Y0040071D02*
X0189032Y0039637D01*
X0189466Y0039203D01*
X0190333Y0039203D01*
X0190767Y0038770D01*
X0190767Y0038336D01*
X0190333Y0037902D01*
X0189466Y0037902D01*
X0189032Y0038336D01*
X0189032Y0040071D02*
X0189466Y0040505D01*
X0190333Y0040505D01*
X0190767Y0040071D01*
X0191979Y0040505D02*
X0191979Y0037902D01*
X0192846Y0038770D01*
X0193714Y0037902D01*
X0193714Y0040505D01*
X0194925Y0040071D02*
X0195359Y0040505D01*
X0196226Y0040505D01*
X0196660Y0040071D01*
X0196660Y0039637D01*
X0194925Y0037902D01*
X0196660Y0037902D01*
D29*
X0066854Y0109374D02*
X0051106Y0109374D01*
X0051106Y0095594D01*
X0046776Y0095594D01*
X0046776Y0109374D01*
X0042445Y0109374D01*
X0042445Y0095201D01*
X0037720Y0095201D01*
X0037720Y0109374D01*
X0032996Y0109374D01*
X0032996Y0095201D01*
X0029059Y0095201D01*
X0029059Y0109768D01*
X0025516Y0109768D01*
X0025516Y0090476D01*
X0025516Y0090083D02*
X0025516Y0087720D01*
X0051106Y0087720D01*
M02*
