G75*
%MOIN*%
%OFA0B0*%
%FSLAX25Y25*%
%IPPOS*%
%LPD*%
%AMOC8*
5,1,8,0,0,1.08239X$1,22.5*
%
%ADD10C,0.01000*%
%ADD11C,0.00000*%
%ADD12R,0.04331X0.03937*%
%ADD13OC8,0.10050*%
%ADD14R,0.03937X0.04331*%
%ADD15C,0.10000*%
%ADD16R,0.03937X0.05512*%
%ADD17R,0.04724X0.02362*%
%ADD18R,0.02362X0.04724*%
%ADD19C,0.00984*%
%ADD20OC8,0.03562*%
%ADD21C,0.01600*%
D10*
X0009374Y0001500D02*
X0214098Y0001500D01*
X0214288Y0001502D01*
X0214478Y0001509D01*
X0214668Y0001521D01*
X0214858Y0001537D01*
X0215047Y0001557D01*
X0215236Y0001583D01*
X0215424Y0001612D01*
X0215611Y0001647D01*
X0215797Y0001686D01*
X0215982Y0001729D01*
X0216167Y0001777D01*
X0216350Y0001829D01*
X0216531Y0001885D01*
X0216711Y0001946D01*
X0216890Y0002012D01*
X0217067Y0002081D01*
X0217243Y0002155D01*
X0217416Y0002233D01*
X0217588Y0002316D01*
X0217757Y0002402D01*
X0217925Y0002492D01*
X0218090Y0002587D01*
X0218253Y0002685D01*
X0218413Y0002788D01*
X0218571Y0002894D01*
X0218726Y0003004D01*
X0218879Y0003117D01*
X0219029Y0003235D01*
X0219175Y0003356D01*
X0219319Y0003480D01*
X0219460Y0003608D01*
X0219598Y0003739D01*
X0219733Y0003874D01*
X0219864Y0004012D01*
X0219992Y0004153D01*
X0220116Y0004297D01*
X0220237Y0004443D01*
X0220355Y0004593D01*
X0220468Y0004746D01*
X0220578Y0004901D01*
X0220684Y0005059D01*
X0220787Y0005219D01*
X0220885Y0005382D01*
X0220980Y0005547D01*
X0221070Y0005715D01*
X0221156Y0005884D01*
X0221239Y0006056D01*
X0221317Y0006229D01*
X0221391Y0006405D01*
X0221460Y0006582D01*
X0221526Y0006761D01*
X0221587Y0006941D01*
X0221643Y0007122D01*
X0221695Y0007305D01*
X0221743Y0007490D01*
X0221786Y0007675D01*
X0221825Y0007861D01*
X0221860Y0008048D01*
X0221889Y0008236D01*
X0221915Y0008425D01*
X0221935Y0008614D01*
X0221951Y0008804D01*
X0221963Y0008994D01*
X0221970Y0009184D01*
X0221972Y0009374D01*
X0221972Y0162917D01*
X0221970Y0163107D01*
X0221963Y0163297D01*
X0221951Y0163487D01*
X0221935Y0163677D01*
X0221915Y0163866D01*
X0221889Y0164055D01*
X0221860Y0164243D01*
X0221825Y0164430D01*
X0221786Y0164616D01*
X0221743Y0164801D01*
X0221695Y0164986D01*
X0221643Y0165169D01*
X0221587Y0165350D01*
X0221526Y0165530D01*
X0221460Y0165709D01*
X0221391Y0165886D01*
X0221317Y0166062D01*
X0221239Y0166235D01*
X0221156Y0166407D01*
X0221070Y0166576D01*
X0220980Y0166744D01*
X0220885Y0166909D01*
X0220787Y0167072D01*
X0220684Y0167232D01*
X0220578Y0167390D01*
X0220468Y0167545D01*
X0220355Y0167698D01*
X0220237Y0167848D01*
X0220116Y0167994D01*
X0219992Y0168138D01*
X0219864Y0168279D01*
X0219733Y0168417D01*
X0219598Y0168552D01*
X0219460Y0168683D01*
X0219319Y0168811D01*
X0219175Y0168935D01*
X0219029Y0169056D01*
X0218879Y0169174D01*
X0218726Y0169287D01*
X0218571Y0169397D01*
X0218413Y0169503D01*
X0218253Y0169606D01*
X0218090Y0169704D01*
X0217925Y0169799D01*
X0217757Y0169889D01*
X0217588Y0169975D01*
X0217416Y0170058D01*
X0217243Y0170136D01*
X0217067Y0170210D01*
X0216890Y0170279D01*
X0216711Y0170345D01*
X0216531Y0170406D01*
X0216350Y0170462D01*
X0216167Y0170514D01*
X0215982Y0170562D01*
X0215797Y0170605D01*
X0215611Y0170644D01*
X0215424Y0170679D01*
X0215236Y0170708D01*
X0215047Y0170734D01*
X0214858Y0170754D01*
X0214668Y0170770D01*
X0214478Y0170782D01*
X0214288Y0170789D01*
X0214098Y0170791D01*
X0009374Y0170791D01*
X0009184Y0170789D01*
X0008994Y0170782D01*
X0008804Y0170770D01*
X0008614Y0170754D01*
X0008425Y0170734D01*
X0008236Y0170708D01*
X0008048Y0170679D01*
X0007861Y0170644D01*
X0007675Y0170605D01*
X0007490Y0170562D01*
X0007305Y0170514D01*
X0007122Y0170462D01*
X0006941Y0170406D01*
X0006761Y0170345D01*
X0006582Y0170279D01*
X0006405Y0170210D01*
X0006229Y0170136D01*
X0006056Y0170058D01*
X0005884Y0169975D01*
X0005715Y0169889D01*
X0005547Y0169799D01*
X0005382Y0169704D01*
X0005219Y0169606D01*
X0005059Y0169503D01*
X0004901Y0169397D01*
X0004746Y0169287D01*
X0004593Y0169174D01*
X0004443Y0169056D01*
X0004297Y0168935D01*
X0004153Y0168811D01*
X0004012Y0168683D01*
X0003874Y0168552D01*
X0003739Y0168417D01*
X0003608Y0168279D01*
X0003480Y0168138D01*
X0003356Y0167994D01*
X0003235Y0167848D01*
X0003117Y0167698D01*
X0003004Y0167545D01*
X0002894Y0167390D01*
X0002788Y0167232D01*
X0002685Y0167072D01*
X0002587Y0166909D01*
X0002492Y0166744D01*
X0002402Y0166576D01*
X0002316Y0166407D01*
X0002233Y0166235D01*
X0002155Y0166062D01*
X0002081Y0165886D01*
X0002012Y0165709D01*
X0001946Y0165530D01*
X0001885Y0165350D01*
X0001829Y0165169D01*
X0001777Y0164986D01*
X0001729Y0164801D01*
X0001686Y0164616D01*
X0001647Y0164430D01*
X0001612Y0164243D01*
X0001583Y0164055D01*
X0001557Y0163866D01*
X0001537Y0163677D01*
X0001521Y0163487D01*
X0001509Y0163297D01*
X0001502Y0163107D01*
X0001500Y0162917D01*
X0001500Y0009374D01*
X0001502Y0009184D01*
X0001509Y0008994D01*
X0001521Y0008804D01*
X0001537Y0008614D01*
X0001557Y0008425D01*
X0001583Y0008236D01*
X0001612Y0008048D01*
X0001647Y0007861D01*
X0001686Y0007675D01*
X0001729Y0007490D01*
X0001777Y0007305D01*
X0001829Y0007122D01*
X0001885Y0006941D01*
X0001946Y0006761D01*
X0002012Y0006582D01*
X0002081Y0006405D01*
X0002155Y0006229D01*
X0002233Y0006056D01*
X0002316Y0005884D01*
X0002402Y0005715D01*
X0002492Y0005547D01*
X0002587Y0005382D01*
X0002685Y0005219D01*
X0002788Y0005059D01*
X0002894Y0004901D01*
X0003004Y0004746D01*
X0003117Y0004593D01*
X0003235Y0004443D01*
X0003356Y0004297D01*
X0003480Y0004153D01*
X0003608Y0004012D01*
X0003739Y0003874D01*
X0003874Y0003739D01*
X0004012Y0003608D01*
X0004153Y0003480D01*
X0004297Y0003356D01*
X0004443Y0003235D01*
X0004593Y0003117D01*
X0004746Y0003004D01*
X0004901Y0002894D01*
X0005059Y0002788D01*
X0005219Y0002685D01*
X0005382Y0002587D01*
X0005547Y0002492D01*
X0005715Y0002402D01*
X0005884Y0002316D01*
X0006056Y0002233D01*
X0006229Y0002155D01*
X0006405Y0002081D01*
X0006582Y0002012D01*
X0006761Y0001946D01*
X0006941Y0001885D01*
X0007122Y0001829D01*
X0007305Y0001777D01*
X0007490Y0001729D01*
X0007675Y0001686D01*
X0007861Y0001647D01*
X0008048Y0001612D01*
X0008236Y0001583D01*
X0008425Y0001557D01*
X0008614Y0001537D01*
X0008804Y0001521D01*
X0008994Y0001509D01*
X0009184Y0001502D01*
X0009374Y0001500D01*
X0083315Y0046354D02*
X0083971Y0045876D01*
X0084615Y0045382D01*
X0085248Y0044873D01*
X0085868Y0044350D01*
X0086476Y0043812D01*
X0087072Y0043260D01*
X0087654Y0042694D01*
X0088223Y0042115D01*
X0088779Y0041523D01*
X0089320Y0040918D01*
X0089847Y0040301D01*
X0090359Y0039671D01*
X0090857Y0039030D01*
X0091339Y0038377D01*
X0091806Y0037713D01*
X0092258Y0037038D01*
X0092693Y0036353D01*
X0075115Y0053554D02*
X0074910Y0053781D01*
X0074701Y0054002D01*
X0074486Y0054218D01*
X0074266Y0054429D01*
X0074040Y0054635D01*
X0073810Y0054835D01*
X0073575Y0055029D01*
X0073336Y0055218D01*
X0073091Y0055400D01*
X0072843Y0055577D01*
X0072590Y0055747D01*
X0072333Y0055912D01*
X0072072Y0056070D01*
X0071808Y0056221D01*
X0071539Y0056366D01*
X0071268Y0056505D01*
X0070993Y0056637D01*
X0070715Y0056762D01*
X0070434Y0056880D01*
X0070150Y0056991D01*
X0069863Y0057096D01*
X0069574Y0057193D01*
X0069283Y0057283D01*
X0068990Y0057367D01*
X0068694Y0057443D01*
X0068397Y0057511D01*
X0068098Y0057573D01*
X0067798Y0057627D01*
X0067497Y0057674D01*
X0067195Y0057713D01*
X0066891Y0057746D01*
X0066587Y0057770D01*
X0066283Y0057788D01*
X0065978Y0057797D01*
X0065673Y0057800D01*
X0067002Y0051550D02*
X0060439Y0050098D01*
X0052958Y0050098D02*
X0049514Y0052154D01*
X0049412Y0052212D01*
X0049309Y0052267D01*
X0049203Y0052318D01*
X0049096Y0052366D01*
X0048988Y0052411D01*
X0048878Y0052451D01*
X0048767Y0052488D01*
X0048654Y0052521D01*
X0048541Y0052551D01*
X0048426Y0052576D01*
X0048311Y0052598D01*
X0048195Y0052616D01*
X0048079Y0052630D01*
X0047962Y0052640D01*
X0047845Y0052646D01*
X0047728Y0052648D01*
X0047610Y0052646D01*
X0047493Y0052641D01*
X0047376Y0052631D01*
X0047260Y0052617D01*
X0047144Y0052600D01*
X0047029Y0052579D01*
X0046914Y0052554D01*
X0046915Y0052553D02*
X0046711Y0052508D01*
X0046507Y0052467D01*
X0046302Y0052431D01*
X0046096Y0052401D01*
X0045889Y0052375D01*
X0045682Y0052355D01*
X0045474Y0052339D01*
X0045266Y0052329D01*
X0045058Y0052324D01*
X0044850Y0052324D01*
X0044642Y0052328D01*
X0044434Y0052338D01*
X0044226Y0052353D01*
X0044019Y0052373D01*
X0043812Y0052398D01*
X0043606Y0052429D01*
X0043401Y0052464D01*
X0043197Y0052504D01*
X0042993Y0052549D01*
X0042791Y0052599D01*
X0042590Y0052654D01*
X0042391Y0052714D01*
X0042193Y0052779D01*
X0041997Y0052848D01*
X0041802Y0052922D01*
X0041609Y0053001D01*
X0041419Y0053085D01*
X0041230Y0053173D01*
X0041044Y0053266D01*
X0040860Y0053363D01*
X0040678Y0053465D01*
X0040499Y0053572D01*
X0040322Y0053682D01*
X0075114Y0053553D02*
X0075780Y0052814D01*
X0076463Y0052091D01*
X0077162Y0051384D01*
X0077878Y0050693D01*
X0078610Y0050019D01*
X0079358Y0049363D01*
X0080120Y0048724D01*
X0080898Y0048104D01*
X0081690Y0047501D01*
X0082495Y0046918D01*
X0083314Y0046353D01*
D11*
X0204059Y0013311D02*
X0204061Y0013467D01*
X0204067Y0013623D01*
X0204077Y0013778D01*
X0204091Y0013933D01*
X0204109Y0014088D01*
X0204131Y0014242D01*
X0204156Y0014396D01*
X0204186Y0014549D01*
X0204220Y0014701D01*
X0204257Y0014853D01*
X0204298Y0015003D01*
X0204343Y0015152D01*
X0204392Y0015300D01*
X0204445Y0015447D01*
X0204501Y0015592D01*
X0204561Y0015736D01*
X0204625Y0015878D01*
X0204693Y0016019D01*
X0204764Y0016157D01*
X0204838Y0016294D01*
X0204916Y0016429D01*
X0204997Y0016562D01*
X0205082Y0016693D01*
X0205170Y0016822D01*
X0205261Y0016948D01*
X0205356Y0017072D01*
X0205453Y0017193D01*
X0205554Y0017312D01*
X0205658Y0017429D01*
X0205764Y0017542D01*
X0205874Y0017653D01*
X0205986Y0017761D01*
X0206101Y0017866D01*
X0206219Y0017969D01*
X0206339Y0018068D01*
X0206462Y0018164D01*
X0206587Y0018257D01*
X0206714Y0018346D01*
X0206844Y0018433D01*
X0206976Y0018516D01*
X0207110Y0018595D01*
X0207246Y0018672D01*
X0207384Y0018744D01*
X0207523Y0018814D01*
X0207665Y0018879D01*
X0207808Y0018941D01*
X0207952Y0018999D01*
X0208098Y0019054D01*
X0208246Y0019105D01*
X0208394Y0019152D01*
X0208544Y0019195D01*
X0208695Y0019234D01*
X0208847Y0019270D01*
X0208999Y0019301D01*
X0209153Y0019329D01*
X0209307Y0019353D01*
X0209461Y0019373D01*
X0209616Y0019389D01*
X0209772Y0019401D01*
X0209927Y0019409D01*
X0210083Y0019413D01*
X0210239Y0019413D01*
X0210395Y0019409D01*
X0210550Y0019401D01*
X0210706Y0019389D01*
X0210861Y0019373D01*
X0211015Y0019353D01*
X0211169Y0019329D01*
X0211323Y0019301D01*
X0211475Y0019270D01*
X0211627Y0019234D01*
X0211778Y0019195D01*
X0211928Y0019152D01*
X0212076Y0019105D01*
X0212224Y0019054D01*
X0212370Y0018999D01*
X0212514Y0018941D01*
X0212657Y0018879D01*
X0212799Y0018814D01*
X0212938Y0018744D01*
X0213076Y0018672D01*
X0213212Y0018595D01*
X0213346Y0018516D01*
X0213478Y0018433D01*
X0213608Y0018346D01*
X0213735Y0018257D01*
X0213860Y0018164D01*
X0213983Y0018068D01*
X0214103Y0017969D01*
X0214221Y0017866D01*
X0214336Y0017761D01*
X0214448Y0017653D01*
X0214558Y0017542D01*
X0214664Y0017429D01*
X0214768Y0017312D01*
X0214869Y0017193D01*
X0214966Y0017072D01*
X0215061Y0016948D01*
X0215152Y0016822D01*
X0215240Y0016693D01*
X0215325Y0016562D01*
X0215406Y0016429D01*
X0215484Y0016294D01*
X0215558Y0016157D01*
X0215629Y0016019D01*
X0215697Y0015878D01*
X0215761Y0015736D01*
X0215821Y0015592D01*
X0215877Y0015447D01*
X0215930Y0015300D01*
X0215979Y0015152D01*
X0216024Y0015003D01*
X0216065Y0014853D01*
X0216102Y0014701D01*
X0216136Y0014549D01*
X0216166Y0014396D01*
X0216191Y0014242D01*
X0216213Y0014088D01*
X0216231Y0013933D01*
X0216245Y0013778D01*
X0216255Y0013623D01*
X0216261Y0013467D01*
X0216263Y0013311D01*
X0216261Y0013155D01*
X0216255Y0012999D01*
X0216245Y0012844D01*
X0216231Y0012689D01*
X0216213Y0012534D01*
X0216191Y0012380D01*
X0216166Y0012226D01*
X0216136Y0012073D01*
X0216102Y0011921D01*
X0216065Y0011769D01*
X0216024Y0011619D01*
X0215979Y0011470D01*
X0215930Y0011322D01*
X0215877Y0011175D01*
X0215821Y0011030D01*
X0215761Y0010886D01*
X0215697Y0010744D01*
X0215629Y0010603D01*
X0215558Y0010465D01*
X0215484Y0010328D01*
X0215406Y0010193D01*
X0215325Y0010060D01*
X0215240Y0009929D01*
X0215152Y0009800D01*
X0215061Y0009674D01*
X0214966Y0009550D01*
X0214869Y0009429D01*
X0214768Y0009310D01*
X0214664Y0009193D01*
X0214558Y0009080D01*
X0214448Y0008969D01*
X0214336Y0008861D01*
X0214221Y0008756D01*
X0214103Y0008653D01*
X0213983Y0008554D01*
X0213860Y0008458D01*
X0213735Y0008365D01*
X0213608Y0008276D01*
X0213478Y0008189D01*
X0213346Y0008106D01*
X0213212Y0008027D01*
X0213076Y0007950D01*
X0212938Y0007878D01*
X0212799Y0007808D01*
X0212657Y0007743D01*
X0212514Y0007681D01*
X0212370Y0007623D01*
X0212224Y0007568D01*
X0212076Y0007517D01*
X0211928Y0007470D01*
X0211778Y0007427D01*
X0211627Y0007388D01*
X0211475Y0007352D01*
X0211323Y0007321D01*
X0211169Y0007293D01*
X0211015Y0007269D01*
X0210861Y0007249D01*
X0210706Y0007233D01*
X0210550Y0007221D01*
X0210395Y0007213D01*
X0210239Y0007209D01*
X0210083Y0007209D01*
X0209927Y0007213D01*
X0209772Y0007221D01*
X0209616Y0007233D01*
X0209461Y0007249D01*
X0209307Y0007269D01*
X0209153Y0007293D01*
X0208999Y0007321D01*
X0208847Y0007352D01*
X0208695Y0007388D01*
X0208544Y0007427D01*
X0208394Y0007470D01*
X0208246Y0007517D01*
X0208098Y0007568D01*
X0207952Y0007623D01*
X0207808Y0007681D01*
X0207665Y0007743D01*
X0207523Y0007808D01*
X0207384Y0007878D01*
X0207246Y0007950D01*
X0207110Y0008027D01*
X0206976Y0008106D01*
X0206844Y0008189D01*
X0206714Y0008276D01*
X0206587Y0008365D01*
X0206462Y0008458D01*
X0206339Y0008554D01*
X0206219Y0008653D01*
X0206101Y0008756D01*
X0205986Y0008861D01*
X0205874Y0008969D01*
X0205764Y0009080D01*
X0205658Y0009193D01*
X0205554Y0009310D01*
X0205453Y0009429D01*
X0205356Y0009550D01*
X0205261Y0009674D01*
X0205170Y0009800D01*
X0205082Y0009929D01*
X0204997Y0010060D01*
X0204916Y0010193D01*
X0204838Y0010328D01*
X0204764Y0010465D01*
X0204693Y0010603D01*
X0204625Y0010744D01*
X0204561Y0010886D01*
X0204501Y0011030D01*
X0204445Y0011175D01*
X0204392Y0011322D01*
X0204343Y0011470D01*
X0204298Y0011619D01*
X0204257Y0011769D01*
X0204220Y0011921D01*
X0204186Y0012073D01*
X0204156Y0012226D01*
X0204131Y0012380D01*
X0204109Y0012534D01*
X0204091Y0012689D01*
X0204077Y0012844D01*
X0204067Y0012999D01*
X0204061Y0013155D01*
X0204059Y0013311D01*
X0007209Y0158980D02*
X0007211Y0159136D01*
X0007217Y0159292D01*
X0007227Y0159447D01*
X0007241Y0159602D01*
X0007259Y0159757D01*
X0007281Y0159911D01*
X0007306Y0160065D01*
X0007336Y0160218D01*
X0007370Y0160370D01*
X0007407Y0160522D01*
X0007448Y0160672D01*
X0007493Y0160821D01*
X0007542Y0160969D01*
X0007595Y0161116D01*
X0007651Y0161261D01*
X0007711Y0161405D01*
X0007775Y0161547D01*
X0007843Y0161688D01*
X0007914Y0161826D01*
X0007988Y0161963D01*
X0008066Y0162098D01*
X0008147Y0162231D01*
X0008232Y0162362D01*
X0008320Y0162491D01*
X0008411Y0162617D01*
X0008506Y0162741D01*
X0008603Y0162862D01*
X0008704Y0162981D01*
X0008808Y0163098D01*
X0008914Y0163211D01*
X0009024Y0163322D01*
X0009136Y0163430D01*
X0009251Y0163535D01*
X0009369Y0163638D01*
X0009489Y0163737D01*
X0009612Y0163833D01*
X0009737Y0163926D01*
X0009864Y0164015D01*
X0009994Y0164102D01*
X0010126Y0164185D01*
X0010260Y0164264D01*
X0010396Y0164341D01*
X0010534Y0164413D01*
X0010673Y0164483D01*
X0010815Y0164548D01*
X0010958Y0164610D01*
X0011102Y0164668D01*
X0011248Y0164723D01*
X0011396Y0164774D01*
X0011544Y0164821D01*
X0011694Y0164864D01*
X0011845Y0164903D01*
X0011997Y0164939D01*
X0012149Y0164970D01*
X0012303Y0164998D01*
X0012457Y0165022D01*
X0012611Y0165042D01*
X0012766Y0165058D01*
X0012922Y0165070D01*
X0013077Y0165078D01*
X0013233Y0165082D01*
X0013389Y0165082D01*
X0013545Y0165078D01*
X0013700Y0165070D01*
X0013856Y0165058D01*
X0014011Y0165042D01*
X0014165Y0165022D01*
X0014319Y0164998D01*
X0014473Y0164970D01*
X0014625Y0164939D01*
X0014777Y0164903D01*
X0014928Y0164864D01*
X0015078Y0164821D01*
X0015226Y0164774D01*
X0015374Y0164723D01*
X0015520Y0164668D01*
X0015664Y0164610D01*
X0015807Y0164548D01*
X0015949Y0164483D01*
X0016088Y0164413D01*
X0016226Y0164341D01*
X0016362Y0164264D01*
X0016496Y0164185D01*
X0016628Y0164102D01*
X0016758Y0164015D01*
X0016885Y0163926D01*
X0017010Y0163833D01*
X0017133Y0163737D01*
X0017253Y0163638D01*
X0017371Y0163535D01*
X0017486Y0163430D01*
X0017598Y0163322D01*
X0017708Y0163211D01*
X0017814Y0163098D01*
X0017918Y0162981D01*
X0018019Y0162862D01*
X0018116Y0162741D01*
X0018211Y0162617D01*
X0018302Y0162491D01*
X0018390Y0162362D01*
X0018475Y0162231D01*
X0018556Y0162098D01*
X0018634Y0161963D01*
X0018708Y0161826D01*
X0018779Y0161688D01*
X0018847Y0161547D01*
X0018911Y0161405D01*
X0018971Y0161261D01*
X0019027Y0161116D01*
X0019080Y0160969D01*
X0019129Y0160821D01*
X0019174Y0160672D01*
X0019215Y0160522D01*
X0019252Y0160370D01*
X0019286Y0160218D01*
X0019316Y0160065D01*
X0019341Y0159911D01*
X0019363Y0159757D01*
X0019381Y0159602D01*
X0019395Y0159447D01*
X0019405Y0159292D01*
X0019411Y0159136D01*
X0019413Y0158980D01*
X0019411Y0158824D01*
X0019405Y0158668D01*
X0019395Y0158513D01*
X0019381Y0158358D01*
X0019363Y0158203D01*
X0019341Y0158049D01*
X0019316Y0157895D01*
X0019286Y0157742D01*
X0019252Y0157590D01*
X0019215Y0157438D01*
X0019174Y0157288D01*
X0019129Y0157139D01*
X0019080Y0156991D01*
X0019027Y0156844D01*
X0018971Y0156699D01*
X0018911Y0156555D01*
X0018847Y0156413D01*
X0018779Y0156272D01*
X0018708Y0156134D01*
X0018634Y0155997D01*
X0018556Y0155862D01*
X0018475Y0155729D01*
X0018390Y0155598D01*
X0018302Y0155469D01*
X0018211Y0155343D01*
X0018116Y0155219D01*
X0018019Y0155098D01*
X0017918Y0154979D01*
X0017814Y0154862D01*
X0017708Y0154749D01*
X0017598Y0154638D01*
X0017486Y0154530D01*
X0017371Y0154425D01*
X0017253Y0154322D01*
X0017133Y0154223D01*
X0017010Y0154127D01*
X0016885Y0154034D01*
X0016758Y0153945D01*
X0016628Y0153858D01*
X0016496Y0153775D01*
X0016362Y0153696D01*
X0016226Y0153619D01*
X0016088Y0153547D01*
X0015949Y0153477D01*
X0015807Y0153412D01*
X0015664Y0153350D01*
X0015520Y0153292D01*
X0015374Y0153237D01*
X0015226Y0153186D01*
X0015078Y0153139D01*
X0014928Y0153096D01*
X0014777Y0153057D01*
X0014625Y0153021D01*
X0014473Y0152990D01*
X0014319Y0152962D01*
X0014165Y0152938D01*
X0014011Y0152918D01*
X0013856Y0152902D01*
X0013700Y0152890D01*
X0013545Y0152882D01*
X0013389Y0152878D01*
X0013233Y0152878D01*
X0013077Y0152882D01*
X0012922Y0152890D01*
X0012766Y0152902D01*
X0012611Y0152918D01*
X0012457Y0152938D01*
X0012303Y0152962D01*
X0012149Y0152990D01*
X0011997Y0153021D01*
X0011845Y0153057D01*
X0011694Y0153096D01*
X0011544Y0153139D01*
X0011396Y0153186D01*
X0011248Y0153237D01*
X0011102Y0153292D01*
X0010958Y0153350D01*
X0010815Y0153412D01*
X0010673Y0153477D01*
X0010534Y0153547D01*
X0010396Y0153619D01*
X0010260Y0153696D01*
X0010126Y0153775D01*
X0009994Y0153858D01*
X0009864Y0153945D01*
X0009737Y0154034D01*
X0009612Y0154127D01*
X0009489Y0154223D01*
X0009369Y0154322D01*
X0009251Y0154425D01*
X0009136Y0154530D01*
X0009024Y0154638D01*
X0008914Y0154749D01*
X0008808Y0154862D01*
X0008704Y0154979D01*
X0008603Y0155098D01*
X0008506Y0155219D01*
X0008411Y0155343D01*
X0008320Y0155469D01*
X0008232Y0155598D01*
X0008147Y0155729D01*
X0008066Y0155862D01*
X0007988Y0155997D01*
X0007914Y0156134D01*
X0007843Y0156272D01*
X0007775Y0156413D01*
X0007711Y0156555D01*
X0007651Y0156699D01*
X0007595Y0156844D01*
X0007542Y0156991D01*
X0007493Y0157139D01*
X0007448Y0157288D01*
X0007407Y0157438D01*
X0007370Y0157590D01*
X0007336Y0157742D01*
X0007306Y0157895D01*
X0007281Y0158049D01*
X0007259Y0158203D01*
X0007241Y0158358D01*
X0007227Y0158513D01*
X0007217Y0158668D01*
X0007211Y0158824D01*
X0007209Y0158980D01*
D12*
X0013902Y0099925D03*
X0020594Y0099925D03*
X0020594Y0092051D03*
X0013902Y0092051D03*
X0037524Y0072366D03*
X0044217Y0072366D03*
X0044217Y0060555D03*
X0037524Y0060555D03*
X0037524Y0048744D03*
X0044217Y0048744D03*
X0044217Y0036933D03*
X0037524Y0036933D03*
X0037524Y0025122D03*
X0044217Y0025122D03*
G36*
X0090903Y0028017D02*
X0095166Y0027265D01*
X0094483Y0023389D01*
X0090220Y0024141D01*
X0090903Y0028017D01*
G37*
G36*
X0097494Y0026855D02*
X0101757Y0026103D01*
X0101074Y0022227D01*
X0096811Y0022979D01*
X0097494Y0026855D01*
G37*
G36*
X0110749Y0034828D02*
X0111501Y0030565D01*
X0107625Y0029882D01*
X0106873Y0034145D01*
X0110749Y0034828D01*
G37*
G36*
X0119334Y0030447D02*
X0120086Y0034710D01*
X0123962Y0034027D01*
X0123210Y0029764D01*
X0119334Y0030447D01*
G37*
G36*
X0118172Y0023855D02*
X0118924Y0028118D01*
X0122800Y0027435D01*
X0122048Y0023172D01*
X0118172Y0023855D01*
G37*
G36*
X0111911Y0028236D02*
X0112663Y0023973D01*
X0108787Y0023290D01*
X0108035Y0027553D01*
X0111911Y0028236D01*
G37*
G36*
X0096811Y0039076D02*
X0101074Y0039828D01*
X0101757Y0035952D01*
X0097494Y0035200D01*
X0096811Y0039076D01*
G37*
G36*
X0090220Y0037914D02*
X0094483Y0038666D01*
X0095166Y0034790D01*
X0090903Y0034038D01*
X0090220Y0037914D01*
G37*
D13*
X0040870Y0158980D03*
X0029059Y0158980D03*
D14*
X0025122Y0122957D03*
X0025122Y0116264D03*
X0017248Y0116264D03*
X0017248Y0122957D03*
D15*
X0084177Y0134374D03*
X0084177Y0159965D03*
X0187917Y0029059D03*
X0213508Y0029059D03*
D16*
X0060439Y0050098D03*
X0052958Y0050098D03*
X0056698Y0058760D03*
D17*
X0063705Y0086362D03*
X0063705Y0091362D03*
X0063705Y0096362D03*
X0063705Y0101362D03*
X0063705Y0106362D03*
X0063705Y0111362D03*
X0063705Y0116362D03*
X0063705Y0121362D03*
X0041657Y0121362D03*
X0041657Y0116362D03*
X0041657Y0111362D03*
X0041657Y0106362D03*
X0041657Y0101362D03*
X0041657Y0096362D03*
X0041657Y0091362D03*
X0041657Y0086362D03*
D18*
X0137543Y0036146D03*
X0142543Y0036146D03*
X0147543Y0036146D03*
X0152543Y0036146D03*
X0157543Y0036146D03*
X0162543Y0036146D03*
X0167543Y0036146D03*
X0172543Y0036146D03*
X0172543Y0014098D03*
X0167543Y0014098D03*
X0162543Y0014098D03*
X0157543Y0014098D03*
X0152543Y0014098D03*
X0147543Y0014098D03*
X0142543Y0014098D03*
X0137543Y0014098D03*
D19*
X0139295Y0025909D02*
X0139567Y0025909D01*
X0139838Y0025902D01*
X0140110Y0025889D01*
X0140381Y0025868D01*
X0140651Y0025842D01*
X0140921Y0025809D01*
X0141189Y0025769D01*
X0141457Y0025723D01*
X0141724Y0025670D01*
X0141989Y0025611D01*
X0142253Y0025545D01*
X0142515Y0025473D01*
X0142775Y0025395D01*
X0143033Y0025310D01*
X0143289Y0025219D01*
X0143543Y0025122D01*
X0143794Y0025019D01*
X0144043Y0024910D01*
X0144289Y0024795D01*
X0144532Y0024674D01*
X0144772Y0024547D01*
X0145009Y0024414D01*
X0145243Y0024275D01*
X0145473Y0024131D01*
X0145700Y0023982D01*
X0145923Y0023827D01*
X0146142Y0023666D01*
X0146358Y0023500D01*
X0146569Y0023329D01*
X0146776Y0023153D01*
X0142445Y0020791D02*
X0142543Y0014098D01*
X0147544Y0014098D02*
X0147615Y0014002D01*
X0147684Y0013904D01*
X0147749Y0013804D01*
X0147811Y0013702D01*
X0147870Y0013598D01*
X0147925Y0013492D01*
X0147976Y0013384D01*
X0148025Y0013274D01*
X0148069Y0013164D01*
X0148110Y0013051D01*
X0148147Y0012938D01*
X0148181Y0012823D01*
X0148210Y0012707D01*
X0148236Y0012590D01*
X0148258Y0012473D01*
X0148277Y0012355D01*
X0148291Y0012236D01*
X0148302Y0012117D01*
X0148308Y0011997D01*
X0148311Y0011878D01*
X0148310Y0011758D01*
X0148305Y0011639D01*
X0148296Y0011520D01*
X0148283Y0011401D01*
X0148266Y0011282D01*
X0148246Y0011165D01*
X0148221Y0011048D01*
X0148193Y0010931D01*
X0148161Y0010816D01*
X0148125Y0010702D01*
X0148086Y0010589D01*
X0148043Y0010478D01*
X0147996Y0010368D01*
X0147946Y0010259D01*
X0147892Y0010152D01*
X0147835Y0010047D01*
X0147774Y0009944D01*
X0147710Y0009843D01*
X0147643Y0009744D01*
X0147573Y0009648D01*
X0147499Y0009554D01*
X0147423Y0009462D01*
X0147343Y0009372D01*
X0147261Y0009286D01*
X0147176Y0009202D01*
X0147088Y0009121D01*
X0146997Y0009043D01*
X0146904Y0008967D01*
X0146809Y0008895D01*
X0146711Y0008826D01*
X0146611Y0008761D01*
X0146509Y0008698D01*
X0146406Y0008639D01*
X0146300Y0008583D01*
X0146192Y0008531D01*
X0146083Y0008482D01*
X0145972Y0008437D01*
X0145860Y0008396D01*
X0145747Y0008358D01*
X0145632Y0008324D01*
X0145516Y0008294D01*
X0145400Y0008267D01*
X0145282Y0008245D01*
X0145164Y0008226D01*
X0145046Y0008211D01*
X0144927Y0008200D01*
X0144807Y0008193D01*
X0153075Y0004256D02*
X0047957Y0005043D01*
X0049531Y0025122D02*
X0049955Y0025117D01*
X0050380Y0025101D01*
X0050803Y0025075D01*
X0051226Y0025039D01*
X0051648Y0024993D01*
X0052069Y0024936D01*
X0052488Y0024868D01*
X0052905Y0024791D01*
X0053321Y0024704D01*
X0053734Y0024606D01*
X0054144Y0024498D01*
X0054552Y0024380D01*
X0054957Y0024253D01*
X0055359Y0024115D01*
X0055757Y0023968D01*
X0056151Y0023811D01*
X0056542Y0023645D01*
X0056928Y0023469D01*
X0057310Y0023283D01*
X0057687Y0023088D01*
X0058059Y0022885D01*
X0058427Y0022672D01*
X0058788Y0022450D01*
X0059145Y0022219D01*
X0059496Y0021980D01*
X0059840Y0021732D01*
X0060179Y0021476D01*
X0060511Y0021212D01*
X0060837Y0020940D01*
X0061156Y0020660D01*
X0061468Y0020372D01*
X0061772Y0020076D01*
X0062070Y0019773D01*
X0062360Y0019464D01*
X0062642Y0019147D01*
X0062917Y0018823D01*
X0062918Y0018823D02*
X0062987Y0018742D01*
X0063060Y0018664D01*
X0063135Y0018588D01*
X0063214Y0018515D01*
X0063295Y0018445D01*
X0063378Y0018378D01*
X0063464Y0018314D01*
X0063552Y0018254D01*
X0063642Y0018196D01*
X0063735Y0018143D01*
X0063829Y0018092D01*
X0063925Y0018045D01*
X0064023Y0018002D01*
X0064122Y0017962D01*
X0064223Y0017926D01*
X0064325Y0017894D01*
X0064428Y0017866D01*
X0064532Y0017841D01*
X0064637Y0017821D01*
X0064743Y0017804D01*
X0064849Y0017791D01*
X0064955Y0017782D01*
X0065062Y0017777D01*
X0065169Y0017776D01*
X0065276Y0017779D01*
X0065383Y0017786D01*
X0065489Y0017797D01*
X0065595Y0017812D01*
X0065700Y0017830D01*
X0065805Y0017853D01*
X0065909Y0017879D01*
X0066011Y0017910D01*
X0066113Y0017944D01*
X0066213Y0017981D01*
X0066311Y0018023D01*
X0066408Y0018068D01*
X0066503Y0018116D01*
X0066597Y0018169D01*
X0066688Y0018224D01*
X0066777Y0018283D01*
X0066864Y0018345D01*
X0066949Y0018410D01*
X0067031Y0018479D01*
X0067111Y0018550D01*
X0067188Y0018625D01*
X0067262Y0018702D01*
X0067333Y0018782D01*
X0067401Y0018864D01*
X0067466Y0018949D01*
X0067528Y0019036D01*
X0067587Y0019125D01*
X0067642Y0019217D01*
X0067711Y0019308D01*
X0067783Y0019396D01*
X0067859Y0019482D01*
X0067937Y0019566D01*
X0068018Y0019647D01*
X0068101Y0019725D01*
X0068188Y0019799D01*
X0068276Y0019871D01*
X0068368Y0019940D01*
X0068461Y0020006D01*
X0068557Y0020068D01*
X0068655Y0020127D01*
X0068755Y0020183D01*
X0068856Y0020235D01*
X0068960Y0020284D01*
X0069065Y0020329D01*
X0069171Y0020371D01*
X0069279Y0020408D01*
X0069388Y0020442D01*
X0069499Y0020473D01*
X0069610Y0020499D01*
X0069722Y0020521D01*
X0069835Y0020540D01*
X0069948Y0020555D01*
X0070062Y0020566D01*
X0070176Y0020573D01*
X0070290Y0020576D01*
X0070405Y0020575D01*
X0070519Y0020570D01*
X0070633Y0020561D01*
X0070746Y0020549D01*
X0070859Y0020532D01*
X0070972Y0020512D01*
X0071084Y0020487D01*
X0071194Y0020459D01*
X0071304Y0020427D01*
X0071413Y0020391D01*
X0071520Y0020352D01*
X0071626Y0020309D01*
X0071730Y0020262D01*
X0071833Y0020212D01*
X0071934Y0020158D01*
X0072033Y0020101D01*
X0072130Y0020040D01*
X0072224Y0019976D01*
X0072317Y0019909D01*
X0072407Y0019839D01*
X0072495Y0019765D01*
X0072580Y0019689D01*
X0072662Y0019610D01*
X0072742Y0019528D01*
X0072818Y0019443D01*
X0072892Y0019356D01*
X0072963Y0019266D01*
X0073031Y0019174D01*
X0073095Y0019079D01*
X0073156Y0018983D01*
X0073214Y0018884D01*
X0073268Y0018783D01*
X0073319Y0018681D01*
X0073366Y0018577D01*
X0073410Y0018471D01*
X0073450Y0018364D01*
X0073486Y0018256D01*
X0073519Y0018146D01*
X0073547Y0018036D01*
X0064886Y0025516D02*
X0058193Y0025909D01*
X0049531Y0025122D02*
X0044217Y0025122D01*
X0040870Y0021972D02*
X0040857Y0021850D01*
X0040848Y0021728D01*
X0040842Y0021605D01*
X0040841Y0021482D01*
X0040843Y0021360D01*
X0040850Y0021237D01*
X0040860Y0021115D01*
X0040874Y0020993D01*
X0040891Y0020871D01*
X0040913Y0020750D01*
X0040938Y0020630D01*
X0040967Y0020511D01*
X0041000Y0020393D01*
X0041036Y0020275D01*
X0041076Y0020159D01*
X0041120Y0020045D01*
X0041167Y0019931D01*
X0041218Y0019820D01*
X0041272Y0019710D01*
X0041329Y0019601D01*
X0041390Y0019495D01*
X0041454Y0019390D01*
X0041522Y0019287D01*
X0041592Y0019187D01*
X0041666Y0019089D01*
X0041743Y0018993D01*
X0041823Y0018900D01*
X0041905Y0018809D01*
X0041991Y0018721D01*
X0042079Y0018635D01*
X0042169Y0018553D01*
X0042263Y0018473D01*
X0042358Y0018396D01*
X0042456Y0018322D01*
X0042557Y0018252D01*
X0042659Y0018184D01*
X0042764Y0018120D01*
X0042870Y0018059D01*
X0042979Y0018001D01*
X0043089Y0017947D01*
X0043200Y0017896D01*
X0043314Y0017849D01*
X0043428Y0017805D01*
X0043544Y0017765D01*
X0043662Y0017729D01*
X0043780Y0017696D01*
X0043899Y0017667D01*
X0044019Y0017641D01*
X0042051Y0007012D02*
X0042241Y0006873D01*
X0042433Y0006739D01*
X0042629Y0006610D01*
X0042828Y0006485D01*
X0043029Y0006365D01*
X0043234Y0006250D01*
X0043441Y0006140D01*
X0043651Y0006035D01*
X0043863Y0005935D01*
X0044077Y0005840D01*
X0044294Y0005750D01*
X0044513Y0005665D01*
X0044733Y0005586D01*
X0044956Y0005512D01*
X0045180Y0005443D01*
X0045406Y0005379D01*
X0045633Y0005321D01*
X0045862Y0005269D01*
X0046092Y0005221D01*
X0046322Y0005180D01*
X0046554Y0005143D01*
X0046787Y0005113D01*
X0047020Y0005088D01*
X0047254Y0005068D01*
X0047488Y0005054D01*
X0047722Y0005046D01*
X0047957Y0005043D01*
X0037720Y0010161D02*
X0041572Y0010723D01*
X0045436Y0011192D01*
X0049310Y0011567D01*
X0053192Y0011849D01*
X0057080Y0012037D01*
X0060971Y0012131D01*
X0064863Y0012131D01*
X0068754Y0012037D01*
X0072642Y0011849D01*
X0076524Y0011567D01*
X0080398Y0011192D01*
X0084262Y0010723D01*
X0088114Y0010161D01*
X0088355Y0010136D01*
X0088596Y0010117D01*
X0088837Y0010104D01*
X0089079Y0010097D01*
X0089321Y0010095D01*
X0089563Y0010100D01*
X0089805Y0010110D01*
X0090046Y0010127D01*
X0090287Y0010149D01*
X0090527Y0010177D01*
X0090767Y0010211D01*
X0091005Y0010251D01*
X0091243Y0010297D01*
X0091479Y0010348D01*
X0091714Y0010406D01*
X0091948Y0010469D01*
X0092180Y0010538D01*
X0092410Y0010612D01*
X0092639Y0010692D01*
X0092865Y0010778D01*
X0093089Y0010869D01*
X0093311Y0010965D01*
X0093530Y0011067D01*
X0093747Y0011174D01*
X0093961Y0011287D01*
X0094173Y0011405D01*
X0094381Y0011528D01*
X0094586Y0011656D01*
X0094788Y0011789D01*
X0094987Y0011927D01*
X0095183Y0012069D01*
X0095374Y0012217D01*
X0095562Y0012369D01*
X0095747Y0012526D01*
X0095927Y0012687D01*
X0096104Y0012852D01*
X0096276Y0013022D01*
X0096444Y0013196D01*
X0096608Y0013374D01*
X0096768Y0013556D01*
X0096923Y0013742D01*
X0097073Y0013931D01*
X0097219Y0014125D01*
X0097359Y0014321D01*
X0097495Y0014521D01*
X0097627Y0014725D01*
X0097753Y0014931D01*
X0097874Y0015141D01*
X0097989Y0015353D01*
X0098100Y0015568D01*
X0098205Y0015786D01*
X0098305Y0016006D01*
X0098400Y0016229D01*
X0098489Y0016454D01*
X0098572Y0016681D01*
X0098650Y0016910D01*
X0098722Y0017141D01*
X0098789Y0017374D01*
X0098850Y0017608D01*
X0098905Y0017843D01*
X0098954Y0018080D01*
X0098998Y0018318D01*
X0099035Y0018557D01*
X0099067Y0018797D01*
X0099093Y0019038D01*
X0099113Y0019279D01*
X0099127Y0019520D01*
X0099136Y0019762D01*
X0099138Y0020004D01*
X0099284Y0024541D01*
X0104650Y0029847D02*
X0104482Y0030023D01*
X0104310Y0030196D01*
X0104135Y0030364D01*
X0103955Y0030528D01*
X0103771Y0030688D01*
X0103584Y0030843D01*
X0103392Y0030994D01*
X0103198Y0031141D01*
X0103000Y0031282D01*
X0102798Y0031419D01*
X0102594Y0031551D01*
X0102386Y0031678D01*
X0102175Y0031801D01*
X0101962Y0031918D01*
X0101746Y0032030D01*
X0101527Y0032137D01*
X0101306Y0032238D01*
X0101082Y0032335D01*
X0100856Y0032426D01*
X0100628Y0032511D01*
X0100398Y0032591D01*
X0100166Y0032666D01*
X0099933Y0032735D01*
X0099698Y0032799D01*
X0099461Y0032856D01*
X0099223Y0032909D01*
X0098984Y0032955D01*
X0098744Y0032996D01*
X0099284Y0037514D02*
X0070398Y0062917D01*
X0051107Y0042444D02*
X0050550Y0042817D01*
X0050001Y0043201D01*
X0049463Y0043599D01*
X0048933Y0044009D01*
X0048413Y0044432D01*
X0047903Y0044866D01*
X0047404Y0045312D01*
X0046915Y0045770D01*
X0046437Y0046239D01*
X0045969Y0046719D01*
X0045514Y0047210D01*
X0045069Y0047711D01*
X0044637Y0048222D01*
X0044217Y0048744D01*
X0040322Y0053682D02*
X0044217Y0060555D01*
X0044252Y0060434D01*
X0044291Y0060315D01*
X0044334Y0060196D01*
X0044380Y0060079D01*
X0044430Y0059964D01*
X0044484Y0059850D01*
X0044541Y0059738D01*
X0044602Y0059628D01*
X0044666Y0059520D01*
X0044734Y0059414D01*
X0044804Y0059310D01*
X0044878Y0059209D01*
X0044956Y0059109D01*
X0045036Y0059012D01*
X0045119Y0058918D01*
X0045205Y0058827D01*
X0045294Y0058738D01*
X0045386Y0058652D01*
X0045480Y0058569D01*
X0045577Y0058489D01*
X0045677Y0058412D01*
X0045779Y0058338D01*
X0045883Y0058267D01*
X0045989Y0058200D01*
X0046097Y0058136D01*
X0046207Y0058075D01*
X0046319Y0058018D01*
X0046433Y0057965D01*
X0046549Y0057915D01*
X0046666Y0057869D01*
X0046784Y0057826D01*
X0046904Y0057788D01*
X0047024Y0057753D01*
X0047146Y0057721D01*
X0047269Y0057694D01*
X0047392Y0057670D01*
X0047517Y0057651D01*
X0047641Y0057635D01*
X0047767Y0057623D01*
X0047892Y0057615D01*
X0048018Y0057611D01*
X0048144Y0057612D01*
X0048269Y0057615D01*
X0048395Y0057623D01*
X0048520Y0057635D01*
X0048645Y0057651D01*
X0048769Y0057671D01*
X0048892Y0057694D01*
X0049015Y0057722D01*
X0049137Y0057753D01*
X0049258Y0057788D01*
X0049377Y0057827D01*
X0049496Y0057869D01*
X0049613Y0057916D01*
X0049728Y0057966D01*
X0049842Y0058019D01*
X0049954Y0058076D01*
X0050064Y0058137D01*
X0050172Y0058201D01*
X0050278Y0058268D01*
X0050383Y0058339D01*
X0050484Y0058412D01*
X0050584Y0058489D01*
X0050681Y0058570D01*
X0050775Y0058653D01*
X0050867Y0058739D01*
X0050956Y0058828D01*
X0051042Y0058919D01*
X0051125Y0059013D01*
X0051205Y0059110D01*
X0051282Y0059210D01*
X0051356Y0059311D01*
X0051427Y0059415D01*
X0051495Y0059521D01*
X0051559Y0059629D01*
X0051619Y0059740D01*
X0051677Y0059852D01*
X0051730Y0059965D01*
X0051780Y0060081D01*
X0051827Y0060198D01*
X0051870Y0060316D01*
X0051909Y0060435D01*
X0051944Y0060556D01*
X0051975Y0060678D01*
X0052003Y0060801D01*
X0052026Y0060924D01*
X0052046Y0061048D01*
X0052062Y0061173D01*
X0052074Y0061298D01*
X0052082Y0061424D01*
X0052086Y0061549D01*
X0052087Y0061675D01*
X0052083Y0061801D01*
X0052075Y0061926D01*
X0052063Y0062051D01*
X0052048Y0062176D01*
X0052028Y0062300D01*
X0052005Y0062424D01*
X0051978Y0062547D01*
X0051947Y0062669D01*
X0051912Y0062789D01*
X0051873Y0062909D01*
X0051831Y0063027D01*
X0051785Y0063144D01*
X0051735Y0063260D01*
X0051682Y0063374D01*
X0051625Y0063486D01*
X0051565Y0063596D01*
X0051501Y0063705D01*
X0058587Y0072366D02*
X0058810Y0072337D01*
X0059032Y0072303D01*
X0059253Y0072264D01*
X0059474Y0072219D01*
X0059693Y0072169D01*
X0059911Y0072113D01*
X0060127Y0072053D01*
X0060342Y0071987D01*
X0060556Y0071916D01*
X0060767Y0071840D01*
X0060977Y0071759D01*
X0061185Y0071673D01*
X0061390Y0071582D01*
X0061594Y0071487D01*
X0061795Y0071386D01*
X0061993Y0071280D01*
X0062189Y0071170D01*
X0062383Y0071055D01*
X0062573Y0070936D01*
X0062761Y0070812D01*
X0062945Y0070683D01*
X0063126Y0070550D01*
X0063305Y0070413D01*
X0063479Y0070272D01*
X0063651Y0070126D01*
X0063818Y0069977D01*
X0063983Y0069823D01*
X0064143Y0069666D01*
X0064300Y0069504D01*
X0064452Y0069339D01*
X0064601Y0069171D01*
X0064746Y0068998D01*
X0064886Y0068823D01*
X0065672Y0057800D02*
X0065741Y0057974D01*
X0065805Y0058150D01*
X0065865Y0058328D01*
X0065920Y0058507D01*
X0065971Y0058687D01*
X0066018Y0058868D01*
X0066060Y0059051D01*
X0066098Y0059234D01*
X0066131Y0059419D01*
X0066160Y0059604D01*
X0066184Y0059790D01*
X0066204Y0059976D01*
X0066219Y0060163D01*
X0066229Y0060350D01*
X0066235Y0060537D01*
X0066237Y0060724D01*
X0066234Y0060912D01*
X0066226Y0061099D01*
X0066214Y0061286D01*
X0066197Y0061472D01*
X0066176Y0061658D01*
X0066150Y0061844D01*
X0066119Y0062029D01*
X0066084Y0062213D01*
X0066045Y0062396D01*
X0066001Y0062578D01*
X0065953Y0062759D01*
X0065900Y0062939D01*
X0065843Y0063117D01*
X0065781Y0063294D01*
X0065716Y0063470D01*
X0065646Y0063644D01*
X0065571Y0063816D01*
X0065493Y0063986D01*
X0065411Y0064154D01*
X0065324Y0064320D01*
X0065233Y0064484D01*
X0065139Y0064646D01*
X0065040Y0064805D01*
X0064938Y0064962D01*
X0064832Y0065116D01*
X0064722Y0065268D01*
X0064608Y0065417D01*
X0064491Y0065563D01*
X0064370Y0065707D01*
X0064246Y0065847D01*
X0064119Y0065984D01*
X0063988Y0066118D01*
X0063854Y0066249D01*
X0063716Y0066377D01*
X0063576Y0066501D01*
X0063433Y0066621D01*
X0063287Y0066738D01*
X0063137Y0066852D01*
X0062986Y0066962D01*
X0062831Y0067068D01*
X0062674Y0067170D01*
X0062515Y0067269D01*
X0062353Y0067363D01*
X0062189Y0067454D01*
X0062023Y0067540D01*
X0061855Y0067623D01*
X0061685Y0067701D01*
X0061513Y0067775D01*
X0061339Y0067845D01*
X0061163Y0067911D01*
X0060986Y0067972D01*
X0060808Y0068030D01*
X0060628Y0068082D01*
X0060447Y0068130D01*
X0060265Y0068174D01*
X0060082Y0068214D01*
X0059898Y0068249D01*
X0059713Y0068279D01*
X0059527Y0068305D01*
X0059341Y0068326D01*
X0059155Y0068343D01*
X0058968Y0068355D01*
X0058780Y0068363D01*
X0058593Y0068366D01*
X0058406Y0068364D01*
X0058219Y0068358D01*
X0058032Y0068348D01*
X0057845Y0068333D01*
X0057658Y0068313D01*
X0057473Y0068289D01*
X0057288Y0068260D01*
X0057103Y0068227D01*
X0056920Y0068189D01*
X0056737Y0068146D01*
X0056556Y0068100D01*
X0056376Y0068049D01*
X0056197Y0067993D01*
X0056019Y0067933D01*
X0055843Y0067869D01*
X0055669Y0067801D01*
X0055496Y0067728D01*
X0055325Y0067651D01*
X0055156Y0067570D01*
X0054989Y0067485D01*
X0054824Y0067396D01*
X0054662Y0067303D01*
X0054502Y0067206D01*
X0054344Y0067105D01*
X0054189Y0067000D01*
X0054036Y0066891D01*
X0053886Y0066779D01*
X0053739Y0066663D01*
X0053594Y0066544D01*
X0053453Y0066421D01*
X0053315Y0066295D01*
X0053179Y0066165D01*
X0053047Y0066032D01*
X0052919Y0065896D01*
X0052793Y0065757D01*
X0052671Y0065614D01*
X0052553Y0065469D01*
X0052438Y0065321D01*
X0052327Y0065170D01*
X0052219Y0065017D01*
X0052116Y0064861D01*
X0052016Y0064703D01*
X0051920Y0064542D01*
X0051828Y0064378D01*
X0051740Y0064213D01*
X0051656Y0064046D01*
X0051576Y0063876D01*
X0051500Y0063705D01*
X0051894Y0070398D02*
X0044217Y0072366D01*
X0037524Y0072367D02*
X0037505Y0072524D01*
X0037490Y0072681D01*
X0037479Y0072839D01*
X0037472Y0072997D01*
X0037468Y0073156D01*
X0037469Y0073314D01*
X0037474Y0073472D01*
X0037482Y0073630D01*
X0037495Y0073788D01*
X0037511Y0073946D01*
X0037532Y0074103D01*
X0037556Y0074259D01*
X0037584Y0074415D01*
X0037617Y0074570D01*
X0037653Y0074724D01*
X0037693Y0074877D01*
X0037736Y0075029D01*
X0037784Y0075180D01*
X0037835Y0075330D01*
X0037890Y0075479D01*
X0037949Y0075626D01*
X0038011Y0075771D01*
X0038078Y0075915D01*
X0038147Y0076057D01*
X0038220Y0076198D01*
X0038297Y0076336D01*
X0038377Y0076473D01*
X0038461Y0076607D01*
X0038548Y0076740D01*
X0038638Y0076870D01*
X0038731Y0076998D01*
X0038828Y0077123D01*
X0038927Y0077246D01*
X0039030Y0077367D01*
X0039136Y0077484D01*
X0039245Y0077600D01*
X0039356Y0077712D01*
X0039470Y0077822D01*
X0039587Y0077928D01*
X0039707Y0078032D01*
X0039829Y0078133D01*
X0039954Y0078230D01*
X0040081Y0078325D01*
X0040210Y0078416D01*
X0040342Y0078504D01*
X0040476Y0078588D01*
X0040612Y0078670D01*
X0040750Y0078747D01*
X0040889Y0078822D01*
X0041031Y0078892D01*
X0041174Y0078960D01*
X0041319Y0079023D01*
X0041466Y0079083D01*
X0041614Y0079140D01*
X0041763Y0079192D01*
X0041914Y0079241D01*
X0042066Y0079286D01*
X0042219Y0079327D01*
X0042373Y0079364D01*
X0042527Y0079398D01*
X0042683Y0079427D01*
X0042839Y0079453D01*
X0043626Y0082995D02*
X0043516Y0083059D01*
X0043405Y0083120D01*
X0043291Y0083177D01*
X0043176Y0083230D01*
X0043060Y0083281D01*
X0042942Y0083328D01*
X0042823Y0083371D01*
X0042703Y0083411D01*
X0042581Y0083447D01*
X0042458Y0083479D01*
X0042335Y0083508D01*
X0042211Y0083533D01*
X0042086Y0083555D01*
X0041960Y0083572D01*
X0041834Y0083586D01*
X0041708Y0083597D01*
X0041581Y0083603D01*
X0041454Y0083606D01*
X0041328Y0083605D01*
X0041201Y0083600D01*
X0041074Y0083591D01*
X0040948Y0083579D01*
X0040822Y0083563D01*
X0040697Y0083543D01*
X0040572Y0083520D01*
X0040449Y0083493D01*
X0040326Y0083462D01*
X0040204Y0083427D01*
X0040083Y0083389D01*
X0040083Y0083390D02*
X0040000Y0083365D01*
X0039917Y0083343D01*
X0039832Y0083326D01*
X0039747Y0083312D01*
X0039662Y0083303D01*
X0039576Y0083297D01*
X0039489Y0083295D01*
X0039403Y0083297D01*
X0039317Y0083303D01*
X0039231Y0083314D01*
X0039146Y0083328D01*
X0039062Y0083346D01*
X0038979Y0083367D01*
X0038896Y0083393D01*
X0038815Y0083423D01*
X0038736Y0083456D01*
X0038658Y0083492D01*
X0038581Y0083533D01*
X0038507Y0083577D01*
X0038435Y0083624D01*
X0038365Y0083674D01*
X0038298Y0083728D01*
X0038233Y0083784D01*
X0038170Y0083844D01*
X0038111Y0083907D01*
X0038054Y0083972D01*
X0038001Y0084039D01*
X0037951Y0084109D01*
X0037903Y0084182D01*
X0037860Y0084256D01*
X0037820Y0084332D01*
X0037783Y0084410D01*
X0037750Y0084490D01*
X0037721Y0084571D01*
X0036933Y0080634D02*
X0030634Y0079846D01*
X0025122Y0086539D02*
X0027091Y0088902D01*
X0030240Y0103075D01*
X0032209Y0111736D01*
X0036539Y0113705D02*
X0046776Y0113705D01*
X0046776Y0101362D01*
X0041657Y0101362D01*
X0041658Y0106362D02*
X0041561Y0106426D01*
X0041462Y0106488D01*
X0041361Y0106545D01*
X0041258Y0106599D01*
X0041153Y0106650D01*
X0041047Y0106697D01*
X0040939Y0106741D01*
X0040829Y0106781D01*
X0040719Y0106817D01*
X0040607Y0106849D01*
X0040494Y0106877D01*
X0040380Y0106902D01*
X0040266Y0106922D01*
X0040151Y0106939D01*
X0040035Y0106952D01*
X0039919Y0106961D01*
X0039803Y0106966D01*
X0039687Y0106967D01*
X0039570Y0106964D01*
X0039454Y0106957D01*
X0039338Y0106946D01*
X0039223Y0106931D01*
X0039108Y0106913D01*
X0038994Y0106890D01*
X0038881Y0106863D01*
X0038768Y0106833D01*
X0038657Y0106799D01*
X0038547Y0106761D01*
X0038439Y0106719D01*
X0038331Y0106674D01*
X0038226Y0106625D01*
X0038122Y0106573D01*
X0038020Y0106517D01*
X0037920Y0106457D01*
X0037822Y0106394D01*
X0037726Y0106328D01*
X0037633Y0106259D01*
X0037542Y0106186D01*
X0037453Y0106111D01*
X0037367Y0106032D01*
X0037284Y0105951D01*
X0037204Y0105867D01*
X0037127Y0105780D01*
X0037052Y0105691D01*
X0036981Y0105599D01*
X0036913Y0105504D01*
X0036848Y0105408D01*
X0036786Y0105309D01*
X0036728Y0105208D01*
X0036673Y0105106D01*
X0036622Y0105001D01*
X0036574Y0104895D01*
X0036530Y0104787D01*
X0036490Y0104678D01*
X0036453Y0104568D01*
X0036421Y0104456D01*
X0036392Y0104344D01*
X0036367Y0104230D01*
X0036345Y0104116D01*
X0036328Y0104001D01*
X0036315Y0103885D01*
X0036305Y0103769D01*
X0036300Y0103653D01*
X0036298Y0103536D01*
X0036300Y0103420D01*
X0036307Y0103304D01*
X0036317Y0103188D01*
X0036331Y0103073D01*
X0036350Y0102958D01*
X0036372Y0102843D01*
X0036398Y0102730D01*
X0036427Y0102618D01*
X0036461Y0102506D01*
X0036498Y0102396D01*
X0036539Y0102287D01*
X0033391Y0107012D02*
X0033443Y0107148D01*
X0033500Y0107284D01*
X0033560Y0107418D01*
X0033623Y0107550D01*
X0033690Y0107680D01*
X0033760Y0107809D01*
X0033834Y0107936D01*
X0033911Y0108061D01*
X0033992Y0108183D01*
X0034075Y0108304D01*
X0034162Y0108422D01*
X0034252Y0108538D01*
X0034345Y0108651D01*
X0034441Y0108762D01*
X0034539Y0108871D01*
X0034641Y0108977D01*
X0034745Y0109080D01*
X0034852Y0109180D01*
X0034962Y0109277D01*
X0035074Y0109371D01*
X0035189Y0109463D01*
X0035306Y0109551D01*
X0035426Y0109636D01*
X0035547Y0109718D01*
X0035671Y0109797D01*
X0035797Y0109872D01*
X0035925Y0109944D01*
X0036054Y0110013D01*
X0036186Y0110078D01*
X0036319Y0110140D01*
X0036453Y0110198D01*
X0036590Y0110252D01*
X0036727Y0110303D01*
X0036866Y0110350D01*
X0037006Y0110394D01*
X0037147Y0110433D01*
X0037289Y0110469D01*
X0037432Y0110502D01*
X0037576Y0110530D01*
X0037721Y0110555D01*
X0037720Y0110555D02*
X0041657Y0111362D01*
X0041657Y0121362D02*
X0041541Y0121430D01*
X0041422Y0121495D01*
X0041302Y0121556D01*
X0041180Y0121614D01*
X0041056Y0121668D01*
X0040931Y0121718D01*
X0040805Y0121765D01*
X0040677Y0121808D01*
X0040548Y0121848D01*
X0040418Y0121884D01*
X0040287Y0121916D01*
X0040155Y0121944D01*
X0040022Y0121968D01*
X0039889Y0121989D01*
X0039755Y0122005D01*
X0039621Y0122018D01*
X0039486Y0122027D01*
X0039351Y0122032D01*
X0039216Y0122033D01*
X0039081Y0122030D01*
X0038947Y0122023D01*
X0038812Y0122013D01*
X0038678Y0121998D01*
X0038544Y0121980D01*
X0038411Y0121958D01*
X0038279Y0121931D01*
X0038147Y0121902D01*
X0038017Y0121868D01*
X0037887Y0121830D01*
X0037759Y0121789D01*
X0037632Y0121744D01*
X0037506Y0121696D01*
X0037381Y0121644D01*
X0037258Y0121588D01*
X0037137Y0121529D01*
X0037018Y0121466D01*
X0036900Y0121400D01*
X0036785Y0121330D01*
X0036671Y0121257D01*
X0036560Y0121181D01*
X0036451Y0121102D01*
X0036344Y0121019D01*
X0036239Y0120934D01*
X0036137Y0120846D01*
X0036038Y0120754D01*
X0035942Y0120660D01*
X0035848Y0120563D01*
X0035757Y0120463D01*
X0035669Y0120361D01*
X0035584Y0120256D01*
X0035502Y0120149D01*
X0035423Y0120040D01*
X0035347Y0119928D01*
X0035275Y0119814D01*
X0035206Y0119698D01*
X0035140Y0119581D01*
X0035078Y0119461D01*
X0035019Y0119339D01*
X0034964Y0119216D01*
X0025122Y0116264D02*
X0025122Y0110161D01*
X0020594Y0099925D02*
X0020672Y0099750D01*
X0020754Y0099578D01*
X0020841Y0099407D01*
X0020931Y0099239D01*
X0021026Y0099073D01*
X0021124Y0098909D01*
X0021227Y0098747D01*
X0021333Y0098589D01*
X0021443Y0098432D01*
X0021557Y0098279D01*
X0021675Y0098128D01*
X0021796Y0097980D01*
X0021921Y0097835D01*
X0022049Y0097694D01*
X0022181Y0097555D01*
X0022316Y0097420D01*
X0022454Y0097288D01*
X0022595Y0097159D01*
X0022740Y0097034D01*
X0022887Y0096912D01*
X0023038Y0096794D01*
X0023191Y0096680D01*
X0023347Y0096569D01*
X0023505Y0096463D01*
X0023666Y0096360D01*
X0023830Y0096261D01*
X0023996Y0096166D01*
X0024164Y0096075D01*
X0024334Y0095988D01*
X0024335Y0104256D02*
X0024213Y0104357D01*
X0024089Y0104455D01*
X0023962Y0104550D01*
X0023833Y0104642D01*
X0023702Y0104731D01*
X0023568Y0104816D01*
X0023433Y0104898D01*
X0023295Y0104976D01*
X0023155Y0105051D01*
X0023014Y0105123D01*
X0022871Y0105191D01*
X0022726Y0105255D01*
X0022580Y0105316D01*
X0022432Y0105373D01*
X0022283Y0105426D01*
X0022133Y0105476D01*
X0021981Y0105521D01*
X0021828Y0105563D01*
X0021675Y0105602D01*
X0021520Y0105636D01*
X0021365Y0105666D01*
X0021209Y0105693D01*
X0021052Y0105716D01*
X0020895Y0105734D01*
X0020737Y0105749D01*
X0020579Y0105760D01*
X0020421Y0105767D01*
X0020262Y0105770D01*
X0020104Y0105769D01*
X0019946Y0105764D01*
X0019787Y0105755D01*
X0019630Y0105742D01*
X0019472Y0105725D01*
X0019315Y0105705D01*
X0019159Y0105680D01*
X0019003Y0105652D01*
X0018848Y0105619D01*
X0018694Y0105583D01*
X0018540Y0105543D01*
X0018388Y0105499D01*
X0018237Y0105451D01*
X0018087Y0105400D01*
X0017939Y0105344D01*
X0017792Y0105285D01*
X0017646Y0105223D01*
X0017503Y0105157D01*
X0017360Y0105087D01*
X0017220Y0105014D01*
X0017081Y0104937D01*
X0016945Y0104857D01*
X0016810Y0104773D01*
X0016678Y0104686D01*
X0016548Y0104596D01*
X0016420Y0104503D01*
X0016294Y0104406D01*
X0016171Y0104307D01*
X0016051Y0104204D01*
X0015933Y0104098D01*
X0015817Y0103990D01*
X0015705Y0103878D01*
X0015595Y0103764D01*
X0015488Y0103647D01*
X0015384Y0103527D01*
X0015284Y0103405D01*
X0015186Y0103281D01*
X0015091Y0103154D01*
X0015000Y0103024D01*
X0014912Y0102893D01*
X0014827Y0102759D01*
X0014745Y0102623D01*
X0014667Y0102485D01*
X0014593Y0102346D01*
X0014522Y0102204D01*
X0014454Y0102061D01*
X0014390Y0101916D01*
X0014330Y0101770D01*
X0014273Y0101622D01*
X0014220Y0101472D01*
X0014171Y0101322D01*
X0014126Y0101170D01*
X0014084Y0101017D01*
X0014046Y0100863D01*
X0014012Y0100709D01*
X0013982Y0100553D01*
X0013956Y0100397D01*
X0013934Y0100240D01*
X0013916Y0100083D01*
X0013901Y0099925D01*
X0013902Y0099925D02*
X0013311Y0111736D01*
X0013310Y0111736D02*
X0013306Y0111866D01*
X0013305Y0111996D01*
X0013308Y0112126D01*
X0013316Y0112255D01*
X0013327Y0112385D01*
X0013342Y0112514D01*
X0013360Y0112643D01*
X0013383Y0112771D01*
X0013410Y0112898D01*
X0013440Y0113024D01*
X0013474Y0113150D01*
X0013512Y0113274D01*
X0013553Y0113397D01*
X0013599Y0113519D01*
X0013647Y0113640D01*
X0013700Y0113759D01*
X0013756Y0113876D01*
X0013815Y0113991D01*
X0013878Y0114105D01*
X0013945Y0114217D01*
X0014014Y0114327D01*
X0014087Y0114434D01*
X0014163Y0114540D01*
X0014243Y0114643D01*
X0014325Y0114743D01*
X0014410Y0114841D01*
X0014499Y0114937D01*
X0014590Y0115030D01*
X0014683Y0115120D01*
X0014780Y0115207D01*
X0014879Y0115291D01*
X0014980Y0115372D01*
X0015084Y0115450D01*
X0015190Y0115525D01*
X0015299Y0115597D01*
X0015409Y0115666D01*
X0015522Y0115731D01*
X0015636Y0115792D01*
X0015752Y0115851D01*
X0015870Y0115905D01*
X0015990Y0115957D01*
X0016111Y0116004D01*
X0016233Y0116048D01*
X0016357Y0116088D01*
X0016481Y0116125D01*
X0016607Y0116157D01*
X0016734Y0116186D01*
X0016861Y0116211D01*
X0016990Y0116233D01*
X0017118Y0116250D01*
X0017248Y0116264D01*
X0013705Y0121185D02*
X0013536Y0121098D01*
X0013369Y0121006D01*
X0013204Y0120911D01*
X0013042Y0120812D01*
X0012882Y0120709D01*
X0012725Y0120602D01*
X0012570Y0120491D01*
X0012418Y0120376D01*
X0012269Y0120258D01*
X0012123Y0120137D01*
X0011979Y0120011D01*
X0011839Y0119883D01*
X0011702Y0119750D01*
X0011569Y0119615D01*
X0011438Y0119476D01*
X0011311Y0119335D01*
X0011188Y0119190D01*
X0011068Y0119042D01*
X0010951Y0118892D01*
X0010839Y0118738D01*
X0010730Y0118582D01*
X0010625Y0118424D01*
X0010524Y0118263D01*
X0010426Y0118099D01*
X0010333Y0117933D01*
X0010244Y0117765D01*
X0010159Y0117595D01*
X0010078Y0117423D01*
X0010001Y0117248D01*
X0009929Y0117073D01*
X0009861Y0116895D01*
X0009797Y0116716D01*
X0009737Y0116535D01*
X0009682Y0116353D01*
X0009632Y0116169D01*
X0009585Y0115985D01*
X0009544Y0115799D01*
X0009507Y0115612D01*
X0009474Y0115425D01*
X0009446Y0115237D01*
X0009423Y0115048D01*
X0009404Y0114859D01*
X0009389Y0114669D01*
X0009380Y0114479D01*
X0009375Y0114289D01*
X0009374Y0114098D01*
X0013705Y0121185D02*
X0017248Y0122957D01*
X0025122Y0122957D02*
X0029059Y0158980D01*
X0041657Y0116363D02*
X0042653Y0116605D01*
X0043642Y0116871D01*
X0044624Y0117161D01*
X0045600Y0117475D01*
X0046567Y0117812D01*
X0047526Y0118172D01*
X0048476Y0118555D01*
X0049417Y0118962D01*
X0050347Y0119390D01*
X0051267Y0119841D01*
X0052176Y0120315D01*
X0053073Y0120809D01*
X0053958Y0121326D01*
X0054830Y0121864D01*
X0055689Y0122422D01*
X0056534Y0123001D01*
X0057365Y0123600D01*
X0058181Y0124220D01*
X0058982Y0124858D01*
X0059767Y0125516D01*
X0044019Y0017641D02*
X0046635Y0017076D01*
X0049263Y0016571D01*
X0051901Y0016126D01*
X0054549Y0015743D01*
X0057206Y0015420D01*
X0059869Y0015159D01*
X0062537Y0014960D01*
X0065210Y0014821D01*
X0067884Y0014745D01*
X0070560Y0014730D01*
X0073236Y0014777D01*
X0075909Y0014885D01*
X0092445Y0016854D02*
X0092322Y0016920D01*
X0092200Y0016989D01*
X0092081Y0017062D01*
X0091964Y0017138D01*
X0091849Y0017217D01*
X0091737Y0017300D01*
X0091627Y0017386D01*
X0091519Y0017474D01*
X0091414Y0017566D01*
X0091312Y0017661D01*
X0091212Y0017759D01*
X0091115Y0017859D01*
X0091021Y0017962D01*
X0090930Y0018068D01*
X0090842Y0018176D01*
X0090757Y0018287D01*
X0090675Y0018400D01*
X0090597Y0018515D01*
X0090522Y0018633D01*
X0090450Y0018753D01*
X0090382Y0018874D01*
X0090317Y0018998D01*
X0090255Y0019123D01*
X0090198Y0019250D01*
X0090144Y0019379D01*
X0090093Y0019509D01*
X0090047Y0019641D01*
X0090004Y0019773D01*
X0089964Y0019907D01*
X0089929Y0020042D01*
X0089898Y0020178D01*
X0089870Y0020315D01*
X0089846Y0020453D01*
X0089826Y0020591D01*
X0089810Y0020729D01*
X0089799Y0020868D01*
X0089791Y0021008D01*
X0089787Y0021147D01*
X0089786Y0021287D01*
X0089790Y0021426D01*
X0089798Y0021565D01*
X0089810Y0021705D01*
X0089826Y0021843D01*
X0089846Y0021981D01*
X0089869Y0022119D01*
X0089897Y0022256D01*
X0089928Y0022392D01*
X0089963Y0022527D01*
X0090002Y0022661D01*
X0090045Y0022793D01*
X0090092Y0022925D01*
X0090142Y0023055D01*
X0090196Y0023184D01*
X0090254Y0023311D01*
X0090315Y0023436D01*
X0090380Y0023560D01*
X0090448Y0023682D01*
X0090520Y0023801D01*
X0090595Y0023919D01*
X0090673Y0024034D01*
X0090755Y0024148D01*
X0090839Y0024259D01*
X0090927Y0024367D01*
X0091018Y0024473D01*
X0091112Y0024576D01*
X0091209Y0024676D01*
X0091309Y0024774D01*
X0091411Y0024869D01*
X0091516Y0024961D01*
X0091623Y0025050D01*
X0091734Y0025136D01*
X0091846Y0025218D01*
X0091961Y0025298D01*
X0092078Y0025374D01*
X0092197Y0025446D01*
X0092318Y0025516D01*
X0092441Y0025582D01*
X0092566Y0025644D01*
X0092692Y0025703D01*
X0109187Y0032355D02*
X0113311Y0029059D01*
X0117642Y0029453D01*
X0125909Y0028272D01*
X0121648Y0032237D02*
X0168429Y0030240D01*
X0168429Y0030239D02*
X0168559Y0030235D01*
X0168689Y0030235D01*
X0168819Y0030239D01*
X0168949Y0030247D01*
X0169078Y0030259D01*
X0169207Y0030275D01*
X0169336Y0030295D01*
X0169463Y0030319D01*
X0169590Y0030346D01*
X0169717Y0030378D01*
X0169842Y0030413D01*
X0169966Y0030452D01*
X0170088Y0030495D01*
X0170210Y0030542D01*
X0170330Y0030592D01*
X0170448Y0030646D01*
X0170564Y0030703D01*
X0170679Y0030764D01*
X0170792Y0030829D01*
X0170903Y0030897D01*
X0171012Y0030968D01*
X0171118Y0031043D01*
X0171222Y0031120D01*
X0171324Y0031201D01*
X0171423Y0031285D01*
X0171520Y0031372D01*
X0171613Y0031462D01*
X0171705Y0031555D01*
X0171793Y0031650D01*
X0171878Y0031748D01*
X0171960Y0031849D01*
X0172039Y0031952D01*
X0172115Y0032058D01*
X0172188Y0032166D01*
X0172257Y0032275D01*
X0172323Y0032387D01*
X0172386Y0032501D01*
X0172445Y0032617D01*
X0172500Y0032735D01*
X0172552Y0032854D01*
X0172600Y0032975D01*
X0172644Y0033097D01*
X0172685Y0033220D01*
X0172722Y0033345D01*
X0172755Y0033471D01*
X0172784Y0033597D01*
X0172810Y0033725D01*
X0172831Y0033853D01*
X0172849Y0033982D01*
X0172862Y0034111D01*
X0172872Y0034241D01*
X0172877Y0034371D01*
X0172879Y0034501D01*
X0172877Y0034631D01*
X0172870Y0034760D01*
X0172860Y0034890D01*
X0172846Y0035019D01*
X0172828Y0035148D01*
X0172806Y0035276D01*
X0172780Y0035403D01*
X0172750Y0035530D01*
X0172716Y0035655D01*
X0172679Y0035780D01*
X0172637Y0035903D01*
X0172592Y0036025D01*
X0172544Y0036146D01*
X0170791Y0040477D02*
X0170664Y0040440D01*
X0170538Y0040399D01*
X0170413Y0040355D01*
X0170290Y0040306D01*
X0170168Y0040254D01*
X0170048Y0040199D01*
X0169929Y0040140D01*
X0169813Y0040077D01*
X0169698Y0040011D01*
X0169585Y0039942D01*
X0169475Y0039869D01*
X0169366Y0039792D01*
X0169260Y0039713D01*
X0169157Y0039631D01*
X0169056Y0039545D01*
X0168957Y0039456D01*
X0168861Y0039365D01*
X0168768Y0039271D01*
X0168678Y0039174D01*
X0168591Y0039074D01*
X0168507Y0038972D01*
X0168426Y0038867D01*
X0168348Y0038760D01*
X0168274Y0038650D01*
X0168202Y0038539D01*
X0168134Y0038425D01*
X0168070Y0038310D01*
X0168009Y0038192D01*
X0167951Y0038073D01*
X0167898Y0037952D01*
X0167847Y0037829D01*
X0167801Y0037705D01*
X0167758Y0037580D01*
X0167719Y0037453D01*
X0167684Y0037326D01*
X0167652Y0037197D01*
X0167625Y0037068D01*
X0167601Y0036937D01*
X0167582Y0036806D01*
X0167566Y0036675D01*
X0167554Y0036543D01*
X0167546Y0036411D01*
X0167542Y0036278D01*
X0167543Y0036146D01*
X0164714Y0039953D02*
X0164790Y0040062D01*
X0164870Y0040168D01*
X0164952Y0040272D01*
X0165038Y0040374D01*
X0165126Y0040473D01*
X0165218Y0040569D01*
X0165312Y0040663D01*
X0165408Y0040754D01*
X0165508Y0040842D01*
X0165610Y0040927D01*
X0165714Y0041010D01*
X0165820Y0041089D01*
X0165929Y0041165D01*
X0166040Y0041238D01*
X0166153Y0041307D01*
X0166269Y0041374D01*
X0166386Y0041436D01*
X0166504Y0041496D01*
X0166625Y0041552D01*
X0166747Y0041604D01*
X0166870Y0041653D01*
X0166995Y0041699D01*
X0167121Y0041740D01*
X0167248Y0041778D01*
X0167377Y0041813D01*
X0167506Y0041843D01*
X0167636Y0041870D01*
X0167767Y0041893D01*
X0167898Y0041912D01*
X0168030Y0041927D01*
X0168162Y0041939D01*
X0168295Y0041947D01*
X0165914Y0044754D02*
X0157543Y0036146D01*
X0154256Y0039689D02*
X0152543Y0036146D01*
X0147543Y0036146D02*
X0144807Y0042445D01*
X0143695Y0043744D02*
X0143695Y0059492D01*
X0143695Y0075240D01*
X0143695Y0090988D01*
X0143695Y0106736D01*
X0143695Y0122484D01*
X0143695Y0138232D01*
X0143695Y0153980D01*
X0128341Y0153980D02*
X0128341Y0138232D01*
X0128341Y0122484D01*
X0128341Y0106736D01*
X0128272Y0103862D01*
X0128735Y0090988D01*
X0128735Y0075240D01*
X0128735Y0059492D01*
X0128735Y0043744D01*
X0116067Y0021973D02*
X0116648Y0021637D01*
X0117237Y0021315D01*
X0117834Y0021007D01*
X0118438Y0020713D01*
X0119048Y0020434D01*
X0119666Y0020170D01*
X0120289Y0019920D01*
X0120918Y0019685D01*
X0121552Y0019465D01*
X0122191Y0019261D01*
X0122835Y0019071D01*
X0123484Y0018897D01*
X0124136Y0018738D01*
X0124792Y0018595D01*
X0125451Y0018468D01*
X0126113Y0018356D01*
X0126778Y0018260D01*
X0127444Y0018180D01*
X0128113Y0018116D01*
X0128782Y0018068D01*
X0129453Y0018036D01*
X0120486Y0025645D02*
X0139295Y0025909D01*
X0137543Y0036146D02*
X0133390Y0038114D01*
X0133714Y0043953D02*
X0133871Y0043975D01*
X0134029Y0043992D01*
X0134186Y0044006D01*
X0134344Y0044016D01*
X0134503Y0044022D01*
X0134661Y0044024D01*
X0134819Y0044022D01*
X0134978Y0044017D01*
X0135136Y0044007D01*
X0135294Y0043994D01*
X0135451Y0043977D01*
X0135608Y0043956D01*
X0135764Y0043931D01*
X0135920Y0043902D01*
X0136075Y0043870D01*
X0136229Y0043834D01*
X0136383Y0043794D01*
X0136535Y0043750D01*
X0136686Y0043703D01*
X0136836Y0043652D01*
X0136984Y0043597D01*
X0137132Y0043539D01*
X0137277Y0043477D01*
X0137422Y0043411D01*
X0137564Y0043342D01*
X0137705Y0043270D01*
X0137844Y0043194D01*
X0137981Y0043115D01*
X0138117Y0043032D01*
X0138250Y0042947D01*
X0138381Y0042858D01*
X0138509Y0042765D01*
X0138636Y0042670D01*
X0138760Y0042572D01*
X0138882Y0042471D01*
X0139001Y0042366D01*
X0139118Y0042259D01*
X0139232Y0042149D01*
X0139343Y0042036D01*
X0139451Y0041921D01*
X0139557Y0041803D01*
X0139660Y0041682D01*
X0139759Y0041559D01*
X0139856Y0041434D01*
X0139950Y0041306D01*
X0140040Y0041176D01*
X0140127Y0041044D01*
X0140211Y0040910D01*
X0140292Y0040774D01*
X0140369Y0040635D01*
X0140443Y0040495D01*
X0140514Y0040354D01*
X0142543Y0036146D01*
X0144807Y0042445D02*
X0144766Y0042538D01*
X0144721Y0042630D01*
X0144673Y0042720D01*
X0144622Y0042808D01*
X0144567Y0042895D01*
X0144510Y0042979D01*
X0144449Y0043062D01*
X0144386Y0043142D01*
X0144319Y0043219D01*
X0144250Y0043294D01*
X0144178Y0043367D01*
X0144104Y0043437D01*
X0144027Y0043504D01*
X0143947Y0043568D01*
X0143865Y0043630D01*
X0143782Y0043688D01*
X0143696Y0043744D01*
X0154256Y0039689D02*
X0154469Y0039758D01*
X0154681Y0039832D01*
X0154891Y0039911D01*
X0155099Y0039995D01*
X0155305Y0040084D01*
X0155508Y0040178D01*
X0155710Y0040278D01*
X0155909Y0040382D01*
X0156105Y0040490D01*
X0156298Y0040604D01*
X0156489Y0040722D01*
X0156677Y0040845D01*
X0156862Y0040972D01*
X0157044Y0041104D01*
X0157222Y0041240D01*
X0157397Y0041380D01*
X0157569Y0041524D01*
X0157737Y0041673D01*
X0157901Y0041826D01*
X0158062Y0041982D01*
X0158219Y0042143D01*
X0158372Y0042307D01*
X0158521Y0042475D01*
X0158665Y0042646D01*
X0158806Y0042821D01*
X0158942Y0042999D01*
X0159074Y0043181D01*
X0159202Y0043366D01*
X0159325Y0043553D01*
X0159443Y0043744D01*
X0159443Y0059492D01*
X0159443Y0075240D01*
X0159443Y0090988D01*
X0159443Y0106736D01*
X0159443Y0122484D01*
X0159443Y0138232D01*
X0159443Y0153980D01*
X0175191Y0153980D02*
X0175191Y0138232D01*
X0175191Y0122484D01*
X0175191Y0106736D01*
X0175191Y0090988D01*
X0175191Y0075240D01*
X0175191Y0059492D01*
X0026697Y0048744D02*
X0026451Y0052424D01*
X0026295Y0056110D01*
X0026227Y0059797D01*
X0026248Y0063486D01*
X0026359Y0067173D01*
X0026558Y0070856D01*
X0026846Y0074533D01*
X0027223Y0078202D01*
X0027688Y0081861D01*
X0028241Y0085508D01*
X0028882Y0089140D01*
X0029610Y0092756D01*
X0030426Y0096353D01*
X0031328Y0099929D01*
X0032316Y0103483D01*
X0033389Y0107012D01*
X0034965Y0095201D02*
X0041657Y0096362D01*
X0044217Y0036934D02*
X0045358Y0036887D01*
X0046500Y0036864D01*
X0047642Y0036864D01*
X0048784Y0036887D01*
X0049925Y0036934D01*
X0046382Y0032209D02*
X0046239Y0032145D01*
X0046094Y0032085D01*
X0045948Y0032028D01*
X0045800Y0031975D01*
X0045651Y0031926D01*
X0045501Y0031881D01*
X0045349Y0031839D01*
X0045197Y0031801D01*
X0045044Y0031767D01*
X0044890Y0031736D01*
X0044735Y0031710D01*
X0044580Y0031687D01*
X0044424Y0031668D01*
X0044268Y0031653D01*
X0044112Y0031642D01*
X0043955Y0031635D01*
X0043798Y0031632D01*
X0043641Y0031633D01*
X0043484Y0031638D01*
X0043327Y0031646D01*
X0043171Y0031658D01*
X0043015Y0031675D01*
X0042859Y0031695D01*
X0042704Y0031719D01*
X0042550Y0031747D01*
X0042396Y0031779D01*
X0042243Y0031814D01*
X0042091Y0031854D01*
X0041940Y0031897D01*
X0041791Y0031944D01*
X0041642Y0031994D01*
X0041495Y0032048D01*
X0041349Y0032106D01*
X0041205Y0032168D01*
X0041062Y0032233D01*
X0040921Y0032302D01*
X0040781Y0032374D01*
X0040644Y0032449D01*
X0040508Y0032528D01*
X0040375Y0032610D01*
X0040243Y0032696D01*
X0040114Y0032785D01*
X0039987Y0032877D01*
X0039862Y0032972D01*
X0039740Y0033070D01*
X0039620Y0033172D01*
X0039502Y0033276D01*
X0039388Y0033383D01*
X0039276Y0033493D01*
X0039167Y0033606D01*
X0039060Y0033721D01*
X0038957Y0033839D01*
X0038856Y0033960D01*
X0038759Y0034083D01*
X0038664Y0034208D01*
X0038573Y0034336D01*
X0038485Y0034466D01*
X0038400Y0034598D01*
X0038319Y0034732D01*
X0038241Y0034868D01*
X0038166Y0035006D01*
X0038095Y0035146D01*
X0038027Y0035287D01*
X0037963Y0035431D01*
X0037903Y0035575D01*
X0037846Y0035722D01*
X0037792Y0035869D01*
X0037743Y0036018D01*
X0037697Y0036168D01*
X0037655Y0036319D01*
X0037616Y0036471D01*
X0037582Y0036624D01*
X0037551Y0036778D01*
X0037524Y0036933D01*
X0032603Y0032209D02*
X0032679Y0032089D01*
X0032758Y0031971D01*
X0032841Y0031855D01*
X0032926Y0031742D01*
X0033015Y0031631D01*
X0033107Y0031523D01*
X0033201Y0031417D01*
X0033299Y0031314D01*
X0033399Y0031213D01*
X0033502Y0031115D01*
X0033607Y0031020D01*
X0033716Y0030928D01*
X0033826Y0030839D01*
X0033939Y0030753D01*
X0034054Y0030670D01*
X0034172Y0030590D01*
X0034292Y0030514D01*
X0034413Y0030441D01*
X0034537Y0030371D01*
X0034663Y0030304D01*
X0034790Y0030242D01*
X0034919Y0030182D01*
X0035049Y0030126D01*
X0035181Y0030074D01*
X0035315Y0030025D01*
X0035449Y0029980D01*
X0035585Y0029939D01*
X0035722Y0029901D01*
X0035860Y0029867D01*
X0035999Y0029837D01*
X0036138Y0029811D01*
X0036279Y0029788D01*
X0036419Y0029769D01*
X0036561Y0029754D01*
X0036702Y0029744D01*
X0036844Y0029736D01*
X0036986Y0029733D01*
X0037128Y0029734D01*
X0037270Y0029738D01*
X0037412Y0029747D01*
X0037553Y0029759D01*
X0037694Y0029775D01*
X0037835Y0029795D01*
X0037975Y0029819D01*
X0038114Y0029847D01*
X0038207Y0029865D01*
X0038302Y0029879D01*
X0038396Y0029889D01*
X0038491Y0029895D01*
X0038587Y0029897D01*
X0038682Y0029895D01*
X0038777Y0029889D01*
X0038872Y0029880D01*
X0038966Y0029866D01*
X0039059Y0029849D01*
X0039152Y0029827D01*
X0039244Y0029802D01*
X0039335Y0029773D01*
X0039424Y0029740D01*
X0039512Y0029704D01*
X0039599Y0029664D01*
X0039683Y0029621D01*
X0039766Y0029573D01*
X0039847Y0029523D01*
X0039926Y0029469D01*
X0040002Y0029412D01*
X0040076Y0029352D01*
X0040147Y0029289D01*
X0040216Y0029223D01*
X0040282Y0029154D01*
X0040345Y0029083D01*
X0040405Y0029009D01*
X0040461Y0028933D01*
X0040515Y0028854D01*
X0040565Y0028773D01*
X0040612Y0028690D01*
X0040656Y0028605D01*
X0040696Y0028519D01*
X0040732Y0028431D01*
X0040764Y0028341D01*
X0040793Y0028251D01*
X0040818Y0028159D01*
X0040839Y0028066D01*
X0040857Y0027972D01*
X0040870Y0027878D01*
X0040870Y0021972D01*
X0046382Y0032209D02*
X0046483Y0032254D01*
X0046585Y0032294D01*
X0046689Y0032331D01*
X0046793Y0032365D01*
X0046899Y0032394D01*
X0047006Y0032420D01*
X0047114Y0032443D01*
X0047223Y0032461D01*
X0047332Y0032476D01*
X0047442Y0032487D01*
X0047551Y0032494D01*
X0047661Y0032497D01*
X0047772Y0032496D01*
X0047882Y0032492D01*
X0047991Y0032483D01*
X0048101Y0032471D01*
X0048210Y0032455D01*
X0048318Y0032435D01*
X0048425Y0032411D01*
X0048532Y0032384D01*
X0048638Y0032353D01*
X0048742Y0032318D01*
X0048845Y0032279D01*
X0048947Y0032237D01*
X0049047Y0032192D01*
X0049146Y0032143D01*
X0049243Y0032090D01*
X0049338Y0032035D01*
X0049430Y0031975D01*
X0049521Y0031913D01*
X0049610Y0031848D01*
X0049696Y0031779D01*
X0049780Y0031708D01*
X0049861Y0031633D01*
X0049939Y0031556D01*
X0050015Y0031476D01*
X0050088Y0031394D01*
X0050158Y0031309D01*
X0050225Y0031221D01*
X0050289Y0031132D01*
X0050350Y0031040D01*
X0050407Y0030946D01*
X0050461Y0030850D01*
X0050512Y0030752D01*
X0050559Y0030653D01*
X0050603Y0030552D01*
X0050643Y0030449D01*
X0050680Y0030346D01*
X0050713Y0030241D01*
X0050713Y0030240D02*
X0050844Y0030045D01*
X0050981Y0029852D01*
X0051122Y0029663D01*
X0051268Y0029478D01*
X0051418Y0029296D01*
X0051573Y0029118D01*
X0051732Y0028943D01*
X0051895Y0028773D01*
X0052062Y0028607D01*
X0052233Y0028445D01*
X0052409Y0028287D01*
X0052588Y0028133D01*
X0052771Y0027984D01*
X0052957Y0027839D01*
X0053147Y0027699D01*
X0053340Y0027564D01*
X0053537Y0027434D01*
X0053736Y0027308D01*
X0053939Y0027187D01*
X0054145Y0027072D01*
X0054353Y0026961D01*
X0054564Y0026856D01*
X0054778Y0026755D01*
X0054993Y0026660D01*
X0055212Y0026571D01*
X0055432Y0026486D01*
X0055654Y0026408D01*
X0055879Y0026334D01*
X0056105Y0026266D01*
X0056332Y0026204D01*
X0056561Y0026147D01*
X0056791Y0026096D01*
X0057023Y0026051D01*
X0057255Y0026011D01*
X0057489Y0025977D01*
X0057723Y0025949D01*
X0057958Y0025926D01*
X0058193Y0025910D01*
X0037524Y0036933D02*
X0037445Y0037466D01*
X0037378Y0038000D01*
X0037323Y0038536D01*
X0037280Y0039073D01*
X0037250Y0039611D01*
X0037232Y0040149D01*
X0037226Y0040687D01*
X0037233Y0041226D01*
X0037252Y0041764D01*
X0037284Y0042302D01*
X0037328Y0042839D01*
X0037721Y0010161D02*
X0036990Y0010072D01*
X0036256Y0010001D01*
X0035522Y0009949D01*
X0034786Y0009914D01*
X0034049Y0009897D01*
X0033313Y0009898D01*
X0032576Y0009917D01*
X0031840Y0009955D01*
X0031106Y0010010D01*
X0030373Y0010083D01*
X0029642Y0010175D01*
X0028913Y0010284D01*
X0028188Y0010411D01*
X0027466Y0010556D01*
X0026747Y0010719D01*
X0026033Y0010899D01*
X0025323Y0011096D01*
X0024618Y0011311D01*
X0023919Y0011543D01*
X0023226Y0011793D01*
X0022539Y0012059D01*
X0021859Y0012342D01*
X0021186Y0012642D01*
X0020521Y0012958D01*
X0019863Y0013290D01*
X0019214Y0013638D01*
X0018574Y0014002D01*
X0017942Y0014382D01*
X0017321Y0014777D01*
X0016709Y0015187D01*
X0016107Y0015612D01*
X0015516Y0016052D01*
X0014936Y0016506D01*
X0014367Y0016975D01*
X0013810Y0017457D01*
X0013265Y0017952D01*
X0012733Y0018461D01*
X0012213Y0018983D01*
X0011705Y0019517D01*
X0011212Y0020064D01*
X0010731Y0020622D01*
X0010265Y0021192D01*
X0009812Y0021774D01*
X0009375Y0022366D01*
X0009374Y0022366D02*
X0009289Y0022519D01*
X0009207Y0022674D01*
X0009130Y0022831D01*
X0009056Y0022990D01*
X0008987Y0023151D01*
X0008921Y0023313D01*
X0008859Y0023477D01*
X0008802Y0023642D01*
X0008748Y0023809D01*
X0008699Y0023976D01*
X0008653Y0024145D01*
X0008612Y0024316D01*
X0008575Y0024487D01*
X0008542Y0024659D01*
X0008513Y0024831D01*
X0008489Y0025005D01*
X0008468Y0025179D01*
X0008452Y0025353D01*
X0008441Y0025528D01*
X0008433Y0025702D01*
X0008430Y0025877D01*
X0008431Y0026052D01*
X0008437Y0026227D01*
X0008446Y0026402D01*
X0008460Y0026577D01*
X0008478Y0026751D01*
X0008501Y0026924D01*
X0008528Y0027097D01*
X0008559Y0027270D01*
X0008594Y0027441D01*
X0008633Y0027612D01*
X0008676Y0027781D01*
X0008724Y0027950D01*
X0008776Y0028117D01*
X0008831Y0028283D01*
X0008891Y0028448D01*
X0008955Y0028611D01*
X0009023Y0028772D01*
X0009095Y0028932D01*
X0009170Y0029090D01*
X0009250Y0029246D01*
X0009333Y0029400D01*
X0009420Y0029552D01*
X0009510Y0029701D01*
X0009605Y0029849D01*
X0009703Y0029994D01*
X0009804Y0030137D01*
X0009909Y0030277D01*
X0010017Y0030415D01*
X0010128Y0030549D01*
X0010243Y0030682D01*
X0010361Y0030811D01*
X0010482Y0030937D01*
X0010607Y0031061D01*
X0010734Y0031181D01*
X0010864Y0031298D01*
X0010997Y0031412D01*
X0011132Y0031523D01*
X0011271Y0031630D01*
X0011412Y0031734D01*
X0011555Y0031834D01*
X0011701Y0031931D01*
X0011849Y0032024D01*
X0011999Y0032114D01*
X0012152Y0032200D01*
X0012306Y0032282D01*
X0012463Y0032361D01*
X0012621Y0032435D01*
X0012781Y0032506D01*
X0012943Y0032573D01*
X0013107Y0032635D01*
X0013272Y0032694D01*
X0013438Y0032749D01*
X0013606Y0032799D01*
X0013774Y0032846D01*
X0013944Y0032888D01*
X0014115Y0032926D01*
X0014287Y0032960D01*
X0014459Y0032990D01*
X0014632Y0033016D01*
X0014806Y0033037D01*
X0014980Y0033054D01*
X0015155Y0033067D01*
X0015330Y0033075D01*
X0015505Y0033079D01*
X0015680Y0033079D01*
X0015855Y0033075D01*
X0016030Y0033067D01*
X0016204Y0033054D01*
X0016379Y0033037D01*
X0016552Y0033015D01*
X0016725Y0032990D01*
X0016898Y0032960D01*
X0017070Y0032926D01*
X0017240Y0032887D01*
X0017410Y0032845D01*
X0017579Y0032798D01*
X0017747Y0032748D01*
X0017913Y0032693D01*
X0018078Y0032634D01*
X0018241Y0032572D01*
X0018403Y0032505D01*
X0018563Y0032434D01*
X0018722Y0032359D01*
X0018878Y0032281D01*
X0019033Y0032199D01*
X0019185Y0032113D01*
X0019335Y0032023D01*
X0019483Y0031930D01*
X0019629Y0031833D01*
X0019773Y0031732D01*
X0019913Y0031628D01*
X0020052Y0031521D01*
X0020187Y0031410D01*
X0020320Y0031296D01*
X0020450Y0031179D01*
X0020577Y0031059D01*
X0020701Y0030935D01*
X0020823Y0030809D01*
X0020941Y0030680D01*
X0021055Y0030547D01*
X0021167Y0030412D01*
X0021275Y0030275D01*
X0021380Y0030135D01*
X0021481Y0029992D01*
X0021579Y0029847D01*
X0025910Y0031422D02*
X0025971Y0031289D01*
X0026030Y0031154D01*
X0026084Y0031018D01*
X0026135Y0030881D01*
X0026182Y0030742D01*
X0026226Y0030601D01*
X0026265Y0030460D01*
X0026301Y0030318D01*
X0026333Y0030175D01*
X0026361Y0030031D01*
X0026385Y0029886D01*
X0026405Y0029741D01*
X0026421Y0029595D01*
X0026434Y0029449D01*
X0026442Y0029302D01*
X0026446Y0029156D01*
X0026447Y0029009D01*
X0026443Y0028862D01*
X0026436Y0028716D01*
X0026424Y0028570D01*
X0026409Y0028424D01*
X0026389Y0028279D01*
X0026366Y0028134D01*
X0026339Y0027990D01*
X0026308Y0027846D01*
X0026273Y0027704D01*
X0026234Y0027562D01*
X0026191Y0027422D01*
X0026145Y0027283D01*
X0026095Y0027145D01*
X0026041Y0027009D01*
X0025983Y0026874D01*
X0025922Y0026740D01*
X0025857Y0026609D01*
X0025789Y0026479D01*
X0025717Y0026351D01*
X0025642Y0026225D01*
X0025564Y0026101D01*
X0025482Y0025979D01*
X0025397Y0025860D01*
X0025308Y0025743D01*
X0025217Y0025628D01*
X0025122Y0025516D01*
X0032602Y0032209D02*
X0030240Y0038114D01*
X0032602Y0045594D02*
X0037524Y0048744D01*
X0040322Y0053682D01*
X0086145Y0064885D02*
X0085888Y0066026D01*
X0085603Y0067160D01*
X0085292Y0068287D01*
X0084953Y0069406D01*
X0084587Y0070517D01*
X0084194Y0071619D01*
X0083775Y0072710D01*
X0083330Y0073792D01*
X0082859Y0074862D01*
X0082363Y0075921D01*
X0081841Y0076967D01*
X0081294Y0078001D01*
X0080722Y0079021D01*
X0080126Y0080027D01*
X0079505Y0081018D01*
X0078861Y0081994D01*
X0078194Y0082954D01*
X0077504Y0083898D01*
X0076791Y0084825D01*
X0076056Y0085735D01*
X0075299Y0086626D01*
X0074521Y0087499D01*
X0073723Y0088353D01*
X0072904Y0089188D01*
X0072065Y0090003D01*
X0071207Y0090797D01*
X0070329Y0091570D01*
X0069434Y0092322D01*
X0068520Y0093052D01*
X0067590Y0093760D01*
X0066642Y0094445D01*
X0065678Y0095108D01*
X0064699Y0095747D01*
X0063704Y0096362D01*
X0063705Y0106362D02*
X0064032Y0106413D01*
X0064360Y0106456D01*
X0064690Y0106490D01*
X0065020Y0106517D01*
X0065351Y0106536D01*
X0065682Y0106547D01*
X0066013Y0106550D01*
X0066344Y0106545D01*
X0066675Y0106532D01*
X0067006Y0106510D01*
X0067336Y0106481D01*
X0067665Y0106444D01*
X0067993Y0106399D01*
X0068320Y0106346D01*
X0068645Y0106285D01*
X0068969Y0106216D01*
X0069292Y0106139D01*
X0069612Y0106055D01*
X0069930Y0105963D01*
X0070246Y0105863D01*
X0070559Y0105756D01*
X0070870Y0105641D01*
X0071177Y0105518D01*
X0071482Y0105388D01*
X0071784Y0105251D01*
X0072082Y0105107D01*
X0072376Y0104955D01*
X0072667Y0104796D01*
X0072954Y0104631D01*
X0073236Y0104458D01*
X0073515Y0104279D01*
X0073789Y0104092D01*
X0074058Y0103900D01*
X0074323Y0103701D01*
X0074583Y0103495D01*
X0074837Y0103283D01*
X0075087Y0103066D01*
X0075331Y0102842D01*
X0075570Y0102612D01*
X0075803Y0102377D01*
X0076030Y0102136D01*
X0076251Y0101890D01*
X0076467Y0101638D01*
X0076676Y0101381D01*
X0076879Y0101119D01*
X0077075Y0100853D01*
X0077265Y0100581D01*
X0077449Y0100306D01*
X0077626Y0100025D01*
X0077795Y0099741D01*
X0077958Y0099453D01*
X0078114Y0099160D01*
X0078263Y0098865D01*
X0078404Y0098565D01*
X0078539Y0098262D01*
X0078666Y0097956D01*
X0078666Y0097957D02*
X0078803Y0097626D01*
X0078948Y0097299D01*
X0079101Y0096975D01*
X0079262Y0096655D01*
X0079431Y0096339D01*
X0079607Y0096027D01*
X0079791Y0095719D01*
X0079982Y0095416D01*
X0080180Y0095118D01*
X0080386Y0094824D01*
X0080598Y0094536D01*
X0080818Y0094253D01*
X0081044Y0093975D01*
X0081277Y0093703D01*
X0081517Y0093436D01*
X0081762Y0093175D01*
X0082014Y0092921D01*
X0082273Y0092672D01*
X0082537Y0092430D01*
X0082807Y0092195D01*
X0083082Y0091966D01*
X0083363Y0091743D01*
X0083649Y0091528D01*
X0083941Y0091320D01*
X0084237Y0091118D01*
X0084538Y0090924D01*
X0084844Y0090737D01*
X0085154Y0090558D01*
X0085469Y0090386D01*
X0085787Y0090222D01*
X0086109Y0090066D01*
X0086436Y0089918D01*
X0086765Y0089777D01*
X0087098Y0089644D01*
X0087434Y0089520D01*
X0087773Y0089404D01*
X0088114Y0089296D01*
X0084177Y0081815D02*
X0084214Y0081583D01*
X0084257Y0081352D01*
X0084305Y0081123D01*
X0084359Y0080894D01*
X0084418Y0080667D01*
X0084483Y0080441D01*
X0084553Y0080217D01*
X0084629Y0079995D01*
X0084711Y0079774D01*
X0084797Y0079556D01*
X0084890Y0079340D01*
X0084987Y0079126D01*
X0085089Y0078915D01*
X0085197Y0078706D01*
X0085310Y0078500D01*
X0085428Y0078297D01*
X0085550Y0078096D01*
X0085678Y0077899D01*
X0085810Y0077705D01*
X0085947Y0077515D01*
X0086089Y0077327D01*
X0086236Y0077143D01*
X0086386Y0076963D01*
X0086541Y0076787D01*
X0086701Y0076614D01*
X0086864Y0076446D01*
X0087032Y0076281D01*
X0087204Y0076121D01*
X0087379Y0075965D01*
X0087558Y0075813D01*
X0087741Y0075666D01*
X0087928Y0075523D01*
X0088118Y0075385D01*
X0088311Y0075251D01*
X0088508Y0075123D01*
X0096451Y0075240D02*
X0098813Y0059492D01*
X0099207Y0043350D01*
X0092693Y0036353D02*
X0092822Y0036187D01*
X0092954Y0036025D01*
X0093091Y0035866D01*
X0093231Y0035710D01*
X0093375Y0035558D01*
X0093523Y0035410D01*
X0093674Y0035265D01*
X0093829Y0035124D01*
X0093988Y0034987D01*
X0094149Y0034853D01*
X0094314Y0034724D01*
X0094482Y0034599D01*
X0094653Y0034478D01*
X0094827Y0034361D01*
X0095003Y0034248D01*
X0095183Y0034140D01*
X0095365Y0034036D01*
X0095549Y0033937D01*
X0095736Y0033842D01*
X0095925Y0033752D01*
X0096116Y0033666D01*
X0096309Y0033585D01*
X0096505Y0033509D01*
X0096702Y0033438D01*
X0096900Y0033371D01*
X0097101Y0033310D01*
X0097302Y0033253D01*
X0097505Y0033202D01*
X0097710Y0033155D01*
X0097915Y0033113D01*
X0098121Y0033076D01*
X0098328Y0033045D01*
X0098536Y0033018D01*
X0098744Y0032997D01*
X0110349Y0025763D02*
X0116067Y0021972D01*
X0115279Y0032603D02*
X0115406Y0032678D01*
X0115534Y0032751D01*
X0115665Y0032820D01*
X0115797Y0032886D01*
X0115931Y0032948D01*
X0116067Y0033006D01*
X0116204Y0033061D01*
X0116343Y0033112D01*
X0116482Y0033160D01*
X0116623Y0033203D01*
X0116766Y0033243D01*
X0116909Y0033280D01*
X0117053Y0033312D01*
X0117198Y0033341D01*
X0117343Y0033365D01*
X0117489Y0033386D01*
X0117636Y0033403D01*
X0117783Y0033416D01*
X0117931Y0033425D01*
X0118078Y0033431D01*
X0118226Y0033432D01*
X0118374Y0033429D01*
X0118521Y0033423D01*
X0118668Y0033412D01*
X0118815Y0033398D01*
X0118962Y0033380D01*
X0119108Y0033358D01*
X0119253Y0033332D01*
X0119398Y0033302D01*
X0119542Y0033268D01*
X0119685Y0033231D01*
X0119826Y0033190D01*
X0119967Y0033145D01*
X0120107Y0033096D01*
X0120245Y0033044D01*
X0120381Y0032988D01*
X0120516Y0032928D01*
X0120650Y0032865D01*
X0120782Y0032798D01*
X0120912Y0032728D01*
X0121040Y0032654D01*
X0121166Y0032577D01*
X0121290Y0032497D01*
X0121411Y0032413D01*
X0121531Y0032327D01*
X0121648Y0032237D01*
X0112593Y0043744D02*
X0112593Y0059492D01*
X0112593Y0075240D01*
X0112593Y0090988D01*
X0112593Y0106736D01*
X0112593Y0122484D01*
X0112524Y0133390D01*
X0112199Y0138232D01*
X0112199Y0153980D01*
X0096451Y0153980D02*
X0096451Y0138232D01*
X0096451Y0122484D01*
X0096451Y0106736D01*
X0096451Y0090988D01*
X0096451Y0075240D01*
X0032208Y0111736D02*
X0032694Y0113256D01*
X0033213Y0114764D01*
X0033764Y0116261D01*
X0034348Y0117745D01*
X0034964Y0119217D01*
X0041657Y0086362D02*
X0042271Y0086091D01*
X0042892Y0085834D01*
X0043519Y0085593D01*
X0044152Y0085366D01*
X0044790Y0085155D01*
X0045433Y0084960D01*
X0046080Y0084780D01*
X0046731Y0084616D01*
X0047387Y0084468D01*
X0048045Y0084335D01*
X0048707Y0084219D01*
X0049371Y0084118D01*
X0050038Y0084034D01*
X0050706Y0083966D01*
X0051376Y0083914D01*
X0052047Y0083878D01*
X0052719Y0083859D01*
X0053390Y0083856D01*
X0054062Y0083869D01*
X0054733Y0083898D01*
X0055404Y0083944D01*
X0056073Y0084005D01*
X0056740Y0084083D01*
X0057405Y0084177D01*
X0056838Y0086986D02*
X0048744Y0087720D01*
X0037720Y0090477D02*
X0037652Y0090265D01*
X0037589Y0090052D01*
X0037531Y0089837D01*
X0037478Y0089620D01*
X0037431Y0089403D01*
X0037388Y0089184D01*
X0037351Y0088965D01*
X0037319Y0088745D01*
X0037293Y0088524D01*
X0037272Y0088302D01*
X0037256Y0088080D01*
X0037245Y0087858D01*
X0037240Y0087635D01*
X0037240Y0087413D01*
X0037245Y0087190D01*
X0037256Y0086968D01*
X0037272Y0086746D01*
X0037293Y0086524D01*
X0037319Y0086303D01*
X0037351Y0086083D01*
X0037388Y0085864D01*
X0037431Y0085645D01*
X0037478Y0085428D01*
X0037531Y0085211D01*
X0037589Y0084996D01*
X0037652Y0084783D01*
X0037720Y0084571D01*
X0037720Y0090476D02*
X0037753Y0090567D01*
X0037789Y0090657D01*
X0037829Y0090745D01*
X0037873Y0090832D01*
X0037920Y0090916D01*
X0037970Y0090999D01*
X0038024Y0091079D01*
X0038081Y0091158D01*
X0038142Y0091233D01*
X0038205Y0091307D01*
X0038271Y0091377D01*
X0038340Y0091445D01*
X0038412Y0091510D01*
X0038487Y0091572D01*
X0038564Y0091631D01*
X0038643Y0091686D01*
X0038725Y0091738D01*
X0038808Y0091787D01*
X0038894Y0091833D01*
X0038981Y0091875D01*
X0039070Y0091913D01*
X0039160Y0091947D01*
X0039252Y0091978D01*
X0039345Y0092005D01*
X0039439Y0092028D01*
X0039534Y0092048D01*
X0039630Y0092063D01*
X0039726Y0092075D01*
X0039822Y0092082D01*
X0039919Y0092086D01*
X0040016Y0092085D01*
X0040113Y0092081D01*
X0040209Y0092072D01*
X0040305Y0092060D01*
X0040401Y0092044D01*
X0040495Y0092024D01*
X0040589Y0092000D01*
X0040682Y0091972D01*
X0040773Y0091940D01*
X0040864Y0091905D01*
X0040952Y0091866D01*
X0041039Y0091823D01*
X0041124Y0091777D01*
X0041207Y0091727D01*
X0041288Y0091674D01*
X0041367Y0091618D01*
X0041444Y0091559D01*
X0041518Y0091496D01*
X0041589Y0091431D01*
X0041657Y0091362D01*
X0056838Y0086986D02*
X0056935Y0087097D01*
X0057028Y0087212D01*
X0057119Y0087329D01*
X0057207Y0087448D01*
X0057291Y0087569D01*
X0057372Y0087693D01*
X0057450Y0087818D01*
X0057525Y0087946D01*
X0057596Y0088075D01*
X0057664Y0088207D01*
X0057729Y0088340D01*
X0057790Y0088474D01*
X0057847Y0088610D01*
X0057901Y0088748D01*
X0057952Y0088887D01*
X0057998Y0089027D01*
X0058041Y0089169D01*
X0058081Y0089311D01*
X0058116Y0089455D01*
X0058148Y0089599D01*
X0058176Y0089744D01*
X0058201Y0089890D01*
X0058221Y0090037D01*
X0058238Y0090184D01*
X0058251Y0090331D01*
X0058259Y0090478D01*
X0058265Y0090626D01*
X0058266Y0090774D01*
X0058263Y0090922D01*
X0058257Y0091070D01*
X0058247Y0091217D01*
X0058233Y0091364D01*
X0058215Y0091511D01*
X0058193Y0091657D01*
X0046382Y0080240D02*
X0046590Y0079903D01*
X0046806Y0079572D01*
X0047030Y0079245D01*
X0047262Y0078925D01*
X0047501Y0078609D01*
X0047748Y0078300D01*
X0048002Y0077997D01*
X0048264Y0077700D01*
X0048533Y0077409D01*
X0048808Y0077125D01*
X0049090Y0076847D01*
X0049379Y0076577D01*
X0049674Y0076313D01*
X0049976Y0076056D01*
X0050283Y0075807D01*
X0050596Y0075565D01*
X0050916Y0075331D01*
X0051240Y0075105D01*
X0051570Y0074886D01*
X0051905Y0074676D01*
X0052245Y0074473D01*
X0052590Y0074279D01*
X0052940Y0074093D01*
X0053293Y0073916D01*
X0053651Y0073747D01*
X0054013Y0073587D01*
X0054379Y0073435D01*
X0054748Y0073292D01*
X0055121Y0073159D01*
X0055496Y0073034D01*
X0055875Y0072918D01*
X0056256Y0072811D01*
X0056639Y0072714D01*
X0057025Y0072626D01*
X0057413Y0072547D01*
X0057803Y0072477D01*
X0058194Y0072417D01*
X0058586Y0072366D01*
X0063705Y0081815D02*
X0063596Y0081941D01*
X0063483Y0082065D01*
X0063368Y0082187D01*
X0063249Y0082305D01*
X0063128Y0082420D01*
X0063004Y0082533D01*
X0062877Y0082642D01*
X0062748Y0082748D01*
X0062616Y0082851D01*
X0062481Y0082951D01*
X0062345Y0083047D01*
X0062206Y0083141D01*
X0062064Y0083230D01*
X0061921Y0083317D01*
X0061775Y0083399D01*
X0061628Y0083478D01*
X0061478Y0083554D01*
X0061327Y0083626D01*
X0061174Y0083694D01*
X0061020Y0083759D01*
X0060864Y0083819D01*
X0060707Y0083876D01*
X0060548Y0083929D01*
X0060388Y0083978D01*
X0060227Y0084023D01*
X0060064Y0084065D01*
X0059901Y0084102D01*
X0059737Y0084135D01*
X0059572Y0084165D01*
X0059407Y0084190D01*
X0059241Y0084211D01*
X0059074Y0084229D01*
X0058908Y0084242D01*
X0058740Y0084251D01*
X0058573Y0084256D01*
X0058406Y0084257D01*
X0058238Y0084254D01*
X0058071Y0084247D01*
X0057904Y0084235D01*
X0057737Y0084220D01*
X0057571Y0084201D01*
X0057405Y0084177D01*
X0056838Y0086986D02*
X0063705Y0086362D01*
X0063705Y0111362D02*
X0064266Y0111423D01*
X0064829Y0111471D01*
X0065393Y0111504D01*
X0065957Y0111524D01*
X0066522Y0111531D01*
X0067086Y0111524D01*
X0067651Y0111503D01*
X0068214Y0111469D01*
X0068777Y0111421D01*
X0069338Y0111360D01*
X0069898Y0111285D01*
X0070456Y0111196D01*
X0071011Y0111094D01*
X0071564Y0110979D01*
X0072114Y0110851D01*
X0072660Y0110709D01*
X0073203Y0110554D01*
X0073742Y0110386D01*
X0074277Y0110205D01*
X0074808Y0110012D01*
X0075333Y0109805D01*
X0075854Y0109586D01*
X0076369Y0109355D01*
X0076878Y0109111D01*
X0077381Y0108855D01*
X0077878Y0108587D01*
X0072760Y0095988D02*
X0072102Y0096244D01*
X0071451Y0096516D01*
X0070807Y0096802D01*
X0070169Y0097104D01*
X0069538Y0097421D01*
X0068915Y0097752D01*
X0068300Y0098098D01*
X0067693Y0098458D01*
X0067095Y0098832D01*
X0066506Y0099220D01*
X0065926Y0099622D01*
X0065355Y0100038D01*
X0064795Y0100466D01*
X0064245Y0100908D01*
X0063705Y0101362D01*
X0072760Y0095989D02*
X0073165Y0095831D01*
X0073565Y0095663D01*
X0073961Y0095486D01*
X0074352Y0095300D01*
X0074740Y0095104D01*
X0075122Y0094898D01*
X0075499Y0094684D01*
X0075871Y0094460D01*
X0076237Y0094227D01*
X0076597Y0093986D01*
X0076952Y0093736D01*
X0077300Y0093477D01*
X0077642Y0093211D01*
X0077978Y0092935D01*
X0078307Y0092652D01*
X0078628Y0092361D01*
X0078943Y0092062D01*
X0079250Y0091756D01*
X0079550Y0091443D01*
X0079842Y0091122D01*
X0080126Y0090794D01*
X0080403Y0090459D01*
X0080671Y0090118D01*
X0080931Y0089771D01*
X0081182Y0089417D01*
X0081424Y0089057D01*
X0081658Y0088692D01*
X0081883Y0088321D01*
X0082099Y0087945D01*
X0082306Y0087563D01*
X0082503Y0087177D01*
X0082691Y0086786D01*
X0082869Y0086390D01*
X0083038Y0085991D01*
X0083197Y0085587D01*
X0083347Y0085179D01*
X0083486Y0084769D01*
X0083615Y0084354D01*
X0083735Y0083937D01*
X0083844Y0083517D01*
X0083943Y0083095D01*
X0084031Y0082670D01*
X0084110Y0082244D01*
X0084178Y0081815D01*
X0064886Y0068823D02*
X0065517Y0068033D01*
X0066165Y0067257D01*
X0066830Y0066496D01*
X0067512Y0065749D01*
X0068210Y0065017D01*
X0068923Y0064301D01*
X0069653Y0063601D01*
X0070398Y0062918D01*
X0037524Y0048745D02*
X0036889Y0048991D01*
X0036261Y0049252D01*
X0035639Y0049529D01*
X0035023Y0049820D01*
X0034415Y0050126D01*
X0033814Y0050446D01*
X0033221Y0050780D01*
X0032637Y0051129D01*
X0032060Y0051491D01*
X0031493Y0051867D01*
X0030935Y0052257D01*
X0030386Y0052659D01*
X0029847Y0053075D01*
X0020791Y0053862D02*
X0020791Y0083783D01*
X0017248Y0086539D02*
X0020594Y0092051D01*
X0013902Y0092051D02*
X0013311Y0045988D01*
X0013336Y0045839D01*
X0013365Y0045691D01*
X0013398Y0045544D01*
X0013435Y0045398D01*
X0013475Y0045253D01*
X0013519Y0045108D01*
X0013567Y0044965D01*
X0013618Y0044824D01*
X0013673Y0044683D01*
X0013732Y0044545D01*
X0013794Y0044407D01*
X0013860Y0044272D01*
X0013929Y0044138D01*
X0014002Y0044006D01*
X0014078Y0043876D01*
X0014158Y0043747D01*
X0014240Y0043621D01*
X0014326Y0043497D01*
X0014415Y0043376D01*
X0014507Y0043256D01*
X0014603Y0043140D01*
X0014701Y0043025D01*
X0014802Y0042913D01*
X0014906Y0042804D01*
X0015013Y0042698D01*
X0015122Y0042594D01*
X0015234Y0042493D01*
X0015349Y0042395D01*
X0015466Y0042301D01*
X0015585Y0042209D01*
X0015707Y0042120D01*
X0015831Y0042034D01*
X0015958Y0041952D01*
X0016086Y0041873D01*
X0016216Y0041797D01*
X0016349Y0041725D01*
X0016483Y0041656D01*
X0016619Y0041591D01*
X0016756Y0041529D01*
X0016895Y0041470D01*
X0017036Y0041416D01*
X0017177Y0041365D01*
X0017320Y0041317D01*
X0017465Y0041274D01*
X0017610Y0041234D01*
X0017756Y0041197D01*
X0017904Y0041165D01*
X0018052Y0041136D01*
X0018200Y0041112D01*
X0018350Y0041091D01*
X0018499Y0041074D01*
X0018650Y0041060D01*
X0018800Y0041051D01*
X0018951Y0041046D01*
X0019101Y0041044D01*
X0019252Y0041046D01*
X0019403Y0041053D01*
X0019553Y0041063D01*
X0019703Y0041077D01*
X0019853Y0041094D01*
X0020002Y0041116D01*
X0020151Y0041142D01*
X0020299Y0041171D01*
X0020446Y0041204D01*
X0020592Y0041241D01*
X0020737Y0041282D01*
X0020881Y0041326D01*
X0021024Y0041374D01*
X0021166Y0041426D01*
X0021306Y0041481D01*
X0021444Y0041540D01*
X0021582Y0041603D01*
X0021717Y0041669D01*
X0021851Y0041739D01*
X0021983Y0041812D01*
X0022113Y0041888D01*
X0022241Y0041968D01*
X0022367Y0042051D01*
X0021972Y0035752D02*
X0010161Y0038114D01*
X0010161Y0085752D01*
X0013902Y0092051D02*
X0013859Y0091960D01*
X0013812Y0091871D01*
X0013762Y0091784D01*
X0013709Y0091699D01*
X0013652Y0091616D01*
X0013593Y0091536D01*
X0013530Y0091457D01*
X0013464Y0091382D01*
X0013395Y0091308D01*
X0013324Y0091238D01*
X0013250Y0091171D01*
X0013173Y0091106D01*
X0013093Y0091044D01*
X0013012Y0090986D01*
X0012928Y0090931D01*
X0012842Y0090879D01*
X0012754Y0090830D01*
X0012665Y0090785D01*
X0012573Y0090744D01*
X0012480Y0090706D01*
X0012386Y0090671D01*
X0012291Y0090641D01*
X0012194Y0090614D01*
X0012096Y0090591D01*
X0011998Y0090572D01*
X0011899Y0090556D01*
X0011799Y0090545D01*
X0011699Y0090537D01*
X0011599Y0090533D01*
X0011498Y0090534D01*
X0011398Y0090538D01*
X0011298Y0090546D01*
X0011198Y0090558D01*
X0011099Y0090573D01*
X0011001Y0090593D01*
X0010903Y0090616D01*
X0010807Y0090644D01*
X0010711Y0090674D01*
X0010617Y0090709D01*
X0010524Y0090747D01*
X0010433Y0090789D01*
X0010343Y0090835D01*
X0010256Y0090883D01*
X0010170Y0090936D01*
X0010086Y0090991D01*
X0010005Y0091050D01*
X0009926Y0091112D01*
X0009850Y0091177D01*
X0009776Y0091244D01*
X0009704Y0091315D01*
X0009636Y0091388D01*
X0009570Y0091464D01*
X0009508Y0091543D01*
X0009448Y0091624D01*
X0009392Y0091707D01*
X0009339Y0091792D01*
X0009289Y0091879D01*
X0009243Y0091968D01*
X0009201Y0092059D01*
X0009161Y0092152D01*
X0009126Y0092246D01*
X0009094Y0092341D01*
X0009066Y0092437D01*
X0009042Y0092534D01*
X0009021Y0092633D01*
X0009005Y0092732D01*
X0008992Y0092831D01*
X0008983Y0092931D01*
X0008978Y0093031D01*
X0008977Y0093132D01*
X0008980Y0093232D01*
X0008980Y0093233D02*
X0009245Y0100185D01*
X0009377Y0107141D01*
X0009374Y0114099D01*
X0041657Y0121362D02*
X0042084Y0121560D01*
X0042507Y0121768D01*
X0042924Y0121986D01*
X0043335Y0122215D01*
X0043741Y0122453D01*
X0044141Y0122701D01*
X0044535Y0122959D01*
X0044923Y0123227D01*
X0045303Y0123504D01*
X0045677Y0123790D01*
X0046044Y0124085D01*
X0046403Y0124389D01*
X0046755Y0124702D01*
X0047099Y0125023D01*
X0047436Y0125352D01*
X0047764Y0125690D01*
X0048083Y0126035D01*
X0048395Y0126389D01*
X0048697Y0126750D01*
X0048990Y0127118D01*
X0049275Y0127493D01*
X0049550Y0127875D01*
X0049816Y0128263D01*
X0050072Y0128658D01*
X0050319Y0129059D01*
X0076303Y0126303D02*
X0076303Y0135752D01*
X0076305Y0135888D01*
X0076311Y0136024D01*
X0076320Y0136160D01*
X0076334Y0136296D01*
X0076351Y0136431D01*
X0076372Y0136565D01*
X0076397Y0136699D01*
X0076426Y0136832D01*
X0076459Y0136965D01*
X0076495Y0137096D01*
X0076535Y0137226D01*
X0076578Y0137355D01*
X0076626Y0137483D01*
X0076677Y0137609D01*
X0076731Y0137734D01*
X0076789Y0137857D01*
X0076850Y0137979D01*
X0076915Y0138098D01*
X0076983Y0138216D01*
X0077055Y0138332D01*
X0077130Y0138446D01*
X0077208Y0138558D01*
X0077289Y0138667D01*
X0077373Y0138774D01*
X0077460Y0138879D01*
X0077550Y0138981D01*
X0077643Y0139080D01*
X0077739Y0139177D01*
X0077838Y0139271D01*
X0077939Y0139363D01*
X0078042Y0139451D01*
X0078148Y0139536D01*
X0078257Y0139619D01*
X0078368Y0139698D01*
X0078481Y0139774D01*
X0078596Y0139847D01*
X0078713Y0139916D01*
X0078832Y0139982D01*
X0078953Y0140045D01*
X0079075Y0140105D01*
X0079200Y0140160D01*
X0079325Y0140213D01*
X0079452Y0140261D01*
X0079581Y0140306D01*
X0079711Y0140348D01*
X0079842Y0140386D01*
X0079973Y0140420D01*
X0080106Y0140450D01*
X0080240Y0140476D01*
X0080371Y0140502D01*
X0080502Y0140532D01*
X0080631Y0140565D01*
X0080759Y0140603D01*
X0080886Y0140644D01*
X0081012Y0140689D01*
X0081137Y0140737D01*
X0081260Y0140789D01*
X0081381Y0140845D01*
X0081501Y0140904D01*
X0081619Y0140967D01*
X0081735Y0141033D01*
X0081849Y0141102D01*
X0081961Y0141175D01*
X0082071Y0141251D01*
X0082178Y0141330D01*
X0082284Y0141412D01*
X0082386Y0141497D01*
X0082487Y0141586D01*
X0082584Y0141677D01*
X0082679Y0141771D01*
X0082771Y0141867D01*
X0082861Y0141967D01*
X0082947Y0142069D01*
X0083030Y0142173D01*
X0083111Y0142280D01*
X0083188Y0142389D01*
X0083262Y0142500D01*
X0083332Y0142614D01*
X0083399Y0142729D01*
X0083463Y0142846D01*
X0083524Y0142965D01*
X0083581Y0143086D01*
X0083634Y0143209D01*
X0083684Y0143333D01*
X0083730Y0143458D01*
X0083772Y0143585D01*
X0083811Y0143713D01*
X0083846Y0143841D01*
X0083877Y0143971D01*
X0083904Y0144102D01*
X0083928Y0144234D01*
X0083947Y0144366D01*
X0083963Y0144498D01*
X0083975Y0144631D01*
X0083983Y0144765D01*
X0083987Y0144898D01*
X0083988Y0145032D01*
X0083984Y0145165D01*
X0083976Y0145299D01*
X0083965Y0145432D01*
X0083950Y0145564D01*
X0083930Y0145697D01*
X0083907Y0145828D01*
X0083880Y0145959D01*
X0083850Y0146089D01*
X0083815Y0146218D01*
X0083777Y0146346D01*
X0083735Y0146473D01*
X0083689Y0146598D01*
X0083640Y0146722D01*
X0083587Y0146845D01*
X0083531Y0146966D01*
X0083471Y0147085D01*
X0083407Y0147203D01*
X0083340Y0147319D01*
X0083270Y0147432D01*
X0083197Y0147544D01*
X0083120Y0147653D01*
X0083040Y0147760D01*
X0082957Y0147865D01*
X0082871Y0147967D01*
X0082782Y0148067D01*
X0082691Y0148164D01*
X0082596Y0148258D01*
X0082499Y0148349D01*
X0082399Y0148438D01*
X0082296Y0148524D01*
X0082191Y0148606D01*
X0082084Y0148686D01*
X0081974Y0148762D01*
X0081863Y0148835D01*
X0081749Y0148905D01*
X0081633Y0148972D01*
X0081515Y0149035D01*
X0081396Y0149094D01*
X0081274Y0149150D01*
X0081151Y0149203D01*
X0081027Y0149252D01*
X0080902Y0149297D01*
X0080775Y0149338D01*
X0080646Y0149376D01*
X0080517Y0149410D01*
X0080387Y0149441D01*
X0080256Y0149467D01*
X0080125Y0149490D01*
X0079992Y0149509D01*
X0079860Y0149523D01*
X0079727Y0149534D01*
X0079593Y0149542D01*
X0079460Y0149545D01*
X0079326Y0149544D01*
X0079193Y0149540D01*
X0079059Y0149531D01*
X0079059Y0149532D02*
X0078907Y0149522D01*
X0078755Y0149516D01*
X0078602Y0149514D01*
X0078450Y0149516D01*
X0078298Y0149522D01*
X0078146Y0149532D01*
X0077995Y0149546D01*
X0077844Y0149564D01*
X0077693Y0149586D01*
X0077543Y0149611D01*
X0077394Y0149641D01*
X0077245Y0149675D01*
X0077098Y0149712D01*
X0076951Y0149753D01*
X0076806Y0149798D01*
X0076662Y0149847D01*
X0076519Y0149900D01*
X0076378Y0149956D01*
X0076238Y0150016D01*
X0076100Y0150080D01*
X0075963Y0150147D01*
X0075828Y0150217D01*
X0075695Y0150292D01*
X0075564Y0150369D01*
X0075436Y0150450D01*
X0075309Y0150535D01*
X0075185Y0150622D01*
X0075063Y0150713D01*
X0074943Y0150807D01*
X0074826Y0150905D01*
X0074711Y0151005D01*
X0074599Y0151108D01*
X0074490Y0151214D01*
X0074384Y0151323D01*
X0074280Y0151434D01*
X0074180Y0151548D01*
X0074082Y0151665D01*
X0073988Y0151785D01*
X0073896Y0151906D01*
X0073808Y0152030D01*
X0073723Y0152157D01*
X0073642Y0152285D01*
X0073564Y0152416D01*
X0073489Y0152549D01*
X0073418Y0152683D01*
X0073350Y0152819D01*
X0073286Y0152957D01*
X0073226Y0153097D01*
X0073169Y0153238D01*
X0073116Y0153381D01*
X0073067Y0153525D01*
X0073021Y0153670D01*
X0072979Y0153816D01*
X0072941Y0153964D01*
X0072907Y0154112D01*
X0072877Y0154261D01*
X0072851Y0154411D01*
X0072828Y0154562D01*
X0072810Y0154713D01*
X0072796Y0154864D01*
X0072785Y0155016D01*
X0072779Y0155168D01*
X0072776Y0155320D01*
X0072777Y0155473D01*
X0072783Y0155625D01*
X0072792Y0155776D01*
X0072806Y0155928D01*
X0072823Y0156079D01*
X0072844Y0156230D01*
X0072869Y0156380D01*
X0072898Y0156529D01*
X0072931Y0156678D01*
X0072968Y0156826D01*
X0073009Y0156972D01*
X0073053Y0157118D01*
X0073101Y0157262D01*
X0073153Y0157405D01*
X0086933Y0117642D02*
X0085862Y0117314D01*
X0084784Y0117011D01*
X0083699Y0116735D01*
X0082607Y0116485D01*
X0081510Y0116262D01*
X0080407Y0116065D01*
X0079300Y0115895D01*
X0078190Y0115753D01*
X0077076Y0115637D01*
X0075959Y0115548D01*
X0074841Y0115486D01*
X0073722Y0115452D01*
X0072602Y0115445D01*
X0071483Y0115465D01*
X0070364Y0115512D01*
X0069246Y0115586D01*
X0068131Y0115688D01*
X0067019Y0115816D01*
X0065910Y0115971D01*
X0064805Y0116154D01*
X0063704Y0116363D01*
X0077878Y0108586D02*
X0078517Y0108241D01*
X0079163Y0107911D01*
X0079817Y0107596D01*
X0080478Y0107296D01*
X0081146Y0107012D01*
X0081820Y0106743D01*
X0082500Y0106490D01*
X0083186Y0106252D01*
X0083877Y0106031D01*
X0084573Y0105826D01*
X0085274Y0105636D01*
X0085979Y0105463D01*
X0086687Y0105307D01*
X0087399Y0105167D01*
X0088114Y0105043D01*
X0128734Y0043745D02*
X0129732Y0043743D01*
X0130729Y0043763D01*
X0131725Y0043805D01*
X0132720Y0043869D01*
X0133714Y0043954D01*
X0110349Y0025763D02*
X0109832Y0026039D01*
X0109321Y0026327D01*
X0108818Y0026628D01*
X0108322Y0026940D01*
X0107833Y0027264D01*
X0107352Y0027600D01*
X0106880Y0027947D01*
X0106416Y0028305D01*
X0105961Y0028674D01*
X0105514Y0029054D01*
X0105077Y0029445D01*
X0104650Y0029846D01*
X0062524Y0032208D02*
X0062394Y0032588D01*
X0062274Y0032971D01*
X0062163Y0033357D01*
X0062061Y0033745D01*
X0061969Y0034136D01*
X0061886Y0034529D01*
X0061813Y0034924D01*
X0061750Y0035320D01*
X0061696Y0035718D01*
X0061652Y0036117D01*
X0061618Y0036517D01*
X0061594Y0036917D01*
X0061579Y0037319D01*
X0061574Y0037720D01*
X0061579Y0038121D01*
X0061594Y0038523D01*
X0061618Y0038923D01*
X0061652Y0039323D01*
X0061696Y0039722D01*
X0061750Y0040120D01*
X0061813Y0040516D01*
X0061886Y0040911D01*
X0061969Y0041304D01*
X0062061Y0041695D01*
X0062163Y0042083D01*
X0062274Y0042469D01*
X0062394Y0042852D01*
X0062524Y0043232D01*
X0032602Y0045595D02*
X0032321Y0045437D01*
X0032043Y0045273D01*
X0031770Y0045102D01*
X0031501Y0044924D01*
X0031237Y0044740D01*
X0030977Y0044549D01*
X0030721Y0044352D01*
X0030471Y0044150D01*
X0030225Y0043941D01*
X0029985Y0043726D01*
X0029750Y0043505D01*
X0029520Y0043279D01*
X0029296Y0043047D01*
X0029078Y0042810D01*
X0028865Y0042568D01*
X0028659Y0042320D01*
X0028458Y0042068D01*
X0028264Y0041811D01*
X0028076Y0041549D01*
X0027894Y0041283D01*
X0027719Y0041012D01*
X0027550Y0040737D01*
X0027388Y0040459D01*
X0027233Y0040176D01*
X0027085Y0039890D01*
X0026944Y0039600D01*
X0026810Y0039307D01*
X0026683Y0039010D01*
X0026563Y0038711D01*
X0026450Y0038409D01*
X0026345Y0038104D01*
X0026248Y0037797D01*
X0026158Y0037487D01*
X0026075Y0037176D01*
X0026000Y0036862D01*
X0025932Y0036547D01*
X0025873Y0036230D01*
X0025821Y0035912D01*
X0025776Y0035593D01*
X0025740Y0035273D01*
X0025711Y0034951D01*
X0025690Y0034630D01*
X0025677Y0034308D01*
X0025671Y0033985D01*
X0025674Y0033663D01*
X0025684Y0033341D01*
X0025702Y0033019D01*
X0025728Y0032698D01*
X0025761Y0032377D01*
X0025803Y0032057D01*
X0025852Y0031739D01*
X0025909Y0031421D01*
X0025123Y0025515D02*
X0026363Y0025613D01*
X0027605Y0025680D01*
X0028848Y0025716D01*
X0030092Y0025723D01*
X0031335Y0025698D01*
X0032578Y0025644D01*
X0033819Y0025559D01*
X0035057Y0025443D01*
X0036293Y0025298D01*
X0037524Y0025122D01*
X0037328Y0055043D02*
X0037524Y0060555D01*
X0046382Y0080241D02*
X0046278Y0080408D01*
X0046171Y0080573D01*
X0046059Y0080735D01*
X0045944Y0080894D01*
X0045824Y0081051D01*
X0045701Y0081205D01*
X0045574Y0081355D01*
X0045444Y0081502D01*
X0045310Y0081647D01*
X0045172Y0081787D01*
X0045032Y0081925D01*
X0044887Y0082059D01*
X0044740Y0082189D01*
X0044590Y0082316D01*
X0044436Y0082439D01*
X0044279Y0082559D01*
X0044120Y0082674D01*
X0043958Y0082786D01*
X0043793Y0082893D01*
X0043626Y0082997D01*
X0063704Y0121362D02*
X0064432Y0121278D01*
X0065161Y0121210D01*
X0065891Y0121161D01*
X0066623Y0121129D01*
X0067355Y0121114D01*
X0068087Y0121117D01*
X0068819Y0121137D01*
X0069550Y0121176D01*
X0070280Y0121231D01*
X0071009Y0121304D01*
X0071735Y0121395D01*
X0072459Y0121503D01*
X0073181Y0121628D01*
X0073899Y0121771D01*
X0074614Y0121930D01*
X0075324Y0122107D01*
X0076030Y0122301D01*
X0076731Y0122512D01*
X0077427Y0122739D01*
X0078118Y0122983D01*
X0078802Y0123244D01*
X0079480Y0123521D01*
X0080151Y0123814D01*
X0080814Y0124123D01*
X0081471Y0124448D01*
X0082119Y0124788D01*
X0082758Y0125145D01*
X0083390Y0125516D01*
X0125910Y0028271D02*
X0127671Y0028041D01*
X0129437Y0027853D01*
X0131208Y0027707D01*
X0132981Y0027604D01*
X0134756Y0027543D01*
X0136532Y0027525D01*
X0138309Y0027549D01*
X0140084Y0027616D01*
X0141857Y0027726D01*
X0143626Y0027877D01*
X0160161Y0027090D02*
X0160337Y0027105D01*
X0160514Y0027115D01*
X0160690Y0027121D01*
X0160867Y0027123D01*
X0161043Y0027120D01*
X0161220Y0027114D01*
X0161396Y0027102D01*
X0161572Y0027087D01*
X0161748Y0027067D01*
X0161923Y0027043D01*
X0162097Y0027015D01*
X0162271Y0026982D01*
X0162443Y0026945D01*
X0162615Y0026904D01*
X0162786Y0026859D01*
X0162956Y0026810D01*
X0163124Y0026756D01*
X0163291Y0026698D01*
X0163456Y0026637D01*
X0163620Y0026571D01*
X0163783Y0026501D01*
X0163943Y0026427D01*
X0164102Y0026350D01*
X0164259Y0026268D01*
X0164413Y0026183D01*
X0164566Y0026094D01*
X0164716Y0026001D01*
X0164864Y0025905D01*
X0165010Y0025805D01*
X0165153Y0025701D01*
X0165293Y0025594D01*
X0165431Y0025484D01*
X0165566Y0025370D01*
X0165699Y0025253D01*
X0165828Y0025133D01*
X0165954Y0025009D01*
X0166078Y0024883D01*
X0166198Y0024754D01*
X0166315Y0024621D01*
X0166429Y0024486D01*
X0166539Y0024348D01*
X0166646Y0024208D01*
X0166750Y0024065D01*
X0166850Y0023919D01*
X0166946Y0023771D01*
X0167039Y0023621D01*
X0167128Y0023468D01*
X0167213Y0023314D01*
X0167295Y0023157D01*
X0167372Y0022998D01*
X0167446Y0022838D01*
X0167516Y0022675D01*
X0167582Y0022511D01*
X0167643Y0022346D01*
X0167701Y0022179D01*
X0167755Y0022011D01*
X0167804Y0021841D01*
X0167849Y0021670D01*
X0167890Y0021498D01*
X0167927Y0021326D01*
X0167960Y0021152D01*
X0167988Y0020978D01*
X0168012Y0020803D01*
X0168032Y0020627D01*
X0168047Y0020451D01*
X0168059Y0020275D01*
X0168065Y0020098D01*
X0168068Y0019922D01*
X0168066Y0019745D01*
X0168060Y0019569D01*
X0168050Y0019392D01*
X0168035Y0019216D01*
X0168035Y0019217D02*
X0167543Y0014098D01*
X0162543Y0014098D02*
X0161343Y0020398D01*
X0157543Y0014098D02*
X0157799Y0008587D01*
X0157799Y0008586D02*
X0157815Y0008464D01*
X0157827Y0008341D01*
X0157835Y0008217D01*
X0157839Y0008093D01*
X0157840Y0007970D01*
X0157836Y0007846D01*
X0157828Y0007723D01*
X0157816Y0007599D01*
X0157801Y0007477D01*
X0157781Y0007355D01*
X0157758Y0007233D01*
X0157731Y0007112D01*
X0157699Y0006993D01*
X0157665Y0006874D01*
X0157626Y0006757D01*
X0157583Y0006640D01*
X0157537Y0006526D01*
X0157488Y0006412D01*
X0157434Y0006301D01*
X0157377Y0006191D01*
X0157317Y0006083D01*
X0157253Y0005977D01*
X0157186Y0005873D01*
X0157116Y0005771D01*
X0157042Y0005672D01*
X0156965Y0005575D01*
X0156886Y0005480D01*
X0156803Y0005388D01*
X0156717Y0005299D01*
X0156629Y0005213D01*
X0156538Y0005129D01*
X0156444Y0005048D01*
X0156347Y0004971D01*
X0156249Y0004896D01*
X0156148Y0004825D01*
X0156044Y0004757D01*
X0155939Y0004692D01*
X0155831Y0004631D01*
X0155722Y0004573D01*
X0155611Y0004519D01*
X0155498Y0004468D01*
X0155384Y0004421D01*
X0155268Y0004378D01*
X0155151Y0004338D01*
X0155032Y0004302D01*
X0154913Y0004270D01*
X0154792Y0004241D01*
X0154671Y0004217D01*
X0154549Y0004196D01*
X0154427Y0004180D01*
X0154304Y0004167D01*
X0154180Y0004158D01*
X0154057Y0004153D01*
X0153933Y0004152D01*
X0153809Y0004155D01*
X0153686Y0004162D01*
X0153563Y0004173D01*
X0153440Y0004188D01*
X0153317Y0004206D01*
X0153196Y0004229D01*
X0153075Y0004256D01*
X0152543Y0014098D02*
X0152412Y0014532D01*
X0152271Y0014963D01*
X0152120Y0015391D01*
X0151959Y0015815D01*
X0151787Y0016235D01*
X0151605Y0016650D01*
X0151414Y0017061D01*
X0151213Y0017468D01*
X0151002Y0017869D01*
X0150782Y0018266D01*
X0150552Y0018657D01*
X0150313Y0019042D01*
X0150065Y0019422D01*
X0149807Y0019795D01*
X0149541Y0020162D01*
X0149267Y0020523D01*
X0148983Y0020877D01*
X0148692Y0021225D01*
X0148392Y0021565D01*
X0148084Y0021898D01*
X0147768Y0022223D01*
X0147445Y0022541D01*
X0147114Y0022851D01*
X0146775Y0023153D01*
X0162543Y0036146D02*
X0164714Y0039954D01*
X0165915Y0044754D02*
X0166039Y0044707D01*
X0166165Y0044664D01*
X0166292Y0044625D01*
X0166421Y0044590D01*
X0166550Y0044558D01*
X0166680Y0044530D01*
X0166811Y0044507D01*
X0166943Y0044487D01*
X0167075Y0044470D01*
X0167207Y0044458D01*
X0167340Y0044450D01*
X0167473Y0044446D01*
X0167606Y0044445D01*
X0167739Y0044449D01*
X0167872Y0044456D01*
X0168005Y0044468D01*
X0168137Y0044483D01*
X0168268Y0044502D01*
X0168399Y0044525D01*
X0168530Y0044552D01*
X0168659Y0044583D01*
X0168788Y0044618D01*
X0168915Y0044656D01*
X0169041Y0044698D01*
X0169166Y0044744D01*
X0169290Y0044793D01*
X0169412Y0044847D01*
X0169532Y0044903D01*
X0169651Y0044964D01*
X0169768Y0045027D01*
X0169883Y0045094D01*
X0169995Y0045165D01*
X0170106Y0045239D01*
X0170215Y0045316D01*
X0170321Y0045396D01*
X0170425Y0045479D01*
X0170526Y0045566D01*
X0170624Y0045655D01*
X0170720Y0045747D01*
X0168914Y0052753D02*
X0168908Y0052912D01*
X0168905Y0053070D01*
X0168906Y0053228D01*
X0168911Y0053386D01*
X0168921Y0053544D01*
X0168934Y0053701D01*
X0168950Y0053859D01*
X0168971Y0054016D01*
X0168996Y0054172D01*
X0169024Y0054327D01*
X0169057Y0054482D01*
X0169093Y0054636D01*
X0169133Y0054789D01*
X0169176Y0054941D01*
X0169224Y0055092D01*
X0169275Y0055242D01*
X0169330Y0055390D01*
X0169388Y0055537D01*
X0169451Y0055683D01*
X0169516Y0055826D01*
X0169586Y0055969D01*
X0169658Y0056109D01*
X0169734Y0056248D01*
X0169814Y0056384D01*
X0169897Y0056519D01*
X0169983Y0056652D01*
X0170073Y0056782D01*
X0170165Y0056910D01*
X0170261Y0057036D01*
X0170360Y0057159D01*
X0170462Y0057280D01*
X0170567Y0057399D01*
X0170675Y0057514D01*
X0170786Y0057627D01*
X0170899Y0057738D01*
X0171015Y0057845D01*
X0171134Y0057950D01*
X0171255Y0058051D01*
X0171379Y0058150D01*
X0171505Y0058245D01*
X0171633Y0058337D01*
X0171764Y0058427D01*
X0171897Y0058512D01*
X0172032Y0058595D01*
X0172169Y0058674D01*
X0172308Y0058750D01*
X0172448Y0058822D01*
X0172591Y0058891D01*
X0172735Y0058956D01*
X0172881Y0059018D01*
X0173028Y0059076D01*
X0173176Y0059130D01*
X0173326Y0059181D01*
X0173477Y0059228D01*
X0173629Y0059271D01*
X0173782Y0059310D01*
X0173937Y0059346D01*
X0174092Y0059378D01*
X0174247Y0059406D01*
X0174404Y0059430D01*
X0174560Y0059450D01*
X0174718Y0059466D01*
X0174875Y0059479D01*
X0175033Y0059487D01*
X0175191Y0059492D01*
X0037523Y0060555D02*
X0037429Y0063508D01*
X0037397Y0066461D01*
X0037429Y0069414D01*
X0037523Y0072367D01*
X0129452Y0018036D02*
X0129725Y0018022D01*
X0129996Y0018003D01*
X0130267Y0017976D01*
X0130538Y0017943D01*
X0130807Y0017903D01*
X0131076Y0017857D01*
X0131343Y0017804D01*
X0131609Y0017744D01*
X0131873Y0017678D01*
X0132136Y0017606D01*
X0132397Y0017527D01*
X0132655Y0017442D01*
X0132912Y0017350D01*
X0133166Y0017252D01*
X0133418Y0017149D01*
X0133667Y0017038D01*
X0133914Y0016922D01*
X0134157Y0016800D01*
X0134398Y0016672D01*
X0134635Y0016538D01*
X0134869Y0016398D01*
X0135099Y0016253D01*
X0135326Y0016102D01*
X0135549Y0015945D01*
X0135768Y0015783D01*
X0135983Y0015616D01*
X0136194Y0015443D01*
X0136400Y0015266D01*
X0136603Y0015083D01*
X0136800Y0014895D01*
X0136993Y0014703D01*
X0137181Y0014506D01*
X0137365Y0014305D01*
X0137543Y0014099D01*
X0092445Y0016854D02*
X0088296Y0016497D01*
X0084155Y0016049D01*
X0080026Y0015512D01*
X0075909Y0014886D01*
X0165914Y0044754D02*
X0166093Y0044941D01*
X0166266Y0045133D01*
X0166435Y0045329D01*
X0166598Y0045529D01*
X0166757Y0045733D01*
X0166911Y0045941D01*
X0167060Y0046152D01*
X0167204Y0046367D01*
X0167343Y0046585D01*
X0167476Y0046807D01*
X0167603Y0047032D01*
X0167726Y0047260D01*
X0167842Y0047491D01*
X0167953Y0047724D01*
X0168059Y0047960D01*
X0168158Y0048199D01*
X0168252Y0048440D01*
X0168340Y0048683D01*
X0168422Y0048928D01*
X0168497Y0049175D01*
X0168567Y0049424D01*
X0168631Y0049675D01*
X0168689Y0049927D01*
X0168741Y0050180D01*
X0168786Y0050435D01*
X0168825Y0050690D01*
X0168858Y0050947D01*
X0168885Y0051204D01*
X0168906Y0051462D01*
X0168920Y0051720D01*
X0168928Y0051978D01*
X0168930Y0052237D01*
X0168925Y0052496D01*
X0168915Y0052754D01*
X0181114Y0042154D02*
X0181263Y0042107D01*
X0181414Y0042064D01*
X0181565Y0042025D01*
X0181717Y0041989D01*
X0181871Y0041957D01*
X0182024Y0041929D01*
X0182179Y0041904D01*
X0182334Y0041883D01*
X0182489Y0041866D01*
X0182645Y0041853D01*
X0182801Y0041844D01*
X0182958Y0041838D01*
X0183114Y0041836D01*
X0183270Y0041838D01*
X0183427Y0041844D01*
X0183583Y0041853D01*
X0183739Y0041866D01*
X0183894Y0041883D01*
X0184049Y0041904D01*
X0184204Y0041929D01*
X0184357Y0041957D01*
X0184511Y0041989D01*
X0184663Y0042025D01*
X0184814Y0042064D01*
X0184965Y0042107D01*
X0185114Y0042154D01*
X0180634Y0029846D02*
X0180401Y0029875D01*
X0180169Y0029908D01*
X0179938Y0029947D01*
X0179707Y0029992D01*
X0179478Y0030042D01*
X0179250Y0030098D01*
X0179023Y0030160D01*
X0178798Y0030226D01*
X0178575Y0030298D01*
X0178354Y0030376D01*
X0178134Y0030459D01*
X0177916Y0030547D01*
X0177701Y0030640D01*
X0177488Y0030739D01*
X0177277Y0030842D01*
X0177069Y0030951D01*
X0176864Y0031064D01*
X0176661Y0031183D01*
X0176461Y0031306D01*
X0176265Y0031434D01*
X0176071Y0031567D01*
X0175881Y0031704D01*
X0175694Y0031846D01*
X0175511Y0031993D01*
X0175331Y0032143D01*
X0175155Y0032298D01*
X0174982Y0032458D01*
X0174814Y0032621D01*
X0174649Y0032789D01*
X0174489Y0032960D01*
X0174332Y0033135D01*
X0174180Y0033314D01*
X0174033Y0033496D01*
X0173889Y0033682D01*
X0173751Y0033871D01*
X0173617Y0034064D01*
X0173487Y0034260D01*
X0173362Y0034459D01*
X0173243Y0034660D01*
X0173128Y0034865D01*
X0173018Y0035072D01*
X0172913Y0035282D01*
X0172813Y0035495D01*
X0172718Y0035709D01*
X0172628Y0035926D01*
X0172544Y0036145D01*
X0174095Y0042947D02*
X0174417Y0042993D01*
X0174739Y0043031D01*
X0175063Y0043062D01*
X0175387Y0043084D01*
X0175712Y0043099D01*
X0176036Y0043105D01*
X0176361Y0043104D01*
X0176686Y0043095D01*
X0177011Y0043079D01*
X0177335Y0043054D01*
X0177658Y0043021D01*
X0177980Y0042981D01*
X0178302Y0042933D01*
X0178622Y0042877D01*
X0178940Y0042813D01*
X0179257Y0042741D01*
X0179572Y0042662D01*
X0179885Y0042575D01*
X0180196Y0042481D01*
X0180505Y0042379D01*
X0180811Y0042270D01*
X0181114Y0042153D01*
X0190939Y0043744D02*
X0190939Y0059492D01*
X0190939Y0075240D01*
X0190939Y0090988D01*
X0190939Y0106736D01*
X0190939Y0122484D01*
X0190939Y0138232D01*
X0190939Y0153980D01*
X0206687Y0153980D02*
X0206687Y0138232D01*
X0206687Y0122484D01*
X0206687Y0106736D01*
X0206687Y0090988D01*
X0206687Y0075240D01*
X0206687Y0059492D01*
X0206687Y0043744D01*
X0206688Y0043744D02*
X0206577Y0043489D01*
X0206460Y0043235D01*
X0206337Y0042985D01*
X0206208Y0042738D01*
X0206073Y0042494D01*
X0205932Y0042253D01*
X0205785Y0042016D01*
X0205633Y0041782D01*
X0205475Y0041552D01*
X0205312Y0041326D01*
X0205143Y0041103D01*
X0204969Y0040885D01*
X0204790Y0040672D01*
X0204606Y0040462D01*
X0204417Y0040257D01*
X0204223Y0040057D01*
X0204024Y0039861D01*
X0203820Y0039671D01*
X0203612Y0039485D01*
X0203400Y0039304D01*
X0203183Y0039128D01*
X0202962Y0038958D01*
X0202737Y0038793D01*
X0202508Y0038634D01*
X0202276Y0038480D01*
X0202039Y0038331D01*
X0201800Y0038189D01*
X0201557Y0038052D01*
X0201310Y0037921D01*
X0201061Y0037796D01*
X0200809Y0037677D01*
X0200553Y0037564D01*
X0200296Y0037457D01*
X0200036Y0037357D01*
X0199773Y0037263D01*
X0199508Y0037175D01*
X0199241Y0037093D01*
X0198973Y0037018D01*
X0198702Y0036950D01*
X0198430Y0036888D01*
X0198157Y0036833D01*
X0187917Y0029059D02*
X0180634Y0029846D01*
X0178665Y0040870D02*
X0178229Y0040939D01*
X0177792Y0040997D01*
X0177353Y0041044D01*
X0176913Y0041081D01*
X0176472Y0041107D01*
X0176031Y0041122D01*
X0175589Y0041127D01*
X0175148Y0041121D01*
X0174707Y0041104D01*
X0174266Y0041077D01*
X0173826Y0041039D01*
X0173387Y0040990D01*
X0172950Y0040931D01*
X0172514Y0040861D01*
X0172080Y0040780D01*
X0171648Y0040689D01*
X0171218Y0040588D01*
X0170791Y0040476D01*
X0178665Y0040870D02*
X0179410Y0040480D01*
X0180165Y0040108D01*
X0180928Y0039754D01*
X0181699Y0039419D01*
X0182479Y0039103D01*
X0183266Y0038805D01*
X0184059Y0038527D01*
X0184860Y0038268D01*
X0185666Y0038028D01*
X0186478Y0037808D01*
X0187294Y0037608D01*
X0188116Y0037427D01*
X0188942Y0037267D01*
X0189771Y0037126D01*
X0190603Y0037006D01*
X0191438Y0036905D01*
X0192276Y0036825D01*
X0193115Y0036765D01*
X0193955Y0036725D01*
X0194796Y0036706D01*
X0195637Y0036707D01*
X0196478Y0036728D01*
X0197318Y0036770D01*
X0198157Y0036832D01*
X0190940Y0043744D02*
X0189469Y0043400D01*
X0188007Y0043021D01*
X0186556Y0042605D01*
X0185114Y0042154D01*
X0160162Y0027090D02*
X0158783Y0026974D01*
X0157401Y0026891D01*
X0156017Y0026841D01*
X0154633Y0026824D01*
X0153249Y0026840D01*
X0151866Y0026890D01*
X0150484Y0026972D01*
X0149105Y0027087D01*
X0147728Y0027236D01*
X0146356Y0027417D01*
X0144988Y0027631D01*
X0143626Y0027877D01*
X0168295Y0041947D02*
X0169753Y0042145D01*
X0171207Y0042378D01*
X0172654Y0042646D01*
X0174095Y0042947D01*
X0065536Y0140377D02*
X0064732Y0140236D01*
X0063926Y0140114D01*
X0063116Y0140012D01*
X0062304Y0139929D01*
X0061491Y0139867D01*
X0060676Y0139824D01*
X0059861Y0139801D01*
X0059045Y0139798D01*
X0058229Y0139815D01*
X0057414Y0139852D01*
X0056600Y0139909D01*
X0055788Y0139985D01*
X0054978Y0140081D01*
X0054170Y0140197D01*
X0053365Y0140333D01*
X0052564Y0140488D01*
X0051767Y0140663D01*
X0050975Y0140857D01*
X0050187Y0141070D01*
X0049405Y0141302D01*
X0048629Y0141554D01*
X0047859Y0141824D01*
X0047096Y0142113D01*
X0046340Y0142420D01*
X0045592Y0142746D01*
X0044852Y0143090D01*
X0044121Y0143452D01*
X0043399Y0143831D01*
X0042686Y0144228D01*
X0041983Y0144642D01*
X0041291Y0145074D01*
X0040609Y0145522D01*
X0039938Y0145986D01*
X0039279Y0146467D01*
X0038631Y0146963D01*
X0037996Y0147476D01*
X0037374Y0148003D01*
X0036765Y0148546D01*
X0036169Y0149103D01*
X0035587Y0149675D01*
X0035018Y0150260D01*
X0034465Y0150860D01*
X0033926Y0151472D01*
X0033402Y0152098D01*
X0032894Y0152736D01*
X0032401Y0153386D01*
X0031925Y0154048D01*
X0031464Y0154722D01*
X0031020Y0155407D01*
X0030593Y0156102D01*
X0030183Y0156807D01*
X0029791Y0157522D01*
X0029416Y0158247D01*
X0029058Y0158980D01*
X0059768Y0125516D02*
X0061152Y0126732D01*
X0062507Y0127980D01*
X0063833Y0129259D01*
X0065129Y0130569D01*
X0066394Y0131908D01*
X0067628Y0133276D01*
X0068829Y0134672D01*
X0069998Y0136096D01*
X0071134Y0137547D01*
X0072236Y0139024D01*
X0073303Y0140526D01*
X0074335Y0142052D01*
X0063705Y0081815D02*
X0066798Y0078228D01*
X0069970Y0074708D01*
X0073217Y0071259D01*
X0076538Y0067881D01*
X0079932Y0064577D01*
X0083398Y0061347D01*
X0086933Y0058193D01*
D20*
X0086933Y0058193D03*
X0086146Y0064886D03*
X0088508Y0075122D03*
X0096451Y0075240D03*
X0112593Y0075240D03*
X0128735Y0075240D03*
X0143695Y0075240D03*
X0159443Y0075240D03*
X0175191Y0075240D03*
X0190939Y0075240D03*
X0206687Y0075240D03*
X0206687Y0059492D03*
X0190939Y0059492D03*
X0175191Y0059492D03*
X0159443Y0059492D03*
X0143695Y0059492D03*
X0128735Y0059492D03*
X0112593Y0059492D03*
X0098813Y0059492D03*
X0099207Y0043350D03*
X0112593Y0043744D03*
X0115280Y0032602D03*
X0128735Y0043744D03*
X0133390Y0038114D03*
X0143695Y0043744D03*
X0159443Y0043744D03*
X0170720Y0045747D03*
X0190939Y0043744D03*
X0206687Y0043744D03*
X0161343Y0020398D03*
X0144807Y0008193D03*
X0142445Y0020791D03*
X0092445Y0016854D03*
X0073547Y0018035D03*
X0064886Y0025516D03*
X0062524Y0032209D03*
X0049925Y0036933D03*
X0051106Y0042445D03*
X0062524Y0043232D03*
X0067002Y0051550D03*
X0065673Y0057799D03*
X0060314Y0064354D03*
X0051500Y0063705D03*
X0051894Y0070398D03*
X0042839Y0079453D03*
X0036933Y0080634D03*
X0030634Y0079846D03*
X0025122Y0086539D03*
X0020791Y0083783D03*
X0017248Y0086539D03*
X0010161Y0085752D03*
X0024335Y0095988D03*
X0024335Y0104256D03*
X0025122Y0110161D03*
X0036539Y0113705D03*
X0036539Y0102287D03*
X0034965Y0095201D03*
X0048744Y0087720D03*
X0058193Y0091657D03*
X0088114Y0089295D03*
X0096451Y0090988D03*
X0112593Y0090988D03*
X0128735Y0090988D03*
X0143695Y0090988D03*
X0159443Y0090988D03*
X0175191Y0090988D03*
X0190939Y0090988D03*
X0206687Y0090988D03*
X0206687Y0106736D03*
X0190939Y0106736D03*
X0175191Y0106736D03*
X0159443Y0106736D03*
X0143695Y0106736D03*
X0128341Y0106736D03*
X0112593Y0106736D03*
X0096451Y0106736D03*
X0088114Y0105043D03*
X0086933Y0117642D03*
X0083390Y0125516D03*
X0076303Y0126303D03*
X0065536Y0140377D03*
X0074335Y0142051D03*
X0073154Y0157406D03*
X0096451Y0153980D03*
X0112199Y0153980D03*
X0128341Y0153980D03*
X0143695Y0153980D03*
X0159443Y0153980D03*
X0175191Y0153980D03*
X0190939Y0153980D03*
X0206687Y0153980D03*
X0206687Y0138232D03*
X0190939Y0138232D03*
X0175191Y0138232D03*
X0159443Y0138232D03*
X0143695Y0138232D03*
X0128341Y0138232D03*
X0112199Y0138232D03*
X0096451Y0138232D03*
X0096451Y0122484D03*
X0112593Y0122484D03*
X0128341Y0122484D03*
X0143695Y0122484D03*
X0159443Y0122484D03*
X0175191Y0122484D03*
X0190939Y0122484D03*
X0206687Y0122484D03*
X0050319Y0129059D03*
X0037327Y0055043D03*
X0029846Y0053075D03*
X0026697Y0048744D03*
X0020791Y0053862D03*
X0022366Y0042051D03*
X0030240Y0038114D03*
X0037327Y0042839D03*
X0021972Y0035752D03*
X0021579Y0029846D03*
X0025122Y0025516D03*
X0042051Y0007012D03*
X0049531Y0025122D03*
D21*
X0056698Y0058760D02*
X0060314Y0064354D01*
M02*
