G75*
%MOIN*%
%OFA0B0*%
%FSLAX25Y25*%
%IPPOS*%
%LPD*%
%AMOC8*
5,1,8,0,0,1.08239X$1,22.5*
%
%ADD10C,0.01000*%
%ADD11C,0.00000*%
%ADD12C,0.12605*%
%ADD13R,0.04731X0.04337*%
%ADD14OC8,0.10450*%
%ADD15R,0.04337X0.04731*%
%ADD16C,0.10400*%
%ADD17R,0.04337X0.05912*%
%ADD18R,0.05124X0.02762*%
%ADD19R,0.02762X0.05124*%
D10*
X0009374Y0001500D02*
X0214098Y0001500D01*
X0214288Y0001502D01*
X0214478Y0001509D01*
X0214668Y0001521D01*
X0214858Y0001537D01*
X0215047Y0001557D01*
X0215236Y0001583D01*
X0215424Y0001612D01*
X0215611Y0001647D01*
X0215797Y0001686D01*
X0215982Y0001729D01*
X0216167Y0001777D01*
X0216350Y0001829D01*
X0216531Y0001885D01*
X0216711Y0001946D01*
X0216890Y0002012D01*
X0217067Y0002081D01*
X0217243Y0002155D01*
X0217416Y0002233D01*
X0217588Y0002316D01*
X0217757Y0002402D01*
X0217925Y0002492D01*
X0218090Y0002587D01*
X0218253Y0002685D01*
X0218413Y0002788D01*
X0218571Y0002894D01*
X0218726Y0003004D01*
X0218879Y0003117D01*
X0219029Y0003235D01*
X0219175Y0003356D01*
X0219319Y0003480D01*
X0219460Y0003608D01*
X0219598Y0003739D01*
X0219733Y0003874D01*
X0219864Y0004012D01*
X0219992Y0004153D01*
X0220116Y0004297D01*
X0220237Y0004443D01*
X0220355Y0004593D01*
X0220468Y0004746D01*
X0220578Y0004901D01*
X0220684Y0005059D01*
X0220787Y0005219D01*
X0220885Y0005382D01*
X0220980Y0005547D01*
X0221070Y0005715D01*
X0221156Y0005884D01*
X0221239Y0006056D01*
X0221317Y0006229D01*
X0221391Y0006405D01*
X0221460Y0006582D01*
X0221526Y0006761D01*
X0221587Y0006941D01*
X0221643Y0007122D01*
X0221695Y0007305D01*
X0221743Y0007490D01*
X0221786Y0007675D01*
X0221825Y0007861D01*
X0221860Y0008048D01*
X0221889Y0008236D01*
X0221915Y0008425D01*
X0221935Y0008614D01*
X0221951Y0008804D01*
X0221963Y0008994D01*
X0221970Y0009184D01*
X0221972Y0009374D01*
X0221972Y0162917D01*
X0221970Y0163107D01*
X0221963Y0163297D01*
X0221951Y0163487D01*
X0221935Y0163677D01*
X0221915Y0163866D01*
X0221889Y0164055D01*
X0221860Y0164243D01*
X0221825Y0164430D01*
X0221786Y0164616D01*
X0221743Y0164801D01*
X0221695Y0164986D01*
X0221643Y0165169D01*
X0221587Y0165350D01*
X0221526Y0165530D01*
X0221460Y0165709D01*
X0221391Y0165886D01*
X0221317Y0166062D01*
X0221239Y0166235D01*
X0221156Y0166407D01*
X0221070Y0166576D01*
X0220980Y0166744D01*
X0220885Y0166909D01*
X0220787Y0167072D01*
X0220684Y0167232D01*
X0220578Y0167390D01*
X0220468Y0167545D01*
X0220355Y0167698D01*
X0220237Y0167848D01*
X0220116Y0167994D01*
X0219992Y0168138D01*
X0219864Y0168279D01*
X0219733Y0168417D01*
X0219598Y0168552D01*
X0219460Y0168683D01*
X0219319Y0168811D01*
X0219175Y0168935D01*
X0219029Y0169056D01*
X0218879Y0169174D01*
X0218726Y0169287D01*
X0218571Y0169397D01*
X0218413Y0169503D01*
X0218253Y0169606D01*
X0218090Y0169704D01*
X0217925Y0169799D01*
X0217757Y0169889D01*
X0217588Y0169975D01*
X0217416Y0170058D01*
X0217243Y0170136D01*
X0217067Y0170210D01*
X0216890Y0170279D01*
X0216711Y0170345D01*
X0216531Y0170406D01*
X0216350Y0170462D01*
X0216167Y0170514D01*
X0215982Y0170562D01*
X0215797Y0170605D01*
X0215611Y0170644D01*
X0215424Y0170679D01*
X0215236Y0170708D01*
X0215047Y0170734D01*
X0214858Y0170754D01*
X0214668Y0170770D01*
X0214478Y0170782D01*
X0214288Y0170789D01*
X0214098Y0170791D01*
X0009374Y0170791D01*
X0009184Y0170789D01*
X0008994Y0170782D01*
X0008804Y0170770D01*
X0008614Y0170754D01*
X0008425Y0170734D01*
X0008236Y0170708D01*
X0008048Y0170679D01*
X0007861Y0170644D01*
X0007675Y0170605D01*
X0007490Y0170562D01*
X0007305Y0170514D01*
X0007122Y0170462D01*
X0006941Y0170406D01*
X0006761Y0170345D01*
X0006582Y0170279D01*
X0006405Y0170210D01*
X0006229Y0170136D01*
X0006056Y0170058D01*
X0005884Y0169975D01*
X0005715Y0169889D01*
X0005547Y0169799D01*
X0005382Y0169704D01*
X0005219Y0169606D01*
X0005059Y0169503D01*
X0004901Y0169397D01*
X0004746Y0169287D01*
X0004593Y0169174D01*
X0004443Y0169056D01*
X0004297Y0168935D01*
X0004153Y0168811D01*
X0004012Y0168683D01*
X0003874Y0168552D01*
X0003739Y0168417D01*
X0003608Y0168279D01*
X0003480Y0168138D01*
X0003356Y0167994D01*
X0003235Y0167848D01*
X0003117Y0167698D01*
X0003004Y0167545D01*
X0002894Y0167390D01*
X0002788Y0167232D01*
X0002685Y0167072D01*
X0002587Y0166909D01*
X0002492Y0166744D01*
X0002402Y0166576D01*
X0002316Y0166407D01*
X0002233Y0166235D01*
X0002155Y0166062D01*
X0002081Y0165886D01*
X0002012Y0165709D01*
X0001946Y0165530D01*
X0001885Y0165350D01*
X0001829Y0165169D01*
X0001777Y0164986D01*
X0001729Y0164801D01*
X0001686Y0164616D01*
X0001647Y0164430D01*
X0001612Y0164243D01*
X0001583Y0164055D01*
X0001557Y0163866D01*
X0001537Y0163677D01*
X0001521Y0163487D01*
X0001509Y0163297D01*
X0001502Y0163107D01*
X0001500Y0162917D01*
X0001500Y0009374D01*
X0001502Y0009184D01*
X0001509Y0008994D01*
X0001521Y0008804D01*
X0001537Y0008614D01*
X0001557Y0008425D01*
X0001583Y0008236D01*
X0001612Y0008048D01*
X0001647Y0007861D01*
X0001686Y0007675D01*
X0001729Y0007490D01*
X0001777Y0007305D01*
X0001829Y0007122D01*
X0001885Y0006941D01*
X0001946Y0006761D01*
X0002012Y0006582D01*
X0002081Y0006405D01*
X0002155Y0006229D01*
X0002233Y0006056D01*
X0002316Y0005884D01*
X0002402Y0005715D01*
X0002492Y0005547D01*
X0002587Y0005382D01*
X0002685Y0005219D01*
X0002788Y0005059D01*
X0002894Y0004901D01*
X0003004Y0004746D01*
X0003117Y0004593D01*
X0003235Y0004443D01*
X0003356Y0004297D01*
X0003480Y0004153D01*
X0003608Y0004012D01*
X0003739Y0003874D01*
X0003874Y0003739D01*
X0004012Y0003608D01*
X0004153Y0003480D01*
X0004297Y0003356D01*
X0004443Y0003235D01*
X0004593Y0003117D01*
X0004746Y0003004D01*
X0004901Y0002894D01*
X0005059Y0002788D01*
X0005219Y0002685D01*
X0005382Y0002587D01*
X0005547Y0002492D01*
X0005715Y0002402D01*
X0005884Y0002316D01*
X0006056Y0002233D01*
X0006229Y0002155D01*
X0006405Y0002081D01*
X0006582Y0002012D01*
X0006761Y0001946D01*
X0006941Y0001885D01*
X0007122Y0001829D01*
X0007305Y0001777D01*
X0007490Y0001729D01*
X0007675Y0001686D01*
X0007861Y0001647D01*
X0008048Y0001612D01*
X0008236Y0001583D01*
X0008425Y0001557D01*
X0008614Y0001537D01*
X0008804Y0001521D01*
X0008994Y0001509D01*
X0009184Y0001502D01*
X0009374Y0001500D01*
D11*
X0204059Y0013311D02*
X0204061Y0013467D01*
X0204067Y0013623D01*
X0204077Y0013778D01*
X0204091Y0013933D01*
X0204109Y0014088D01*
X0204131Y0014242D01*
X0204156Y0014396D01*
X0204186Y0014549D01*
X0204220Y0014701D01*
X0204257Y0014853D01*
X0204298Y0015003D01*
X0204343Y0015152D01*
X0204392Y0015300D01*
X0204445Y0015447D01*
X0204501Y0015592D01*
X0204561Y0015736D01*
X0204625Y0015878D01*
X0204693Y0016019D01*
X0204764Y0016157D01*
X0204838Y0016294D01*
X0204916Y0016429D01*
X0204997Y0016562D01*
X0205082Y0016693D01*
X0205170Y0016822D01*
X0205261Y0016948D01*
X0205356Y0017072D01*
X0205453Y0017193D01*
X0205554Y0017312D01*
X0205658Y0017429D01*
X0205764Y0017542D01*
X0205874Y0017653D01*
X0205986Y0017761D01*
X0206101Y0017866D01*
X0206219Y0017969D01*
X0206339Y0018068D01*
X0206462Y0018164D01*
X0206587Y0018257D01*
X0206714Y0018346D01*
X0206844Y0018433D01*
X0206976Y0018516D01*
X0207110Y0018595D01*
X0207246Y0018672D01*
X0207384Y0018744D01*
X0207523Y0018814D01*
X0207665Y0018879D01*
X0207808Y0018941D01*
X0207952Y0018999D01*
X0208098Y0019054D01*
X0208246Y0019105D01*
X0208394Y0019152D01*
X0208544Y0019195D01*
X0208695Y0019234D01*
X0208847Y0019270D01*
X0208999Y0019301D01*
X0209153Y0019329D01*
X0209307Y0019353D01*
X0209461Y0019373D01*
X0209616Y0019389D01*
X0209772Y0019401D01*
X0209927Y0019409D01*
X0210083Y0019413D01*
X0210239Y0019413D01*
X0210395Y0019409D01*
X0210550Y0019401D01*
X0210706Y0019389D01*
X0210861Y0019373D01*
X0211015Y0019353D01*
X0211169Y0019329D01*
X0211323Y0019301D01*
X0211475Y0019270D01*
X0211627Y0019234D01*
X0211778Y0019195D01*
X0211928Y0019152D01*
X0212076Y0019105D01*
X0212224Y0019054D01*
X0212370Y0018999D01*
X0212514Y0018941D01*
X0212657Y0018879D01*
X0212799Y0018814D01*
X0212938Y0018744D01*
X0213076Y0018672D01*
X0213212Y0018595D01*
X0213346Y0018516D01*
X0213478Y0018433D01*
X0213608Y0018346D01*
X0213735Y0018257D01*
X0213860Y0018164D01*
X0213983Y0018068D01*
X0214103Y0017969D01*
X0214221Y0017866D01*
X0214336Y0017761D01*
X0214448Y0017653D01*
X0214558Y0017542D01*
X0214664Y0017429D01*
X0214768Y0017312D01*
X0214869Y0017193D01*
X0214966Y0017072D01*
X0215061Y0016948D01*
X0215152Y0016822D01*
X0215240Y0016693D01*
X0215325Y0016562D01*
X0215406Y0016429D01*
X0215484Y0016294D01*
X0215558Y0016157D01*
X0215629Y0016019D01*
X0215697Y0015878D01*
X0215761Y0015736D01*
X0215821Y0015592D01*
X0215877Y0015447D01*
X0215930Y0015300D01*
X0215979Y0015152D01*
X0216024Y0015003D01*
X0216065Y0014853D01*
X0216102Y0014701D01*
X0216136Y0014549D01*
X0216166Y0014396D01*
X0216191Y0014242D01*
X0216213Y0014088D01*
X0216231Y0013933D01*
X0216245Y0013778D01*
X0216255Y0013623D01*
X0216261Y0013467D01*
X0216263Y0013311D01*
X0216261Y0013155D01*
X0216255Y0012999D01*
X0216245Y0012844D01*
X0216231Y0012689D01*
X0216213Y0012534D01*
X0216191Y0012380D01*
X0216166Y0012226D01*
X0216136Y0012073D01*
X0216102Y0011921D01*
X0216065Y0011769D01*
X0216024Y0011619D01*
X0215979Y0011470D01*
X0215930Y0011322D01*
X0215877Y0011175D01*
X0215821Y0011030D01*
X0215761Y0010886D01*
X0215697Y0010744D01*
X0215629Y0010603D01*
X0215558Y0010465D01*
X0215484Y0010328D01*
X0215406Y0010193D01*
X0215325Y0010060D01*
X0215240Y0009929D01*
X0215152Y0009800D01*
X0215061Y0009674D01*
X0214966Y0009550D01*
X0214869Y0009429D01*
X0214768Y0009310D01*
X0214664Y0009193D01*
X0214558Y0009080D01*
X0214448Y0008969D01*
X0214336Y0008861D01*
X0214221Y0008756D01*
X0214103Y0008653D01*
X0213983Y0008554D01*
X0213860Y0008458D01*
X0213735Y0008365D01*
X0213608Y0008276D01*
X0213478Y0008189D01*
X0213346Y0008106D01*
X0213212Y0008027D01*
X0213076Y0007950D01*
X0212938Y0007878D01*
X0212799Y0007808D01*
X0212657Y0007743D01*
X0212514Y0007681D01*
X0212370Y0007623D01*
X0212224Y0007568D01*
X0212076Y0007517D01*
X0211928Y0007470D01*
X0211778Y0007427D01*
X0211627Y0007388D01*
X0211475Y0007352D01*
X0211323Y0007321D01*
X0211169Y0007293D01*
X0211015Y0007269D01*
X0210861Y0007249D01*
X0210706Y0007233D01*
X0210550Y0007221D01*
X0210395Y0007213D01*
X0210239Y0007209D01*
X0210083Y0007209D01*
X0209927Y0007213D01*
X0209772Y0007221D01*
X0209616Y0007233D01*
X0209461Y0007249D01*
X0209307Y0007269D01*
X0209153Y0007293D01*
X0208999Y0007321D01*
X0208847Y0007352D01*
X0208695Y0007388D01*
X0208544Y0007427D01*
X0208394Y0007470D01*
X0208246Y0007517D01*
X0208098Y0007568D01*
X0207952Y0007623D01*
X0207808Y0007681D01*
X0207665Y0007743D01*
X0207523Y0007808D01*
X0207384Y0007878D01*
X0207246Y0007950D01*
X0207110Y0008027D01*
X0206976Y0008106D01*
X0206844Y0008189D01*
X0206714Y0008276D01*
X0206587Y0008365D01*
X0206462Y0008458D01*
X0206339Y0008554D01*
X0206219Y0008653D01*
X0206101Y0008756D01*
X0205986Y0008861D01*
X0205874Y0008969D01*
X0205764Y0009080D01*
X0205658Y0009193D01*
X0205554Y0009310D01*
X0205453Y0009429D01*
X0205356Y0009550D01*
X0205261Y0009674D01*
X0205170Y0009800D01*
X0205082Y0009929D01*
X0204997Y0010060D01*
X0204916Y0010193D01*
X0204838Y0010328D01*
X0204764Y0010465D01*
X0204693Y0010603D01*
X0204625Y0010744D01*
X0204561Y0010886D01*
X0204501Y0011030D01*
X0204445Y0011175D01*
X0204392Y0011322D01*
X0204343Y0011470D01*
X0204298Y0011619D01*
X0204257Y0011769D01*
X0204220Y0011921D01*
X0204186Y0012073D01*
X0204156Y0012226D01*
X0204131Y0012380D01*
X0204109Y0012534D01*
X0204091Y0012689D01*
X0204077Y0012844D01*
X0204067Y0012999D01*
X0204061Y0013155D01*
X0204059Y0013311D01*
X0007209Y0158980D02*
X0007211Y0159136D01*
X0007217Y0159292D01*
X0007227Y0159447D01*
X0007241Y0159602D01*
X0007259Y0159757D01*
X0007281Y0159911D01*
X0007306Y0160065D01*
X0007336Y0160218D01*
X0007370Y0160370D01*
X0007407Y0160522D01*
X0007448Y0160672D01*
X0007493Y0160821D01*
X0007542Y0160969D01*
X0007595Y0161116D01*
X0007651Y0161261D01*
X0007711Y0161405D01*
X0007775Y0161547D01*
X0007843Y0161688D01*
X0007914Y0161826D01*
X0007988Y0161963D01*
X0008066Y0162098D01*
X0008147Y0162231D01*
X0008232Y0162362D01*
X0008320Y0162491D01*
X0008411Y0162617D01*
X0008506Y0162741D01*
X0008603Y0162862D01*
X0008704Y0162981D01*
X0008808Y0163098D01*
X0008914Y0163211D01*
X0009024Y0163322D01*
X0009136Y0163430D01*
X0009251Y0163535D01*
X0009369Y0163638D01*
X0009489Y0163737D01*
X0009612Y0163833D01*
X0009737Y0163926D01*
X0009864Y0164015D01*
X0009994Y0164102D01*
X0010126Y0164185D01*
X0010260Y0164264D01*
X0010396Y0164341D01*
X0010534Y0164413D01*
X0010673Y0164483D01*
X0010815Y0164548D01*
X0010958Y0164610D01*
X0011102Y0164668D01*
X0011248Y0164723D01*
X0011396Y0164774D01*
X0011544Y0164821D01*
X0011694Y0164864D01*
X0011845Y0164903D01*
X0011997Y0164939D01*
X0012149Y0164970D01*
X0012303Y0164998D01*
X0012457Y0165022D01*
X0012611Y0165042D01*
X0012766Y0165058D01*
X0012922Y0165070D01*
X0013077Y0165078D01*
X0013233Y0165082D01*
X0013389Y0165082D01*
X0013545Y0165078D01*
X0013700Y0165070D01*
X0013856Y0165058D01*
X0014011Y0165042D01*
X0014165Y0165022D01*
X0014319Y0164998D01*
X0014473Y0164970D01*
X0014625Y0164939D01*
X0014777Y0164903D01*
X0014928Y0164864D01*
X0015078Y0164821D01*
X0015226Y0164774D01*
X0015374Y0164723D01*
X0015520Y0164668D01*
X0015664Y0164610D01*
X0015807Y0164548D01*
X0015949Y0164483D01*
X0016088Y0164413D01*
X0016226Y0164341D01*
X0016362Y0164264D01*
X0016496Y0164185D01*
X0016628Y0164102D01*
X0016758Y0164015D01*
X0016885Y0163926D01*
X0017010Y0163833D01*
X0017133Y0163737D01*
X0017253Y0163638D01*
X0017371Y0163535D01*
X0017486Y0163430D01*
X0017598Y0163322D01*
X0017708Y0163211D01*
X0017814Y0163098D01*
X0017918Y0162981D01*
X0018019Y0162862D01*
X0018116Y0162741D01*
X0018211Y0162617D01*
X0018302Y0162491D01*
X0018390Y0162362D01*
X0018475Y0162231D01*
X0018556Y0162098D01*
X0018634Y0161963D01*
X0018708Y0161826D01*
X0018779Y0161688D01*
X0018847Y0161547D01*
X0018911Y0161405D01*
X0018971Y0161261D01*
X0019027Y0161116D01*
X0019080Y0160969D01*
X0019129Y0160821D01*
X0019174Y0160672D01*
X0019215Y0160522D01*
X0019252Y0160370D01*
X0019286Y0160218D01*
X0019316Y0160065D01*
X0019341Y0159911D01*
X0019363Y0159757D01*
X0019381Y0159602D01*
X0019395Y0159447D01*
X0019405Y0159292D01*
X0019411Y0159136D01*
X0019413Y0158980D01*
X0019411Y0158824D01*
X0019405Y0158668D01*
X0019395Y0158513D01*
X0019381Y0158358D01*
X0019363Y0158203D01*
X0019341Y0158049D01*
X0019316Y0157895D01*
X0019286Y0157742D01*
X0019252Y0157590D01*
X0019215Y0157438D01*
X0019174Y0157288D01*
X0019129Y0157139D01*
X0019080Y0156991D01*
X0019027Y0156844D01*
X0018971Y0156699D01*
X0018911Y0156555D01*
X0018847Y0156413D01*
X0018779Y0156272D01*
X0018708Y0156134D01*
X0018634Y0155997D01*
X0018556Y0155862D01*
X0018475Y0155729D01*
X0018390Y0155598D01*
X0018302Y0155469D01*
X0018211Y0155343D01*
X0018116Y0155219D01*
X0018019Y0155098D01*
X0017918Y0154979D01*
X0017814Y0154862D01*
X0017708Y0154749D01*
X0017598Y0154638D01*
X0017486Y0154530D01*
X0017371Y0154425D01*
X0017253Y0154322D01*
X0017133Y0154223D01*
X0017010Y0154127D01*
X0016885Y0154034D01*
X0016758Y0153945D01*
X0016628Y0153858D01*
X0016496Y0153775D01*
X0016362Y0153696D01*
X0016226Y0153619D01*
X0016088Y0153547D01*
X0015949Y0153477D01*
X0015807Y0153412D01*
X0015664Y0153350D01*
X0015520Y0153292D01*
X0015374Y0153237D01*
X0015226Y0153186D01*
X0015078Y0153139D01*
X0014928Y0153096D01*
X0014777Y0153057D01*
X0014625Y0153021D01*
X0014473Y0152990D01*
X0014319Y0152962D01*
X0014165Y0152938D01*
X0014011Y0152918D01*
X0013856Y0152902D01*
X0013700Y0152890D01*
X0013545Y0152882D01*
X0013389Y0152878D01*
X0013233Y0152878D01*
X0013077Y0152882D01*
X0012922Y0152890D01*
X0012766Y0152902D01*
X0012611Y0152918D01*
X0012457Y0152938D01*
X0012303Y0152962D01*
X0012149Y0152990D01*
X0011997Y0153021D01*
X0011845Y0153057D01*
X0011694Y0153096D01*
X0011544Y0153139D01*
X0011396Y0153186D01*
X0011248Y0153237D01*
X0011102Y0153292D01*
X0010958Y0153350D01*
X0010815Y0153412D01*
X0010673Y0153477D01*
X0010534Y0153547D01*
X0010396Y0153619D01*
X0010260Y0153696D01*
X0010126Y0153775D01*
X0009994Y0153858D01*
X0009864Y0153945D01*
X0009737Y0154034D01*
X0009612Y0154127D01*
X0009489Y0154223D01*
X0009369Y0154322D01*
X0009251Y0154425D01*
X0009136Y0154530D01*
X0009024Y0154638D01*
X0008914Y0154749D01*
X0008808Y0154862D01*
X0008704Y0154979D01*
X0008603Y0155098D01*
X0008506Y0155219D01*
X0008411Y0155343D01*
X0008320Y0155469D01*
X0008232Y0155598D01*
X0008147Y0155729D01*
X0008066Y0155862D01*
X0007988Y0155997D01*
X0007914Y0156134D01*
X0007843Y0156272D01*
X0007775Y0156413D01*
X0007711Y0156555D01*
X0007651Y0156699D01*
X0007595Y0156844D01*
X0007542Y0156991D01*
X0007493Y0157139D01*
X0007448Y0157288D01*
X0007407Y0157438D01*
X0007370Y0157590D01*
X0007336Y0157742D01*
X0007306Y0157895D01*
X0007281Y0158049D01*
X0007259Y0158203D01*
X0007241Y0158358D01*
X0007227Y0158513D01*
X0007217Y0158668D01*
X0007211Y0158824D01*
X0007209Y0158980D01*
D12*
X0013311Y0158980D03*
X0210161Y0013311D03*
D13*
G36*
X0119103Y0030285D02*
X0119924Y0034942D01*
X0124193Y0034189D01*
X0123372Y0029532D01*
X0119103Y0030285D01*
G37*
G36*
X0117941Y0023693D02*
X0118762Y0028350D01*
X0123031Y0027597D01*
X0122210Y0022940D01*
X0117941Y0023693D01*
G37*
G36*
X0112073Y0028468D02*
X0112894Y0023811D01*
X0108625Y0023058D01*
X0107804Y0027715D01*
X0112073Y0028468D01*
G37*
G36*
X0110911Y0035060D02*
X0111732Y0030403D01*
X0107463Y0029650D01*
X0106642Y0034307D01*
X0110911Y0035060D01*
G37*
G36*
X0096579Y0039238D02*
X0101236Y0040059D01*
X0101989Y0035790D01*
X0097332Y0034969D01*
X0096579Y0039238D01*
G37*
G36*
X0089988Y0038076D02*
X0094645Y0038897D01*
X0095398Y0034628D01*
X0090741Y0033807D01*
X0089988Y0038076D01*
G37*
G36*
X0090741Y0028248D02*
X0095398Y0027427D01*
X0094645Y0023158D01*
X0089988Y0023979D01*
X0090741Y0028248D01*
G37*
G36*
X0097332Y0027086D02*
X0101989Y0026265D01*
X0101236Y0021996D01*
X0096579Y0022817D01*
X0097332Y0027086D01*
G37*
X0044217Y0025122D03*
X0037524Y0025122D03*
X0037524Y0036933D03*
X0044217Y0036933D03*
X0044217Y0048744D03*
X0037524Y0048744D03*
X0037524Y0060555D03*
X0044217Y0060555D03*
X0044217Y0072366D03*
X0037524Y0072366D03*
X0020594Y0092051D03*
X0013902Y0092051D03*
X0013902Y0099925D03*
X0020594Y0099925D03*
D14*
X0029059Y0158980D03*
X0040870Y0158980D03*
D15*
X0025122Y0122957D03*
X0025122Y0116264D03*
X0017248Y0116264D03*
X0017248Y0122957D03*
D16*
X0084177Y0134374D03*
X0084177Y0159965D03*
X0187917Y0029059D03*
X0213508Y0029059D03*
D17*
X0060439Y0050098D03*
X0052958Y0050098D03*
X0056698Y0058760D03*
D18*
X0063705Y0086362D03*
X0063705Y0091362D03*
X0063705Y0096362D03*
X0063705Y0101362D03*
X0063705Y0106362D03*
X0063705Y0111362D03*
X0063705Y0116362D03*
X0063705Y0121362D03*
X0041657Y0121362D03*
X0041657Y0116362D03*
X0041657Y0111362D03*
X0041657Y0106362D03*
X0041657Y0101362D03*
X0041657Y0096362D03*
X0041657Y0091362D03*
X0041657Y0086362D03*
D19*
X0137543Y0036146D03*
X0142543Y0036146D03*
X0147543Y0036146D03*
X0152543Y0036146D03*
X0157543Y0036146D03*
X0162543Y0036146D03*
X0167543Y0036146D03*
X0172543Y0036146D03*
X0172543Y0014098D03*
X0167543Y0014098D03*
X0162543Y0014098D03*
X0157543Y0014098D03*
X0152543Y0014098D03*
X0147543Y0014098D03*
X0142543Y0014098D03*
X0137543Y0014098D03*
M02*
