G75*
%MOIN*%
%OFA0B0*%
%FSLAX25Y25*%
%IPPOS*%
%LPD*%
%AMOC8*
5,1,8,0,0,1.08239X$1,22.5*
%
%ADD10C,0.01000*%
%ADD11C,0.00000*%
%ADD12C,0.01181*%
%ADD13OC8,0.10050*%
%ADD14R,0.04331X0.03937*%
%ADD15R,0.07874X0.07874*%
%ADD16C,0.10000*%
%ADD17R,0.11811X0.04724*%
%ADD18R,0.04724X0.11811*%
%ADD19OC8,0.03562*%
%ADD20C,0.00984*%
D10*
X0009374Y0001500D02*
X0214098Y0001500D01*
X0214288Y0001502D01*
X0214478Y0001509D01*
X0214668Y0001521D01*
X0214858Y0001537D01*
X0215047Y0001557D01*
X0215236Y0001583D01*
X0215424Y0001612D01*
X0215611Y0001647D01*
X0215797Y0001686D01*
X0215982Y0001729D01*
X0216167Y0001777D01*
X0216350Y0001829D01*
X0216531Y0001885D01*
X0216711Y0001946D01*
X0216890Y0002012D01*
X0217067Y0002081D01*
X0217243Y0002155D01*
X0217416Y0002233D01*
X0217588Y0002316D01*
X0217757Y0002402D01*
X0217925Y0002492D01*
X0218090Y0002587D01*
X0218253Y0002685D01*
X0218413Y0002788D01*
X0218571Y0002894D01*
X0218726Y0003004D01*
X0218879Y0003117D01*
X0219029Y0003235D01*
X0219175Y0003356D01*
X0219319Y0003480D01*
X0219460Y0003608D01*
X0219598Y0003739D01*
X0219733Y0003874D01*
X0219864Y0004012D01*
X0219992Y0004153D01*
X0220116Y0004297D01*
X0220237Y0004443D01*
X0220355Y0004593D01*
X0220468Y0004746D01*
X0220578Y0004901D01*
X0220684Y0005059D01*
X0220787Y0005219D01*
X0220885Y0005382D01*
X0220980Y0005547D01*
X0221070Y0005715D01*
X0221156Y0005884D01*
X0221239Y0006056D01*
X0221317Y0006229D01*
X0221391Y0006405D01*
X0221460Y0006582D01*
X0221526Y0006761D01*
X0221587Y0006941D01*
X0221643Y0007122D01*
X0221695Y0007305D01*
X0221743Y0007490D01*
X0221786Y0007675D01*
X0221825Y0007861D01*
X0221860Y0008048D01*
X0221889Y0008236D01*
X0221915Y0008425D01*
X0221935Y0008614D01*
X0221951Y0008804D01*
X0221963Y0008994D01*
X0221970Y0009184D01*
X0221972Y0009374D01*
X0221972Y0162917D01*
X0221970Y0163107D01*
X0221963Y0163297D01*
X0221951Y0163487D01*
X0221935Y0163677D01*
X0221915Y0163866D01*
X0221889Y0164055D01*
X0221860Y0164243D01*
X0221825Y0164430D01*
X0221786Y0164616D01*
X0221743Y0164801D01*
X0221695Y0164986D01*
X0221643Y0165169D01*
X0221587Y0165350D01*
X0221526Y0165530D01*
X0221460Y0165709D01*
X0221391Y0165886D01*
X0221317Y0166062D01*
X0221239Y0166235D01*
X0221156Y0166407D01*
X0221070Y0166576D01*
X0220980Y0166744D01*
X0220885Y0166909D01*
X0220787Y0167072D01*
X0220684Y0167232D01*
X0220578Y0167390D01*
X0220468Y0167545D01*
X0220355Y0167698D01*
X0220237Y0167848D01*
X0220116Y0167994D01*
X0219992Y0168138D01*
X0219864Y0168279D01*
X0219733Y0168417D01*
X0219598Y0168552D01*
X0219460Y0168683D01*
X0219319Y0168811D01*
X0219175Y0168935D01*
X0219029Y0169056D01*
X0218879Y0169174D01*
X0218726Y0169287D01*
X0218571Y0169397D01*
X0218413Y0169503D01*
X0218253Y0169606D01*
X0218090Y0169704D01*
X0217925Y0169799D01*
X0217757Y0169889D01*
X0217588Y0169975D01*
X0217416Y0170058D01*
X0217243Y0170136D01*
X0217067Y0170210D01*
X0216890Y0170279D01*
X0216711Y0170345D01*
X0216531Y0170406D01*
X0216350Y0170462D01*
X0216167Y0170514D01*
X0215982Y0170562D01*
X0215797Y0170605D01*
X0215611Y0170644D01*
X0215424Y0170679D01*
X0215236Y0170708D01*
X0215047Y0170734D01*
X0214858Y0170754D01*
X0214668Y0170770D01*
X0214478Y0170782D01*
X0214288Y0170789D01*
X0214098Y0170791D01*
X0009374Y0170791D01*
X0009184Y0170789D01*
X0008994Y0170782D01*
X0008804Y0170770D01*
X0008614Y0170754D01*
X0008425Y0170734D01*
X0008236Y0170708D01*
X0008048Y0170679D01*
X0007861Y0170644D01*
X0007675Y0170605D01*
X0007490Y0170562D01*
X0007305Y0170514D01*
X0007122Y0170462D01*
X0006941Y0170406D01*
X0006761Y0170345D01*
X0006582Y0170279D01*
X0006405Y0170210D01*
X0006229Y0170136D01*
X0006056Y0170058D01*
X0005884Y0169975D01*
X0005715Y0169889D01*
X0005547Y0169799D01*
X0005382Y0169704D01*
X0005219Y0169606D01*
X0005059Y0169503D01*
X0004901Y0169397D01*
X0004746Y0169287D01*
X0004593Y0169174D01*
X0004443Y0169056D01*
X0004297Y0168935D01*
X0004153Y0168811D01*
X0004012Y0168683D01*
X0003874Y0168552D01*
X0003739Y0168417D01*
X0003608Y0168279D01*
X0003480Y0168138D01*
X0003356Y0167994D01*
X0003235Y0167848D01*
X0003117Y0167698D01*
X0003004Y0167545D01*
X0002894Y0167390D01*
X0002788Y0167232D01*
X0002685Y0167072D01*
X0002587Y0166909D01*
X0002492Y0166744D01*
X0002402Y0166576D01*
X0002316Y0166407D01*
X0002233Y0166235D01*
X0002155Y0166062D01*
X0002081Y0165886D01*
X0002012Y0165709D01*
X0001946Y0165530D01*
X0001885Y0165350D01*
X0001829Y0165169D01*
X0001777Y0164986D01*
X0001729Y0164801D01*
X0001686Y0164616D01*
X0001647Y0164430D01*
X0001612Y0164243D01*
X0001583Y0164055D01*
X0001557Y0163866D01*
X0001537Y0163677D01*
X0001521Y0163487D01*
X0001509Y0163297D01*
X0001502Y0163107D01*
X0001500Y0162917D01*
X0001500Y0009374D01*
X0001502Y0009184D01*
X0001509Y0008994D01*
X0001521Y0008804D01*
X0001537Y0008614D01*
X0001557Y0008425D01*
X0001583Y0008236D01*
X0001612Y0008048D01*
X0001647Y0007861D01*
X0001686Y0007675D01*
X0001729Y0007490D01*
X0001777Y0007305D01*
X0001829Y0007122D01*
X0001885Y0006941D01*
X0001946Y0006761D01*
X0002012Y0006582D01*
X0002081Y0006405D01*
X0002155Y0006229D01*
X0002233Y0006056D01*
X0002316Y0005884D01*
X0002402Y0005715D01*
X0002492Y0005547D01*
X0002587Y0005382D01*
X0002685Y0005219D01*
X0002788Y0005059D01*
X0002894Y0004901D01*
X0003004Y0004746D01*
X0003117Y0004593D01*
X0003235Y0004443D01*
X0003356Y0004297D01*
X0003480Y0004153D01*
X0003608Y0004012D01*
X0003739Y0003874D01*
X0003874Y0003739D01*
X0004012Y0003608D01*
X0004153Y0003480D01*
X0004297Y0003356D01*
X0004443Y0003235D01*
X0004593Y0003117D01*
X0004746Y0003004D01*
X0004901Y0002894D01*
X0005059Y0002788D01*
X0005219Y0002685D01*
X0005382Y0002587D01*
X0005547Y0002492D01*
X0005715Y0002402D01*
X0005884Y0002316D01*
X0006056Y0002233D01*
X0006229Y0002155D01*
X0006405Y0002081D01*
X0006582Y0002012D01*
X0006761Y0001946D01*
X0006941Y0001885D01*
X0007122Y0001829D01*
X0007305Y0001777D01*
X0007490Y0001729D01*
X0007675Y0001686D01*
X0007861Y0001647D01*
X0008048Y0001612D01*
X0008236Y0001583D01*
X0008425Y0001557D01*
X0008614Y0001537D01*
X0008804Y0001521D01*
X0008994Y0001509D01*
X0009184Y0001502D01*
X0009374Y0001500D01*
X0046776Y0055043D02*
X0047329Y0055196D01*
X0047886Y0055335D01*
X0048446Y0055461D01*
X0049009Y0055573D01*
X0049575Y0055672D01*
X0050143Y0055756D01*
X0050713Y0055826D01*
X0051284Y0055883D01*
X0051857Y0055925D01*
X0052430Y0055954D01*
X0053004Y0055968D01*
X0053579Y0055968D01*
X0054153Y0055955D01*
X0054726Y0055927D01*
X0055299Y0055885D01*
X0055870Y0055829D01*
X0056440Y0055759D01*
X0057008Y0055675D01*
X0057574Y0055577D01*
X0058137Y0055466D01*
X0058698Y0055341D01*
X0059255Y0055202D01*
X0059808Y0055049D01*
X0060358Y0054883D01*
X0060903Y0054703D01*
X0061444Y0054510D01*
X0061980Y0054304D01*
X0062511Y0054085D01*
X0063036Y0053853D01*
X0063555Y0053608D01*
X0064069Y0053351D01*
X0064575Y0053081D01*
X0065075Y0052798D01*
X0065568Y0052504D01*
X0066054Y0052197D01*
X0066532Y0051879D01*
X0067002Y0051549D01*
X0060315Y0064353D02*
X0060391Y0064475D01*
X0060464Y0064598D01*
X0060533Y0064724D01*
X0060599Y0064852D01*
X0060662Y0064981D01*
X0060720Y0065112D01*
X0060776Y0065245D01*
X0060827Y0065379D01*
X0060875Y0065514D01*
X0060919Y0065651D01*
X0060959Y0065789D01*
X0060995Y0065928D01*
X0061028Y0066068D01*
X0061056Y0066208D01*
X0061081Y0066350D01*
X0061102Y0066492D01*
X0061118Y0066635D01*
X0061131Y0066778D01*
X0061140Y0066921D01*
X0061145Y0067064D01*
X0061146Y0067208D01*
X0061143Y0067352D01*
X0061136Y0067495D01*
X0061125Y0067638D01*
X0061110Y0067781D01*
X0061091Y0067923D01*
X0061068Y0068065D01*
X0061041Y0068206D01*
X0061011Y0068346D01*
X0060976Y0068486D01*
X0060938Y0068624D01*
X0060896Y0068761D01*
X0060850Y0068898D01*
X0060800Y0069032D01*
X0060747Y0069166D01*
X0060690Y0069297D01*
X0060629Y0069428D01*
X0060565Y0069556D01*
X0060497Y0069683D01*
X0060426Y0069807D01*
X0060351Y0069930D01*
X0060273Y0070050D01*
X0060192Y0070169D01*
X0060107Y0070285D01*
X0060019Y0070398D01*
X0059929Y0070510D01*
X0059835Y0070618D01*
X0059738Y0070724D01*
X0059638Y0070827D01*
X0059535Y0070928D01*
X0059430Y0071025D01*
X0059322Y0071120D01*
X0059211Y0071212D01*
X0059098Y0071300D01*
X0058983Y0071385D01*
X0058865Y0071468D01*
X0058745Y0071546D01*
X0058623Y0071622D01*
X0058499Y0071694D01*
X0058372Y0071763D01*
X0058244Y0071828D01*
X0058115Y0071889D01*
X0057983Y0071947D01*
X0057850Y0072001D01*
X0057716Y0072052D01*
X0057580Y0072099D01*
X0057443Y0072142D01*
X0057305Y0072181D01*
X0057166Y0072216D01*
X0057026Y0072248D01*
X0056885Y0072275D01*
X0056743Y0072299D01*
X0056601Y0072319D01*
X0056458Y0072335D01*
X0056315Y0072347D01*
X0056172Y0072355D01*
X0056028Y0072359D01*
X0055885Y0072358D01*
X0055741Y0072355D01*
X0055598Y0072347D01*
X0055455Y0072335D01*
X0055312Y0072319D01*
X0055170Y0072299D01*
X0055028Y0072275D01*
X0054887Y0072248D01*
X0054747Y0072216D01*
X0054608Y0072181D01*
X0054470Y0072141D01*
X0054333Y0072098D01*
X0054197Y0072051D01*
X0054063Y0072001D01*
X0053930Y0071947D01*
X0053798Y0071889D01*
X0053669Y0071827D01*
X0053541Y0071762D01*
X0053414Y0071693D01*
X0053290Y0071621D01*
X0053168Y0071546D01*
X0053048Y0071467D01*
X0052930Y0071385D01*
X0052815Y0071299D01*
X0052702Y0071211D01*
X0052591Y0071119D01*
X0052483Y0071025D01*
X0052378Y0070927D01*
X0052275Y0070827D01*
X0052176Y0070723D01*
X0052079Y0070617D01*
X0051985Y0070509D01*
X0051894Y0070398D01*
X0052118Y0070781D01*
X0052333Y0071170D01*
X0052538Y0071564D01*
X0052733Y0071963D01*
X0052919Y0072367D01*
X0053094Y0072775D01*
X0053260Y0073187D01*
X0053415Y0073603D01*
X0053560Y0074023D01*
X0053695Y0074446D01*
X0053819Y0074872D01*
X0053933Y0075302D01*
X0054036Y0075734D01*
X0054129Y0076168D01*
X0054211Y0076605D01*
X0054282Y0077043D01*
X0054343Y0077483D01*
X0054393Y0077925D01*
X0054432Y0078367D01*
X0054460Y0078810D01*
X0054477Y0079254D01*
X0054483Y0079698D01*
X0054478Y0080142D01*
X0054463Y0080586D01*
X0054436Y0081030D01*
X0054399Y0081472D01*
X0054351Y0081914D01*
X0054292Y0082354D01*
X0054223Y0082793D01*
X0054142Y0083230D01*
X0054051Y0083665D01*
X0053949Y0084097D01*
X0053837Y0084527D01*
X0053714Y0084954D01*
X0053713Y0084954D02*
X0053511Y0085600D01*
X0053294Y0086242D01*
X0053063Y0086878D01*
X0052818Y0087510D01*
X0052558Y0088135D01*
X0052285Y0088755D01*
X0051997Y0089369D01*
X0051697Y0089975D01*
X0051382Y0090575D01*
X0051054Y0091168D01*
X0050713Y0091754D01*
X0050715Y0091754D02*
X0049920Y0093120D01*
X0049158Y0094506D01*
X0048429Y0095909D01*
X0047734Y0097328D01*
X0047073Y0098765D01*
X0046446Y0100216D01*
X0045855Y0101682D01*
X0045298Y0103162D01*
X0044777Y0104654D01*
X0044291Y0106159D01*
X0043842Y0107674D01*
X0043429Y0109200D01*
X0043052Y0110736D01*
X0042712Y0112280D01*
X0042409Y0113831D01*
X0042143Y0115390D01*
X0041915Y0116954D01*
X0041914Y0116953D02*
X0041595Y0119549D01*
X0041334Y0122152D01*
X0041131Y0124760D01*
X0040986Y0127372D01*
X0040899Y0129986D01*
X0040870Y0132602D01*
D11*
X0007209Y0158980D02*
X0007211Y0159136D01*
X0007217Y0159292D01*
X0007227Y0159447D01*
X0007241Y0159602D01*
X0007259Y0159757D01*
X0007281Y0159911D01*
X0007306Y0160065D01*
X0007336Y0160218D01*
X0007370Y0160370D01*
X0007407Y0160522D01*
X0007448Y0160672D01*
X0007493Y0160821D01*
X0007542Y0160969D01*
X0007595Y0161116D01*
X0007651Y0161261D01*
X0007711Y0161405D01*
X0007775Y0161547D01*
X0007843Y0161688D01*
X0007914Y0161826D01*
X0007988Y0161963D01*
X0008066Y0162098D01*
X0008147Y0162231D01*
X0008232Y0162362D01*
X0008320Y0162491D01*
X0008411Y0162617D01*
X0008506Y0162741D01*
X0008603Y0162862D01*
X0008704Y0162981D01*
X0008808Y0163098D01*
X0008914Y0163211D01*
X0009024Y0163322D01*
X0009136Y0163430D01*
X0009251Y0163535D01*
X0009369Y0163638D01*
X0009489Y0163737D01*
X0009612Y0163833D01*
X0009737Y0163926D01*
X0009864Y0164015D01*
X0009994Y0164102D01*
X0010126Y0164185D01*
X0010260Y0164264D01*
X0010396Y0164341D01*
X0010534Y0164413D01*
X0010673Y0164483D01*
X0010815Y0164548D01*
X0010958Y0164610D01*
X0011102Y0164668D01*
X0011248Y0164723D01*
X0011396Y0164774D01*
X0011544Y0164821D01*
X0011694Y0164864D01*
X0011845Y0164903D01*
X0011997Y0164939D01*
X0012149Y0164970D01*
X0012303Y0164998D01*
X0012457Y0165022D01*
X0012611Y0165042D01*
X0012766Y0165058D01*
X0012922Y0165070D01*
X0013077Y0165078D01*
X0013233Y0165082D01*
X0013389Y0165082D01*
X0013545Y0165078D01*
X0013700Y0165070D01*
X0013856Y0165058D01*
X0014011Y0165042D01*
X0014165Y0165022D01*
X0014319Y0164998D01*
X0014473Y0164970D01*
X0014625Y0164939D01*
X0014777Y0164903D01*
X0014928Y0164864D01*
X0015078Y0164821D01*
X0015226Y0164774D01*
X0015374Y0164723D01*
X0015520Y0164668D01*
X0015664Y0164610D01*
X0015807Y0164548D01*
X0015949Y0164483D01*
X0016088Y0164413D01*
X0016226Y0164341D01*
X0016362Y0164264D01*
X0016496Y0164185D01*
X0016628Y0164102D01*
X0016758Y0164015D01*
X0016885Y0163926D01*
X0017010Y0163833D01*
X0017133Y0163737D01*
X0017253Y0163638D01*
X0017371Y0163535D01*
X0017486Y0163430D01*
X0017598Y0163322D01*
X0017708Y0163211D01*
X0017814Y0163098D01*
X0017918Y0162981D01*
X0018019Y0162862D01*
X0018116Y0162741D01*
X0018211Y0162617D01*
X0018302Y0162491D01*
X0018390Y0162362D01*
X0018475Y0162231D01*
X0018556Y0162098D01*
X0018634Y0161963D01*
X0018708Y0161826D01*
X0018779Y0161688D01*
X0018847Y0161547D01*
X0018911Y0161405D01*
X0018971Y0161261D01*
X0019027Y0161116D01*
X0019080Y0160969D01*
X0019129Y0160821D01*
X0019174Y0160672D01*
X0019215Y0160522D01*
X0019252Y0160370D01*
X0019286Y0160218D01*
X0019316Y0160065D01*
X0019341Y0159911D01*
X0019363Y0159757D01*
X0019381Y0159602D01*
X0019395Y0159447D01*
X0019405Y0159292D01*
X0019411Y0159136D01*
X0019413Y0158980D01*
X0019411Y0158824D01*
X0019405Y0158668D01*
X0019395Y0158513D01*
X0019381Y0158358D01*
X0019363Y0158203D01*
X0019341Y0158049D01*
X0019316Y0157895D01*
X0019286Y0157742D01*
X0019252Y0157590D01*
X0019215Y0157438D01*
X0019174Y0157288D01*
X0019129Y0157139D01*
X0019080Y0156991D01*
X0019027Y0156844D01*
X0018971Y0156699D01*
X0018911Y0156555D01*
X0018847Y0156413D01*
X0018779Y0156272D01*
X0018708Y0156134D01*
X0018634Y0155997D01*
X0018556Y0155862D01*
X0018475Y0155729D01*
X0018390Y0155598D01*
X0018302Y0155469D01*
X0018211Y0155343D01*
X0018116Y0155219D01*
X0018019Y0155098D01*
X0017918Y0154979D01*
X0017814Y0154862D01*
X0017708Y0154749D01*
X0017598Y0154638D01*
X0017486Y0154530D01*
X0017371Y0154425D01*
X0017253Y0154322D01*
X0017133Y0154223D01*
X0017010Y0154127D01*
X0016885Y0154034D01*
X0016758Y0153945D01*
X0016628Y0153858D01*
X0016496Y0153775D01*
X0016362Y0153696D01*
X0016226Y0153619D01*
X0016088Y0153547D01*
X0015949Y0153477D01*
X0015807Y0153412D01*
X0015664Y0153350D01*
X0015520Y0153292D01*
X0015374Y0153237D01*
X0015226Y0153186D01*
X0015078Y0153139D01*
X0014928Y0153096D01*
X0014777Y0153057D01*
X0014625Y0153021D01*
X0014473Y0152990D01*
X0014319Y0152962D01*
X0014165Y0152938D01*
X0014011Y0152918D01*
X0013856Y0152902D01*
X0013700Y0152890D01*
X0013545Y0152882D01*
X0013389Y0152878D01*
X0013233Y0152878D01*
X0013077Y0152882D01*
X0012922Y0152890D01*
X0012766Y0152902D01*
X0012611Y0152918D01*
X0012457Y0152938D01*
X0012303Y0152962D01*
X0012149Y0152990D01*
X0011997Y0153021D01*
X0011845Y0153057D01*
X0011694Y0153096D01*
X0011544Y0153139D01*
X0011396Y0153186D01*
X0011248Y0153237D01*
X0011102Y0153292D01*
X0010958Y0153350D01*
X0010815Y0153412D01*
X0010673Y0153477D01*
X0010534Y0153547D01*
X0010396Y0153619D01*
X0010260Y0153696D01*
X0010126Y0153775D01*
X0009994Y0153858D01*
X0009864Y0153945D01*
X0009737Y0154034D01*
X0009612Y0154127D01*
X0009489Y0154223D01*
X0009369Y0154322D01*
X0009251Y0154425D01*
X0009136Y0154530D01*
X0009024Y0154638D01*
X0008914Y0154749D01*
X0008808Y0154862D01*
X0008704Y0154979D01*
X0008603Y0155098D01*
X0008506Y0155219D01*
X0008411Y0155343D01*
X0008320Y0155469D01*
X0008232Y0155598D01*
X0008147Y0155729D01*
X0008066Y0155862D01*
X0007988Y0155997D01*
X0007914Y0156134D01*
X0007843Y0156272D01*
X0007775Y0156413D01*
X0007711Y0156555D01*
X0007651Y0156699D01*
X0007595Y0156844D01*
X0007542Y0156991D01*
X0007493Y0157139D01*
X0007448Y0157288D01*
X0007407Y0157438D01*
X0007370Y0157590D01*
X0007336Y0157742D01*
X0007306Y0157895D01*
X0007281Y0158049D01*
X0007259Y0158203D01*
X0007241Y0158358D01*
X0007227Y0158513D01*
X0007217Y0158668D01*
X0007211Y0158824D01*
X0007209Y0158980D01*
X0204059Y0013311D02*
X0204061Y0013467D01*
X0204067Y0013623D01*
X0204077Y0013778D01*
X0204091Y0013933D01*
X0204109Y0014088D01*
X0204131Y0014242D01*
X0204156Y0014396D01*
X0204186Y0014549D01*
X0204220Y0014701D01*
X0204257Y0014853D01*
X0204298Y0015003D01*
X0204343Y0015152D01*
X0204392Y0015300D01*
X0204445Y0015447D01*
X0204501Y0015592D01*
X0204561Y0015736D01*
X0204625Y0015878D01*
X0204693Y0016019D01*
X0204764Y0016157D01*
X0204838Y0016294D01*
X0204916Y0016429D01*
X0204997Y0016562D01*
X0205082Y0016693D01*
X0205170Y0016822D01*
X0205261Y0016948D01*
X0205356Y0017072D01*
X0205453Y0017193D01*
X0205554Y0017312D01*
X0205658Y0017429D01*
X0205764Y0017542D01*
X0205874Y0017653D01*
X0205986Y0017761D01*
X0206101Y0017866D01*
X0206219Y0017969D01*
X0206339Y0018068D01*
X0206462Y0018164D01*
X0206587Y0018257D01*
X0206714Y0018346D01*
X0206844Y0018433D01*
X0206976Y0018516D01*
X0207110Y0018595D01*
X0207246Y0018672D01*
X0207384Y0018744D01*
X0207523Y0018814D01*
X0207665Y0018879D01*
X0207808Y0018941D01*
X0207952Y0018999D01*
X0208098Y0019054D01*
X0208246Y0019105D01*
X0208394Y0019152D01*
X0208544Y0019195D01*
X0208695Y0019234D01*
X0208847Y0019270D01*
X0208999Y0019301D01*
X0209153Y0019329D01*
X0209307Y0019353D01*
X0209461Y0019373D01*
X0209616Y0019389D01*
X0209772Y0019401D01*
X0209927Y0019409D01*
X0210083Y0019413D01*
X0210239Y0019413D01*
X0210395Y0019409D01*
X0210550Y0019401D01*
X0210706Y0019389D01*
X0210861Y0019373D01*
X0211015Y0019353D01*
X0211169Y0019329D01*
X0211323Y0019301D01*
X0211475Y0019270D01*
X0211627Y0019234D01*
X0211778Y0019195D01*
X0211928Y0019152D01*
X0212076Y0019105D01*
X0212224Y0019054D01*
X0212370Y0018999D01*
X0212514Y0018941D01*
X0212657Y0018879D01*
X0212799Y0018814D01*
X0212938Y0018744D01*
X0213076Y0018672D01*
X0213212Y0018595D01*
X0213346Y0018516D01*
X0213478Y0018433D01*
X0213608Y0018346D01*
X0213735Y0018257D01*
X0213860Y0018164D01*
X0213983Y0018068D01*
X0214103Y0017969D01*
X0214221Y0017866D01*
X0214336Y0017761D01*
X0214448Y0017653D01*
X0214558Y0017542D01*
X0214664Y0017429D01*
X0214768Y0017312D01*
X0214869Y0017193D01*
X0214966Y0017072D01*
X0215061Y0016948D01*
X0215152Y0016822D01*
X0215240Y0016693D01*
X0215325Y0016562D01*
X0215406Y0016429D01*
X0215484Y0016294D01*
X0215558Y0016157D01*
X0215629Y0016019D01*
X0215697Y0015878D01*
X0215761Y0015736D01*
X0215821Y0015592D01*
X0215877Y0015447D01*
X0215930Y0015300D01*
X0215979Y0015152D01*
X0216024Y0015003D01*
X0216065Y0014853D01*
X0216102Y0014701D01*
X0216136Y0014549D01*
X0216166Y0014396D01*
X0216191Y0014242D01*
X0216213Y0014088D01*
X0216231Y0013933D01*
X0216245Y0013778D01*
X0216255Y0013623D01*
X0216261Y0013467D01*
X0216263Y0013311D01*
X0216261Y0013155D01*
X0216255Y0012999D01*
X0216245Y0012844D01*
X0216231Y0012689D01*
X0216213Y0012534D01*
X0216191Y0012380D01*
X0216166Y0012226D01*
X0216136Y0012073D01*
X0216102Y0011921D01*
X0216065Y0011769D01*
X0216024Y0011619D01*
X0215979Y0011470D01*
X0215930Y0011322D01*
X0215877Y0011175D01*
X0215821Y0011030D01*
X0215761Y0010886D01*
X0215697Y0010744D01*
X0215629Y0010603D01*
X0215558Y0010465D01*
X0215484Y0010328D01*
X0215406Y0010193D01*
X0215325Y0010060D01*
X0215240Y0009929D01*
X0215152Y0009800D01*
X0215061Y0009674D01*
X0214966Y0009550D01*
X0214869Y0009429D01*
X0214768Y0009310D01*
X0214664Y0009193D01*
X0214558Y0009080D01*
X0214448Y0008969D01*
X0214336Y0008861D01*
X0214221Y0008756D01*
X0214103Y0008653D01*
X0213983Y0008554D01*
X0213860Y0008458D01*
X0213735Y0008365D01*
X0213608Y0008276D01*
X0213478Y0008189D01*
X0213346Y0008106D01*
X0213212Y0008027D01*
X0213076Y0007950D01*
X0212938Y0007878D01*
X0212799Y0007808D01*
X0212657Y0007743D01*
X0212514Y0007681D01*
X0212370Y0007623D01*
X0212224Y0007568D01*
X0212076Y0007517D01*
X0211928Y0007470D01*
X0211778Y0007427D01*
X0211627Y0007388D01*
X0211475Y0007352D01*
X0211323Y0007321D01*
X0211169Y0007293D01*
X0211015Y0007269D01*
X0210861Y0007249D01*
X0210706Y0007233D01*
X0210550Y0007221D01*
X0210395Y0007213D01*
X0210239Y0007209D01*
X0210083Y0007209D01*
X0209927Y0007213D01*
X0209772Y0007221D01*
X0209616Y0007233D01*
X0209461Y0007249D01*
X0209307Y0007269D01*
X0209153Y0007293D01*
X0208999Y0007321D01*
X0208847Y0007352D01*
X0208695Y0007388D01*
X0208544Y0007427D01*
X0208394Y0007470D01*
X0208246Y0007517D01*
X0208098Y0007568D01*
X0207952Y0007623D01*
X0207808Y0007681D01*
X0207665Y0007743D01*
X0207523Y0007808D01*
X0207384Y0007878D01*
X0207246Y0007950D01*
X0207110Y0008027D01*
X0206976Y0008106D01*
X0206844Y0008189D01*
X0206714Y0008276D01*
X0206587Y0008365D01*
X0206462Y0008458D01*
X0206339Y0008554D01*
X0206219Y0008653D01*
X0206101Y0008756D01*
X0205986Y0008861D01*
X0205874Y0008969D01*
X0205764Y0009080D01*
X0205658Y0009193D01*
X0205554Y0009310D01*
X0205453Y0009429D01*
X0205356Y0009550D01*
X0205261Y0009674D01*
X0205170Y0009800D01*
X0205082Y0009929D01*
X0204997Y0010060D01*
X0204916Y0010193D01*
X0204838Y0010328D01*
X0204764Y0010465D01*
X0204693Y0010603D01*
X0204625Y0010744D01*
X0204561Y0010886D01*
X0204501Y0011030D01*
X0204445Y0011175D01*
X0204392Y0011322D01*
X0204343Y0011470D01*
X0204298Y0011619D01*
X0204257Y0011769D01*
X0204220Y0011921D01*
X0204186Y0012073D01*
X0204156Y0012226D01*
X0204131Y0012380D01*
X0204109Y0012534D01*
X0204091Y0012689D01*
X0204077Y0012844D01*
X0204067Y0012999D01*
X0204061Y0013155D01*
X0204059Y0013311D01*
D12*
X0205331Y0047366D02*
X0205331Y0050122D01*
X0208087Y0050122D01*
X0208087Y0047366D01*
X0205331Y0047366D01*
X0205331Y0048546D02*
X0208087Y0048546D01*
X0208087Y0049726D02*
X0205331Y0049726D01*
X0196488Y0050122D02*
X0196488Y0047366D01*
X0196488Y0050122D02*
X0199244Y0050122D01*
X0199244Y0047366D01*
X0196488Y0047366D01*
X0196488Y0048546D02*
X0199244Y0048546D01*
X0199244Y0049726D02*
X0196488Y0049726D01*
X0189583Y0050122D02*
X0189583Y0047366D01*
X0189583Y0050122D02*
X0192339Y0050122D01*
X0192339Y0047366D01*
X0189583Y0047366D01*
X0189583Y0048546D02*
X0192339Y0048546D01*
X0192339Y0049726D02*
X0189583Y0049726D01*
X0180740Y0050122D02*
X0180740Y0047366D01*
X0180740Y0050122D02*
X0183496Y0050122D01*
X0183496Y0047366D01*
X0180740Y0047366D01*
X0180740Y0048546D02*
X0183496Y0048546D01*
X0183496Y0049726D02*
X0180740Y0049726D01*
X0173835Y0050122D02*
X0173835Y0047366D01*
X0173835Y0050122D02*
X0176591Y0050122D01*
X0176591Y0047366D01*
X0173835Y0047366D01*
X0173835Y0048546D02*
X0176591Y0048546D01*
X0176591Y0049726D02*
X0173835Y0049726D01*
X0164992Y0050122D02*
X0164992Y0047366D01*
X0164992Y0050122D02*
X0167748Y0050122D01*
X0167748Y0047366D01*
X0164992Y0047366D01*
X0164992Y0048546D02*
X0167748Y0048546D01*
X0167748Y0049726D02*
X0164992Y0049726D01*
X0158087Y0050122D02*
X0158087Y0047366D01*
X0158087Y0050122D02*
X0160843Y0050122D01*
X0160843Y0047366D01*
X0158087Y0047366D01*
X0158087Y0048546D02*
X0160843Y0048546D01*
X0160843Y0049726D02*
X0158087Y0049726D01*
X0149244Y0050122D02*
X0149244Y0047366D01*
X0149244Y0050122D02*
X0152000Y0050122D01*
X0152000Y0047366D01*
X0149244Y0047366D01*
X0149244Y0048546D02*
X0152000Y0048546D01*
X0152000Y0049726D02*
X0149244Y0049726D01*
X0142339Y0050122D02*
X0142339Y0047366D01*
X0142339Y0050122D02*
X0145095Y0050122D01*
X0145095Y0047366D01*
X0142339Y0047366D01*
X0142339Y0048546D02*
X0145095Y0048546D01*
X0145095Y0049726D02*
X0142339Y0049726D01*
X0133496Y0050122D02*
X0133496Y0047366D01*
X0133496Y0050122D02*
X0136252Y0050122D01*
X0136252Y0047366D01*
X0133496Y0047366D01*
X0133496Y0048546D02*
X0136252Y0048546D01*
X0136252Y0049726D02*
X0133496Y0049726D01*
X0126591Y0050122D02*
X0126591Y0047366D01*
X0126591Y0050122D02*
X0129347Y0050122D01*
X0129347Y0047366D01*
X0126591Y0047366D01*
X0126591Y0048546D02*
X0129347Y0048546D01*
X0129347Y0049726D02*
X0126591Y0049726D01*
X0117748Y0050122D02*
X0117748Y0047366D01*
X0117748Y0050122D02*
X0120504Y0050122D01*
X0120504Y0047366D01*
X0117748Y0047366D01*
X0117748Y0048546D02*
X0120504Y0048546D01*
X0120504Y0049726D02*
X0117748Y0049726D01*
X0110842Y0050122D02*
X0110842Y0047366D01*
X0110842Y0050122D02*
X0113598Y0050122D01*
X0113598Y0047366D01*
X0110842Y0047366D01*
X0110842Y0048546D02*
X0113598Y0048546D01*
X0113598Y0049726D02*
X0110842Y0049726D01*
X0102000Y0050122D02*
X0102000Y0047366D01*
X0102000Y0050122D02*
X0104756Y0050122D01*
X0104756Y0047366D01*
X0102000Y0047366D01*
X0102000Y0048546D02*
X0104756Y0048546D01*
X0104756Y0049726D02*
X0102000Y0049726D01*
X0095094Y0050122D02*
X0095094Y0047366D01*
X0095094Y0050122D02*
X0097850Y0050122D01*
X0097850Y0047366D01*
X0095094Y0047366D01*
X0095094Y0048546D02*
X0097850Y0048546D01*
X0097850Y0049726D02*
X0095094Y0049726D01*
X0095094Y0063114D02*
X0095094Y0065870D01*
X0097850Y0065870D01*
X0097850Y0063114D01*
X0095094Y0063114D01*
X0095094Y0064294D02*
X0097850Y0064294D01*
X0097850Y0065474D02*
X0095094Y0065474D01*
X0102000Y0065870D02*
X0102000Y0063114D01*
X0102000Y0065870D02*
X0104756Y0065870D01*
X0104756Y0063114D01*
X0102000Y0063114D01*
X0102000Y0064294D02*
X0104756Y0064294D01*
X0104756Y0065474D02*
X0102000Y0065474D01*
X0110842Y0065870D02*
X0110842Y0063114D01*
X0110842Y0065870D02*
X0113598Y0065870D01*
X0113598Y0063114D01*
X0110842Y0063114D01*
X0110842Y0064294D02*
X0113598Y0064294D01*
X0113598Y0065474D02*
X0110842Y0065474D01*
X0117748Y0065870D02*
X0117748Y0063114D01*
X0117748Y0065870D02*
X0120504Y0065870D01*
X0120504Y0063114D01*
X0117748Y0063114D01*
X0117748Y0064294D02*
X0120504Y0064294D01*
X0120504Y0065474D02*
X0117748Y0065474D01*
X0126591Y0065870D02*
X0126591Y0063114D01*
X0126591Y0065870D02*
X0129347Y0065870D01*
X0129347Y0063114D01*
X0126591Y0063114D01*
X0126591Y0064294D02*
X0129347Y0064294D01*
X0129347Y0065474D02*
X0126591Y0065474D01*
X0133496Y0065870D02*
X0133496Y0063114D01*
X0133496Y0065870D02*
X0136252Y0065870D01*
X0136252Y0063114D01*
X0133496Y0063114D01*
X0133496Y0064294D02*
X0136252Y0064294D01*
X0136252Y0065474D02*
X0133496Y0065474D01*
X0142339Y0065870D02*
X0142339Y0063114D01*
X0142339Y0065870D02*
X0145095Y0065870D01*
X0145095Y0063114D01*
X0142339Y0063114D01*
X0142339Y0064294D02*
X0145095Y0064294D01*
X0145095Y0065474D02*
X0142339Y0065474D01*
X0149244Y0065870D02*
X0149244Y0063114D01*
X0149244Y0065870D02*
X0152000Y0065870D01*
X0152000Y0063114D01*
X0149244Y0063114D01*
X0149244Y0064294D02*
X0152000Y0064294D01*
X0152000Y0065474D02*
X0149244Y0065474D01*
X0158087Y0065870D02*
X0158087Y0063114D01*
X0158087Y0065870D02*
X0160843Y0065870D01*
X0160843Y0063114D01*
X0158087Y0063114D01*
X0158087Y0064294D02*
X0160843Y0064294D01*
X0160843Y0065474D02*
X0158087Y0065474D01*
X0164992Y0065870D02*
X0164992Y0063114D01*
X0164992Y0065870D02*
X0167748Y0065870D01*
X0167748Y0063114D01*
X0164992Y0063114D01*
X0164992Y0064294D02*
X0167748Y0064294D01*
X0167748Y0065474D02*
X0164992Y0065474D01*
X0173835Y0065870D02*
X0173835Y0063114D01*
X0173835Y0065870D02*
X0176591Y0065870D01*
X0176591Y0063114D01*
X0173835Y0063114D01*
X0173835Y0064294D02*
X0176591Y0064294D01*
X0176591Y0065474D02*
X0173835Y0065474D01*
X0180740Y0065870D02*
X0180740Y0063114D01*
X0180740Y0065870D02*
X0183496Y0065870D01*
X0183496Y0063114D01*
X0180740Y0063114D01*
X0180740Y0064294D02*
X0183496Y0064294D01*
X0183496Y0065474D02*
X0180740Y0065474D01*
X0189583Y0065870D02*
X0189583Y0063114D01*
X0189583Y0065870D02*
X0192339Y0065870D01*
X0192339Y0063114D01*
X0189583Y0063114D01*
X0189583Y0064294D02*
X0192339Y0064294D01*
X0192339Y0065474D02*
X0189583Y0065474D01*
X0196488Y0065870D02*
X0196488Y0063114D01*
X0196488Y0065870D02*
X0199244Y0065870D01*
X0199244Y0063114D01*
X0196488Y0063114D01*
X0196488Y0064294D02*
X0199244Y0064294D01*
X0199244Y0065474D02*
X0196488Y0065474D01*
X0205331Y0065870D02*
X0205331Y0063114D01*
X0205331Y0065870D02*
X0208087Y0065870D01*
X0208087Y0063114D01*
X0205331Y0063114D01*
X0205331Y0064294D02*
X0208087Y0064294D01*
X0208087Y0065474D02*
X0205331Y0065474D01*
X0212236Y0065870D02*
X0212236Y0063114D01*
X0212236Y0065870D02*
X0214992Y0065870D01*
X0214992Y0063114D01*
X0212236Y0063114D01*
X0212236Y0064294D02*
X0214992Y0064294D01*
X0214992Y0065474D02*
X0212236Y0065474D01*
X0212236Y0078862D02*
X0212236Y0081618D01*
X0214992Y0081618D01*
X0214992Y0078862D01*
X0212236Y0078862D01*
X0212236Y0080042D02*
X0214992Y0080042D01*
X0214992Y0081222D02*
X0212236Y0081222D01*
X0205331Y0081618D02*
X0205331Y0078862D01*
X0205331Y0081618D02*
X0208087Y0081618D01*
X0208087Y0078862D01*
X0205331Y0078862D01*
X0205331Y0080042D02*
X0208087Y0080042D01*
X0208087Y0081222D02*
X0205331Y0081222D01*
X0196488Y0081618D02*
X0196488Y0078862D01*
X0196488Y0081618D02*
X0199244Y0081618D01*
X0199244Y0078862D01*
X0196488Y0078862D01*
X0196488Y0080042D02*
X0199244Y0080042D01*
X0199244Y0081222D02*
X0196488Y0081222D01*
X0189583Y0081618D02*
X0189583Y0078862D01*
X0189583Y0081618D02*
X0192339Y0081618D01*
X0192339Y0078862D01*
X0189583Y0078862D01*
X0189583Y0080042D02*
X0192339Y0080042D01*
X0192339Y0081222D02*
X0189583Y0081222D01*
X0180740Y0081618D02*
X0180740Y0078862D01*
X0180740Y0081618D02*
X0183496Y0081618D01*
X0183496Y0078862D01*
X0180740Y0078862D01*
X0180740Y0080042D02*
X0183496Y0080042D01*
X0183496Y0081222D02*
X0180740Y0081222D01*
X0173835Y0081618D02*
X0173835Y0078862D01*
X0173835Y0081618D02*
X0176591Y0081618D01*
X0176591Y0078862D01*
X0173835Y0078862D01*
X0173835Y0080042D02*
X0176591Y0080042D01*
X0176591Y0081222D02*
X0173835Y0081222D01*
X0164992Y0081618D02*
X0164992Y0078862D01*
X0164992Y0081618D02*
X0167748Y0081618D01*
X0167748Y0078862D01*
X0164992Y0078862D01*
X0164992Y0080042D02*
X0167748Y0080042D01*
X0167748Y0081222D02*
X0164992Y0081222D01*
X0158087Y0081618D02*
X0158087Y0078862D01*
X0158087Y0081618D02*
X0160843Y0081618D01*
X0160843Y0078862D01*
X0158087Y0078862D01*
X0158087Y0080042D02*
X0160843Y0080042D01*
X0160843Y0081222D02*
X0158087Y0081222D01*
X0149244Y0081618D02*
X0149244Y0078862D01*
X0149244Y0081618D02*
X0152000Y0081618D01*
X0152000Y0078862D01*
X0149244Y0078862D01*
X0149244Y0080042D02*
X0152000Y0080042D01*
X0152000Y0081222D02*
X0149244Y0081222D01*
X0142339Y0081618D02*
X0142339Y0078862D01*
X0142339Y0081618D02*
X0145095Y0081618D01*
X0145095Y0078862D01*
X0142339Y0078862D01*
X0142339Y0080042D02*
X0145095Y0080042D01*
X0145095Y0081222D02*
X0142339Y0081222D01*
X0133496Y0081618D02*
X0133496Y0078862D01*
X0133496Y0081618D02*
X0136252Y0081618D01*
X0136252Y0078862D01*
X0133496Y0078862D01*
X0133496Y0080042D02*
X0136252Y0080042D01*
X0136252Y0081222D02*
X0133496Y0081222D01*
X0126591Y0081618D02*
X0126591Y0078862D01*
X0126591Y0081618D02*
X0129347Y0081618D01*
X0129347Y0078862D01*
X0126591Y0078862D01*
X0126591Y0080042D02*
X0129347Y0080042D01*
X0129347Y0081222D02*
X0126591Y0081222D01*
X0117748Y0081618D02*
X0117748Y0078862D01*
X0117748Y0081618D02*
X0120504Y0081618D01*
X0120504Y0078862D01*
X0117748Y0078862D01*
X0117748Y0080042D02*
X0120504Y0080042D01*
X0120504Y0081222D02*
X0117748Y0081222D01*
X0110842Y0081618D02*
X0110842Y0078862D01*
X0110842Y0081618D02*
X0113598Y0081618D01*
X0113598Y0078862D01*
X0110842Y0078862D01*
X0110842Y0080042D02*
X0113598Y0080042D01*
X0113598Y0081222D02*
X0110842Y0081222D01*
X0102000Y0081618D02*
X0102000Y0078862D01*
X0102000Y0081618D02*
X0104756Y0081618D01*
X0104756Y0078862D01*
X0102000Y0078862D01*
X0102000Y0080042D02*
X0104756Y0080042D01*
X0104756Y0081222D02*
X0102000Y0081222D01*
X0095094Y0081618D02*
X0095094Y0078862D01*
X0095094Y0081618D02*
X0097850Y0081618D01*
X0097850Y0078862D01*
X0095094Y0078862D01*
X0095094Y0080042D02*
X0097850Y0080042D01*
X0097850Y0081222D02*
X0095094Y0081222D01*
X0095094Y0094610D02*
X0095094Y0097366D01*
X0097850Y0097366D01*
X0097850Y0094610D01*
X0095094Y0094610D01*
X0095094Y0095790D02*
X0097850Y0095790D01*
X0097850Y0096970D02*
X0095094Y0096970D01*
X0102000Y0097366D02*
X0102000Y0094610D01*
X0102000Y0097366D02*
X0104756Y0097366D01*
X0104756Y0094610D01*
X0102000Y0094610D01*
X0102000Y0095790D02*
X0104756Y0095790D01*
X0104756Y0096970D02*
X0102000Y0096970D01*
X0110842Y0097366D02*
X0110842Y0094610D01*
X0110842Y0097366D02*
X0113598Y0097366D01*
X0113598Y0094610D01*
X0110842Y0094610D01*
X0110842Y0095790D02*
X0113598Y0095790D01*
X0113598Y0096970D02*
X0110842Y0096970D01*
X0117748Y0097366D02*
X0117748Y0094610D01*
X0117748Y0097366D02*
X0120504Y0097366D01*
X0120504Y0094610D01*
X0117748Y0094610D01*
X0117748Y0095790D02*
X0120504Y0095790D01*
X0120504Y0096970D02*
X0117748Y0096970D01*
X0126591Y0097366D02*
X0126591Y0094610D01*
X0126591Y0097366D02*
X0129347Y0097366D01*
X0129347Y0094610D01*
X0126591Y0094610D01*
X0126591Y0095790D02*
X0129347Y0095790D01*
X0129347Y0096970D02*
X0126591Y0096970D01*
X0133496Y0097366D02*
X0133496Y0094610D01*
X0133496Y0097366D02*
X0136252Y0097366D01*
X0136252Y0094610D01*
X0133496Y0094610D01*
X0133496Y0095790D02*
X0136252Y0095790D01*
X0136252Y0096970D02*
X0133496Y0096970D01*
X0142339Y0097366D02*
X0142339Y0094610D01*
X0142339Y0097366D02*
X0145095Y0097366D01*
X0145095Y0094610D01*
X0142339Y0094610D01*
X0142339Y0095790D02*
X0145095Y0095790D01*
X0145095Y0096970D02*
X0142339Y0096970D01*
X0149244Y0097366D02*
X0149244Y0094610D01*
X0149244Y0097366D02*
X0152000Y0097366D01*
X0152000Y0094610D01*
X0149244Y0094610D01*
X0149244Y0095790D02*
X0152000Y0095790D01*
X0152000Y0096970D02*
X0149244Y0096970D01*
X0158087Y0097366D02*
X0158087Y0094610D01*
X0158087Y0097366D02*
X0160843Y0097366D01*
X0160843Y0094610D01*
X0158087Y0094610D01*
X0158087Y0095790D02*
X0160843Y0095790D01*
X0160843Y0096970D02*
X0158087Y0096970D01*
X0164992Y0097366D02*
X0164992Y0094610D01*
X0164992Y0097366D02*
X0167748Y0097366D01*
X0167748Y0094610D01*
X0164992Y0094610D01*
X0164992Y0095790D02*
X0167748Y0095790D01*
X0167748Y0096970D02*
X0164992Y0096970D01*
X0173835Y0097366D02*
X0173835Y0094610D01*
X0173835Y0097366D02*
X0176591Y0097366D01*
X0176591Y0094610D01*
X0173835Y0094610D01*
X0173835Y0095790D02*
X0176591Y0095790D01*
X0176591Y0096970D02*
X0173835Y0096970D01*
X0180740Y0097366D02*
X0180740Y0094610D01*
X0180740Y0097366D02*
X0183496Y0097366D01*
X0183496Y0094610D01*
X0180740Y0094610D01*
X0180740Y0095790D02*
X0183496Y0095790D01*
X0183496Y0096970D02*
X0180740Y0096970D01*
X0189583Y0097366D02*
X0189583Y0094610D01*
X0189583Y0097366D02*
X0192339Y0097366D01*
X0192339Y0094610D01*
X0189583Y0094610D01*
X0189583Y0095790D02*
X0192339Y0095790D01*
X0192339Y0096970D02*
X0189583Y0096970D01*
X0196488Y0097366D02*
X0196488Y0094610D01*
X0196488Y0097366D02*
X0199244Y0097366D01*
X0199244Y0094610D01*
X0196488Y0094610D01*
X0196488Y0095790D02*
X0199244Y0095790D01*
X0199244Y0096970D02*
X0196488Y0096970D01*
X0205331Y0097366D02*
X0205331Y0094610D01*
X0205331Y0097366D02*
X0208087Y0097366D01*
X0208087Y0094610D01*
X0205331Y0094610D01*
X0205331Y0095790D02*
X0208087Y0095790D01*
X0208087Y0096970D02*
X0205331Y0096970D01*
X0212236Y0097366D02*
X0212236Y0094610D01*
X0212236Y0097366D02*
X0214992Y0097366D01*
X0214992Y0094610D01*
X0212236Y0094610D01*
X0212236Y0095790D02*
X0214992Y0095790D01*
X0214992Y0096970D02*
X0212236Y0096970D01*
X0212236Y0110358D02*
X0212236Y0113114D01*
X0214992Y0113114D01*
X0214992Y0110358D01*
X0212236Y0110358D01*
X0212236Y0111538D02*
X0214992Y0111538D01*
X0214992Y0112718D02*
X0212236Y0112718D01*
X0205331Y0113114D02*
X0205331Y0110358D01*
X0205331Y0113114D02*
X0208087Y0113114D01*
X0208087Y0110358D01*
X0205331Y0110358D01*
X0205331Y0111538D02*
X0208087Y0111538D01*
X0208087Y0112718D02*
X0205331Y0112718D01*
X0196488Y0113114D02*
X0196488Y0110358D01*
X0196488Y0113114D02*
X0199244Y0113114D01*
X0199244Y0110358D01*
X0196488Y0110358D01*
X0196488Y0111538D02*
X0199244Y0111538D01*
X0199244Y0112718D02*
X0196488Y0112718D01*
X0189583Y0113114D02*
X0189583Y0110358D01*
X0189583Y0113114D02*
X0192339Y0113114D01*
X0192339Y0110358D01*
X0189583Y0110358D01*
X0189583Y0111538D02*
X0192339Y0111538D01*
X0192339Y0112718D02*
X0189583Y0112718D01*
X0180740Y0113114D02*
X0180740Y0110358D01*
X0180740Y0113114D02*
X0183496Y0113114D01*
X0183496Y0110358D01*
X0180740Y0110358D01*
X0180740Y0111538D02*
X0183496Y0111538D01*
X0183496Y0112718D02*
X0180740Y0112718D01*
X0173835Y0113114D02*
X0173835Y0110358D01*
X0173835Y0113114D02*
X0176591Y0113114D01*
X0176591Y0110358D01*
X0173835Y0110358D01*
X0173835Y0111538D02*
X0176591Y0111538D01*
X0176591Y0112718D02*
X0173835Y0112718D01*
X0164992Y0113114D02*
X0164992Y0110358D01*
X0164992Y0113114D02*
X0167748Y0113114D01*
X0167748Y0110358D01*
X0164992Y0110358D01*
X0164992Y0111538D02*
X0167748Y0111538D01*
X0167748Y0112718D02*
X0164992Y0112718D01*
X0158087Y0113114D02*
X0158087Y0110358D01*
X0158087Y0113114D02*
X0160843Y0113114D01*
X0160843Y0110358D01*
X0158087Y0110358D01*
X0158087Y0111538D02*
X0160843Y0111538D01*
X0160843Y0112718D02*
X0158087Y0112718D01*
X0149244Y0113114D02*
X0149244Y0110358D01*
X0149244Y0113114D02*
X0152000Y0113114D01*
X0152000Y0110358D01*
X0149244Y0110358D01*
X0149244Y0111538D02*
X0152000Y0111538D01*
X0152000Y0112718D02*
X0149244Y0112718D01*
X0142339Y0113114D02*
X0142339Y0110358D01*
X0142339Y0113114D02*
X0145095Y0113114D01*
X0145095Y0110358D01*
X0142339Y0110358D01*
X0142339Y0111538D02*
X0145095Y0111538D01*
X0145095Y0112718D02*
X0142339Y0112718D01*
X0133496Y0113114D02*
X0133496Y0110358D01*
X0133496Y0113114D02*
X0136252Y0113114D01*
X0136252Y0110358D01*
X0133496Y0110358D01*
X0133496Y0111538D02*
X0136252Y0111538D01*
X0136252Y0112718D02*
X0133496Y0112718D01*
X0126591Y0113114D02*
X0126591Y0110358D01*
X0126591Y0113114D02*
X0129347Y0113114D01*
X0129347Y0110358D01*
X0126591Y0110358D01*
X0126591Y0111538D02*
X0129347Y0111538D01*
X0129347Y0112718D02*
X0126591Y0112718D01*
X0117748Y0113114D02*
X0117748Y0110358D01*
X0117748Y0113114D02*
X0120504Y0113114D01*
X0120504Y0110358D01*
X0117748Y0110358D01*
X0117748Y0111538D02*
X0120504Y0111538D01*
X0120504Y0112718D02*
X0117748Y0112718D01*
X0110842Y0113114D02*
X0110842Y0110358D01*
X0110842Y0113114D02*
X0113598Y0113114D01*
X0113598Y0110358D01*
X0110842Y0110358D01*
X0110842Y0111538D02*
X0113598Y0111538D01*
X0113598Y0112718D02*
X0110842Y0112718D01*
X0102000Y0113114D02*
X0102000Y0110358D01*
X0102000Y0113114D02*
X0104756Y0113114D01*
X0104756Y0110358D01*
X0102000Y0110358D01*
X0102000Y0111538D02*
X0104756Y0111538D01*
X0104756Y0112718D02*
X0102000Y0112718D01*
X0095094Y0113114D02*
X0095094Y0110358D01*
X0095094Y0113114D02*
X0097850Y0113114D01*
X0097850Y0110358D01*
X0095094Y0110358D01*
X0095094Y0111538D02*
X0097850Y0111538D01*
X0097850Y0112718D02*
X0095094Y0112718D01*
X0095094Y0126106D02*
X0095094Y0128862D01*
X0097850Y0128862D01*
X0097850Y0126106D01*
X0095094Y0126106D01*
X0095094Y0127286D02*
X0097850Y0127286D01*
X0097850Y0128466D02*
X0095094Y0128466D01*
X0102000Y0128862D02*
X0102000Y0126106D01*
X0102000Y0128862D02*
X0104756Y0128862D01*
X0104756Y0126106D01*
X0102000Y0126106D01*
X0102000Y0127286D02*
X0104756Y0127286D01*
X0104756Y0128466D02*
X0102000Y0128466D01*
X0110842Y0128862D02*
X0110842Y0126106D01*
X0110842Y0128862D02*
X0113598Y0128862D01*
X0113598Y0126106D01*
X0110842Y0126106D01*
X0110842Y0127286D02*
X0113598Y0127286D01*
X0113598Y0128466D02*
X0110842Y0128466D01*
X0117748Y0128862D02*
X0117748Y0126106D01*
X0117748Y0128862D02*
X0120504Y0128862D01*
X0120504Y0126106D01*
X0117748Y0126106D01*
X0117748Y0127286D02*
X0120504Y0127286D01*
X0120504Y0128466D02*
X0117748Y0128466D01*
X0126591Y0128862D02*
X0126591Y0126106D01*
X0126591Y0128862D02*
X0129347Y0128862D01*
X0129347Y0126106D01*
X0126591Y0126106D01*
X0126591Y0127286D02*
X0129347Y0127286D01*
X0129347Y0128466D02*
X0126591Y0128466D01*
X0133496Y0128862D02*
X0133496Y0126106D01*
X0133496Y0128862D02*
X0136252Y0128862D01*
X0136252Y0126106D01*
X0133496Y0126106D01*
X0133496Y0127286D02*
X0136252Y0127286D01*
X0136252Y0128466D02*
X0133496Y0128466D01*
X0142339Y0128862D02*
X0142339Y0126106D01*
X0142339Y0128862D02*
X0145095Y0128862D01*
X0145095Y0126106D01*
X0142339Y0126106D01*
X0142339Y0127286D02*
X0145095Y0127286D01*
X0145095Y0128466D02*
X0142339Y0128466D01*
X0149244Y0128862D02*
X0149244Y0126106D01*
X0149244Y0128862D02*
X0152000Y0128862D01*
X0152000Y0126106D01*
X0149244Y0126106D01*
X0149244Y0127286D02*
X0152000Y0127286D01*
X0152000Y0128466D02*
X0149244Y0128466D01*
X0158087Y0128862D02*
X0158087Y0126106D01*
X0158087Y0128862D02*
X0160843Y0128862D01*
X0160843Y0126106D01*
X0158087Y0126106D01*
X0158087Y0127286D02*
X0160843Y0127286D01*
X0160843Y0128466D02*
X0158087Y0128466D01*
X0164992Y0128862D02*
X0164992Y0126106D01*
X0164992Y0128862D02*
X0167748Y0128862D01*
X0167748Y0126106D01*
X0164992Y0126106D01*
X0164992Y0127286D02*
X0167748Y0127286D01*
X0167748Y0128466D02*
X0164992Y0128466D01*
X0173835Y0128862D02*
X0173835Y0126106D01*
X0173835Y0128862D02*
X0176591Y0128862D01*
X0176591Y0126106D01*
X0173835Y0126106D01*
X0173835Y0127286D02*
X0176591Y0127286D01*
X0176591Y0128466D02*
X0173835Y0128466D01*
X0180740Y0128862D02*
X0180740Y0126106D01*
X0180740Y0128862D02*
X0183496Y0128862D01*
X0183496Y0126106D01*
X0180740Y0126106D01*
X0180740Y0127286D02*
X0183496Y0127286D01*
X0183496Y0128466D02*
X0180740Y0128466D01*
X0189583Y0128862D02*
X0189583Y0126106D01*
X0189583Y0128862D02*
X0192339Y0128862D01*
X0192339Y0126106D01*
X0189583Y0126106D01*
X0189583Y0127286D02*
X0192339Y0127286D01*
X0192339Y0128466D02*
X0189583Y0128466D01*
X0196488Y0128862D02*
X0196488Y0126106D01*
X0196488Y0128862D02*
X0199244Y0128862D01*
X0199244Y0126106D01*
X0196488Y0126106D01*
X0196488Y0127286D02*
X0199244Y0127286D01*
X0199244Y0128466D02*
X0196488Y0128466D01*
X0205331Y0128862D02*
X0205331Y0126106D01*
X0205331Y0128862D02*
X0208087Y0128862D01*
X0208087Y0126106D01*
X0205331Y0126106D01*
X0205331Y0127286D02*
X0208087Y0127286D01*
X0208087Y0128466D02*
X0205331Y0128466D01*
X0212236Y0128862D02*
X0212236Y0126106D01*
X0212236Y0128862D02*
X0214992Y0128862D01*
X0214992Y0126106D01*
X0212236Y0126106D01*
X0212236Y0127286D02*
X0214992Y0127286D01*
X0214992Y0128466D02*
X0212236Y0128466D01*
X0212236Y0141854D02*
X0212236Y0144610D01*
X0214992Y0144610D01*
X0214992Y0141854D01*
X0212236Y0141854D01*
X0212236Y0143034D02*
X0214992Y0143034D01*
X0214992Y0144214D02*
X0212236Y0144214D01*
X0205331Y0144610D02*
X0205331Y0141854D01*
X0205331Y0144610D02*
X0208087Y0144610D01*
X0208087Y0141854D01*
X0205331Y0141854D01*
X0205331Y0143034D02*
X0208087Y0143034D01*
X0208087Y0144214D02*
X0205331Y0144214D01*
X0196488Y0144610D02*
X0196488Y0141854D01*
X0196488Y0144610D02*
X0199244Y0144610D01*
X0199244Y0141854D01*
X0196488Y0141854D01*
X0196488Y0143034D02*
X0199244Y0143034D01*
X0199244Y0144214D02*
X0196488Y0144214D01*
X0189583Y0144610D02*
X0189583Y0141854D01*
X0189583Y0144610D02*
X0192339Y0144610D01*
X0192339Y0141854D01*
X0189583Y0141854D01*
X0189583Y0143034D02*
X0192339Y0143034D01*
X0192339Y0144214D02*
X0189583Y0144214D01*
X0180740Y0144610D02*
X0180740Y0141854D01*
X0180740Y0144610D02*
X0183496Y0144610D01*
X0183496Y0141854D01*
X0180740Y0141854D01*
X0180740Y0143034D02*
X0183496Y0143034D01*
X0183496Y0144214D02*
X0180740Y0144214D01*
X0173835Y0144610D02*
X0173835Y0141854D01*
X0173835Y0144610D02*
X0176591Y0144610D01*
X0176591Y0141854D01*
X0173835Y0141854D01*
X0173835Y0143034D02*
X0176591Y0143034D01*
X0176591Y0144214D02*
X0173835Y0144214D01*
X0164992Y0144610D02*
X0164992Y0141854D01*
X0164992Y0144610D02*
X0167748Y0144610D01*
X0167748Y0141854D01*
X0164992Y0141854D01*
X0164992Y0143034D02*
X0167748Y0143034D01*
X0167748Y0144214D02*
X0164992Y0144214D01*
X0158087Y0144610D02*
X0158087Y0141854D01*
X0158087Y0144610D02*
X0160843Y0144610D01*
X0160843Y0141854D01*
X0158087Y0141854D01*
X0158087Y0143034D02*
X0160843Y0143034D01*
X0160843Y0144214D02*
X0158087Y0144214D01*
X0149244Y0144610D02*
X0149244Y0141854D01*
X0149244Y0144610D02*
X0152000Y0144610D01*
X0152000Y0141854D01*
X0149244Y0141854D01*
X0149244Y0143034D02*
X0152000Y0143034D01*
X0152000Y0144214D02*
X0149244Y0144214D01*
X0142339Y0144610D02*
X0142339Y0141854D01*
X0142339Y0144610D02*
X0145095Y0144610D01*
X0145095Y0141854D01*
X0142339Y0141854D01*
X0142339Y0143034D02*
X0145095Y0143034D01*
X0145095Y0144214D02*
X0142339Y0144214D01*
X0133496Y0144610D02*
X0133496Y0141854D01*
X0133496Y0144610D02*
X0136252Y0144610D01*
X0136252Y0141854D01*
X0133496Y0141854D01*
X0133496Y0143034D02*
X0136252Y0143034D01*
X0136252Y0144214D02*
X0133496Y0144214D01*
X0126591Y0144610D02*
X0126591Y0141854D01*
X0126591Y0144610D02*
X0129347Y0144610D01*
X0129347Y0141854D01*
X0126591Y0141854D01*
X0126591Y0143034D02*
X0129347Y0143034D01*
X0129347Y0144214D02*
X0126591Y0144214D01*
X0117748Y0144610D02*
X0117748Y0141854D01*
X0117748Y0144610D02*
X0120504Y0144610D01*
X0120504Y0141854D01*
X0117748Y0141854D01*
X0117748Y0143034D02*
X0120504Y0143034D01*
X0120504Y0144214D02*
X0117748Y0144214D01*
X0110842Y0144610D02*
X0110842Y0141854D01*
X0110842Y0144610D02*
X0113598Y0144610D01*
X0113598Y0141854D01*
X0110842Y0141854D01*
X0110842Y0143034D02*
X0113598Y0143034D01*
X0113598Y0144214D02*
X0110842Y0144214D01*
X0102000Y0144610D02*
X0102000Y0141854D01*
X0102000Y0144610D02*
X0104756Y0144610D01*
X0104756Y0141854D01*
X0102000Y0141854D01*
X0102000Y0143034D02*
X0104756Y0143034D01*
X0104756Y0144214D02*
X0102000Y0144214D01*
X0095094Y0144610D02*
X0095094Y0141854D01*
X0095094Y0144610D02*
X0097850Y0144610D01*
X0097850Y0141854D01*
X0095094Y0141854D01*
X0095094Y0143034D02*
X0097850Y0143034D01*
X0097850Y0144214D02*
X0095094Y0144214D01*
X0095094Y0157602D02*
X0095094Y0160358D01*
X0097850Y0160358D01*
X0097850Y0157602D01*
X0095094Y0157602D01*
X0095094Y0158782D02*
X0097850Y0158782D01*
X0097850Y0159962D02*
X0095094Y0159962D01*
X0102000Y0160358D02*
X0102000Y0157602D01*
X0102000Y0160358D02*
X0104756Y0160358D01*
X0104756Y0157602D01*
X0102000Y0157602D01*
X0102000Y0158782D02*
X0104756Y0158782D01*
X0104756Y0159962D02*
X0102000Y0159962D01*
X0110842Y0160358D02*
X0110842Y0157602D01*
X0110842Y0160358D02*
X0113598Y0160358D01*
X0113598Y0157602D01*
X0110842Y0157602D01*
X0110842Y0158782D02*
X0113598Y0158782D01*
X0113598Y0159962D02*
X0110842Y0159962D01*
X0117748Y0160358D02*
X0117748Y0157602D01*
X0117748Y0160358D02*
X0120504Y0160358D01*
X0120504Y0157602D01*
X0117748Y0157602D01*
X0117748Y0158782D02*
X0120504Y0158782D01*
X0120504Y0159962D02*
X0117748Y0159962D01*
X0126591Y0160358D02*
X0126591Y0157602D01*
X0126591Y0160358D02*
X0129347Y0160358D01*
X0129347Y0157602D01*
X0126591Y0157602D01*
X0126591Y0158782D02*
X0129347Y0158782D01*
X0129347Y0159962D02*
X0126591Y0159962D01*
X0133496Y0160358D02*
X0133496Y0157602D01*
X0133496Y0160358D02*
X0136252Y0160358D01*
X0136252Y0157602D01*
X0133496Y0157602D01*
X0133496Y0158782D02*
X0136252Y0158782D01*
X0136252Y0159962D02*
X0133496Y0159962D01*
X0142339Y0160358D02*
X0142339Y0157602D01*
X0142339Y0160358D02*
X0145095Y0160358D01*
X0145095Y0157602D01*
X0142339Y0157602D01*
X0142339Y0158782D02*
X0145095Y0158782D01*
X0145095Y0159962D02*
X0142339Y0159962D01*
X0149244Y0160358D02*
X0149244Y0157602D01*
X0149244Y0160358D02*
X0152000Y0160358D01*
X0152000Y0157602D01*
X0149244Y0157602D01*
X0149244Y0158782D02*
X0152000Y0158782D01*
X0152000Y0159962D02*
X0149244Y0159962D01*
X0158087Y0160358D02*
X0158087Y0157602D01*
X0158087Y0160358D02*
X0160843Y0160358D01*
X0160843Y0157602D01*
X0158087Y0157602D01*
X0158087Y0158782D02*
X0160843Y0158782D01*
X0160843Y0159962D02*
X0158087Y0159962D01*
X0164992Y0160358D02*
X0164992Y0157602D01*
X0164992Y0160358D02*
X0167748Y0160358D01*
X0167748Y0157602D01*
X0164992Y0157602D01*
X0164992Y0158782D02*
X0167748Y0158782D01*
X0167748Y0159962D02*
X0164992Y0159962D01*
X0173835Y0160358D02*
X0173835Y0157602D01*
X0173835Y0160358D02*
X0176591Y0160358D01*
X0176591Y0157602D01*
X0173835Y0157602D01*
X0173835Y0158782D02*
X0176591Y0158782D01*
X0176591Y0159962D02*
X0173835Y0159962D01*
X0180740Y0160358D02*
X0180740Y0157602D01*
X0180740Y0160358D02*
X0183496Y0160358D01*
X0183496Y0157602D01*
X0180740Y0157602D01*
X0180740Y0158782D02*
X0183496Y0158782D01*
X0183496Y0159962D02*
X0180740Y0159962D01*
X0189583Y0160358D02*
X0189583Y0157602D01*
X0189583Y0160358D02*
X0192339Y0160358D01*
X0192339Y0157602D01*
X0189583Y0157602D01*
X0189583Y0158782D02*
X0192339Y0158782D01*
X0192339Y0159962D02*
X0189583Y0159962D01*
X0196488Y0160358D02*
X0196488Y0157602D01*
X0196488Y0160358D02*
X0199244Y0160358D01*
X0199244Y0157602D01*
X0196488Y0157602D01*
X0196488Y0158782D02*
X0199244Y0158782D01*
X0199244Y0159962D02*
X0196488Y0159962D01*
X0205331Y0160358D02*
X0205331Y0157602D01*
X0205331Y0160358D02*
X0208087Y0160358D01*
X0208087Y0157602D01*
X0205331Y0157602D01*
X0205331Y0158782D02*
X0208087Y0158782D01*
X0208087Y0159962D02*
X0205331Y0159962D01*
X0212236Y0160358D02*
X0212236Y0157602D01*
X0212236Y0160358D02*
X0214992Y0160358D01*
X0214992Y0157602D01*
X0212236Y0157602D01*
X0212236Y0158782D02*
X0214992Y0158782D01*
X0214992Y0159962D02*
X0212236Y0159962D01*
X0212236Y0050122D02*
X0212236Y0047366D01*
X0212236Y0050122D02*
X0214992Y0050122D01*
X0214992Y0047366D01*
X0212236Y0047366D01*
X0212236Y0048546D02*
X0214992Y0048546D01*
X0214992Y0049726D02*
X0212236Y0049726D01*
D13*
X0040870Y0158980D03*
X0029059Y0158980D03*
D14*
G36*
X0063670Y0145026D02*
X0059407Y0144274D01*
X0058724Y0148150D01*
X0062987Y0148902D01*
X0063670Y0145026D01*
G37*
G36*
X0070261Y0146188D02*
X0065998Y0145436D01*
X0065315Y0149312D01*
X0069578Y0150064D01*
X0070261Y0146188D01*
G37*
D15*
X0064492Y0158980D03*
X0052681Y0158980D03*
D16*
X0084177Y0159965D03*
X0084177Y0134374D03*
X0187917Y0029059D03*
X0213508Y0029059D03*
D17*
X0076697Y0032209D03*
X0076697Y0024335D03*
X0076697Y0040083D03*
X0076697Y0047957D03*
X0076697Y0055831D03*
X0076697Y0063705D03*
X0076697Y0071579D03*
X0076697Y0079453D03*
X0012130Y0079453D03*
X0012130Y0071579D03*
X0012130Y0063705D03*
X0012130Y0055831D03*
X0012130Y0047957D03*
X0012130Y0040083D03*
X0012130Y0032209D03*
X0012130Y0024335D03*
D18*
X0025909Y0016067D03*
X0033783Y0016067D03*
X0041657Y0016067D03*
X0049531Y0016067D03*
X0057406Y0016067D03*
X0065280Y0016067D03*
D19*
X0073547Y0018035D03*
X0064886Y0025516D03*
X0062524Y0032209D03*
X0049925Y0036933D03*
X0051106Y0042445D03*
X0062524Y0043232D03*
X0067002Y0051550D03*
X0065673Y0057799D03*
X0060314Y0064354D03*
X0051500Y0063705D03*
X0051894Y0070398D03*
X0042839Y0079453D03*
X0036933Y0080634D03*
X0030634Y0079846D03*
X0025122Y0086539D03*
X0020791Y0083783D03*
X0017248Y0086539D03*
X0010161Y0085752D03*
X0024335Y0095988D03*
X0024335Y0104256D03*
X0025122Y0110161D03*
X0036539Y0113705D03*
X0036539Y0102287D03*
X0034965Y0095201D03*
X0048744Y0087720D03*
X0058193Y0091657D03*
X0088114Y0089295D03*
X0096451Y0090988D03*
X0112593Y0090988D03*
X0128735Y0090988D03*
X0143695Y0090988D03*
X0159443Y0090988D03*
X0175191Y0090988D03*
X0190939Y0090988D03*
X0206687Y0090988D03*
X0206687Y0075240D03*
X0190939Y0075240D03*
X0175191Y0075240D03*
X0159443Y0075240D03*
X0143695Y0075240D03*
X0128735Y0075240D03*
X0112593Y0075240D03*
X0096451Y0075240D03*
X0088508Y0075122D03*
X0086146Y0064886D03*
X0086933Y0058193D03*
X0098813Y0059492D03*
X0112593Y0059492D03*
X0128735Y0059492D03*
X0143695Y0059492D03*
X0159443Y0059492D03*
X0175191Y0059492D03*
X0190939Y0059492D03*
X0206687Y0059492D03*
X0206687Y0043744D03*
X0190939Y0043744D03*
X0170720Y0045747D03*
X0159443Y0043744D03*
X0143695Y0043744D03*
X0133390Y0038114D03*
X0128735Y0043744D03*
X0112593Y0043744D03*
X0099207Y0043350D03*
X0115280Y0032602D03*
X0092445Y0016854D03*
X0049531Y0025122D03*
X0030240Y0038114D03*
X0037327Y0042839D03*
X0026697Y0048744D03*
X0029846Y0053075D03*
X0037327Y0055043D03*
X0020791Y0053862D03*
X0022366Y0042051D03*
X0021972Y0035752D03*
X0021579Y0029846D03*
X0025122Y0025516D03*
X0042051Y0007012D03*
X0142445Y0020791D03*
X0144807Y0008193D03*
X0161343Y0020398D03*
X0088114Y0105043D03*
X0096451Y0106736D03*
X0086933Y0117642D03*
X0083390Y0125516D03*
X0076303Y0126303D03*
X0065536Y0140377D03*
X0074335Y0142051D03*
X0073154Y0157406D03*
X0096451Y0153980D03*
X0112199Y0153980D03*
X0128341Y0153980D03*
X0143695Y0153980D03*
X0159443Y0153980D03*
X0175191Y0153980D03*
X0190939Y0153980D03*
X0206687Y0153980D03*
X0206687Y0138232D03*
X0190939Y0138232D03*
X0175191Y0138232D03*
X0159443Y0138232D03*
X0143695Y0138232D03*
X0128341Y0138232D03*
X0112199Y0138232D03*
X0096451Y0138232D03*
X0096451Y0122484D03*
X0112593Y0122484D03*
X0128341Y0122484D03*
X0143695Y0122484D03*
X0159443Y0122484D03*
X0175191Y0122484D03*
X0190939Y0122484D03*
X0206687Y0122484D03*
X0206687Y0106736D03*
X0190939Y0106736D03*
X0175191Y0106736D03*
X0159443Y0106736D03*
X0143695Y0106736D03*
X0128341Y0106736D03*
X0112593Y0106736D03*
X0050319Y0129059D03*
D20*
X0127484Y0040871D02*
X0133390Y0038115D01*
X0127484Y0036539D02*
X0127519Y0036383D01*
X0127557Y0036227D01*
X0127600Y0036072D01*
X0127646Y0035919D01*
X0127696Y0035766D01*
X0127750Y0035615D01*
X0127807Y0035465D01*
X0127868Y0035317D01*
X0127933Y0035170D01*
X0128002Y0035025D01*
X0128074Y0034882D01*
X0128149Y0034740D01*
X0128228Y0034601D01*
X0128310Y0034463D01*
X0128396Y0034328D01*
X0128485Y0034194D01*
X0128577Y0034063D01*
X0128673Y0033934D01*
X0128771Y0033808D01*
X0128873Y0033683D01*
X0128978Y0033562D01*
X0129085Y0033443D01*
X0129196Y0033327D01*
X0129309Y0033214D01*
X0129426Y0033103D01*
X0129544Y0032995D01*
X0129666Y0032891D01*
X0129790Y0032789D01*
X0129917Y0032690D01*
X0130045Y0032595D01*
X0130177Y0032503D01*
X0130310Y0032414D01*
X0130446Y0032328D01*
X0130583Y0032246D01*
X0130723Y0032167D01*
X0130865Y0032091D01*
X0131008Y0032019D01*
X0131153Y0031951D01*
X0131300Y0031886D01*
X0131448Y0031825D01*
X0131598Y0031768D01*
X0131749Y0031714D01*
X0131901Y0031664D01*
X0132055Y0031618D01*
X0132210Y0031575D01*
X0132365Y0031537D01*
X0132522Y0031502D01*
X0132679Y0031471D01*
X0132837Y0031444D01*
X0132996Y0031421D01*
X0127484Y0036540D02*
X0127456Y0036662D01*
X0127425Y0036784D01*
X0127390Y0036905D01*
X0127351Y0037025D01*
X0127308Y0037143D01*
X0127262Y0037260D01*
X0127212Y0037375D01*
X0127158Y0037489D01*
X0127101Y0037602D01*
X0127041Y0037712D01*
X0126977Y0037820D01*
X0126910Y0037927D01*
X0126839Y0038031D01*
X0126766Y0038133D01*
X0126689Y0038233D01*
X0126609Y0038330D01*
X0126526Y0038424D01*
X0126440Y0038517D01*
X0126352Y0038606D01*
X0126260Y0038692D01*
X0126166Y0038776D01*
X0126070Y0038857D01*
X0125971Y0038935D01*
X0125870Y0039009D01*
X0125766Y0039081D01*
X0125660Y0039149D01*
X0125552Y0039214D01*
X0125443Y0039275D01*
X0125331Y0039333D01*
X0125218Y0039388D01*
X0125103Y0039439D01*
X0124986Y0039486D01*
X0124868Y0039530D01*
X0124749Y0039570D01*
X0124628Y0039606D01*
X0124507Y0039639D01*
X0124384Y0039668D01*
X0124261Y0039692D01*
X0124137Y0039714D01*
X0124012Y0039731D01*
X0123887Y0039744D01*
X0123762Y0039754D01*
X0123636Y0039759D01*
X0123510Y0039761D01*
X0123384Y0039759D01*
X0123259Y0039753D01*
X0123133Y0039743D01*
X0123008Y0039729D01*
X0122884Y0039711D01*
X0122760Y0039689D01*
X0128735Y0043744D02*
X0128735Y0048744D01*
X0127969Y0048744D01*
X0134874Y0048744D02*
X0134965Y0048744D01*
X0134965Y0052269D01*
X0150713Y0052269D01*
X0150713Y0048744D01*
X0150622Y0048744D01*
X0150713Y0052269D02*
X0166461Y0052269D01*
X0166461Y0048744D01*
X0166370Y0048744D01*
X0166461Y0052269D02*
X0182209Y0052269D01*
X0182209Y0048744D01*
X0182118Y0048744D01*
X0182209Y0052269D02*
X0197957Y0052269D01*
X0197957Y0048744D01*
X0197866Y0048744D01*
X0197957Y0052269D02*
X0213614Y0052269D01*
X0213614Y0048744D01*
X0213705Y0054974D02*
X0197957Y0054974D01*
X0197957Y0064492D01*
X0197866Y0064492D01*
X0197957Y0069366D02*
X0197957Y0080240D01*
X0197866Y0080240D01*
X0197957Y0084920D02*
X0197957Y0095988D01*
X0197866Y0095988D01*
X0197957Y0100456D02*
X0197957Y0111736D01*
X0197866Y0111736D01*
X0197957Y0116410D02*
X0197957Y0127484D01*
X0197866Y0127484D01*
X0197957Y0132565D02*
X0197957Y0143232D01*
X0197866Y0143232D01*
X0197957Y0148119D02*
X0197957Y0158980D01*
X0197866Y0158980D01*
X0190961Y0158980D02*
X0190939Y0153980D01*
X0197957Y0148119D02*
X0182209Y0148119D01*
X0182209Y0158980D01*
X0182118Y0158980D01*
X0175213Y0158980D02*
X0175191Y0153980D01*
X0182209Y0148119D02*
X0166461Y0148119D01*
X0166461Y0158980D01*
X0166370Y0158980D01*
X0159465Y0158980D02*
X0159443Y0153980D01*
X0166461Y0148119D02*
X0150713Y0148119D01*
X0150713Y0158980D01*
X0150622Y0158980D01*
X0143717Y0158980D02*
X0143695Y0153980D01*
X0150713Y0148119D02*
X0134965Y0148119D01*
X0134965Y0158980D01*
X0134874Y0158980D01*
X0127969Y0158980D02*
X0128341Y0153980D01*
X0134965Y0148119D02*
X0118823Y0148119D01*
X0118823Y0158980D01*
X0119126Y0158980D01*
X0088114Y0105043D02*
X0089474Y0104292D01*
X0090850Y0103573D01*
X0092242Y0102885D01*
X0093650Y0102229D01*
X0095072Y0101605D01*
X0096508Y0101014D01*
X0097957Y0100456D01*
X0103378Y0100456D01*
X0103378Y0111736D01*
X0103378Y0116410D02*
X0099531Y0116410D01*
X0103378Y0116410D02*
X0103378Y0127484D01*
X0088114Y0089295D02*
X0088946Y0088813D01*
X0089789Y0088352D01*
X0090644Y0087911D01*
X0091508Y0087491D01*
X0092383Y0087093D01*
X0093268Y0086716D01*
X0094161Y0086361D01*
X0095063Y0086028D01*
X0095973Y0085718D01*
X0096890Y0085429D01*
X0097814Y0085164D01*
X0098744Y0084921D01*
X0098744Y0084920D02*
X0103378Y0084920D01*
X0103378Y0095988D01*
X0103378Y0100456D02*
X0103862Y0100456D01*
X0119217Y0100456D01*
X0119217Y0111736D01*
X0119126Y0111736D01*
X0119217Y0116410D02*
X0119217Y0127484D01*
X0119126Y0127484D01*
X0119217Y0132565D02*
X0119217Y0143232D01*
X0119126Y0143232D01*
X0118823Y0148119D02*
X0103469Y0148119D01*
X0103469Y0158980D01*
X0103378Y0158980D01*
X0096472Y0158980D02*
X0096451Y0153980D01*
X0076697Y0079452D02*
X0074914Y0079882D01*
X0073142Y0080354D01*
X0071381Y0080868D01*
X0069633Y0081423D01*
X0067899Y0082020D01*
X0066180Y0082658D01*
X0064476Y0083337D01*
X0062789Y0084056D01*
X0061119Y0084815D01*
X0059468Y0085613D01*
X0057836Y0086450D01*
X0056225Y0087326D01*
X0056224Y0087327D02*
X0054650Y0091657D01*
X0048744Y0087721D02*
X0048831Y0087604D01*
X0048915Y0087485D01*
X0048996Y0087364D01*
X0049073Y0087240D01*
X0049147Y0087115D01*
X0049217Y0086987D01*
X0049284Y0086858D01*
X0049347Y0086726D01*
X0049407Y0086594D01*
X0049463Y0086459D01*
X0049515Y0086323D01*
X0049564Y0086186D01*
X0049608Y0086047D01*
X0049649Y0085908D01*
X0049686Y0085767D01*
X0049719Y0085625D01*
X0049749Y0085482D01*
X0049774Y0085339D01*
X0049795Y0085195D01*
X0049813Y0085050D01*
X0049826Y0084905D01*
X0049836Y0084760D01*
X0049841Y0084615D01*
X0049843Y0084469D01*
X0049841Y0084323D01*
X0049834Y0084178D01*
X0049824Y0084033D01*
X0049809Y0083888D01*
X0049791Y0083743D01*
X0049768Y0083599D01*
X0049742Y0083456D01*
X0049712Y0083314D01*
X0049678Y0083172D01*
X0049640Y0083032D01*
X0049598Y0082892D01*
X0049553Y0082754D01*
X0049503Y0082617D01*
X0049450Y0082481D01*
X0049393Y0082347D01*
X0049333Y0082215D01*
X0049269Y0082084D01*
X0049201Y0081955D01*
X0049130Y0081828D01*
X0049055Y0081703D01*
X0048977Y0081580D01*
X0048896Y0081459D01*
X0048811Y0081341D01*
X0048723Y0081225D01*
X0048632Y0081111D01*
X0048538Y0081000D01*
X0048441Y0080891D01*
X0048341Y0080785D01*
X0048238Y0080682D01*
X0048133Y0080582D01*
X0048024Y0080485D01*
X0047913Y0080391D01*
X0047800Y0080300D01*
X0047683Y0080212D01*
X0047565Y0080127D01*
X0047444Y0080045D01*
X0047322Y0079967D01*
X0047197Y0079892D01*
X0047070Y0079821D01*
X0046941Y0079753D01*
X0046810Y0079689D01*
X0046678Y0079628D01*
X0046544Y0079571D01*
X0046408Y0079518D01*
X0046271Y0079469D01*
X0046133Y0079423D01*
X0045994Y0079381D01*
X0045853Y0079343D01*
X0045712Y0079308D01*
X0045569Y0079278D01*
X0045426Y0079252D01*
X0045282Y0079229D01*
X0045138Y0079211D01*
X0044993Y0079196D01*
X0044847Y0079185D01*
X0044702Y0079179D01*
X0044556Y0079176D01*
X0044411Y0079177D01*
X0044265Y0079183D01*
X0044120Y0079192D01*
X0043975Y0079205D01*
X0043830Y0079223D01*
X0043686Y0079244D01*
X0043543Y0079269D01*
X0043400Y0079298D01*
X0043258Y0079331D01*
X0043118Y0079368D01*
X0042978Y0079409D01*
X0042839Y0079453D01*
X0046776Y0055043D02*
X0046334Y0054937D01*
X0045889Y0054841D01*
X0045443Y0054755D01*
X0044994Y0054680D01*
X0044544Y0054616D01*
X0044093Y0054563D01*
X0043640Y0054520D01*
X0043187Y0054488D01*
X0042733Y0054466D01*
X0042278Y0054455D01*
X0041824Y0054455D01*
X0041369Y0054466D01*
X0040915Y0054488D01*
X0040462Y0054520D01*
X0040009Y0054563D01*
X0039558Y0054616D01*
X0039108Y0054680D01*
X0038659Y0054755D01*
X0038213Y0054841D01*
X0037768Y0054937D01*
X0037326Y0055043D01*
X0026697Y0048744D02*
X0026704Y0048654D01*
X0026708Y0048563D01*
X0026707Y0048473D01*
X0026703Y0048383D01*
X0026695Y0048293D01*
X0026683Y0048203D01*
X0026667Y0048114D01*
X0026647Y0048026D01*
X0026624Y0047938D01*
X0026596Y0047852D01*
X0026565Y0047767D01*
X0026531Y0047684D01*
X0026492Y0047602D01*
X0026451Y0047522D01*
X0026405Y0047443D01*
X0026357Y0047367D01*
X0026305Y0047293D01*
X0026250Y0047221D01*
X0026192Y0047152D01*
X0026131Y0047085D01*
X0026068Y0047021D01*
X0026001Y0046959D01*
X0025932Y0046901D01*
X0025861Y0046846D01*
X0025787Y0046793D01*
X0025711Y0046744D01*
X0025633Y0046699D01*
X0025553Y0046657D01*
X0025471Y0046618D01*
X0025388Y0046583D01*
X0025303Y0046551D01*
X0025217Y0046523D01*
X0025130Y0046499D01*
X0025042Y0046479D01*
X0024953Y0046462D01*
X0024863Y0046450D01*
X0024773Y0046441D01*
X0024683Y0046436D01*
X0024593Y0046435D01*
X0024502Y0046438D01*
X0024412Y0046445D01*
X0024322Y0046456D01*
X0024233Y0046470D01*
X0024145Y0046489D01*
X0024057Y0046511D01*
X0023970Y0046537D01*
X0023885Y0046567D01*
X0023801Y0046600D01*
X0023719Y0046637D01*
X0023638Y0046678D01*
X0023559Y0046722D01*
X0023482Y0046769D01*
X0023407Y0046820D01*
X0023334Y0046874D01*
X0023264Y0046931D01*
X0023196Y0046991D01*
X0023131Y0047053D01*
X0023069Y0047119D01*
X0023009Y0047187D01*
X0022953Y0047258D01*
X0022900Y0047331D01*
X0022850Y0047406D01*
X0022803Y0047483D01*
X0022760Y0047563D01*
X0022366Y0042051D02*
X0012130Y0040083D01*
X0012130Y0047957D02*
X0012210Y0048090D01*
X0012293Y0048221D01*
X0012380Y0048349D01*
X0012469Y0048476D01*
X0012563Y0048600D01*
X0012659Y0048721D01*
X0012758Y0048841D01*
X0012860Y0048957D01*
X0012966Y0049071D01*
X0013074Y0049182D01*
X0013185Y0049290D01*
X0013299Y0049396D01*
X0013415Y0049498D01*
X0013534Y0049597D01*
X0013656Y0049694D01*
X0013780Y0049787D01*
X0013906Y0049877D01*
X0014035Y0049963D01*
X0014165Y0050047D01*
X0014298Y0050127D01*
X0014433Y0050203D01*
X0014570Y0050276D01*
X0014709Y0050346D01*
X0014849Y0050411D01*
X0014991Y0050474D01*
X0015135Y0050532D01*
X0015280Y0050587D01*
X0015426Y0050638D01*
X0015574Y0050686D01*
X0015722Y0050729D01*
X0015872Y0050769D01*
X0016023Y0050805D01*
X0016175Y0050836D01*
X0016328Y0050864D01*
X0016481Y0050888D01*
X0016634Y0050909D01*
X0016789Y0050925D01*
X0016943Y0050937D01*
X0017098Y0050945D01*
X0017253Y0050949D01*
X0017408Y0050950D01*
X0017563Y0050946D01*
X0017718Y0050938D01*
X0017873Y0050926D01*
X0018027Y0050911D01*
X0018181Y0050891D01*
X0018334Y0050868D01*
X0018487Y0050840D01*
X0018639Y0050809D01*
X0018789Y0050773D01*
X0018940Y0050734D01*
X0019088Y0050691D01*
X0019236Y0050644D01*
X0019383Y0050593D01*
X0019528Y0050539D01*
X0019672Y0050481D01*
X0019814Y0050419D01*
X0019955Y0050354D01*
X0020094Y0050285D01*
X0020231Y0050212D01*
X0020366Y0050136D01*
X0020499Y0050057D01*
X0020630Y0049974D01*
X0020759Y0049887D01*
X0020885Y0049798D01*
X0021010Y0049705D01*
X0021131Y0049609D01*
X0021251Y0049510D01*
X0021367Y0049408D01*
X0021482Y0049303D01*
X0021593Y0049195D01*
X0021701Y0049084D01*
X0021807Y0048971D01*
X0021910Y0048855D01*
X0022009Y0048736D01*
X0022106Y0048615D01*
X0022199Y0048491D01*
X0022290Y0048365D01*
X0022377Y0048236D01*
X0022460Y0048106D01*
X0022541Y0047973D01*
X0022617Y0047838D01*
X0022691Y0047702D01*
X0022760Y0047563D01*
X0020791Y0053862D02*
X0012130Y0055831D01*
X0012130Y0063705D02*
X0022760Y0057799D01*
X0034177Y0040476D02*
X0034184Y0040264D01*
X0034186Y0040052D01*
X0034182Y0039840D01*
X0034174Y0039628D01*
X0034160Y0039416D01*
X0034141Y0039205D01*
X0034116Y0038994D01*
X0034087Y0038784D01*
X0034052Y0038574D01*
X0034013Y0038366D01*
X0033968Y0038159D01*
X0033918Y0037952D01*
X0033863Y0037747D01*
X0033803Y0037544D01*
X0033739Y0037342D01*
X0033669Y0037141D01*
X0033594Y0036943D01*
X0033515Y0036746D01*
X0033431Y0036551D01*
X0033342Y0036359D01*
X0033248Y0036168D01*
X0033150Y0035980D01*
X0033047Y0035795D01*
X0032939Y0035612D01*
X0032827Y0035431D01*
X0032711Y0035254D01*
X0032591Y0035079D01*
X0032466Y0034908D01*
X0032337Y0034739D01*
X0032204Y0034574D01*
X0032067Y0034412D01*
X0031926Y0034253D01*
X0031781Y0034098D01*
X0031633Y0033947D01*
X0031481Y0033799D01*
X0031325Y0033655D01*
X0031166Y0033514D01*
X0031003Y0033378D01*
X0030837Y0033246D01*
X0030668Y0033118D01*
X0030496Y0032994D01*
X0030321Y0032874D01*
X0030143Y0032759D01*
X0029962Y0032648D01*
X0029778Y0032541D01*
X0029592Y0032439D01*
X0029404Y0032342D01*
X0029213Y0032249D01*
X0029020Y0032161D01*
X0028825Y0032077D01*
X0028628Y0031999D01*
X0028429Y0031925D01*
X0028228Y0031856D01*
X0028026Y0031792D01*
X0027822Y0031733D01*
X0027617Y0031679D01*
X0027410Y0031630D01*
X0027203Y0031587D01*
X0026994Y0031548D01*
X0026785Y0031514D01*
X0026574Y0031486D01*
X0026363Y0031463D01*
X0026152Y0031444D01*
X0025940Y0031431D01*
X0025728Y0031424D01*
X0025516Y0031421D01*
X0021579Y0029846D01*
X0012130Y0032209D01*
X0012130Y0024335D02*
X0025122Y0025516D01*
X0021972Y0035752D02*
X0030240Y0038114D01*
X0049531Y0025122D02*
X0049907Y0025127D01*
X0050284Y0025140D01*
X0050659Y0025163D01*
X0051034Y0025195D01*
X0051408Y0025236D01*
X0051781Y0025287D01*
X0052153Y0025346D01*
X0052523Y0025414D01*
X0052892Y0025492D01*
X0053258Y0025578D01*
X0053622Y0025673D01*
X0053984Y0025777D01*
X0054343Y0025890D01*
X0054699Y0026012D01*
X0055052Y0026142D01*
X0055402Y0026281D01*
X0055749Y0026428D01*
X0056091Y0026584D01*
X0056430Y0026748D01*
X0056765Y0026920D01*
X0057095Y0027100D01*
X0057421Y0027288D01*
X0057743Y0027484D01*
X0058059Y0027688D01*
X0058370Y0027900D01*
X0058676Y0028119D01*
X0058977Y0028345D01*
X0059272Y0028579D01*
X0059561Y0028820D01*
X0059845Y0029068D01*
X0060122Y0029322D01*
X0060393Y0029583D01*
X0060657Y0029851D01*
X0060915Y0030125D01*
X0061166Y0030406D01*
X0061411Y0030692D01*
X0061648Y0030985D01*
X0061878Y0031282D01*
X0062101Y0031586D01*
X0062316Y0031895D01*
X0062523Y0032209D01*
X0064886Y0035358D02*
X0076697Y0032209D01*
X0076696Y0024335D02*
X0076774Y0024207D01*
X0076856Y0024080D01*
X0076940Y0023956D01*
X0077028Y0023835D01*
X0077119Y0023715D01*
X0077213Y0023598D01*
X0077310Y0023484D01*
X0077410Y0023372D01*
X0077514Y0023263D01*
X0077619Y0023156D01*
X0077728Y0023053D01*
X0077839Y0022952D01*
X0077953Y0022854D01*
X0078070Y0022759D01*
X0078189Y0022668D01*
X0078310Y0022579D01*
X0078433Y0022494D01*
X0078559Y0022412D01*
X0078687Y0022333D01*
X0078817Y0022258D01*
X0078949Y0022186D01*
X0079082Y0022117D01*
X0079218Y0022053D01*
X0079355Y0021991D01*
X0079493Y0021934D01*
X0079633Y0021880D01*
X0079775Y0021829D01*
X0079918Y0021783D01*
X0080062Y0021740D01*
X0080206Y0021701D01*
X0080352Y0021666D01*
X0080499Y0021635D01*
X0080647Y0021607D01*
X0080795Y0021584D01*
X0080944Y0021564D01*
X0081093Y0021548D01*
X0081243Y0021536D01*
X0081393Y0021528D01*
X0081543Y0021524D01*
X0081693Y0021524D01*
X0081843Y0021528D01*
X0081993Y0021536D01*
X0082143Y0021548D01*
X0082292Y0021564D01*
X0082441Y0021584D01*
X0082589Y0021607D01*
X0082737Y0021635D01*
X0082884Y0021666D01*
X0083030Y0021701D01*
X0083174Y0021740D01*
X0083318Y0021783D01*
X0083461Y0021829D01*
X0083603Y0021880D01*
X0083743Y0021934D01*
X0083881Y0021991D01*
X0084018Y0022053D01*
X0084154Y0022117D01*
X0084287Y0022186D01*
X0084419Y0022258D01*
X0084549Y0022333D01*
X0084677Y0022412D01*
X0084803Y0022494D01*
X0084926Y0022579D01*
X0085047Y0022668D01*
X0085166Y0022759D01*
X0085283Y0022854D01*
X0085397Y0022952D01*
X0085508Y0023053D01*
X0085617Y0023156D01*
X0085722Y0023263D01*
X0085826Y0023372D01*
X0085926Y0023484D01*
X0086023Y0023598D01*
X0086117Y0023715D01*
X0086208Y0023835D01*
X0086296Y0023956D01*
X0086380Y0024080D01*
X0086462Y0024207D01*
X0086540Y0024335D01*
X0088114Y0010949D02*
X0087847Y0010864D01*
X0087578Y0010785D01*
X0087308Y0010713D01*
X0087035Y0010648D01*
X0086761Y0010589D01*
X0086486Y0010536D01*
X0086210Y0010491D01*
X0085932Y0010452D01*
X0085654Y0010420D01*
X0085375Y0010394D01*
X0085095Y0010375D01*
X0084815Y0010363D01*
X0084535Y0010358D01*
X0084255Y0010360D01*
X0083975Y0010368D01*
X0083695Y0010383D01*
X0083415Y0010405D01*
X0083137Y0010434D01*
X0082859Y0010469D01*
X0082582Y0010511D01*
X0082306Y0010560D01*
X0082031Y0010615D01*
X0081758Y0010677D01*
X0081486Y0010746D01*
X0081216Y0010821D01*
X0080948Y0010903D01*
X0080682Y0010991D01*
X0080418Y0011085D01*
X0080157Y0011186D01*
X0079898Y0011293D01*
X0079641Y0011407D01*
X0079388Y0011526D01*
X0079138Y0011652D01*
X0078890Y0011784D01*
X0078646Y0011921D01*
X0078405Y0012065D01*
X0078168Y0012214D01*
X0077935Y0012369D01*
X0077705Y0012529D01*
X0077479Y0012695D01*
X0077257Y0012867D01*
X0077040Y0013043D01*
X0076827Y0013225D01*
X0076618Y0013412D01*
X0076414Y0013604D01*
X0076215Y0013801D01*
X0076020Y0014003D01*
X0075830Y0014209D01*
X0075646Y0014420D01*
X0075466Y0014635D01*
X0075292Y0014855D01*
X0075123Y0015078D01*
X0074960Y0015306D01*
X0074802Y0015538D01*
X0074650Y0015773D01*
X0074503Y0016012D01*
X0074363Y0016254D01*
X0074228Y0016500D01*
X0074099Y0016749D01*
X0073976Y0017001D01*
X0073860Y0017255D01*
X0073749Y0017513D01*
X0073645Y0017773D01*
X0073547Y0018036D01*
X0076697Y0024335D02*
X0064886Y0025516D01*
X0049531Y0016067D02*
X0049925Y0009374D01*
X0049924Y0009374D02*
X0049932Y0009274D01*
X0049944Y0009175D01*
X0049959Y0009077D01*
X0049978Y0008979D01*
X0050001Y0008883D01*
X0050028Y0008787D01*
X0050058Y0008692D01*
X0050092Y0008598D01*
X0050130Y0008506D01*
X0050171Y0008415D01*
X0050215Y0008326D01*
X0050263Y0008239D01*
X0050315Y0008154D01*
X0050369Y0008071D01*
X0050427Y0007989D01*
X0050488Y0007911D01*
X0050552Y0007834D01*
X0050618Y0007760D01*
X0050688Y0007689D01*
X0050760Y0007620D01*
X0050835Y0007555D01*
X0050912Y0007492D01*
X0050992Y0007432D01*
X0051074Y0007376D01*
X0051158Y0007322D01*
X0051244Y0007272D01*
X0051331Y0007225D01*
X0051421Y0007182D01*
X0051512Y0007142D01*
X0051605Y0007106D01*
X0051699Y0007073D01*
X0051794Y0007044D01*
X0051891Y0007019D01*
X0051988Y0006997D01*
X0052086Y0006979D01*
X0052184Y0006965D01*
X0052283Y0006955D01*
X0052383Y0006949D01*
X0052482Y0006946D01*
X0052582Y0006947D01*
X0052681Y0006952D01*
X0052780Y0006961D01*
X0052879Y0006974D01*
X0052977Y0006991D01*
X0053074Y0007011D01*
X0053075Y0007012D02*
X0144807Y0008193D01*
X0147170Y0011736D02*
X0146577Y0011863D01*
X0145982Y0011976D01*
X0145384Y0012075D01*
X0144784Y0012160D01*
X0144183Y0012231D01*
X0143579Y0012288D01*
X0142975Y0012331D01*
X0142370Y0012359D01*
X0141764Y0012373D01*
X0141158Y0012373D01*
X0140552Y0012359D01*
X0139947Y0012331D01*
X0139343Y0012288D01*
X0138739Y0012231D01*
X0138138Y0012160D01*
X0137538Y0012075D01*
X0136940Y0011976D01*
X0136345Y0011863D01*
X0135752Y0011736D01*
X0142445Y0020791D02*
X0142438Y0021054D01*
X0142424Y0021316D01*
X0142405Y0021578D01*
X0142379Y0021839D01*
X0142346Y0022100D01*
X0142308Y0022360D01*
X0142263Y0022619D01*
X0142212Y0022876D01*
X0142155Y0023133D01*
X0142091Y0023388D01*
X0142022Y0023641D01*
X0141946Y0023892D01*
X0141864Y0024142D01*
X0141776Y0024390D01*
X0141683Y0024635D01*
X0141583Y0024878D01*
X0141478Y0025119D01*
X0141367Y0025357D01*
X0141250Y0025592D01*
X0141127Y0025824D01*
X0140999Y0026054D01*
X0140865Y0026280D01*
X0140726Y0026503D01*
X0140582Y0026722D01*
X0140432Y0026938D01*
X0140278Y0027150D01*
X0140118Y0027359D01*
X0139953Y0027563D01*
X0139783Y0027764D01*
X0139609Y0027960D01*
X0139429Y0028152D01*
X0139246Y0028340D01*
X0139057Y0028523D01*
X0138865Y0028702D01*
X0138668Y0028876D01*
X0138467Y0029045D01*
X0138262Y0029209D01*
X0138053Y0029368D01*
X0137840Y0029522D01*
X0137624Y0029671D01*
X0137404Y0029815D01*
X0137181Y0029953D01*
X0136954Y0030086D01*
X0136724Y0030213D01*
X0136491Y0030335D01*
X0136256Y0030451D01*
X0136018Y0030562D01*
X0135777Y0030667D01*
X0135533Y0030765D01*
X0135287Y0030858D01*
X0135040Y0030945D01*
X0134790Y0031026D01*
X0134538Y0031101D01*
X0134284Y0031170D01*
X0134029Y0031232D01*
X0133773Y0031289D01*
X0133515Y0031339D01*
X0133256Y0031383D01*
X0132996Y0031421D01*
X0139296Y0015280D02*
X0139594Y0015156D01*
X0139895Y0015040D01*
X0140198Y0014931D01*
X0140505Y0014829D01*
X0140813Y0014735D01*
X0141124Y0014648D01*
X0141437Y0014569D01*
X0141751Y0014497D01*
X0142068Y0014434D01*
X0142385Y0014377D01*
X0142704Y0014329D01*
X0143025Y0014288D01*
X0143346Y0014255D01*
X0143667Y0014230D01*
X0143989Y0014213D01*
X0144312Y0014204D01*
X0144635Y0014202D01*
X0144957Y0014209D01*
X0145280Y0014223D01*
X0145602Y0014245D01*
X0145923Y0014275D01*
X0146243Y0014312D01*
X0146563Y0014358D01*
X0146881Y0014411D01*
X0147198Y0014472D01*
X0147513Y0014540D01*
X0147827Y0014616D01*
X0148138Y0014700D01*
X0148448Y0014792D01*
X0148755Y0014890D01*
X0149060Y0014997D01*
X0149362Y0015110D01*
X0149661Y0015231D01*
X0149957Y0015360D01*
X0150250Y0015495D01*
X0150539Y0015637D01*
X0150825Y0015787D01*
X0151108Y0015943D01*
X0151386Y0016106D01*
X0151660Y0016276D01*
X0151931Y0016453D01*
X0152196Y0016636D01*
X0152458Y0016825D01*
X0152714Y0017021D01*
X0152966Y0017223D01*
X0153213Y0017431D01*
X0153454Y0017644D01*
X0153691Y0017864D01*
X0153921Y0018090D01*
X0154147Y0018320D01*
X0154366Y0018557D01*
X0154580Y0018798D01*
X0154788Y0019045D01*
X0154990Y0019297D01*
X0155186Y0019553D01*
X0155375Y0019815D01*
X0155558Y0020080D01*
X0155735Y0020351D01*
X0155905Y0020625D01*
X0156068Y0020903D01*
X0156224Y0021186D01*
X0156225Y0021185D02*
X0156276Y0021275D01*
X0156330Y0021364D01*
X0156388Y0021450D01*
X0156449Y0021535D01*
X0156513Y0021616D01*
X0156580Y0021696D01*
X0156650Y0021773D01*
X0156723Y0021847D01*
X0156799Y0021918D01*
X0156877Y0021986D01*
X0156958Y0022052D01*
X0157041Y0022114D01*
X0157127Y0022173D01*
X0157214Y0022229D01*
X0157304Y0022281D01*
X0157396Y0022330D01*
X0157489Y0022375D01*
X0157584Y0022417D01*
X0157681Y0022456D01*
X0157779Y0022490D01*
X0157878Y0022521D01*
X0157979Y0022548D01*
X0158080Y0022571D01*
X0158182Y0022591D01*
X0158285Y0022606D01*
X0158388Y0022618D01*
X0158492Y0022626D01*
X0158596Y0022630D01*
X0158700Y0022629D01*
X0158803Y0022625D01*
X0158907Y0022617D01*
X0159010Y0022605D01*
X0159113Y0022590D01*
X0159215Y0022570D01*
X0159316Y0022546D01*
X0159417Y0022519D01*
X0159516Y0022488D01*
X0159614Y0022453D01*
X0159710Y0022415D01*
X0159805Y0022372D01*
X0159899Y0022327D01*
X0159990Y0022278D01*
X0160080Y0022225D01*
X0160167Y0022169D01*
X0160253Y0022110D01*
X0160336Y0022047D01*
X0160416Y0021982D01*
X0160495Y0021913D01*
X0160570Y0021842D01*
X0160643Y0021767D01*
X0160713Y0021690D01*
X0160780Y0021611D01*
X0160843Y0021529D01*
X0160904Y0021444D01*
X0160961Y0021358D01*
X0161016Y0021269D01*
X0161066Y0021178D01*
X0161114Y0021086D01*
X0161157Y0020992D01*
X0161198Y0020896D01*
X0161234Y0020798D01*
X0161267Y0020700D01*
X0161296Y0020600D01*
X0161321Y0020499D01*
X0161342Y0020397D01*
X0192051Y0012917D02*
X0192254Y0012973D01*
X0192456Y0013035D01*
X0192656Y0013101D01*
X0192854Y0013171D01*
X0193050Y0013247D01*
X0193245Y0013327D01*
X0193437Y0013412D01*
X0193628Y0013502D01*
X0193816Y0013596D01*
X0194002Y0013695D01*
X0194186Y0013799D01*
X0194367Y0013906D01*
X0194545Y0014018D01*
X0194720Y0014135D01*
X0194893Y0014255D01*
X0195063Y0014380D01*
X0195229Y0014509D01*
X0195392Y0014641D01*
X0195553Y0014778D01*
X0195709Y0014919D01*
X0195863Y0015063D01*
X0196012Y0015211D01*
X0196159Y0015363D01*
X0196301Y0015518D01*
X0196440Y0015676D01*
X0196574Y0015838D01*
X0196705Y0016003D01*
X0196832Y0016171D01*
X0196955Y0016342D01*
X0197073Y0016516D01*
X0197187Y0016693D01*
X0197297Y0016873D01*
X0197403Y0017055D01*
X0197504Y0017240D01*
X0197600Y0017427D01*
X0197692Y0017616D01*
X0197780Y0017808D01*
X0197862Y0018001D01*
X0197940Y0018197D01*
X0198014Y0018394D01*
X0198082Y0018593D01*
X0198146Y0018794D01*
X0198204Y0018996D01*
X0198258Y0019200D01*
X0198307Y0019405D01*
X0198351Y0019610D01*
X0198350Y0019610D02*
X0198412Y0019902D01*
X0198481Y0020193D01*
X0198558Y0020481D01*
X0198641Y0020768D01*
X0198732Y0021053D01*
X0198829Y0021335D01*
X0198933Y0021615D01*
X0199044Y0021892D01*
X0199161Y0022167D01*
X0199285Y0022438D01*
X0199416Y0022707D01*
X0199554Y0022972D01*
X0199697Y0023234D01*
X0199847Y0023492D01*
X0200004Y0023746D01*
X0200166Y0023997D01*
X0200334Y0024244D01*
X0200509Y0024486D01*
X0200689Y0024724D01*
X0200875Y0024958D01*
X0201067Y0025187D01*
X0201264Y0025411D01*
X0201467Y0025630D01*
X0201674Y0025845D01*
X0201887Y0026054D01*
X0202105Y0026258D01*
X0202328Y0026457D01*
X0202556Y0026650D01*
X0202789Y0026837D01*
X0203025Y0027019D01*
X0203267Y0027195D01*
X0203512Y0027365D01*
X0203761Y0027530D01*
X0204015Y0027688D01*
X0204272Y0027839D01*
X0204533Y0027985D01*
X0204797Y0028124D01*
X0205065Y0028256D01*
X0205335Y0028382D01*
X0205609Y0028502D01*
X0205886Y0028614D01*
X0206165Y0028720D01*
X0206447Y0028820D01*
X0206731Y0028912D01*
X0207017Y0028997D01*
X0207305Y0029075D01*
X0207595Y0029147D01*
X0207887Y0029211D01*
X0208180Y0029268D01*
X0208474Y0029318D01*
X0208770Y0029360D01*
X0209066Y0029396D01*
X0209363Y0029424D01*
X0209661Y0029445D01*
X0209960Y0029459D01*
X0210258Y0029465D01*
X0210557Y0029465D01*
X0210855Y0029457D01*
X0211154Y0029441D01*
X0211451Y0029419D01*
X0211748Y0029389D01*
X0212045Y0029352D01*
X0212340Y0029308D01*
X0212634Y0029256D01*
X0212927Y0029198D01*
X0213218Y0029132D01*
X0213508Y0029059D01*
X0206687Y0043744D02*
X0206709Y0048744D01*
X0213705Y0054974D02*
X0213705Y0064492D01*
X0213614Y0064492D01*
X0034177Y0083784D02*
X0033695Y0079471D01*
X0033317Y0075149D01*
X0033044Y0070818D01*
X0032875Y0066483D01*
X0032811Y0062144D01*
X0032851Y0057805D01*
X0032996Y0053469D01*
X0051106Y0042444D02*
X0051478Y0042208D01*
X0051856Y0041981D01*
X0052239Y0041764D01*
X0052628Y0041556D01*
X0053021Y0041358D01*
X0053419Y0041169D01*
X0053822Y0040990D01*
X0054229Y0040821D01*
X0054640Y0040662D01*
X0055055Y0040513D01*
X0055473Y0040375D01*
X0055894Y0040246D01*
X0056319Y0040128D01*
X0056746Y0040021D01*
X0057176Y0039924D01*
X0057608Y0039837D01*
X0058042Y0039761D01*
X0058478Y0039696D01*
X0058915Y0039641D01*
X0059354Y0039598D01*
X0059793Y0039565D01*
X0060233Y0039542D01*
X0060674Y0039531D01*
X0061115Y0039530D01*
X0061555Y0039540D01*
X0061995Y0039561D01*
X0062435Y0039593D01*
X0062873Y0039635D01*
X0063311Y0039688D01*
X0069217Y0040083D02*
X0076697Y0040083D01*
X0069217Y0047957D02*
X0069046Y0047955D01*
X0068875Y0047949D01*
X0068704Y0047938D01*
X0068533Y0047924D01*
X0068363Y0047905D01*
X0068193Y0047883D01*
X0068024Y0047856D01*
X0067856Y0047825D01*
X0067688Y0047791D01*
X0067521Y0047752D01*
X0067356Y0047709D01*
X0067191Y0047662D01*
X0067027Y0047611D01*
X0066865Y0047556D01*
X0066704Y0047498D01*
X0066545Y0047435D01*
X0066387Y0047369D01*
X0066231Y0047299D01*
X0066076Y0047225D01*
X0065924Y0047147D01*
X0065773Y0047066D01*
X0065624Y0046981D01*
X0065478Y0046893D01*
X0065333Y0046801D01*
X0065191Y0046706D01*
X0065051Y0046607D01*
X0064914Y0046505D01*
X0064779Y0046400D01*
X0064646Y0046291D01*
X0064517Y0046179D01*
X0064390Y0046065D01*
X0064266Y0045947D01*
X0064144Y0045826D01*
X0064026Y0045702D01*
X0063911Y0045576D01*
X0063798Y0045446D01*
X0063689Y0045314D01*
X0063583Y0045180D01*
X0063481Y0045043D01*
X0063381Y0044903D01*
X0063285Y0044762D01*
X0063193Y0044617D01*
X0063104Y0044471D01*
X0063019Y0044323D01*
X0062937Y0044172D01*
X0062859Y0044020D01*
X0062784Y0043866D01*
X0062713Y0043710D01*
X0062647Y0043552D01*
X0062583Y0043393D01*
X0062524Y0043233D01*
X0069217Y0047957D02*
X0076697Y0047957D01*
X0096472Y0048744D02*
X0099207Y0043350D01*
X0103378Y0048744D02*
X0103469Y0048744D01*
X0103469Y0052269D01*
X0099531Y0052269D01*
X0098350Y0055437D02*
X0103378Y0055437D01*
X0103378Y0064492D01*
X0103378Y0069366D02*
X0097957Y0069366D01*
X0086932Y0058193D02*
X0087267Y0057858D01*
X0087610Y0057530D01*
X0087961Y0057211D01*
X0088319Y0056900D01*
X0088685Y0056598D01*
X0089057Y0056305D01*
X0089437Y0056020D01*
X0089823Y0055745D01*
X0090216Y0055480D01*
X0090614Y0055223D01*
X0091019Y0054977D01*
X0091430Y0054740D01*
X0091846Y0054513D01*
X0092268Y0054296D01*
X0092695Y0054089D01*
X0093126Y0053892D01*
X0093562Y0053706D01*
X0094002Y0053530D01*
X0094447Y0053365D01*
X0094895Y0053210D01*
X0095347Y0053067D01*
X0095802Y0052934D01*
X0096260Y0052812D01*
X0096721Y0052701D01*
X0097185Y0052601D01*
X0097651Y0052512D01*
X0098118Y0052434D01*
X0098588Y0052368D01*
X0099059Y0052313D01*
X0099531Y0052269D01*
X0103469Y0052269D02*
X0119217Y0052269D01*
X0119217Y0048744D01*
X0119126Y0048744D01*
X0117248Y0042050D02*
X0117113Y0042025D01*
X0116978Y0042003D01*
X0116842Y0041986D01*
X0116705Y0041972D01*
X0116569Y0041963D01*
X0116432Y0041957D01*
X0116294Y0041955D01*
X0116157Y0041957D01*
X0116020Y0041963D01*
X0115883Y0041974D01*
X0115747Y0041988D01*
X0115611Y0042006D01*
X0115476Y0042028D01*
X0115341Y0042053D01*
X0115207Y0042083D01*
X0115074Y0042117D01*
X0114942Y0042154D01*
X0114811Y0042195D01*
X0114682Y0042240D01*
X0114553Y0042289D01*
X0114427Y0042342D01*
X0114302Y0042398D01*
X0114178Y0042457D01*
X0114056Y0042521D01*
X0113936Y0042587D01*
X0113819Y0042657D01*
X0113703Y0042731D01*
X0113589Y0042808D01*
X0113478Y0042888D01*
X0113369Y0042971D01*
X0113262Y0043058D01*
X0113158Y0043147D01*
X0113057Y0043240D01*
X0112958Y0043335D01*
X0112863Y0043433D01*
X0112770Y0043534D01*
X0112680Y0043637D01*
X0112593Y0043743D01*
X0112593Y0043744D02*
X0112220Y0048744D01*
X0119217Y0052269D02*
X0134965Y0052269D01*
X0134965Y0055437D02*
X0134965Y0064492D01*
X0134874Y0064492D01*
X0134965Y0069366D02*
X0134965Y0080240D01*
X0134874Y0080240D01*
X0134965Y0084920D02*
X0134965Y0095988D01*
X0134874Y0095988D01*
X0134965Y0100456D02*
X0134965Y0111736D01*
X0134874Y0111736D01*
X0134965Y0116410D02*
X0134965Y0127484D01*
X0134874Y0127484D01*
X0134965Y0132565D02*
X0134965Y0143232D01*
X0134874Y0143232D01*
X0127969Y0143232D02*
X0128341Y0138232D01*
X0134965Y0132565D02*
X0119217Y0132565D01*
X0103378Y0132565D01*
X0098350Y0132565D01*
X0103378Y0132565D02*
X0103378Y0143232D01*
X0103469Y0148119D02*
X0089689Y0150319D01*
X0096472Y0143232D02*
X0096451Y0138232D01*
X0089689Y0150318D02*
X0089246Y0150313D01*
X0088803Y0150297D01*
X0088361Y0150270D01*
X0087919Y0150233D01*
X0087479Y0150185D01*
X0087039Y0150126D01*
X0086602Y0150057D01*
X0086166Y0149977D01*
X0085732Y0149887D01*
X0085300Y0149787D01*
X0084871Y0149676D01*
X0084445Y0149555D01*
X0084022Y0149423D01*
X0083602Y0149282D01*
X0083186Y0149130D01*
X0082773Y0148968D01*
X0082365Y0148797D01*
X0081960Y0148615D01*
X0081561Y0148424D01*
X0081166Y0148224D01*
X0080775Y0148014D01*
X0080390Y0147794D01*
X0080011Y0147565D01*
X0079637Y0147328D01*
X0079269Y0147081D01*
X0078907Y0146826D01*
X0078551Y0146562D01*
X0078202Y0146289D01*
X0077859Y0146008D01*
X0077523Y0145719D01*
X0077194Y0145422D01*
X0076873Y0145117D01*
X0076559Y0144804D01*
X0076252Y0144484D01*
X0075954Y0144157D01*
X0075663Y0143822D01*
X0075380Y0143481D01*
X0075106Y0143133D01*
X0074841Y0142778D01*
X0074583Y0142417D01*
X0074335Y0142050D01*
X0067788Y0147750D02*
X0084177Y0159965D01*
X0073154Y0157405D02*
X0073199Y0157530D01*
X0073241Y0157657D01*
X0073279Y0157784D01*
X0073312Y0157913D01*
X0073343Y0158042D01*
X0073369Y0158173D01*
X0073391Y0158304D01*
X0073410Y0158436D01*
X0073424Y0158568D01*
X0073435Y0158700D01*
X0073441Y0158833D01*
X0073444Y0158966D01*
X0073443Y0159099D01*
X0073437Y0159232D01*
X0073428Y0159364D01*
X0073415Y0159497D01*
X0073398Y0159629D01*
X0073377Y0159760D01*
X0073352Y0159891D01*
X0073324Y0160020D01*
X0073291Y0160149D01*
X0073255Y0160277D01*
X0073215Y0160404D01*
X0073171Y0160530D01*
X0073123Y0160654D01*
X0073072Y0160776D01*
X0073017Y0160898D01*
X0072959Y0161017D01*
X0072897Y0161135D01*
X0072831Y0161250D01*
X0072762Y0161364D01*
X0072690Y0161476D01*
X0072615Y0161585D01*
X0072536Y0161692D01*
X0072454Y0161797D01*
X0072369Y0161900D01*
X0072281Y0161999D01*
X0072191Y0162096D01*
X0072097Y0162191D01*
X0072000Y0162282D01*
X0071901Y0162371D01*
X0071800Y0162457D01*
X0071695Y0162539D01*
X0071589Y0162619D01*
X0071480Y0162695D01*
X0071369Y0162768D01*
X0071255Y0162837D01*
X0071140Y0162904D01*
X0071023Y0162966D01*
X0070904Y0163026D01*
X0070783Y0163081D01*
X0070661Y0163134D01*
X0070537Y0163182D01*
X0070412Y0163227D01*
X0070285Y0163268D01*
X0070157Y0163305D01*
X0070029Y0163338D01*
X0069899Y0163368D01*
X0069769Y0163394D01*
X0069638Y0163416D01*
X0069506Y0163434D01*
X0069374Y0163448D01*
X0069241Y0163458D01*
X0069108Y0163464D01*
X0068975Y0163466D01*
X0068842Y0163464D01*
X0068709Y0163459D01*
X0068577Y0163449D01*
X0068444Y0163435D01*
X0068313Y0163418D01*
X0068181Y0163396D01*
X0068051Y0163371D01*
X0067921Y0163342D01*
X0067792Y0163309D01*
X0067665Y0163272D01*
X0067538Y0163231D01*
X0067413Y0163187D01*
X0067289Y0163139D01*
X0067166Y0163087D01*
X0067045Y0163032D01*
X0066926Y0162973D01*
X0066809Y0162911D01*
X0066693Y0162845D01*
X0066580Y0162775D01*
X0066468Y0162703D01*
X0066359Y0162627D01*
X0066252Y0162548D01*
X0066148Y0162466D01*
X0066046Y0162380D01*
X0065946Y0162292D01*
X0065849Y0162201D01*
X0065755Y0162107D01*
X0065664Y0162010D01*
X0065576Y0161910D01*
X0065491Y0161808D01*
X0065409Y0161704D01*
X0065330Y0161597D01*
X0065254Y0161488D01*
X0065181Y0161376D01*
X0065112Y0161263D01*
X0065046Y0161147D01*
X0064984Y0161030D01*
X0064925Y0160911D01*
X0064870Y0160790D01*
X0064818Y0160667D01*
X0064770Y0160543D01*
X0064726Y0160418D01*
X0064685Y0160291D01*
X0064648Y0160163D01*
X0064616Y0160034D01*
X0064586Y0159905D01*
X0064561Y0159774D01*
X0064540Y0159643D01*
X0064522Y0159511D01*
X0064509Y0159379D01*
X0064499Y0159246D01*
X0064494Y0159113D01*
X0064492Y0158980D01*
X0090476Y0131421D02*
X0089998Y0130893D01*
X0089507Y0130377D01*
X0089004Y0129872D01*
X0088490Y0129379D01*
X0087965Y0128898D01*
X0087428Y0128430D01*
X0086881Y0127974D01*
X0086324Y0127531D01*
X0085756Y0127101D01*
X0085178Y0126684D01*
X0084591Y0126280D01*
X0083995Y0125891D01*
X0083390Y0125515D01*
X0084177Y0134374D02*
X0065536Y0140377D01*
X0061197Y0146588D02*
X0050319Y0129059D01*
X0043232Y0127485D02*
X0043177Y0127291D01*
X0043126Y0127096D01*
X0043079Y0126900D01*
X0043038Y0126703D01*
X0043001Y0126504D01*
X0042969Y0126305D01*
X0042941Y0126106D01*
X0042919Y0125905D01*
X0042901Y0125705D01*
X0042888Y0125503D01*
X0042880Y0125302D01*
X0042876Y0125101D01*
X0042877Y0124899D01*
X0042884Y0124698D01*
X0042895Y0124496D01*
X0042911Y0124295D01*
X0042931Y0124095D01*
X0042956Y0123895D01*
X0042987Y0123696D01*
X0043022Y0123497D01*
X0043061Y0123299D01*
X0043105Y0123103D01*
X0043154Y0122907D01*
X0043208Y0122713D01*
X0043266Y0122520D01*
X0043329Y0122328D01*
X0043397Y0122139D01*
X0043469Y0121950D01*
X0043545Y0121764D01*
X0043626Y0121579D01*
X0043232Y0127484D02*
X0052681Y0158980D01*
X0040870Y0158980D02*
X0040870Y0132602D01*
X0066854Y0125122D02*
X0084177Y0134374D01*
X0096472Y0127484D02*
X0096451Y0122484D01*
X0098351Y0132565D02*
X0098125Y0132627D01*
X0097897Y0132683D01*
X0097669Y0132734D01*
X0097439Y0132779D01*
X0097208Y0132818D01*
X0096976Y0132852D01*
X0096744Y0132881D01*
X0096511Y0132904D01*
X0096277Y0132921D01*
X0096043Y0132932D01*
X0095809Y0132938D01*
X0095574Y0132938D01*
X0095340Y0132933D01*
X0095106Y0132922D01*
X0094873Y0132905D01*
X0094639Y0132883D01*
X0094407Y0132855D01*
X0094175Y0132821D01*
X0093944Y0132782D01*
X0093714Y0132737D01*
X0093485Y0132686D01*
X0093258Y0132631D01*
X0093032Y0132569D01*
X0092807Y0132502D01*
X0092584Y0132430D01*
X0092363Y0132353D01*
X0092144Y0132270D01*
X0091927Y0132182D01*
X0091712Y0132088D01*
X0091500Y0131990D01*
X0091290Y0131886D01*
X0091082Y0131777D01*
X0090878Y0131664D01*
X0090675Y0131545D01*
X0090476Y0131422D01*
X0103378Y0116410D02*
X0119217Y0116410D01*
X0134965Y0116410D01*
X0150713Y0116410D01*
X0150713Y0127484D01*
X0150622Y0127484D01*
X0150713Y0132565D02*
X0150713Y0143232D01*
X0150622Y0143232D01*
X0143717Y0143232D02*
X0143695Y0138232D01*
X0150713Y0132565D02*
X0134965Y0132565D01*
X0127969Y0127484D02*
X0128341Y0122484D01*
X0127969Y0111736D02*
X0128341Y0106736D01*
X0134965Y0100456D02*
X0150713Y0100456D01*
X0150713Y0111736D01*
X0150622Y0111736D01*
X0150713Y0116410D02*
X0166461Y0116410D01*
X0166461Y0127484D01*
X0166370Y0127484D01*
X0166461Y0132565D02*
X0166461Y0143232D01*
X0166370Y0143232D01*
X0159465Y0143232D02*
X0159443Y0138232D01*
X0166461Y0132565D02*
X0150713Y0132565D01*
X0143717Y0127484D02*
X0143695Y0122484D01*
X0143717Y0111736D02*
X0143695Y0106736D01*
X0150713Y0100456D02*
X0166461Y0100456D01*
X0166461Y0111736D01*
X0166370Y0111736D01*
X0166461Y0116410D02*
X0182209Y0116410D01*
X0182209Y0127484D01*
X0182118Y0127484D01*
X0182209Y0132565D02*
X0182209Y0143232D01*
X0182118Y0143232D01*
X0175213Y0143232D02*
X0175191Y0138232D01*
X0182209Y0132565D02*
X0166461Y0132565D01*
X0159465Y0127484D02*
X0159443Y0122484D01*
X0159465Y0111736D02*
X0159443Y0106736D01*
X0147169Y0011736D02*
X0149389Y0011280D01*
X0151620Y0010879D01*
X0153860Y0010531D01*
X0156107Y0010237D01*
X0158361Y0009997D01*
X0160620Y0009811D01*
X0162883Y0009680D01*
X0165148Y0009603D01*
X0167415Y0009581D01*
X0169681Y0009614D01*
X0171946Y0009700D01*
X0174209Y0009842D01*
X0176467Y0010038D01*
X0178719Y0010288D01*
X0180966Y0010592D01*
X0183204Y0010950D01*
X0185433Y0011362D01*
X0187651Y0011827D01*
X0189858Y0012345D01*
X0192051Y0012917D01*
X0190939Y0043744D02*
X0190961Y0048744D01*
X0197957Y0054974D02*
X0182209Y0055437D01*
X0182209Y0064492D01*
X0182118Y0064492D01*
X0182209Y0069366D02*
X0182209Y0080240D01*
X0182118Y0080240D01*
X0182209Y0084920D02*
X0182209Y0095988D01*
X0182118Y0095988D01*
X0182209Y0100456D02*
X0182209Y0111736D01*
X0182118Y0111736D01*
X0182209Y0116410D02*
X0197957Y0116410D01*
X0213705Y0116410D01*
X0213705Y0127484D01*
X0213614Y0127484D01*
X0213705Y0132565D02*
X0197957Y0132565D01*
X0182209Y0132565D01*
X0175213Y0127484D02*
X0175191Y0122484D01*
X0175213Y0111736D02*
X0175191Y0106736D01*
X0182209Y0100456D02*
X0197957Y0100456D01*
X0213705Y0100456D01*
X0213705Y0111736D01*
X0213614Y0111736D01*
X0206709Y0111736D02*
X0206687Y0106736D01*
X0206709Y0095988D02*
X0206687Y0090988D01*
X0213614Y0095988D02*
X0213705Y0095988D01*
X0213705Y0084920D01*
X0197957Y0084920D01*
X0182209Y0084920D01*
X0166461Y0084920D01*
X0166461Y0095988D01*
X0166370Y0095988D01*
X0166461Y0100456D02*
X0182209Y0100456D01*
X0175213Y0095988D02*
X0175191Y0090988D01*
X0166461Y0084920D02*
X0150713Y0084920D01*
X0150713Y0095988D01*
X0150622Y0095988D01*
X0143717Y0095988D02*
X0143695Y0090988D01*
X0150713Y0084920D02*
X0134965Y0084920D01*
X0119217Y0084920D01*
X0119217Y0095988D01*
X0119126Y0095988D01*
X0098350Y0055437D02*
X0097472Y0055883D01*
X0096605Y0056350D01*
X0095749Y0056836D01*
X0094904Y0057343D01*
X0094071Y0057869D01*
X0093251Y0058414D01*
X0092444Y0058978D01*
X0091650Y0059561D01*
X0090870Y0060162D01*
X0096472Y0064492D02*
X0098813Y0059492D01*
X0103378Y0055437D02*
X0119217Y0055437D01*
X0119217Y0064492D01*
X0119126Y0064492D01*
X0112523Y0012130D02*
X0113724Y0011851D01*
X0114932Y0011601D01*
X0116144Y0011379D01*
X0117362Y0011185D01*
X0118584Y0011020D01*
X0119809Y0010884D01*
X0121037Y0010776D01*
X0122267Y0010697D01*
X0123499Y0010648D01*
X0124732Y0010627D01*
X0125965Y0010635D01*
X0127197Y0010672D01*
X0128428Y0010738D01*
X0129657Y0010832D01*
X0130884Y0010956D01*
X0132108Y0011108D01*
X0133327Y0011289D01*
X0134542Y0011499D01*
X0135752Y0011736D01*
X0139295Y0015279D02*
X0138317Y0015686D01*
X0137329Y0016069D01*
X0136333Y0016428D01*
X0135328Y0016764D01*
X0134316Y0017075D01*
X0133296Y0017362D01*
X0132270Y0017625D01*
X0131238Y0017863D01*
X0130200Y0018077D01*
X0129158Y0018265D01*
X0128111Y0018429D01*
X0127061Y0018568D01*
X0126008Y0018681D01*
X0124952Y0018769D01*
X0123895Y0018833D01*
X0122836Y0018870D01*
X0121777Y0018883D01*
X0120718Y0018870D01*
X0119659Y0018832D01*
X0118601Y0018769D01*
X0117546Y0018680D01*
X0116493Y0018567D01*
X0115443Y0018428D01*
X0114396Y0018264D01*
X0113354Y0018075D01*
X0112316Y0017862D01*
X0111284Y0017623D01*
X0110258Y0017361D01*
X0109238Y0017073D01*
X0108226Y0016762D01*
X0107221Y0016426D01*
X0106225Y0016066D01*
X0117248Y0042051D02*
X0117644Y0042127D01*
X0118042Y0042193D01*
X0118441Y0042249D01*
X0118841Y0042296D01*
X0119242Y0042333D01*
X0119644Y0042360D01*
X0120047Y0042377D01*
X0120450Y0042385D01*
X0120853Y0042382D01*
X0121256Y0042370D01*
X0121658Y0042349D01*
X0122060Y0042317D01*
X0122460Y0042276D01*
X0122860Y0042225D01*
X0123259Y0042164D01*
X0123655Y0042093D01*
X0124050Y0042013D01*
X0124443Y0041924D01*
X0124834Y0041825D01*
X0125222Y0041716D01*
X0125607Y0041598D01*
X0125990Y0041471D01*
X0126369Y0041334D01*
X0126744Y0041189D01*
X0127116Y0041034D01*
X0127485Y0040870D01*
X0143695Y0043744D02*
X0143717Y0048744D01*
X0150713Y0055437D02*
X0134965Y0055437D01*
X0119217Y0055437D01*
X0112593Y0059492D02*
X0112220Y0064492D01*
X0119217Y0069366D02*
X0119217Y0080240D01*
X0119126Y0080240D01*
X0119217Y0084920D02*
X0103378Y0084920D01*
X0097957Y0069366D02*
X0097507Y0069493D01*
X0097061Y0069631D01*
X0096618Y0069779D01*
X0096178Y0069937D01*
X0095743Y0070106D01*
X0095311Y0070285D01*
X0094884Y0070474D01*
X0094461Y0070674D01*
X0094044Y0070883D01*
X0093631Y0071102D01*
X0093223Y0071331D01*
X0092822Y0071569D01*
X0092425Y0071817D01*
X0092035Y0072074D01*
X0091651Y0072340D01*
X0091274Y0072615D01*
X0090903Y0072900D01*
X0090539Y0073192D01*
X0090182Y0073494D01*
X0089832Y0073803D01*
X0089489Y0074121D01*
X0089154Y0074447D01*
X0088827Y0074781D01*
X0088508Y0075122D01*
X0086933Y0117642D02*
X0087909Y0117687D01*
X0088887Y0117708D01*
X0089864Y0117706D01*
X0090841Y0117681D01*
X0091818Y0117632D01*
X0092793Y0117560D01*
X0093766Y0117465D01*
X0094736Y0117347D01*
X0095704Y0117205D01*
X0096667Y0117041D01*
X0097627Y0116854D01*
X0098582Y0116643D01*
X0099531Y0116411D01*
X0096472Y0111736D02*
X0096451Y0106736D01*
X0096472Y0095988D02*
X0096451Y0090988D01*
X0082602Y0086146D02*
X0082608Y0085953D01*
X0082618Y0085760D01*
X0082633Y0085568D01*
X0082653Y0085376D01*
X0082677Y0085184D01*
X0082706Y0084993D01*
X0082739Y0084803D01*
X0082777Y0084614D01*
X0082820Y0084426D01*
X0082867Y0084239D01*
X0082919Y0084053D01*
X0082975Y0083868D01*
X0083035Y0083685D01*
X0083100Y0083503D01*
X0083169Y0083323D01*
X0083243Y0083145D01*
X0083321Y0082968D01*
X0083403Y0082793D01*
X0083489Y0082621D01*
X0083580Y0082450D01*
X0083674Y0082282D01*
X0083773Y0082116D01*
X0083876Y0081953D01*
X0083982Y0081792D01*
X0084092Y0081633D01*
X0084206Y0081477D01*
X0084324Y0081325D01*
X0084446Y0081175D01*
X0084571Y0081028D01*
X0084645Y0080939D01*
X0084717Y0080849D01*
X0084785Y0080755D01*
X0084850Y0080660D01*
X0084911Y0080562D01*
X0084970Y0080462D01*
X0085025Y0080361D01*
X0085076Y0080257D01*
X0085124Y0080152D01*
X0085168Y0080045D01*
X0085209Y0079937D01*
X0085246Y0079827D01*
X0085279Y0079717D01*
X0085308Y0079605D01*
X0085334Y0079492D01*
X0085355Y0079379D01*
X0085373Y0079265D01*
X0085387Y0079150D01*
X0085397Y0079035D01*
X0085403Y0078919D01*
X0085405Y0078804D01*
X0085403Y0078688D01*
X0085397Y0078573D01*
X0085388Y0078458D01*
X0085374Y0078343D01*
X0085356Y0078229D01*
X0085335Y0078115D01*
X0085310Y0078002D01*
X0085280Y0077890D01*
X0085247Y0077780D01*
X0085211Y0077670D01*
X0085170Y0077562D01*
X0085126Y0077455D01*
X0085079Y0077350D01*
X0085027Y0077246D01*
X0084973Y0077144D01*
X0084914Y0077045D01*
X0084853Y0076947D01*
X0084788Y0076851D01*
X0084720Y0076758D01*
X0084649Y0076667D01*
X0084574Y0076578D01*
X0084497Y0076492D01*
X0084417Y0076409D01*
X0084334Y0076329D01*
X0084248Y0076251D01*
X0084160Y0076176D01*
X0084069Y0076105D01*
X0083976Y0076036D01*
X0083881Y0075971D01*
X0083783Y0075909D01*
X0076697Y0071579D01*
X0086146Y0064886D02*
X0086179Y0064736D01*
X0086217Y0064587D01*
X0086258Y0064440D01*
X0086303Y0064293D01*
X0086352Y0064147D01*
X0086404Y0064003D01*
X0086460Y0063859D01*
X0086520Y0063718D01*
X0086583Y0063578D01*
X0086649Y0063439D01*
X0086719Y0063303D01*
X0086792Y0063168D01*
X0086869Y0063034D01*
X0086949Y0062903D01*
X0087032Y0062774D01*
X0087119Y0062647D01*
X0087208Y0062523D01*
X0087301Y0062400D01*
X0087396Y0062280D01*
X0087495Y0062162D01*
X0087597Y0062047D01*
X0087701Y0061934D01*
X0087808Y0061824D01*
X0087918Y0061717D01*
X0088031Y0061613D01*
X0088146Y0061511D01*
X0088264Y0061412D01*
X0088384Y0061317D01*
X0088507Y0061224D01*
X0088631Y0061135D01*
X0088758Y0061048D01*
X0088887Y0060965D01*
X0089018Y0060885D01*
X0089152Y0060808D01*
X0089287Y0060735D01*
X0089423Y0060665D01*
X0089562Y0060599D01*
X0089702Y0060536D01*
X0089843Y0060476D01*
X0089987Y0060420D01*
X0090131Y0060368D01*
X0090277Y0060319D01*
X0090424Y0060274D01*
X0090571Y0060233D01*
X0090720Y0060195D01*
X0090870Y0060162D01*
X0103378Y0069366D02*
X0103378Y0080240D01*
X0096472Y0080240D02*
X0096451Y0075240D01*
X0103378Y0069366D02*
X0119217Y0069366D01*
X0134965Y0069366D01*
X0150713Y0069366D01*
X0150713Y0080240D01*
X0150622Y0080240D01*
X0143717Y0080240D02*
X0143695Y0075240D01*
X0150713Y0069366D02*
X0166461Y0069366D01*
X0166461Y0080240D01*
X0166370Y0080240D01*
X0159465Y0080240D02*
X0159443Y0075240D01*
X0166461Y0069366D02*
X0182209Y0069366D01*
X0197957Y0069366D01*
X0213705Y0069366D01*
X0213705Y0080240D01*
X0213614Y0080240D01*
X0206709Y0080240D02*
X0206687Y0075240D01*
X0206709Y0064492D02*
X0206687Y0059492D01*
X0190939Y0059492D02*
X0190961Y0064492D01*
X0182209Y0055437D02*
X0166461Y0055437D01*
X0166461Y0064492D01*
X0166370Y0064492D01*
X0159465Y0064492D02*
X0159443Y0059492D01*
X0166461Y0055437D02*
X0150713Y0055437D01*
X0150713Y0064492D01*
X0150622Y0064492D01*
X0143717Y0064492D02*
X0143695Y0059492D01*
X0128735Y0059492D02*
X0127969Y0064492D01*
X0128735Y0075240D02*
X0127969Y0080240D01*
X0128735Y0090988D02*
X0127969Y0095988D01*
X0134965Y0100456D02*
X0119217Y0100456D01*
X0112220Y0095988D02*
X0112593Y0090988D01*
X0112220Y0080240D02*
X0112593Y0075240D01*
X0099207Y0043351D02*
X0099976Y0042947D01*
X0100754Y0042562D01*
X0101541Y0042197D01*
X0102337Y0041850D01*
X0103142Y0041524D01*
X0103953Y0041217D01*
X0104773Y0040930D01*
X0105598Y0040662D01*
X0106431Y0040416D01*
X0107269Y0040189D01*
X0108112Y0039983D01*
X0108960Y0039798D01*
X0109812Y0039633D01*
X0110668Y0039489D01*
X0111527Y0039367D01*
X0112389Y0039265D01*
X0113254Y0039184D01*
X0114120Y0039124D01*
X0114987Y0039086D01*
X0115855Y0039068D01*
X0116723Y0039072D01*
X0117590Y0039097D01*
X0118457Y0039143D01*
X0119323Y0039210D01*
X0120186Y0039298D01*
X0121047Y0039408D01*
X0121905Y0039538D01*
X0122760Y0039689D01*
X0115279Y0032602D02*
X0115206Y0032292D01*
X0115126Y0031985D01*
X0115037Y0031679D01*
X0114942Y0031375D01*
X0114839Y0031074D01*
X0114729Y0030776D01*
X0114612Y0030480D01*
X0114487Y0030187D01*
X0114356Y0029897D01*
X0114218Y0029611D01*
X0114072Y0029328D01*
X0113920Y0029049D01*
X0113761Y0028773D01*
X0113595Y0028501D01*
X0113423Y0028234D01*
X0113245Y0027971D01*
X0113060Y0027712D01*
X0112869Y0027457D01*
X0112672Y0027208D01*
X0112468Y0026963D01*
X0112259Y0026723D01*
X0112044Y0026488D01*
X0111824Y0026259D01*
X0111598Y0026035D01*
X0111367Y0025817D01*
X0111130Y0025604D01*
X0110888Y0025397D01*
X0110642Y0025196D01*
X0110390Y0025001D01*
X0110134Y0024812D01*
X0109874Y0024630D01*
X0109609Y0024454D01*
X0109340Y0024284D01*
X0109067Y0024121D01*
X0108790Y0023964D01*
X0108509Y0023815D01*
X0108224Y0023672D01*
X0107937Y0023536D01*
X0107646Y0023407D01*
X0107352Y0023286D01*
X0107055Y0023171D01*
X0106756Y0023064D01*
X0106454Y0022963D01*
X0106149Y0022871D01*
X0105843Y0022785D01*
X0105534Y0022708D01*
X0105224Y0022637D01*
X0104912Y0022575D01*
X0104599Y0022519D01*
X0104284Y0022472D01*
X0103969Y0022432D01*
X0103652Y0022399D01*
X0103335Y0022375D01*
X0103017Y0022358D01*
X0102699Y0022349D01*
X0102381Y0022347D01*
X0102063Y0022354D01*
X0101745Y0022368D01*
X0101428Y0022389D01*
X0101111Y0022419D01*
X0100795Y0022456D01*
X0100480Y0022500D01*
X0100166Y0022553D01*
X0099854Y0022613D01*
X0099543Y0022680D01*
X0099234Y0022755D01*
X0098927Y0022838D01*
X0098621Y0022927D01*
X0098318Y0023025D01*
X0098018Y0023129D01*
X0097720Y0023241D01*
X0097425Y0023360D01*
X0097133Y0023486D01*
X0096844Y0023620D01*
X0096559Y0023760D01*
X0096276Y0023907D01*
X0095998Y0024061D01*
X0095723Y0024221D01*
X0095453Y0024389D01*
X0095186Y0024562D01*
X0094924Y0024742D01*
X0094666Y0024929D01*
X0094413Y0025121D01*
X0094413Y0025122D02*
X0094319Y0025224D01*
X0094221Y0025324D01*
X0094121Y0025421D01*
X0094018Y0025515D01*
X0093912Y0025606D01*
X0093804Y0025694D01*
X0093693Y0025779D01*
X0093580Y0025860D01*
X0093464Y0025939D01*
X0093347Y0026014D01*
X0093227Y0026085D01*
X0093106Y0026154D01*
X0092982Y0026218D01*
X0092857Y0026280D01*
X0092730Y0026337D01*
X0092601Y0026391D01*
X0092471Y0026442D01*
X0092340Y0026488D01*
X0092207Y0026531D01*
X0092073Y0026570D01*
X0091938Y0026606D01*
X0091802Y0026637D01*
X0091666Y0026665D01*
X0091528Y0026688D01*
X0091390Y0026708D01*
X0091252Y0026724D01*
X0091113Y0026736D01*
X0090973Y0026744D01*
X0090834Y0026748D01*
X0090694Y0026747D01*
X0090555Y0026744D01*
X0090416Y0026736D01*
X0090277Y0026724D01*
X0090138Y0026708D01*
X0090000Y0026688D01*
X0089863Y0026664D01*
X0089726Y0026637D01*
X0089590Y0026605D01*
X0089455Y0026570D01*
X0089321Y0026531D01*
X0089189Y0026488D01*
X0089057Y0026441D01*
X0088927Y0026391D01*
X0088799Y0026337D01*
X0088672Y0026279D01*
X0088546Y0026218D01*
X0088423Y0026153D01*
X0088301Y0026085D01*
X0088182Y0026013D01*
X0088064Y0025938D01*
X0087949Y0025859D01*
X0087836Y0025778D01*
X0087725Y0025693D01*
X0087617Y0025605D01*
X0087511Y0025514D01*
X0087408Y0025420D01*
X0087308Y0025323D01*
X0087210Y0025223D01*
X0087116Y0025121D01*
X0087024Y0025016D01*
X0086935Y0024908D01*
X0086850Y0024798D01*
X0086767Y0024685D01*
X0086688Y0024571D01*
X0086612Y0024454D01*
X0086539Y0024335D01*
X0092445Y0016854D02*
X0092819Y0016669D01*
X0093198Y0016492D01*
X0093581Y0016325D01*
X0093968Y0016168D01*
X0094358Y0016019D01*
X0094753Y0015881D01*
X0095150Y0015752D01*
X0095550Y0015633D01*
X0095954Y0015523D01*
X0096360Y0015424D01*
X0096768Y0015334D01*
X0097178Y0015255D01*
X0097590Y0015186D01*
X0098004Y0015126D01*
X0098418Y0015077D01*
X0098834Y0015038D01*
X0099251Y0015009D01*
X0099669Y0014990D01*
X0100086Y0014982D01*
X0100504Y0014983D01*
X0100922Y0014995D01*
X0101339Y0015017D01*
X0101756Y0015049D01*
X0102171Y0015092D01*
X0102586Y0015144D01*
X0102999Y0015207D01*
X0103411Y0015280D01*
X0103820Y0015363D01*
X0104227Y0015455D01*
X0104632Y0015558D01*
X0105035Y0015671D01*
X0105434Y0015793D01*
X0105831Y0015925D01*
X0106224Y0016067D01*
X0112523Y0012131D02*
X0111472Y0012356D01*
X0110415Y0012557D01*
X0109354Y0012732D01*
X0108288Y0012883D01*
X0107220Y0013008D01*
X0106149Y0013108D01*
X0105076Y0013183D01*
X0104002Y0013232D01*
X0102926Y0013256D01*
X0101851Y0013255D01*
X0100775Y0013229D01*
X0099701Y0013177D01*
X0098628Y0013099D01*
X0097557Y0012997D01*
X0096489Y0012869D01*
X0095425Y0012716D01*
X0094364Y0012538D01*
X0093307Y0012335D01*
X0092256Y0012107D01*
X0091211Y0011854D01*
X0090171Y0011577D01*
X0089139Y0011276D01*
X0088114Y0010950D01*
X0069217Y0040083D02*
X0068230Y0040072D01*
X0067243Y0040039D01*
X0066258Y0039984D01*
X0065274Y0039908D01*
X0064291Y0039809D01*
X0063312Y0039689D01*
X0041658Y0016067D02*
X0041546Y0015964D01*
X0041436Y0015858D01*
X0041329Y0015749D01*
X0041226Y0015637D01*
X0041125Y0015523D01*
X0041027Y0015406D01*
X0040932Y0015287D01*
X0040841Y0015165D01*
X0040752Y0015041D01*
X0040667Y0014915D01*
X0040585Y0014787D01*
X0040506Y0014656D01*
X0040431Y0014524D01*
X0040360Y0014389D01*
X0040292Y0014253D01*
X0040227Y0014115D01*
X0040166Y0013975D01*
X0040109Y0013834D01*
X0040055Y0013691D01*
X0040005Y0013547D01*
X0039959Y0013402D01*
X0039917Y0013256D01*
X0039878Y0013108D01*
X0039844Y0012960D01*
X0039813Y0012811D01*
X0039786Y0012661D01*
X0039763Y0012510D01*
X0039744Y0012359D01*
X0039729Y0012207D01*
X0039718Y0012056D01*
X0039710Y0011903D01*
X0039707Y0011751D01*
X0039708Y0011599D01*
X0039713Y0011446D01*
X0039721Y0011294D01*
X0039734Y0011142D01*
X0039750Y0010991D01*
X0039771Y0010840D01*
X0039795Y0010690D01*
X0039823Y0010540D01*
X0039855Y0010391D01*
X0039891Y0010243D01*
X0039931Y0010096D01*
X0039975Y0009950D01*
X0040022Y0009805D01*
X0040073Y0009662D01*
X0040128Y0009519D01*
X0040187Y0009379D01*
X0040249Y0009240D01*
X0040315Y0009102D01*
X0040384Y0008967D01*
X0040457Y0008833D01*
X0040533Y0008701D01*
X0040613Y0008571D01*
X0040696Y0008443D01*
X0040782Y0008318D01*
X0040872Y0008195D01*
X0040964Y0008074D01*
X0041060Y0007955D01*
X0041159Y0007839D01*
X0041261Y0007726D01*
X0041366Y0007615D01*
X0041473Y0007508D01*
X0041584Y0007403D01*
X0041697Y0007300D01*
X0041812Y0007201D01*
X0041931Y0007105D01*
X0042051Y0007012D01*
X0049925Y0036932D02*
X0051086Y0036977D01*
X0052248Y0036995D01*
X0053410Y0036984D01*
X0054571Y0036946D01*
X0055731Y0036880D01*
X0056889Y0036786D01*
X0058044Y0036664D01*
X0059196Y0036515D01*
X0060345Y0036338D01*
X0061488Y0036134D01*
X0062627Y0035902D01*
X0063760Y0035643D01*
X0064886Y0035358D01*
X0034177Y0083784D02*
X0034145Y0084122D01*
X0034105Y0084460D01*
X0034057Y0084796D01*
X0034001Y0085131D01*
X0033937Y0085465D01*
X0033864Y0085797D01*
X0033784Y0086127D01*
X0033695Y0086455D01*
X0033599Y0086781D01*
X0033494Y0087104D01*
X0033382Y0087425D01*
X0033262Y0087743D01*
X0033134Y0088058D01*
X0032998Y0088370D01*
X0032855Y0088678D01*
X0032705Y0088983D01*
X0032547Y0089284D01*
X0032381Y0089581D01*
X0032209Y0089873D01*
X0032029Y0090162D01*
X0031843Y0090446D01*
X0031650Y0090726D01*
X0031449Y0091000D01*
X0031242Y0091270D01*
X0031029Y0091534D01*
X0030809Y0091794D01*
X0030583Y0092048D01*
X0030351Y0092296D01*
X0030113Y0092538D01*
X0029869Y0092775D01*
X0029619Y0093005D01*
X0029364Y0093230D01*
X0029104Y0093448D01*
X0028838Y0093660D01*
X0028567Y0093865D01*
X0028291Y0094063D01*
X0028010Y0094255D01*
X0027725Y0094440D01*
X0027435Y0094618D01*
X0027141Y0094788D01*
X0026843Y0094952D01*
X0026542Y0095108D01*
X0026236Y0095256D01*
X0025927Y0095398D01*
X0025614Y0095531D01*
X0025299Y0095657D01*
X0024980Y0095775D01*
X0024658Y0095886D01*
X0024334Y0095988D01*
X0024335Y0104256D02*
X0034965Y0095201D01*
X0036539Y0102287D02*
X0025122Y0110161D01*
X0020791Y0111736D02*
X0020797Y0111931D01*
X0020808Y0112126D01*
X0020824Y0112321D01*
X0020845Y0112516D01*
X0020871Y0112709D01*
X0020901Y0112902D01*
X0020936Y0113095D01*
X0020975Y0113286D01*
X0021019Y0113476D01*
X0021068Y0113666D01*
X0021122Y0113854D01*
X0021180Y0114040D01*
X0021242Y0114225D01*
X0021309Y0114409D01*
X0021380Y0114591D01*
X0021456Y0114771D01*
X0021537Y0114949D01*
X0021621Y0115125D01*
X0021710Y0115299D01*
X0021803Y0115471D01*
X0021900Y0115641D01*
X0022001Y0115808D01*
X0022107Y0115973D01*
X0022216Y0116135D01*
X0022329Y0116294D01*
X0022446Y0116450D01*
X0022567Y0116604D01*
X0022692Y0116754D01*
X0022820Y0116902D01*
X0022952Y0117046D01*
X0023087Y0117187D01*
X0023225Y0117325D01*
X0023367Y0117459D01*
X0023513Y0117590D01*
X0023661Y0117718D01*
X0023812Y0117841D01*
X0023967Y0117961D01*
X0024124Y0118077D01*
X0024284Y0118189D01*
X0024446Y0118298D01*
X0024612Y0118402D01*
X0024779Y0118502D01*
X0024950Y0118598D01*
X0025122Y0118690D01*
X0025297Y0118778D01*
X0025473Y0118861D01*
X0025652Y0118941D01*
X0025833Y0119015D01*
X0026015Y0119086D01*
X0026199Y0119151D01*
X0026385Y0119213D01*
X0026571Y0119270D01*
X0026760Y0119322D01*
X0026949Y0119369D01*
X0027140Y0119412D01*
X0027332Y0119451D01*
X0027524Y0119484D01*
X0027717Y0119513D01*
X0027911Y0119538D01*
X0028106Y0119557D01*
X0028301Y0119572D01*
X0028496Y0119582D01*
X0028691Y0119587D01*
X0028887Y0119588D01*
X0029082Y0119583D01*
X0029277Y0119574D01*
X0029472Y0119561D01*
X0029667Y0119542D01*
X0029861Y0119519D01*
X0030054Y0119491D01*
X0030247Y0119458D01*
X0030438Y0119421D01*
X0030629Y0119379D01*
X0030819Y0119332D01*
X0031008Y0119281D01*
X0031195Y0119225D01*
X0031381Y0119164D01*
X0031565Y0119100D01*
X0031748Y0119030D01*
X0031929Y0118956D01*
X0032108Y0118878D01*
X0032285Y0118796D01*
X0032460Y0118709D01*
X0032633Y0118618D01*
X0032804Y0118522D01*
X0032972Y0118423D01*
X0033138Y0118320D01*
X0033301Y0118212D01*
X0033461Y0118101D01*
X0033619Y0117985D01*
X0033774Y0117866D01*
X0033926Y0117743D01*
X0034075Y0117617D01*
X0034221Y0117487D01*
X0034363Y0117353D01*
X0034503Y0117216D01*
X0034639Y0117076D01*
X0034771Y0116932D01*
X0034900Y0116785D01*
X0035025Y0116635D01*
X0035147Y0116482D01*
X0035265Y0116326D01*
X0035379Y0116168D01*
X0035489Y0116006D01*
X0035595Y0115842D01*
X0035697Y0115676D01*
X0035795Y0115507D01*
X0035889Y0115335D01*
X0035979Y0115162D01*
X0036064Y0114986D01*
X0036145Y0114808D01*
X0036222Y0114628D01*
X0036295Y0114447D01*
X0036362Y0114263D01*
X0036426Y0114079D01*
X0036485Y0113892D01*
X0036539Y0113705D01*
X0020791Y0111736D02*
X0020791Y0083783D01*
X0017248Y0086540D02*
X0017177Y0086427D01*
X0017103Y0086317D01*
X0017026Y0086209D01*
X0016946Y0086103D01*
X0016863Y0086000D01*
X0016776Y0085899D01*
X0016687Y0085801D01*
X0016595Y0085705D01*
X0016500Y0085612D01*
X0016402Y0085522D01*
X0016302Y0085435D01*
X0016199Y0085351D01*
X0016094Y0085270D01*
X0015987Y0085192D01*
X0015877Y0085117D01*
X0015765Y0085046D01*
X0015651Y0084978D01*
X0015535Y0084913D01*
X0015417Y0084852D01*
X0015298Y0084794D01*
X0015177Y0084740D01*
X0015054Y0084690D01*
X0014930Y0084643D01*
X0014804Y0084599D01*
X0014678Y0084560D01*
X0014550Y0084524D01*
X0014421Y0084492D01*
X0014291Y0084464D01*
X0014161Y0084440D01*
X0014030Y0084419D01*
X0013898Y0084403D01*
X0013766Y0084390D01*
X0013633Y0084381D01*
X0013501Y0084376D01*
X0013368Y0084375D01*
X0013235Y0084378D01*
X0013103Y0084385D01*
X0012970Y0084396D01*
X0012838Y0084410D01*
X0012707Y0084429D01*
X0012576Y0084451D01*
X0012446Y0084477D01*
X0012317Y0084508D01*
X0012188Y0084541D01*
X0012061Y0084579D01*
X0011935Y0084620D01*
X0011810Y0084666D01*
X0011687Y0084714D01*
X0011565Y0084767D01*
X0011444Y0084823D01*
X0011326Y0084882D01*
X0011209Y0084945D01*
X0011094Y0085011D01*
X0010981Y0085081D01*
X0010870Y0085154D01*
X0010761Y0085230D01*
X0010655Y0085310D01*
X0010551Y0085392D01*
X0010450Y0085478D01*
X0010351Y0085567D01*
X0010254Y0085658D01*
X0010161Y0085752D01*
X0082602Y0086145D02*
X0082500Y0089542D01*
X0082319Y0092935D01*
X0082062Y0096323D01*
X0081727Y0099704D01*
X0081316Y0103077D01*
X0080827Y0106440D01*
X0080263Y0109790D01*
X0079622Y0113127D01*
X0078905Y0116449D01*
X0078113Y0119753D01*
X0077245Y0123038D01*
X0076303Y0126303D01*
X0066854Y0125122D02*
X0066345Y0124819D01*
X0065844Y0124504D01*
X0065351Y0124177D01*
X0064865Y0123838D01*
X0064389Y0123487D01*
X0063921Y0123125D01*
X0063462Y0122751D01*
X0063012Y0122367D01*
X0062572Y0121971D01*
X0062141Y0121565D01*
X0061721Y0121148D01*
X0061310Y0120722D01*
X0060911Y0120285D01*
X0060522Y0119839D01*
X0060144Y0119383D01*
X0059777Y0118919D01*
X0059422Y0118445D01*
X0059078Y0117963D01*
X0058747Y0117473D01*
X0058427Y0116975D01*
X0058120Y0116469D01*
X0057825Y0115956D01*
X0057542Y0115435D01*
X0057273Y0114908D01*
X0057016Y0114375D01*
X0056773Y0113836D01*
X0056542Y0113290D01*
X0056325Y0112740D01*
X0056122Y0112184D01*
X0055932Y0111623D01*
X0055756Y0111058D01*
X0055594Y0110489D01*
X0055446Y0109916D01*
X0055311Y0109339D01*
X0055191Y0108760D01*
X0055085Y0108177D01*
X0054993Y0107593D01*
X0054916Y0107006D01*
X0054853Y0106417D01*
X0054804Y0105827D01*
X0054770Y0105237D01*
X0054750Y0104645D01*
X0054744Y0104053D01*
X0054753Y0103461D01*
X0054776Y0102870D01*
X0054814Y0102279D01*
X0054866Y0101689D01*
X0054933Y0101101D01*
X0055014Y0100515D01*
X0055109Y0099931D01*
X0055219Y0099349D01*
X0055342Y0098770D01*
X0055480Y0098195D01*
X0055631Y0097622D01*
X0055797Y0097054D01*
X0055976Y0096490D01*
X0056169Y0095931D01*
X0056376Y0095376D01*
X0056596Y0094826D01*
X0056830Y0094283D01*
X0057077Y0093745D01*
X0057336Y0093213D01*
X0057609Y0092687D01*
X0057894Y0092169D01*
X0058192Y0091657D01*
X0030633Y0079846D02*
X0030489Y0079839D01*
X0030345Y0079835D01*
X0030200Y0079836D01*
X0030056Y0079840D01*
X0029911Y0079848D01*
X0029767Y0079860D01*
X0029624Y0079876D01*
X0029481Y0079896D01*
X0029338Y0079920D01*
X0029196Y0079948D01*
X0029055Y0079979D01*
X0028915Y0080014D01*
X0028776Y0080053D01*
X0028638Y0080096D01*
X0028501Y0080142D01*
X0028366Y0080192D01*
X0028232Y0080246D01*
X0028099Y0080304D01*
X0027968Y0080365D01*
X0027839Y0080429D01*
X0027711Y0080497D01*
X0027585Y0080568D01*
X0027462Y0080643D01*
X0027340Y0080721D01*
X0027221Y0080803D01*
X0027104Y0080887D01*
X0026989Y0080975D01*
X0026876Y0081066D01*
X0026766Y0081159D01*
X0026659Y0081256D01*
X0026554Y0081356D01*
X0026452Y0081458D01*
X0026353Y0081563D01*
X0026257Y0081671D01*
X0026163Y0081781D01*
X0026073Y0081894D01*
X0025986Y0082009D01*
X0025902Y0082127D01*
X0025821Y0082246D01*
X0025743Y0082368D01*
X0025669Y0082492D01*
X0025598Y0082618D01*
X0025530Y0082746D01*
X0025466Y0082875D01*
X0025406Y0083006D01*
X0025349Y0083139D01*
X0025296Y0083274D01*
X0025246Y0083409D01*
X0025200Y0083546D01*
X0025158Y0083684D01*
X0025119Y0083824D01*
X0025085Y0083964D01*
X0025054Y0084105D01*
X0025027Y0084247D01*
X0025003Y0084390D01*
X0024984Y0084533D01*
X0024968Y0084677D01*
X0024957Y0084821D01*
X0024949Y0084965D01*
X0024945Y0085109D01*
X0024946Y0085254D01*
X0024950Y0085398D01*
X0024958Y0085543D01*
X0024969Y0085687D01*
X0024985Y0085830D01*
X0025005Y0085973D01*
X0025028Y0086116D01*
X0025055Y0086258D01*
X0025087Y0086399D01*
X0025122Y0086539D01*
X0054649Y0091658D02*
X0053881Y0094761D01*
X0053037Y0097844D01*
X0052117Y0100905D01*
X0051123Y0103943D01*
X0050055Y0106956D01*
X0048913Y0109942D01*
X0047698Y0112899D01*
X0046412Y0115825D01*
X0045054Y0118719D01*
X0043626Y0121579D01*
X0112220Y0127484D02*
X0112593Y0122484D01*
X0112220Y0111736D02*
X0112593Y0106736D01*
X0112199Y0138232D02*
X0112220Y0143232D01*
X0112199Y0153980D02*
X0112220Y0158980D01*
X0190961Y0143232D02*
X0190939Y0138232D01*
X0197957Y0148119D02*
X0213705Y0148119D01*
X0213705Y0158980D01*
X0213614Y0158980D01*
X0206709Y0158980D02*
X0206687Y0153980D01*
X0206709Y0143232D02*
X0206687Y0138232D01*
X0213614Y0143232D02*
X0213705Y0143232D01*
X0213705Y0132565D01*
X0206709Y0127484D02*
X0206687Y0122484D01*
X0190939Y0122484D02*
X0190961Y0127484D01*
X0190961Y0111736D02*
X0190939Y0106736D01*
X0190961Y0095988D02*
X0190939Y0090988D01*
X0190961Y0080240D02*
X0190939Y0075240D01*
X0175191Y0075240D02*
X0175213Y0080240D01*
X0159443Y0090988D02*
X0159465Y0095988D01*
X0175213Y0064492D02*
X0175191Y0059492D01*
X0175213Y0048744D02*
X0170720Y0045747D01*
X0159443Y0043744D02*
X0159465Y0048744D01*
X0051500Y0063705D02*
X0050722Y0064983D01*
X0049915Y0066244D01*
X0049078Y0067484D01*
X0048213Y0068705D01*
X0047319Y0069906D01*
X0046397Y0071085D01*
X0045448Y0072242D01*
X0044472Y0073376D01*
X0043469Y0074487D01*
X0042441Y0075575D01*
X0041387Y0076638D01*
X0040309Y0077676D01*
X0039207Y0078688D01*
X0038081Y0079674D01*
X0036933Y0080634D01*
X0037327Y0055043D02*
X0037446Y0052604D01*
X0037506Y0050162D01*
X0037506Y0047720D01*
X0037446Y0045278D01*
X0037327Y0042839D01*
X0034176Y0040476D02*
X0033651Y0046978D01*
X0032995Y0053468D01*
X0029846Y0053074D02*
X0028882Y0053819D01*
X0027901Y0054540D01*
X0026903Y0055239D01*
X0025890Y0055915D01*
X0024861Y0056567D01*
X0023817Y0057195D01*
X0022759Y0057799D01*
M02*
