%
M48
M72
T01C0.02362
T02C0.05118
T03C0.06700
T04C0.12205
%
T01
X25122Y25516
X21579Y29846
X21972Y35752
X22366Y42051
X30240Y38114
X37327Y42839
X26697Y48744
X29846Y53075
X37327Y55043
X20791Y53862
X51106Y42445
X49925Y36933
X62524Y32209
X64886Y25516
X73547Y18035
X92445Y16854
X115280Y32602
X112593Y43744
X99207Y43350
X86933Y58193
X86146Y64886
X88508Y75122
X96451Y75240
X112593Y75240
X128735Y75240
X143695Y75240
X159443Y75240
X175191Y75240
X190939Y75240
X206687Y75240
X206687Y59492
X190939Y59492
X175191Y59492
X159443Y59492
X143695Y59492
X128735Y59492
X112593Y59492
X98813Y59492
X128735Y43744
X133390Y38114
X143695Y43744
X159443Y43744
X170720Y45747
X190939Y43744
X206687Y43744
X161343Y20398
X144807Y8193
X142445Y20791
X67002Y51550
X65673Y57799
X60314Y64354
X51500Y63705
X51894Y70398
X42839Y79453
X36933Y80634
X30634Y79846
X25122Y86539
X20791Y83783
X17248Y86539
X10161Y85752
X24335Y95988
X24335Y104256
X25122Y110161
X36539Y113705
X36539Y102287
X34965Y95201
X48744Y87720
X58193Y91657
X88114Y89295
X96451Y90988
X112593Y90988
X128735Y90988
X143695Y90988
X159443Y90988
X175191Y90988
X190939Y90988
X206687Y90988
X206687Y106736
X190939Y106736
X175191Y106736
X159443Y106736
X143695Y106736
X128341Y106736
X112593Y106736
X96451Y106736
X88114Y105043
X86933Y117642
X83390Y125516
X76303Y126303
X65536Y140377
X74335Y142051
X73154Y157406
X96451Y153980
X112199Y153980
X128341Y153980
X143695Y153980
X159443Y153980
X175191Y153980
X190939Y153980
X206687Y153980
X206687Y138232
X190939Y138232
X175191Y138232
X159443Y138232
X143695Y138232
X128341Y138232
X112199Y138232
X96451Y138232
X96451Y122484
X112593Y122484
X128341Y122484
X143695Y122484
X159443Y122484
X175191Y122484
X190939Y122484
X206687Y122484
X62524Y43232
X49531Y25122
X42051Y7012
X50319Y129059
T02
X84177Y134374
X84177Y159965
X187917Y29059
X213508Y29059
T03
X40870Y158980
X29059Y158980
T04
X210161Y13311
X13311Y158980
M30
